<?xml version="1.0" encoding="UTF-8"?>
<svg id="_レイヤー_1" data-name="レイヤー 1" xmlns="http://www.w3.org/2000/svg" xmlns:xlink="http://www.w3.org/1999/xlink" viewBox="0 0 1069.809 479.398">
  <defs>
    <style>
      .cls-1, .cls-2 {
        fill: #fff;
      }

      .cls-3 {
        fill: none;
        stroke-width: 10px;
      }

      .cls-3, .cls-2 {
        stroke: #000;
      }

      .cls-2 {
        filter: url(#drop-shadow-1);
        stroke-miterlimit: 10;
        stroke-width: 12px;
      }

      .cls-4 {
        fill: #ff0606;
      }
    </style>
    <filter id="drop-shadow-1" filterUnits="userSpaceOnUse">
      <feOffset dx="10" dy="10"/>
      <feGaussianBlur result="blur" stdDeviation="0"/>
      <feFlood flood-color="#000" flood-opacity="1"/>
      <feComposite in2="blur" operator="in"/>
      <feComposite in="SourceGraphic"/>
    </filter>
  </defs>
  <polygon class="cls-2" points="1052.995 451.675 75.688 463.367 6.628 390.123 84.716 83.115 1003.227 66.384 1052.995 451.675"/>
  <g>
    <polygon points="748.303 120.125 295.779 132.768 282.559 25.481 774.242 0 748.303 120.125"/>
    <g>
      <path class="cls-1" d="M372.104,67.396c-6.278,30.723-19.458,39.007-54.958,39.077l1.604-24.494c21.465-.07,26.267-2.901,28.856-14.583h-3.973c-1.812,3.893-3.474,6.938-5.094,8.99l-23.738-2.052c5.585-7.646,13.771-25.91,15.531-34.76h23.9c-.263,1.487-.627,3.186-1.317,5.593h17.479c.598,2.619,1.112,4.955,1.49,8.07l12.285-3.964-3.196,18.123h-8.871Zm1.593-16.919c-.349-2.903-1.004-5.947-1.829-8.778l4.674-1.346c.957,2.833,1.571,5.735,2.115,8.283l-4.959,1.841Zm7.14-2.195c-.374-2.76-.946-5.521-1.838-8.353l4.529-1.274c.899,2.406,1.646,5.309,2.165,7.999l-4.855,1.628Z"/>
      <path class="cls-1" d="M380.08,85.236l4.457-25.273h63.956l-4.457,25.273h-63.956Z"/>
      <path class="cls-1" d="M480.424,106.403c.1-.566,.147-1.204,.347-2.336-11.514,.708-22.66,.85-36.829,.85l3.057-23.715h2.516c5.369-15.433,9.526-30.371,12.052-41.697l23.81,1.274c-2.32,10.902-6.344,25.839-11,39.856,3.323-.071,5.93-.213,9.079-.425,1.274-13.238,2.405-26.405,2.74-34.688l24.784-2.761c-.072,15.433-2.466,46.651-4.099,62.297l-26.456,1.346Z"/>
      <path class="cls-1" d="M508.765,100.739c6.894-17.698,13.119-44.741,16.04-61.307l24.71,1.416c-2.913,16.141-9.199,47.29-16.14,65.624l-24.611-5.733Zm43.436-61.235h25.755l-5.192,29.449c1.942-.496,5.994-1.699,7.758-2.69l-5.442,30.866c-8.445,3.964-23.42,7.787-34.661,9.203l11.783-66.828Z"/>
      <path class="cls-1" d="M578.698,85.236l4.456-25.273h63.956l-4.456,25.273h-63.956Z"/>
      <path class="cls-1" d="M641.177,100.739c6.894-17.698,13.119-44.741,16.04-61.307l24.711,1.416c-2.913,16.141-9.199,47.29-16.14,65.624l-24.611-5.733Zm43.437-61.235h25.755l-5.192,29.449c1.942-.496,5.994-1.699,7.758-2.69l-5.442,30.866c-8.445,3.964-23.42,7.787-34.661,9.203l11.783-66.828Z"/>
    </g>
  </g>
  <g>
    <path d="M325.643,260.743c0,39.44-103.384,95.906-142.824,95.906s-60.717-94.415-60.717-133.854,63.021-46.228,102.461-46.228,101.081,44.737,101.081,84.176Z"/>
    <g>
      <g>
        <path class="cls-3" d="M168.756,224.399c4.691,0,8.496-3.804,8.496-8.496s-3.805-8.496-8.496-8.496-8.496,3.804-8.496,8.496,3.804,8.496,8.496,8.496Z"/>
        <path class="cls-3" d="M216.829,269.005l-17.186-.756-.541-12.154c-.021-.244-.061-.48-.111-.715-.304-3.08-1.174-6.332-2.469-8.313-1.372-2.099-5.596-9.222-6.903-11.43l6.385-1.202,11.328,10.372c1.291,1.291,3.385,1.291,4.675,0,1.291-1.291,1.292-3.384,0-4.676l-10.353-11.448c-1.008-1.224-2.015-2.159-3.921-2.437,0,0-20.401-.958-24.143-.095-2.337,.54-6.332,2.015-8.231,5.347l-5.989,9.109-14.22,.653c-1.826,0-3.307,1.48-3.307,3.306s1.48,3.306,3.307,3.306l16.352,.75c.019,0,.037-.003,.056-.003,1.277,.018,2.542-.564,3.347-1.678l5.223-6.598s.007,.008,.007,.008c.03-.045,.06-.088,.089-.129l.24-.304c.438-.479,.697-.381,1.302,.626,1.151,1.919,4.03,7.772,4.797,9.594,.331,.786,.505,1.488,.191,2.419-.025,.04-.054,.075-.077,.115l-7.986,14.647-10.646,19.526c-1.23,2.037-.576,4.687,1.463,5.918,2.037,1.23,4.687,.575,5.917-1.463l12.319-18.515,7.965-11.97c.38-.495,.854-1.147,1-1.503l.276-.416c.02-.032,.035-.066,.054-.1,.155-.069,.308,.091,.365,.649,0,.003,.003,.004,.004,.008l1.897,14.243c.05,.566,.188,1.1,.399,1.595,.783,1.941,2.682,3.313,4.903,3.313l22.219-.979c2.38,0,4.31-1.929,4.31-4.309s-1.93-4.311-4.31-4.311Z"/>
      </g>
      <g>
        <path class="cls-1" d="M168.756,224.399c4.691,0,8.496-3.804,8.496-8.496s-3.805-8.496-8.496-8.496-8.496,3.804-8.496,8.496,3.804,8.496,8.496,8.496Z"/>
        <path class="cls-1" d="M216.829,269.005l-17.186-.756-.541-12.154c-.021-.244-.061-.48-.111-.715-.304-3.08-1.174-6.332-2.469-8.313-1.372-2.099-5.596-9.222-6.903-11.43l6.385-1.202,11.328,10.372c1.291,1.291,3.385,1.291,4.675,0,1.291-1.291,1.292-3.384,0-4.676l-10.353-11.448c-1.008-1.224-2.015-2.159-3.921-2.437,0,0-20.401-.958-24.143-.095-2.337,.54-6.332,2.015-8.231,5.347l-5.989,9.109-14.22,.653c-1.826,0-3.307,1.48-3.307,3.306s1.48,3.306,3.307,3.306l16.352,.75c.019,0,.037-.003,.056-.003,1.277,.018,2.542-.564,3.347-1.678l5.223-6.598s.007,.008,.007,.008c.03-.045,.06-.088,.089-.129l.24-.304c.438-.479,.697-.381,1.302,.626,1.151,1.919,4.03,7.772,4.797,9.594,.331,.786,.505,1.488,.191,2.419-.025,.04-.054,.075-.077,.115l-7.986,14.647-10.646,19.526c-1.23,2.037-.576,4.687,1.463,5.918,2.037,1.23,4.687,.575,5.917-1.463l12.319-18.515,7.965-11.97c.38-.495,.854-1.147,1-1.503l.276-.416c.02-.032,.035-.066,.054-.1,.155-.069,.308,.091,.365,.649,0,.003,.003,.004,.004,.008l1.897,14.243c.05,.566,.188,1.1,.399,1.595,.783,1.941,2.682,3.313,4.903,3.313l22.219-.979c2.38,0,4.31-1.929,4.31-4.309s-1.93-4.311-4.31-4.311Z"/>
      </g>
      <g>
        <path class="cls-1" d="M168.756,224.399c4.691,0,8.496-3.804,8.496-8.496s-3.805-8.496-8.496-8.496-8.496,3.804-8.496,8.496,3.804,8.496,8.496,8.496Z"/>
        <path class="cls-1" d="M216.829,269.005l-17.186-.756-.541-12.154c-.021-.244-.061-.48-.111-.715-.304-3.08-1.174-6.332-2.469-8.313-1.372-2.099-5.596-9.222-6.903-11.43l6.385-1.202,11.328,10.372c1.291,1.291,3.385,1.291,4.675,0,1.291-1.291,1.292-3.384,0-4.676l-10.353-11.448c-1.008-1.224-2.015-2.159-3.921-2.437,0,0-20.401-.958-24.143-.095-2.337,.54-6.332,2.015-8.231,5.347l-5.989,9.109-14.22,.653c-1.826,0-3.307,1.48-3.307,3.306s1.48,3.306,3.307,3.306l16.352,.75c.019,0,.037-.003,.056-.003,1.277,.018,2.542-.564,3.347-1.678l5.223-6.598s.007,.008,.007,.008c.03-.045,.06-.088,.089-.129l.24-.304c.438-.479,.697-.381,1.302,.626,1.151,1.919,4.03,7.772,4.797,9.594,.331,.786,.505,1.488,.191,2.419-.025,.04-.054,.075-.077,.115l-7.986,14.647-10.646,19.526c-1.23,2.037-.576,4.687,1.463,5.918,2.037,1.23,4.687,.575,5.917-1.463l12.319-18.515,7.965-11.97c.38-.495,.854-1.147,1-1.503l.276-.416c.02-.032,.035-.066,.054-.1,.155-.069,.308,.091,.365,.649,0,.003,.003,.004,.004,.008l1.897,14.243c.05,.566,.188,1.1,.399,1.595,.783,1.941,2.682,3.313,4.903,3.313l22.219-.979c2.38,0,4.31-1.929,4.31-4.309s-1.93-4.311-4.31-4.311Z"/>
      </g>
    </g>
    <g>
      <g>
        <path class="cls-3" d="M204.162,230.029c4.691,0,8.496-3.804,8.496-8.496s-3.805-8.496-8.496-8.496-8.496,3.804-8.496,8.496,3.804,8.496,8.496,8.496Z"/>
        <path class="cls-3" d="M252.235,274.634l-17.186-.756-.541-12.154c-.021-.244-.061-.48-.111-.715-.304-3.08-1.174-6.332-2.469-8.313-1.372-2.099-5.596-9.222-6.903-11.43l6.385-1.202,11.328,10.372c1.291,1.291,3.385,1.291,4.675,0,1.291-1.291,1.292-3.384,0-4.676l-10.353-11.448c-1.008-1.224-2.015-2.159-3.921-2.437,0,0-20.401-.958-24.143-.095-2.337,.54-6.332,2.015-8.231,5.347l-5.989,9.109-14.22,.653c-1.826,0-3.307,1.48-3.307,3.306s1.48,3.306,3.307,3.306l16.352,.75c.019,0,.037-.003,.056-.003,1.277,.018,2.542-.564,3.347-1.678l5.223-6.598s.007,.008,.007,.008c.03-.045,.06-.088,.089-.129l.24-.304c.438-.479,.697-.381,1.302,.626,1.151,1.919,4.03,7.772,4.797,9.594,.331,.786,.505,1.488,.191,2.419-.025,.04-.054,.075-.077,.115l-7.986,14.647-10.646,19.526c-1.23,2.037-.576,4.687,1.463,5.918,2.037,1.23,4.687,.575,5.917-1.463l12.319-18.515,7.965-11.97c.38-.495,.854-1.147,1-1.503l.276-.416c.02-.032,.035-.066,.054-.1,.155-.069,.308,.091,.365,.649,0,.003,.003,.004,.004,.008l1.897,14.243c.05,.566,.188,1.1,.399,1.595,.783,1.941,2.682,3.313,4.903,3.313l22.219-.979c2.38,0,4.31-1.929,4.31-4.309s-1.93-4.311-4.31-4.311Z"/>
      </g>
      <g>
        <path class="cls-1" d="M204.162,230.029c4.691,0,8.496-3.804,8.496-8.496s-3.805-8.496-8.496-8.496-8.496,3.804-8.496,8.496,3.804,8.496,8.496,8.496Z"/>
        <path class="cls-1" d="M252.235,274.634l-17.186-.756-.541-12.154c-.021-.244-.061-.48-.111-.715-.304-3.08-1.174-6.332-2.469-8.313-1.372-2.099-5.596-9.222-6.903-11.43l6.385-1.202,11.328,10.372c1.291,1.291,3.385,1.291,4.675,0,1.291-1.291,1.292-3.384,0-4.676l-10.353-11.448c-1.008-1.224-2.015-2.159-3.921-2.437,0,0-20.401-.958-24.143-.095-2.337,.54-6.332,2.015-8.231,5.347l-5.989,9.109-14.22,.653c-1.826,0-3.307,1.48-3.307,3.306s1.48,3.306,3.307,3.306l16.352,.75c.019,0,.037-.003,.056-.003,1.277,.018,2.542-.564,3.347-1.678l5.223-6.598s.007,.008,.007,.008c.03-.045,.06-.088,.089-.129l.24-.304c.438-.479,.697-.381,1.302,.626,1.151,1.919,4.03,7.772,4.797,9.594,.331,.786,.505,1.488,.191,2.419-.025,.04-.054,.075-.077,.115l-7.986,14.647-10.646,19.526c-1.23,2.037-.576,4.687,1.463,5.918,2.037,1.23,4.687,.575,5.917-1.463l12.319-18.515,7.965-11.97c.38-.495,.854-1.147,1-1.503l.276-.416c.02-.032,.035-.066,.054-.1,.155-.069,.308,.091,.365,.649,0,.003,.003,.004,.004,.008l1.897,14.243c.05,.566,.188,1.1,.399,1.595,.783,1.941,2.682,3.313,4.903,3.313l22.219-.979c2.38,0,4.31-1.929,4.31-4.309s-1.93-4.311-4.31-4.311Z"/>
      </g>
      <g>
        <path class="cls-1" d="M204.162,230.029c4.691,0,8.496-3.804,8.496-8.496s-3.805-8.496-8.496-8.496-8.496,3.804-8.496,8.496,3.804,8.496,8.496,8.496Z"/>
        <path class="cls-1" d="M252.235,274.634l-17.186-.756-.541-12.154c-.021-.244-.061-.48-.111-.715-.304-3.08-1.174-6.332-2.469-8.313-1.372-2.099-5.596-9.222-6.903-11.43l6.385-1.202,11.328,10.372c1.291,1.291,3.385,1.291,4.675,0,1.291-1.291,1.292-3.384,0-4.676l-10.353-11.448c-1.008-1.224-2.015-2.159-3.921-2.437,0,0-20.401-.958-24.143-.095-2.337,.54-6.332,2.015-8.231,5.347l-5.989,9.109-14.22,.653c-1.826,0-3.307,1.48-3.307,3.306s1.48,3.306,3.307,3.306l16.352,.75c.019,0,.037-.003,.056-.003,1.277,.018,2.542-.564,3.347-1.678l5.223-6.598s.007,.008,.007,.008c.03-.045,.06-.088,.089-.129l.24-.304c.438-.479,.697-.381,1.302,.626,1.151,1.919,4.03,7.772,4.797,9.594,.331,.786,.505,1.488,.191,2.419-.025,.04-.054,.075-.077,.115l-7.986,14.647-10.646,19.526c-1.23,2.037-.576,4.687,1.463,5.918,2.037,1.23,4.687,.575,5.917-1.463l12.319-18.515,7.965-11.97c.38-.495,.854-1.147,1-1.503l.276-.416c.02-.032,.035-.066,.054-.1,.155-.069,.308,.091,.365,.649,0,.003,.003,.004,.004,.008l1.897,14.243c.05,.566,.188,1.1,.399,1.595,.783,1.941,2.682,3.313,4.903,3.313l22.219-.979c2.38,0,4.31-1.929,4.31-4.309s-1.93-4.311-4.31-4.311Z"/>
      </g>
    </g>
    <g>
      <g>
        <path class="cls-3" d="M239.568,236.117c4.691,0,8.496-3.804,8.496-8.496s-3.805-8.496-8.496-8.496-8.496,3.804-8.496,8.496,3.804,8.496,8.496,8.496Z"/>
        <path class="cls-3" d="M287.641,280.722l-17.186-.756-.541-12.154c-.021-.244-.061-.48-.111-.715-.304-3.08-1.174-6.332-2.469-8.313-1.372-2.099-5.596-9.222-6.903-11.43l6.385-1.202,11.328,10.372c1.291,1.291,3.385,1.291,4.675,0,1.291-1.291,1.292-3.384,0-4.676l-10.353-11.448c-1.008-1.224-2.015-2.159-3.921-2.437,0,0-20.401-.958-24.143-.095-2.337,.54-6.332,2.015-8.231,5.347l-5.989,9.109-14.22,.653c-1.826,0-3.307,1.48-3.307,3.306s1.48,3.306,3.307,3.306l16.352,.75c.019,0,.037-.003,.056-.003,1.277,.018,2.542-.564,3.347-1.678l5.223-6.598s.007,.008,.007,.008c.03-.045,.06-.088,.089-.129l.24-.304c.438-.479,.697-.381,1.302,.626,1.151,1.919,4.03,7.772,4.797,9.594,.331,.786,.505,1.488,.191,2.419-.025,.04-.054,.075-.077,.115l-7.986,14.647-10.646,19.526c-1.23,2.037-.576,4.687,1.463,5.918,2.037,1.23,4.687,.575,5.917-1.463l12.319-18.515,7.965-11.97c.38-.495,.854-1.147,1-1.503l.276-.416c.02-.032,.035-.066,.054-.1,.155-.069,.308,.091,.365,.649,0,.003,.003,.004,.004,.008l1.897,14.243c.05,.566,.188,1.1,.399,1.595,.783,1.941,2.682,3.313,4.903,3.313l22.219-.979c2.38,0,4.31-1.929,4.31-4.309s-1.93-4.311-4.31-4.311Z"/>
      </g>
      <g>
        <path class="cls-1" d="M239.568,236.117c4.691,0,8.496-3.804,8.496-8.496s-3.805-8.496-8.496-8.496-8.496,3.804-8.496,8.496,3.804,8.496,8.496,8.496Z"/>
        <path class="cls-1" d="M287.641,280.722l-17.186-.756-.541-12.154c-.021-.244-.061-.48-.111-.715-.304-3.08-1.174-6.332-2.469-8.313-1.372-2.099-5.596-9.222-6.903-11.43l6.385-1.202,11.328,10.372c1.291,1.291,3.385,1.291,4.675,0,1.291-1.291,1.292-3.384,0-4.676l-10.353-11.448c-1.008-1.224-2.015-2.159-3.921-2.437,0,0-20.401-.958-24.143-.095-2.337,.54-6.332,2.015-8.231,5.347l-5.989,9.109-14.22,.653c-1.826,0-3.307,1.48-3.307,3.306s1.48,3.306,3.307,3.306l16.352,.75c.019,0,.037-.003,.056-.003,1.277,.018,2.542-.564,3.347-1.678l5.223-6.598s.007,.008,.007,.008c.03-.045,.06-.088,.089-.129l.24-.304c.438-.479,.697-.381,1.302,.626,1.151,1.919,4.03,7.772,4.797,9.594,.331,.786,.505,1.488,.191,2.419-.025,.04-.054,.075-.077,.115l-7.986,14.647-10.646,19.526c-1.23,2.037-.576,4.687,1.463,5.918,2.037,1.23,4.687,.575,5.917-1.463l12.319-18.515,7.965-11.97c.38-.495,.854-1.147,1-1.503l.276-.416c.02-.032,.035-.066,.054-.1,.155-.069,.308,.091,.365,.649,0,.003,.003,.004,.004,.008l1.897,14.243c.05,.566,.188,1.1,.399,1.595,.783,1.941,2.682,3.313,4.903,3.313l22.219-.979c2.38,0,4.31-1.929,4.31-4.309s-1.93-4.311-4.31-4.311Z"/>
      </g>
      <g>
        <path class="cls-1" d="M239.568,236.117c4.691,0,8.496-3.804,8.496-8.496s-3.805-8.496-8.496-8.496-8.496,3.804-8.496,8.496,3.804,8.496,8.496,8.496Z"/>
        <path class="cls-1" d="M287.641,280.722l-17.186-.756-.541-12.154c-.021-.244-.061-.48-.111-.715-.304-3.08-1.174-6.332-2.469-8.313-1.372-2.099-5.596-9.222-6.903-11.43l6.385-1.202,11.328,10.372c1.291,1.291,3.385,1.291,4.675,0,1.291-1.291,1.292-3.384,0-4.676l-10.353-11.448c-1.008-1.224-2.015-2.159-3.921-2.437,0,0-20.401-.958-24.143-.095-2.337,.54-6.332,2.015-8.231,5.347l-5.989,9.109-14.22,.653c-1.826,0-3.307,1.48-3.307,3.306s1.48,3.306,3.307,3.306l16.352,.75c.019,0,.037-.003,.056-.003,1.277,.018,2.542-.564,3.347-1.678l5.223-6.598s.007,.008,.007,.008c.03-.045,.06-.088,.089-.129l.24-.304c.438-.479,.697-.381,1.302,.626,1.151,1.919,4.03,7.772,4.797,9.594,.331,.786,.505,1.488,.191,2.419-.025,.04-.054,.075-.077,.115l-7.986,14.647-10.646,19.526c-1.23,2.037-.576,4.687,1.463,5.918,2.037,1.23,4.687,.575,5.917-1.463l12.319-18.515,7.965-11.97c.38-.495,.854-1.147,1-1.503l.276-.416c.02-.032,.035-.066,.054-.1,.155-.069,.308,.091,.365,.649,0,.003,.003,.004,.004,.008l1.897,14.243c.05,.566,.188,1.1,.399,1.595,.783,1.941,2.682,3.313,4.903,3.313l22.219-.979c2.38,0,4.31-1.929,4.31-4.309s-1.93-4.311-4.31-4.311Z"/>
      </g>
    </g>
  </g>
  <g>
    <path d="M623.337,273.721c0,50.262-24.041,74.518-74.303,74.518s-107.712-24.256-107.712-74.518,29.997-105.564,80.259-105.564,101.756,55.302,101.756,105.564Z"/>
    <g>
      <path class="cls-1" d="M532.33,310.214c-28.681,0-52.013-23.337-52.013-52.015,0-28.678,23.331-52.015,52.013-52.015,28.681,0,52.013,23.337,52.013,52.015,0,28.678-23.331,52.015-52.013,52.015Zm0-89.447c-20.638,0-37.429,16.791-37.429,37.432,0,20.641,16.791,37.426,37.429,37.426s37.429-16.785,37.429-37.426c0-20.641-16.791-37.432-37.429-37.432Z"/>
      <path class="cls-1" d="M550.606,252.951h-13.028s0-17.688,0-17.688c0-3.763-3.046-6.809-6.806-6.809s-6.805,3.046-6.805,6.809v24.49c0,3.763,3.049,6.808,6.805,6.808h19.834c3.754,0,6.802-3.046,6.802-6.808s-3.049-6.802-6.802-6.802Z"/>
    </g>
  </g>
  <g>
    <path d="M426.554,417.554l2.144-12.157h-1.275l-1.69,9.586h-5.102l2.652-15.04h6.377l.261-1.481h-7.032l.961-5.455h3.461l-3.298-1.753c1.949-3.819,2.743-7.91,2.874-8.65l.021-.117,4.72,.506-.46,2.611h1.021l.55-3.117h5.83l-.55,3.117h5.575l-.962,5.455h-5.575l-.344,1.948h6.596l-.961,5.455h-6.596l-.261,1.481h6.377l-1.896,10.754c-.625,3.546-1.335,4.676-5.854,4.676l-.647-3.975-1.085,6.156h-5.83Zm4.672-26.496h-1.676s-.245,.975-.854,1.948h2.187l.344-1.948Zm4.577,14.339h-1.275l-.79,4.481c.911,0,1.282-.039,1.495-1.247l.57-3.234Zm5.645,3.117l4.123-23.378h5.102l-4.123,23.378h-5.102Zm.166,2.572c5.43,0,5.53-.156,5.743-1.364l4.803-27.236h5.83l-5.105,28.951c-.866,4.909-2.566,6.078-9.526,6.078l-1.745-6.429Z"/>
    <path d="M449.541,417.554l6.06-34.367h12.571l-.955,5.417-3.653,7.286c.868,2.104,1.509,5.494,.987,8.455-.563,3.195-2.451,5.845-6.911,5.923l-.414-5.3-2.219,12.586h-5.466Zm7.891-13.754c1.239,0,1.85-.156,2.008-1.053,.165-.936-.153-2.649-.792-5.845l-1.216,6.897Zm4.458-15.158h-1.785l-1.147,6.507,2.932-6.507Zm16.431,28.951c-1.859-1.441-3.196-3.156-4.199-4.91l-.669,3.586s-4.241,.701-13.367,1.208l.377-6.273h3.462l4.858-27.549h17.49l-3.367,19.093h-2.441l2.967,3.429s-1.63,1.598-3.982,3.156c.739,.975,1.705,1.909,2.958,2.649l-4.087,5.611Zm-7.075-14.846l-1.463,8.3c1.713,0,2.628-.234,3.466-.234-1.256-3-1.23-6.039-1.31-8.065h-.692Zm7.103-7.014h-5.866l-.275,1.559h5.866l.275-1.559Zm1.168-6.624h-5.866l-.275,1.559h5.866l.275-1.559Zm-2.368,13.638c.036,.623,.153,1.402,.334,2.026,.737-.662,1.451-1.403,1.889-2.026h-2.223Z"/>
    <path d="M484.663,413.62l-.44,2.493h-4.919l5.552-31.483h11.114l-5.112,28.99h-6.195Zm3.405-12.08h-1.275l-1.168,6.624h1.275l1.168-6.624Zm2.02-11.456h-1.275l-1.058,6.002h1.275l1.058-6.002Zm9.272,21.392l-3.59,2.183s-1.213-3.662-2.5-6.078l3.45-1.793h-3.353l.996-5.649h11.405l.337-1.909h-11.625l.997-5.65h7.033l.288-1.637h-6.45l.996-5.649h6.45l.495-2.806h5.83l-.495,2.806h5.939l-.996,5.649h-5.939l-.288,1.637h6.449l-.997,5.65h-1.857l-.337,1.909h2.077l-.996,5.649h-2.077l-.955,5.417c-.88,4.987-1.448,6.351-9.246,6.351l-1.042-6.079Zm5.413-5.688h-5.575c.772,1.403,2.139,4.403,2.139,4.403l-1.55,.936h2.223c1.641,0,1.891-.391,2.021-1.13l.742-4.209Z"/>
    <path d="M508.298,417.593l5.991-33.977h14.539l-2.528,14.338h-8.709l-3.463,19.639h-5.83Zm21.86-2.26h-13.81l2.838-16.093h14.611l-2.109,11.963c1.932,0,2.111-.195,2.173-.547l2.24-12.702h-8.709l2.528-14.338h14.539l-4.665,26.457c-1.038,5.884-1.554,7.363-9.206,7.363l-.431-2.104Zm-8.253-22.834h-3.353l-.206,1.17h3.353l.206-1.17Zm.811-4.598h-3.353l-.206,1.169h3.353l.206-1.169Zm3.916,21.392h-3.826l-.233,1.325h3.826l.233-1.325Zm.941-5.338h-3.826l-.233,1.324h3.826l.233-1.324Zm9.49-11.456h-3.316l-.206,1.17h3.316l.206-1.17Zm.811-4.598h-3.316l-.206,1.169h3.316l.206-1.169Z"/>
    <path d="M551.047,414.632l3.606-20.457-6.396,2.182-.65-5.61c4.302-1.247,7.563-3.429,9.419-6.507h6.23l-5.358,30.393h-6.851Z"/>
    <path d="M571.344,399.513c1.753-9.937,8.34-16.092,16.319-16.092s12.396,6.155,10.645,16.092c-1.628,9.235-8.318,15.976-16.299,15.976s-12.293-6.74-10.665-15.976Zm20.018-.077c1.086-6.157-1.294-10.015-4.756-10.015-3.498,0-7.212,3.701-8.325,10.015-1.16,6.585,1.391,10.091,4.779,10.091,3.353,0,7.141-3.506,8.302-10.091Z"/>
    <path d="M609.587,410.735h3.644c3.134,0,3.416-.155,4.475-6.156l.735-4.169h-5.758c-1.588,6.937-4.715,14.34-14.093,17.105l-2.498-5.884c7.574-1.831,9.79-6.546,10.833-11.222h-3.096l.247-1.403c-2.744,2.338-4.658,3.274-4.658,3.274l-1.171-7.209s6.848-3.702,11.687-12.547l4.932,2.611c-2.071,3.896-4.297,7.013-6.398,9.429h12.57c-1.207-2.455-2.34-5.533-3.038-9.429l5.854-2.611c1.72,8.845,7.262,12.547,7.262,12.547l-3.712,7.209s-1.284-.78-2.929-2.611l-1.291,7.325c-1.595,9.04-2.45,10.171-12.325,10.171l-1.271-6.431Z"/>
  </g>
  <g>
    <path d="M943.265,269.246c0,49.977-64.991,79.443-111.611,79.443s-91.59-56.296-91.59-106.273,44.97-74.71,91.59-74.71,111.611,51.563,111.611,101.54Z"/>
    <path class="cls-1" d="M841.665,207.069c-19.658,0-35.653,15.995-35.653,35.653,0,10.896,4.888,21.051,13.41,27.865,1.161,.924,1.233,2.217,1.124,4.746-.083,1.983-.192,4.454,1.605,6.332,.519,.542,1.352,1.144,2.524,1.459v19.438l9.381,3.128h1.772c.519,2.069,2.976,3.638,5.941,3.638s5.421-1.569,5.945-3.638h1.763l9.384-3.128v-19.505c1.059-.332,1.837-.884,2.319-1.393,1.803-1.878,1.696-4.349,1.611-6.332-.112-2.529-.033-3.822,1.123-4.746,8.526-6.814,13.405-16.969,13.405-27.865,0-19.658-15.988-35.653-35.653-35.653Zm17.111,57.083c-3.861,3.081-4.284,7.223-4.252,10.099h-25.708c.025-2.877-.4-7.018-4.255-10.099-6.552-5.239-10.317-13.049-10.317-21.429,0-15.114,12.307-27.415,27.421-27.415s27.419,12.3,27.419,27.415c0,8.38-3.763,16.193-10.309,21.429Z"/>
  </g>
  <g>
    <path d="M748.79,395.18c6.064,0,6.197,0,6.682-2.751l1.331-7.544h-8.801l.59-3.349c-.902,1.198-1.848,2.257-2.812,3.243l-2.854,16.181h-5.273l1.989-11.28c-1.519,.952-2.562,1.445-2.562,1.445l-.208-6.487s4.466-2.15,8.626-7.05l3.312,2.715,.124-.705h18.557l-.932,5.287h-4.482l-1.418,8.038c-1.243,7.051-1.821,7.897-10.951,7.897l-.917-5.641Zm-10.081-20.024s4.05-2.221,7.109-5.922l4.077,2.855c-3.722,5.217-9.709,8.707-9.709,8.707l-1.478-5.641Zm12.176,.67l.932-5.288h15.788l-.933,5.288h-15.787Z"/>
    <path d="M784.702,399.586c-2.929,.353-5.846,.634-8.482,.634-6.757,0-11.837-1.656-10.884-7.438l.019-.106c.988-5.604,5.935-7.297,10.812-7.297,1.121,0,2.223,.105,3.286,.247-.23-.564-.427-1.128-.646-1.763-4.596,.457-9.213,.846-12.605,1.021l.294-5.217h1.12c2.703,0,6.234-.212,9.855-.564-.096-.388-.193-.775-.283-1.198-3.714,.317-4.887,.423-9.176,.635l.374-5.112h.956c2.175,0,4.501-.105,6.905-.282-.133-.739-.26-1.516-.387-2.291l5.53-1.27c.096,.952,.212,1.975,.394,2.997,3.232-.388,6.358-.917,8.93-1.481l-.302,5.077c-2.013,.388-4.718,.775-7.647,1.128,.097,.388,.192,.775,.322,1.164,3.403-.424,6.562-.952,8.758-1.445l-.38,5.146c-1.803,.317-4.139,.671-6.733,.988,.96,2.221,2.148,4.265,3.544,5.887l-4.596,3.631c-1.764-1.587-4.989-2.361-7.823-2.361-2.637,0-4.903,.705-5.146,2.08-.26,1.657,2.469,2.256,6.028,2.256,2.868,0,6.265-.388,9.067-.952l-1.104,5.888Z"/>
    <path d="M792.788,400.115l-.149,.846h-5.207l1.871-10.61h11.602l-1.722,9.765h-6.395Zm-3.035-10.822l.671-3.808h11.106l-.671,3.808h-11.106Zm13.031-4.371l.901-5.112h5.142l.429-2.433h-5.438l-.385,2.186h-12.854l.813-4.618h12.756l.503-2.854h5.537l.504-2.855h5.438l-.504,2.855h5.932l-.933,5.287h-5.932l-.429,2.433h5.537l-.901,5.112h-16.117Zm-12.174-.494l.672-3.807h11.106l-.672,3.807h-11.106Zm1.858-10.541l.709-4.019h11.106l-.708,4.019h-11.107Zm2.836,20.553h-1.846l-.267,1.517h1.846l.267-1.517Zm15.066,6.521l.174-.986h-4.746l-.174,.986h-5.273l2.58-14.629h15.293l-2.58,14.629h-5.273Zm1.679-9.518h-4.746l-.604,3.42h4.746l.604-3.42Z"/>
    <path d="M823.789,398.353l-.987-5.43c1.042,.07,2.059,.106,3.014,.106,7.548,0,11.827-2.397,12.492-6.17,.273-1.551,.49-4.089-5.113-4.089-4.087,0-9.694,1.34-13.572,2.396l-.235-5.394c4.594-.635,10.204-1.798,14.818-1.798,4.12,0,10.293,.882,8.895,8.812-1.182,6.699-8.137,11.564-18.256,11.564h-1.055Z"/>
    <path d="M840.345,398.141c3.269-5.077,6.651-11.74,9.28-18.05-1.66,.07-3.216,.105-4.436,.105l.73-5.64c.912,.069,2.124,.105,3.476,.105,.725,0,1.516,0,2.347-.036,.659-1.868,1.234-3.631,1.689-5.287l5.438,.563c-.446,1.41-.971,2.891-1.568,4.406,1.806-.141,3.523-.352,4.846-.563l-1.113,5.569c-1.646,.178-3.721,.354-5.888,.494-2.906,6.945-6.537,14.454-10.209,21.258l-4.593-2.926Zm27.522,1.304c-2.456,.282-5.618,.459-8.058,.459-2.9,0-9.045-.105-7.944-6.347,.224-1.269,.742-2.714,1.51-4.265l4.756,.881c-.432,.952-.884,1.834-1.002,2.503-.286,1.622,1.389,1.657,3.498,1.657,2.209,0,5.053-.247,7.916-.776l-.676,5.888Zm1.698-13.184c-2.078-.178-4.334-.283-6.675-.283-2.142,0-4.368,.105-6.608,.283l.745-5.535c2.018-.035,3.935-.071,5.912-.071,2.406,0,4.905,.036,7.781,.176l-1.155,5.431Z"/>
    <path d="M893.073,398.776c-3.887,.352-7.948,.775-11.541,.775-6.163,0-10.982-1.27-11.282-6.487-.057-.986-.026-1.903,.122-2.749,.796-4.513,4.42-7.122,9.283-9.096-.576-2.15-.287-5.288,.49-9.695l.305-1.727h5.933c-.424,1.657-.7,3.032-.917,4.265-.392,2.222-.479,3.844-.273,5.289,3.135-.952,6.52-1.833,9.903-2.891l.604,5.922c-8.637,1.868-19.191,4.16-19.906,8.214-.559,3.173,4.228,3.314,6.304,3.314,3.164,0,7.338-.493,12.095-1.305l-1.119,6.17Z"/>
    <path d="M916.566,399.586c-2.929,.353-5.846,.634-8.482,.634-6.757,0-11.837-1.656-10.884-7.438l.019-.106c.988-5.604,5.935-7.297,10.812-7.297,1.121,0,2.223,.105,3.286,.247-.23-.564-.427-1.128-.646-1.763-4.596,.457-9.213,.846-12.605,1.021l.294-5.217h1.12c2.703,0,6.234-.212,9.855-.564-.096-.388-.193-.775-.283-1.198-3.714,.317-4.887,.423-9.176,.635l.374-5.112h.956c2.175,0,4.501-.105,6.905-.282-.133-.739-.26-1.516-.387-2.291l5.53-1.27c.096,.952,.212,1.975,.394,2.997,3.232-.388,6.358-.917,8.93-1.481l-.302,5.077c-2.013,.388-4.718,.775-7.647,1.128,.097,.388,.192,.775,.322,1.164,3.403-.424,6.562-.952,8.758-1.445l-.38,5.146c-1.803,.317-4.139,.671-6.733,.988,.96,2.221,2.148,4.265,3.544,5.887l-4.596,3.631c-1.764-1.587-4.989-2.361-7.823-2.361-2.637,0-4.903,.705-5.146,2.08-.26,1.657,2.469,2.256,6.028,2.256,2.868,0,6.265-.388,9.067-.952l-1.104,5.888Z"/>
    <path d="M933.189,393.946h.23c6.954,0,11.149-4.724,11.944-9.236,.609-3.455-.783-6.769-4.46-7.791-2.182,6.204-5.585,13.36-8.106,16.816-2.301,3.137-4.757,4.547-6.8,4.547-4.647,0-5.38-6.134-4.56-10.787,1.523-8.637,8.708-16.11,17.805-16.11,9.394,0,12.761,6.697,11.542,13.607-1.181,6.698-6.743,13.572-15.211,14.489l-2.385-5.535Zm-6.613-6.24c-.354,2.01-.166,4.125,.69,4.125,1.78,0,5.98-8.496,8.115-14.806-4.737,1.445-8.034,6.31-8.806,10.681Z"/>
    <path d="M783.228,428.133c-3.069,.212-7.742,.354-12.323,.354-1.681,0-3.389-.036-4.964-.07-4.761-.106-5.986-1.94-5.253-6.1l.068-.388c.457-2.222,1.362-6.98,2.202-11.739,.621-3.525,1.21-7.051,1.52-9.554l5.704,.177c-.695,2.819-1.437,6.275-2.073,9.694,4.984-1.163,11.707-3.209,15.919-5.605l2.854,4.936c-6.516,2.75-13.489,4.725-19.802,6.134l-1.001,5.677c-.181,1.022-.006,1.34,1.043,1.374,.495,0,1.378,.035,2.498,.035,3.89,0,10.71-.176,15.31-1.021l-1.702,6.098Z"/>
    <path d="M784.959,423.022c12.455-.917,21.007-7.544,27.062-17.591l3.752,3.771c-7.104,10.752-16.371,17.697-29.622,19.953l-1.192-6.134Zm10.771-12.304c-1.866-1.938-5.219-4.794-7.312-6.204l4.479-4.089c2.289,1.41,5.279,3.7,7.437,5.675l-4.604,4.618Z"/>
    <path d="M816.664,430.531c.811-3.843,2.256-11.668,3.486-18.648,.976-5.535,1.832-10.576,2.151-12.762l5.722,.07c-.426,2.045-1.344,6.874-2.339,12.339l3.19-2.962c3.202,1.657,6.959,4.09,10.274,6.593l-4.032,5.111c-2.436-2.256-6.562-5.217-9.756-6.909-1.125,6.381-2.349,13.502-2.891,17.133l-5.807,.035Z"/>
    <path d="M851.759,424.997c.323,.035,.653,.035,.982,.035,4.252,0,7.056-2.82,7.528-5.5,.224-1.269-.112-2.538-1.045-3.419-2.497,3.138-5.334,5.957-8.646,8.284,.011,1.058,.089,2.115,.205,3.138l-5.629,1.27c-.024-.424-.043-.882-.061-1.34-1.962,.846-3.651,1.269-4.97,1.269-2.836,0-4.16-1.833-3.638-4.795,.081-.457,1.411-8.002,10.505-12.091,.282-1.234,.565-2.469,.855-3.736h-1.846c-1.648,0-3.225-.036-4.602-.071l.805-5.499c1.326,.141,3.094,.211,5.06,.281,.658,0,1.345,.036,2.037,.036,.368-1.34,.79-2.609,1.231-3.808l5.287,.669c-.339,.987-.717,2.01-1.068,3.067,3.209-.07,6.279-.282,8.418-.634l-1.215,5.393c-2.432,.142-5.527,.317-8.742,.424l-.59,2.221c1.125-.212,2.225-.282,3.312-.282,.594,0,1.18,.036,1.734,.07l.736-1.374,4.852,1.833c-.278,.458-.551,.881-.855,1.304,2.65,1.975,3.468,5.006,2.927,8.073-.933,5.288-5.859,10.611-12.345,10.753l-1.226-5.57Zm-6.158-5.077c.092-.705,.216-1.41,.308-2.115-2.951,2.15-3.781,4.618-3.812,4.795-.062,.353,.072,.528,.369,.528,.593,0,2.651-1.022,2.907-1.163,.085-.67,.137-1.339,.229-2.045Zm5.921-4.794c-.174,.987-.321,2.01-.475,3.066,1.169-1.022,2.297-2.185,3.346-3.454-.924,0-1.904,.142-2.871,.388Z"/>
    <path d="M877.485,411.283c-1.968,2.75-3.75,5.569-5.314,7.897-.895,1.34-2.06,2.15-3.016,2.15-2.208,0-2.066-3.42-1.172-8.497,.771-4.371,2.08-9.553,2.914-12.408l5.641,.528c-1.303,3.278-2.678,8.461-2.945,9.977-.1,.564-.077,.811,.056,.811,.23,0,.867-.811,2.103-2.396l1.734,1.938Zm-7.337,13.572h.791c7.812,0,11.143-4.124,12.071-8.46,.17-.776,.313-1.587,.475-2.504,.709-4.019,1.353-9.165,1.811-13.818h5.801c-.13,.74-.294,1.479-.424,2.22-.877,4.972-1.476,10.048-2.022,13.15l-.174,.986c-1.441,7.052-5.727,12.48-15.858,14.419l-2.47-5.993Z"/>
    <path d="M899.414,428.063l1.082-6.134h5.999l-1.082,6.134h-5.999Zm2.071-8.565l2.777-18.932h5.966l-3.898,18.932h-4.845Z"/>
  </g>
  <g>
    <path d="M142.092,398.09c-1.765-.459-3.686-1.34-4.877-2.434-1.733,1.234-3.657,2.045-5.979,2.504l-1.036-3.843-.672,3.807h-4.944l.329-1.868c-4.776,.74-9.585,1.094-9.585,1.094l.118-4.407s.902-.071,2.272-.177l1.609-9.13h-2.34l.752-4.266h29.662l-.752,4.266h-14.567l-1.69,9.589c1.396-.07,2.614-.247,3.548-.493-1.261-.705-2.622-2.327-2.622-2.327l3.068-1.517h-2.57l.771-4.371h12.887l-.615,3.49c-.71,1.41-1.958,3.067-3.533,4.337,.589,.211,1.185,.388,1.785,.527,.635,.142,1.242,.248,1.823,.317l-2.842,4.901Zm-22.153-19.601l2.021-11.458h25.643l-2.021,11.458h-25.643Zm5.883,12.62h-2.867l-.218,1.234c.975-.106,1.949-.212,2.929-.354l.156-.881Zm.665-3.772h-2.867l-.168,.952h2.867l.168-.952Zm.652-3.701h-2.867l-.155,.881h2.867l.155-.881Zm13.915-9.378h-15.096l-.155,.882h15.096l.155-.882Zm.672-3.807h-15.096l-.155,.881h15.096l.155-.881Zm-5.328,18.437c.327,.388,.985,.952,1.496,1.234,.562-.388,.955-.74,1.339-1.234h-2.835Z"/>
    <path d="M167.245,398.09c-5.281-3.314-7.966-7.721-9.391-11.599-3.094,4.83-7.625,8.848-13.542,11.563l-2.498-5.465c8.007-3.349,11.978-8.672,13.853-13.326h-10.744l1.026-5.816h11.106l1.243-7.05h5.636l-1.243,7.05h11.306l-1.026,5.816h-11.042c.576,3.279,2.552,9.272,9.476,13.186l-4.159,5.641Z"/>
    <path d="M192.071,376.022c-.403-2.011-2.155-3.666-4.857-3.666-3.197,0-6.565,2.467-7.473,7.613l-.044,.247c1.341-1.621,4.531-2.891,7.102-2.891,5.373,0,9.551,3.031,8.444,9.307-1.057,5.993-5.619,9.624-12.508,9.624-7.613,0-10.934-4.724-9.268-14.171,1.803-10.225,7.528-14.843,14.582-14.843,4.943,0,8.105,2.257,9.1,5.958l-5.078,2.821Zm-8.585,15.229c3.032,0,5.257-1.586,5.729-4.266,.51-2.891-1.354-4.653-4.089-4.653-2.604,0-5.063,1.233-6.143,3.244-.504,3.419,1.504,5.675,4.503,5.675Z"/>
    <path d="M219.277,397.843c-3.667-2.009-6.532-6.134-8.433-11.245-2.781,4.371-6.827,8.812-13.487,11.633l-2.906-4.83c10.58-4.864,14.213-12.197,15.208-17.838l1.616-9.165h5.604l-1.616,9.165c-.075,.423-.183,.847-.257,1.27-.456,6.698,4.283,13.467,9.111,16.181l-4.84,4.83Z"/>
    <path d="M244.462,397.103c-1.544-1.903-3.109-3.49-4.738-4.725-1.225,3.772-4.601,4.972-7.896,4.972-8.767,0-7.785-6.134-7.686-6.698,.473-2.68,2.654-5.323,6.079-6.064,.686-.14,1.423-.211,2.214-.211,1.152,0,2.381,.141,3.677,.458,.078-.635,.19-1.27,.269-1.904h-2.967c-2.734,0-5.431-.034-7.996-.069l.88-5.359c3.303,.142,6.851,.212,10.772,.212,.106-.6,.185-1.234,.27-1.903-2.966,0-5.965,0-8.793-.035l.911-5.359c2.698,.212,5.613,.317,8.646,.317l.652-3.701h5.438c-.29,1.27-.527,2.433-.766,3.596,2.287-.07,4.585-.212,6.798-.423l-.911,5.358c-.732,.035-2.649,.071-6.827,.212l-.33,1.868c2.143,0,5.167-.142,8.084-.423l-.873,5.323c-2.529,.141-5.212,.211-7.992,.281-.191,1.27-.375,2.504-.547,3.667,2.735,1.305,5.444,3.138,7.855,5.535l-4.223,5.076Zm-9.168-7.263c-1.204-.458-2.42-.669-3.606-.669-1.647,0-2.518,.634-2.654,1.41-.192,1.092,1.345,1.903,3.421,1.903,1.518,0,2.458-.67,2.74-2.08l.1-.564Z"/>
    <path d="M269.596,396.645c-9.987,0-14.558-3.42-14.522-9.978,0-.564,.073-1.163,.172-1.727,.709-4.02,3.65-7.615,6.518-9.483-4.269,.281-6.855,.564-10.787,.987l.471-6.029c7.086,0,21.988-.775,27.022-1.479l.103,5.78h-.197c-9.789,0-16.747,5.253-17.586,10.013-.653,3.702,3.135,5.958,8.474,5.958,1.121,0,2.287-.071,3.511-.282l-2.122,6.24h-1.055Zm3.814-13.22c-.771-1.234-1.716-2.609-2.644-3.702l2.551-1.938c.96,1.093,1.896,2.326,2.733,3.561l-2.641,2.08Zm3.367-2.646c-.797-1.092-1.727-2.361-2.714-3.489l2.544-1.903c.946,.986,2.048,2.221,2.776,3.313l-2.606,2.079Z"/>
    <path class="cls-4" d="M112.196,420.147l-12.542,11.316-1.846-2.433,12.575-11.316-8.591-11.281,2.697-2.397,8.558,11.281,12.536-11.281,1.818,2.397-12.536,11.281,8.585,11.316-2.703,2.433-8.552-11.316Zm-9.265,.952c-1.747,0-2.937-1.481-2.601-3.385,.329-1.868,2.041-3.349,3.788-3.349s2.902,1.48,2.573,3.349-2.014,3.385-3.761,3.385Zm7.394,9.659c-1.747,0-2.896-1.517-2.567-3.385,.336-1.903,2.02-3.42,3.767-3.42s2.891,1.552,2.562,3.42-1.981,3.385-3.761,3.385Zm3.342-19.144c-1.746,0-2.903-1.479-2.567-3.384,.33-1.868,2.009-3.349,3.755-3.349s2.937,1.48,2.606,3.349c-.329,1.868-2.047,3.384-3.794,3.384Zm7.557,9.484c-1.746,0-2.903-1.481-2.567-3.385,.329-1.868,2.009-3.349,3.755-3.349s2.902,1.48,2.573,3.349c-.33,1.868-2.014,3.385-3.761,3.385Z"/>
    <path class="cls-4" d="M138.784,432.379l-.211,1.198h-5.273l2.865-16.251c-.424,.529-.794,.951-1.219,1.305l-.422,2.397s-.742,.281-2.301,.705l-.571,3.242c-1.163,6.593-1.829,8.32-8.521,8.32l-.72-5.641h.891c2.373,0,2.616-.07,2.914-1.763l.517-2.926c-.889,.176-1.875,.352-2.961,.529l.342-5.677c1.35-.176,2.54-.388,3.619-.528l.852-4.83h-2.834l.896-5.076h2.834l.976-5.534h5.273l-.976,5.534h2.241l-.491,2.784c3.428-3.736,5.641-8.248,5.641-8.248l4.928,1.021s-.681,1.622-2.08,3.948h1.714c1.496-2.502,2.467-4.829,2.467-4.829l4.718,1.093s-.637,1.374-2.108,3.736h3.822l-.87,4.936h-4.152l-.329,1.869h3.691l-.871,4.936h-3.691l-.335,1.902h3.691l-.87,4.937h-3.691l-.349,1.974h4.285l-.87,4.936h-12.459Zm-4.102-19.918h-.824l-.652,3.702c.651-.142,1.138-.282,1.492-.424l-.016-3.278Zm8.551,13.009h-3.23l-.349,1.974h3.23l.349-1.974Zm1.205-6.839h-3.23l-.335,1.902h3.23l.335-1.902Zm1.2-6.805h-3.23l-.329,1.869h3.23l.329-1.869Z"/>
    <path class="cls-4" d="M174.965,433.578c-4.906-.774-8.552-1.974-11.361-5.852-2.913,3.066-6.487,4.83-13.193,5.852l-1.743-5.253c3.023-.14,7.2-1.021,8.979-1.762h-7.91l.87-4.936h10.711c.311-.635,.581-1.233,.825-1.868l2.281,.141c-.124-.6-.419-1.551-.778-2.503l2.065-.493h-2.835l.777-4.407h1.253c-.158-.599-.559-2.256-1.262-3.877l-2.182,12.373h-5.273l.584-3.313c-1.147,1.093-2.346,1.903-4.089,2.82l-1.619-4.653c2.913-1.375,5.425-3.103,6.753-4.09l.447-2.538-1.74,1.833s-1.613-2.256-3.86-4.653l3.515-3.666c1.059,.916,2.219,2.186,2.727,2.855l.658-3.736h5.273l-1.168,6.627,2.56-1.058c-.336,.035-.896,.035-1.226,.035l-.131-4.865h1.384c9.789,0,14.659-.705,14.659-.705l1.24,4.372s-.888,.176-2.094,.282l1.477,.599s-1.09,1.692-2.925,3.878l-.261,1.48h2.768l-.777,4.407-2.773,.034c-.641,3.632-1.476,4.442-5.409,4.689h6.559l-.87,4.936h-8.141c1.577,.775,5.172,1.516,8.583,1.798l-3.326,5.217Zm-.228-24.501c.657-.74,1.34-1.621,1.735-2.186-.705,.071-1.475,.142-2.306,.177,.486,1.728,.667,3.138,.667,3.138l-4.42,1.516s-.137-1.656-.866-3.878l2.018-.6c-.968,.07-2.161,.106-3.188,.142,.771,1.798,1.093,3.525,1.093,3.525l-3.906,1.586h7.516l.286-1.621h4.646l-3.274-1.799Zm-5.649,9.978l-2.844,.986,1.498,.106c-.16,.528-.287,.882-.525,1.48h2.67l-.799-2.573Zm3.214-2.15h-3.099c.195,.388,.357,.775,.44,1.057,2.373,0,2.49-.104,2.603-.739l.056-.317Z"/>
    <path class="cls-4" d="M178.107,430.934l.46-2.609c.808-4.582,4.933-9.095,11.613-11.844,4.83-1.975,6.058-3.138,6.438-5.289,.342-1.938-1.056-3.173-3.528-3.173-2.24,0-4.918,1.729-5.435,4.654l-.013,.07-5.342-1.48c1.165-5.111,5.993-8.567,12.025-8.567,6.328,0,9.483,3.596,8.602,8.602-.69,3.914-3.112,6.805-9.299,8.99-4.149,1.48-6.771,3.455-7.354,5.076h14.238l-.982,5.57h-21.423Z"/>
    <path class="cls-4" d="M226.212,433.296c-3.668-2.009-6.533-6.134-8.433-11.245-2.781,4.37-6.827,8.812-13.489,11.633l-2.904-4.83c10.58-4.864,14.214-12.197,15.208-17.838l1.616-9.165h5.603l-1.616,9.165c-.074,.423-.182,.846-.257,1.27-.455,6.698,4.284,13.467,9.111,16.181l-4.839,4.83Z"/>
    <path class="cls-4" d="M243.57,424.976c-6.93,5.465-15.41,7.58-15.41,7.58l-.083-5.887s.79-.178,2.072-.529l4.251-24.113h5.404l-3.854,21.857c2.52-1.199,5.237-2.785,7.942-5.042l-.323,6.134Zm8.41,8.567s-.193-2.645-1.605-5.853c-2.084,2.291-4.68,4.301-7.979,5.993l-2.645-5.182c10.456-4.161,12.521-13.256,14.883-26.651h5.273c-1.373,7.791-2.678,14.63-5.689,20.306,2.227,3.63,3.075,7.791,3.075,7.791l-5.313,3.596Zm-6.371-18.262s-1.7-5.5-4.717-8.954l4.377-3.702c2.958,2.855,5.067,9.025,5.067,9.025l-4.728,3.631Z"/>
    <path class="cls-4" d="M253.712,432.909l1.014-5.746h10.316l4.463-25.312h6.031l-1.796,10.188h10.283l-1.014,5.746h-10.283l-1.653,9.378h12.59l-1.014,5.746h-28.938Z"/>
  </g>
</svg>