<?xml version="1.0" encoding="UTF-8"?>
<svg id="_レイヤー_1" data-name="レイヤー 1" xmlns="http://www.w3.org/2000/svg" viewBox="0 0 748.278 96.913">
  <defs>
    <style>
      .cls-1 {
        fill: #fff;
      }

      .cls-2 {
        fill: none;
        stroke: #000;
        stroke-miterlimit: 10;
        stroke-width: 12px;
      }

      .cls-3 {
        fill: red;
      }
    </style>
  </defs>
  <g>
    <g>
      <polygon class="cls-2" points="670.702 42.065 695.263 18.536 64.108 18.536 40.349 64.4 75.195 60.928 50.029 86.343 700.292 86.343 721.929 40.327 670.702 42.065"/>
      <polygon class="cls-2" points="663.702 35.065 688.263 11.536 57.108 11.536 33.349 57.4 68.195 53.928 43.029 79.343 693.292 79.343 714.929 33.327 663.702 35.065"/>
    </g>
    <polygon class="cls-3" points="663.702 35.065 688.263 11.536 57.108 11.536 33.349 57.4 68.195 53.928 43.029 79.343 693.292 79.343 714.929 33.327 663.702 35.065"/>
  </g>
  <g>
    <path class="cls-1" d="M265.435,46.458l-15.435,15.482-3.328-3.328,15.483-15.482-15.483-15.435,3.328-3.28,15.435,15.435,15.435-15.435,3.28,3.28-15.435,15.435,15.482,15.482-3.328,3.328-15.435-15.482Zm-13.312,1.302c-2.556,0-4.678-2.025-4.678-4.63,0-2.557,2.122-4.582,4.678-4.582s4.631,2.025,4.631,4.582-2.074,4.63-4.631,4.63Zm13.265-12.975c-2.557,0-4.631-2.025-4.631-4.63,0-2.557,2.074-4.582,4.631-4.582s4.679,2.025,4.679,4.582-2.122,4.63-4.679,4.63Zm.048,26.19c-2.556,0-4.63-2.074-4.63-4.63,0-2.604,2.074-4.679,4.63-4.679s4.631,2.122,4.631,4.679-2.026,4.63-4.631,4.63Zm13.457-13.216c-2.556,0-4.63-2.025-4.63-4.63,0-2.557,2.074-4.582,4.63-4.582s4.631,2.025,4.631,4.582-2.074,4.63-4.631,4.63Z"/>
    <path class="cls-1" d="M287.385,58.757c5.113-7.717,6.656-14.47,6.656-14.47l7.235,3.858s-1.784,8.538-6.174,16.255l-7.718-5.644Zm10.13-14.084c-6.174-4.003-9.889-5.98-9.889-5.98l3.955-6.512s3.618,1.398,9.84,5.064l-3.906,7.428Zm.964-11.527c-4.823-2.798-9.743-5.161-9.743-5.161l3.907-6.271s3.328,1.109,9.84,4.92l-4.004,6.512Zm1.785,30.725v-7.718h11.672v-5.788h-9.55v-7.717h9.55v-4.631h-10.515v-7.717h11.479c-1.881-1.303-3.473-1.93-6.029-3.28l5.885-5.45c4.92,2.074,9.936,6.077,9.936,6.077l-2.7,2.653h9.694v7.717h-10.032v4.631h8.778v7.717h-8.778v5.788h10.9v7.718h-30.29Z"/>
    <path class="cls-1" d="M367.118,64.159s-.772-3.231-2.171-6.945c-.338,5.933-3.376,6.656-8.826,6.656h-8.924c-5.498,0-6.366-.965-6.366-5.691v-3.136c-.531,1.785-1.833,5.644-4.1,9.454l-6.223-4.582c2.895-4.004,3.955-8.151,3.955-8.151l6.367,2.267v-2.074h7.717v4.293c0,.675,.049,.868,.965,.868h4.341c-.724-.916-2.797-2.99-4.63-4.534l2.267-1.929h-17.46v-13.698h36.561v13.698h-14.663c1.303,.724,2.99,1.929,2.99,1.929l-.724,.724,6.126,2.268c-.289-.724-.627-1.351-1.062-2.074l6.608-2.412c2.411,4.823,4.147,9.743,4.147,9.743l-6.896,3.328Zm-36.079-28.409v-5.064h8.683s-.29-.916-.724-1.93h-6.174v-5.209h15.049v-2.122h8.682v2.122h15.001v5.209h-5.885c-.193,1.014-.53,1.93-.53,1.93h8.344v5.064h-42.445Zm31.834,5.161h-21.126v1.206h21.126v-1.206Zm0,4.582h-21.126v1.206h21.126v-1.206Zm-15.435-16.737c.338,1.014,.579,1.93,.579,1.93h8.778s.386-.965,.627-1.93h-9.984Zm6.897,28.361h.724c1.978,0,2.604-.53,2.604-3.28l-3.328,3.28Z"/>
    <path class="cls-1" d="M406.722,58.516v-1.784h-7.187c0,6.897-2.074,7.813-10.081,7.813h-2.508l-2.412-6.607c1.447,0,2.701,.048,3.714,.048,2.219,0,3.376-.192,3.473-1.206v-.048h-14.855v-4.872h15.049v-1.302h-17.75v-5.258h17.75v-1.302h-15.097v-4.39h15.097v-1.206h-15.193v-8.44h15.193v-1.206h-16.979v-5.209h16.979v-2.122h7.717v2.122h16.785v5.209h-16.785v1.206h14.904v8.44h-14.904v1.206h14.808v5.691h2.798v5.258h-2.798v7.958h-7.717Zm-14.808-24.984h-7.477v1.303h7.477v-1.303Zm14.904,0h-7.188v1.303h7.188v-1.303Zm-.097,10.467h-7.091v1.302h7.091v-1.302Zm0,6.56h-7.091v1.302h7.091v-1.302Z"/>
    <path class="cls-1" d="M434.073,55.525s-6.126,2.99-15.725,5.017l-.964-8.393c1.543-.193,3.038-.435,4.437-.724V31.939h-3.665v-7.234h15.145v7.234h-3.762v17.315c2.894-1.013,4.679-1.832,4.679-1.832l-.145,8.103Zm24.213,9.31c-5.113-1.014-10.467-4.824-10.467-4.824l2.749-3.81h-6.656l2.557,3.81s-5.644,4.004-11.721,4.824l-2.604-6.897c5.306-.531,9.02-1.736,9.02-1.736h-5.595V30.83h6.897l.627-1.784h-8.924v-6.801h26.046v6.801h-8.971l-.435,1.784h7.621v25.371h-5.161s3.955,1.254,7.621,1.736l-2.604,6.897Zm-7.573-28.458h-7.428v1.447h7.428v-1.447Zm0,6.415h-7.428v1.447h7.428v-1.447Zm0,6.415h-7.428v1.447h7.428v-1.447Z"/>
    <path class="cls-1" d="M482.503,46.458l-15.435,15.482-3.328-3.328,15.483-15.482-15.483-15.435,3.328-3.28,15.435,15.435,15.435-15.435,3.28,3.28-15.435,15.435,15.482,15.482-3.328,3.328-15.435-15.482Zm-13.312,1.302c-2.556,0-4.678-2.025-4.678-4.63,0-2.557,2.122-4.582,4.678-4.582s4.631,2.025,4.631,4.582-2.074,4.63-4.631,4.63Zm13.265-12.975c-2.557,0-4.631-2.025-4.631-4.63,0-2.557,2.074-4.582,4.631-4.582s4.679,2.025,4.679,4.582-2.122,4.63-4.679,4.63Zm.048,26.19c-2.556,0-4.63-2.074-4.63-4.63,0-2.604,2.074-4.679,4.63-4.679s4.631,2.122,4.631,4.679-2.026,4.63-4.631,4.63Zm13.457-13.216c-2.556,0-4.63-2.025-4.63-4.63,0-2.557,2.074-4.582,4.63-4.582s4.631,2.025,4.631,4.582-2.074,4.63-4.631,4.63Z"/>
  </g>
</svg>