<?xml version="1.0" encoding="UTF-8"?>
<svg id="_レイヤー_1" data-name="レイヤー 1" xmlns="http://www.w3.org/2000/svg" viewBox="0 0 536.475 228.399">
  <defs>
    <style>
      .cls-1 {
        stroke: #000;
        stroke-width: 13px;
      }

      .cls-1, .cls-2 {
        fill: none;
      }

      .cls-3 {
        fill: #fff;
      }

      .cls-2 {
        stroke: #fff;
        stroke-width: 11px;
      }

      .cls-4 {
        fill: red;
      }
    </style>
  </defs>
  <g>
    <polygon class="cls-1" points="508.93 20.431 16.313 55.08 19.543 175.514 264.833 149.142 288.992 170.381 268.766 173.482 353.078 214.476 337.408 171.639 363.543 167.632 347.207 137.342 512.098 113.51 508.93 20.431"/>
    <g>
      <polygon points="521.93 33.431 29.313 68.08 32.543 188.514 277.833 162.142 301.992 183.381 281.766 186.482 366.078 227.476 350.408 184.639 376.543 180.632 360.207 150.342 525.098 126.51 521.93 33.431"/>
      <polygon class="cls-4" points="508.93 20.431 16.313 55.08 19.543 175.514 264.833 149.142 288.992 170.381 268.766 173.482 353.078 214.476 337.408 171.639 363.543 167.632 347.207 137.342 512.098 113.51 508.93 20.431"/>
    </g>
  </g>
  <g>
    <path class="cls-2" d="M55.371,139.733c22.652-8.864,35.22-26.771,36.278-58.433-8.521,.783-17.152,1.576-23.258,2.274-4.231,9.111-9.265,17.879-15.114,26.17l-16.824-12.853c15.929-18.492,24.823-41.599,26.781-62.268l18.178,3.591c-1.139,7.996-2.836,15.905-4.995,23.579,4.929-.314,10.5-.826,16.182-1.349,15.623-1.435,32.204-3.233,40.032-4.368l2.029,22.104c-4.395,.126-12.383,.723-25.068,1.747-.625,33.978-8.433,59.337-36.715,76.472l-17.506-16.667ZM120.928,57.015c-3.308-4.818-7.442-10.253-11.367-14.6l7.14-7.44c4.021,4.199,7.996,9.096,11.631,13.885l-7.403,8.155Zm9.776-9.897c-3.378-4.396-7.353-9.292-11.509-13.755l7.151-7.304c3.887,3.936,8.408,8.78,11.666,13.051l-7.309,8.008Z"/>
    <path d="M55.371,139.733c22.652-8.864,35.22-26.771,36.278-58.433-8.521,.783-17.152,1.576-23.258,2.274-4.231,9.111-9.265,17.879-15.114,26.17l-16.824-12.853c15.929-18.492,24.823-41.599,26.781-62.268l18.178,3.591c-1.139,7.996-2.836,15.905-4.995,23.579,4.929-.314,10.5-.826,16.182-1.349,15.623-1.435,32.204-3.233,40.032-4.368l2.029,22.104c-4.395,.126-12.383,.723-25.068,1.747-.625,33.978-8.433,59.337-36.715,76.472l-17.506-16.667ZM120.928,57.015c-3.308-4.818-7.442-10.253-11.367-14.6l7.14-7.44c4.021,4.199,7.996,9.096,11.631,13.885l-7.403,8.155Zm9.776-9.897c-3.378-4.396-7.353-9.292-11.509-13.755l7.151-7.304c3.887,3.936,8.408,8.78,11.666,13.051l-7.309,8.008Z"/>
  </g>
  <g>
    <g>
      <path d="M182.811,114.115c-7.039-.479-18.024-1.185-28.53-1.781-8.623-.489-16.947-.882-22.478-1.115l.785-13.389c5.698,.484,14.316,1.055,23.242,1.562,10.263,.583,20.894,1.106,27.766,1.336l-.785,13.388Z"/>
      <path d="M228.157,144.039c-.677-3.015-1.52-6.28-2.486-9.552-13.314,1.576-31.765,3.504-40.916,4.754l-.85-14.607c2.064,.117,4.559,.179,7.366,.098,6.298-15.972,13.962-39.667,16.049-49.281l10.98,4.967c-4.414,10.85-10.713,29.958-16.164,43.966,6.535-.272,13.509-.761,19.567-1.222-2.271-5.92-4.802-11.614-7.327-16.343l9.819-4.349c4.664,8.792,10.966,22.904,14.096,33.94l-10.135,7.629Z"/>
    </g>
    <g>
      <path class="cls-3" d="M182.811,114.115c-7.039-.479-18.024-1.185-28.53-1.781-8.623-.489-16.947-.882-22.478-1.115l.785-13.389c5.698,.484,14.316,1.055,23.242,1.562,10.263,.583,20.894,1.106,27.766,1.336l-.785,13.388Z"/>
      <path class="cls-3" d="M228.157,144.039c-.677-3.015-1.52-6.28-2.486-9.552-13.314,1.576-31.765,3.504-40.916,4.754l-.85-14.607c2.064,.117,4.559,.179,7.366,.098,6.298-15.972,13.962-39.667,16.049-49.281l10.98,4.967c-4.414,10.85-10.713,29.958-16.164,43.966,6.535-.272,13.509-.761,19.567-1.222-2.271-5.92-4.802-11.614-7.327-16.343l9.819-4.349c4.664,8.792,10.966,22.904,14.096,33.94l-10.135,7.629Z"/>
    </g>
  </g>
  <g>
    <path d="M292.415,127.754c-4.359-7.929-10.49-16.486-16.486-22.739-6.613,7.934-14.444,14.916-24.25,21.347l-8.825-11.711c22.771-10.829,34.366-28.555,39.68-41.773-8.938-.499-21.021-.997-28.038-1.125l.775-14.619c4.915,.628,11.771,1.275,18.975,1.678,5.869,.328,12.016,.494,17.634,.543l5.627,6.852c-3.889,10.56-8.449,20.021-14.103,28.716,7.018,7.104,14.287,15.638,19.124,22.268l-10.112,10.565Z"/>
    <path class="cls-3" d="M292.415,127.754c-4.359-7.929-10.49-16.486-16.486-22.739-6.613,7.934-14.444,14.916-24.25,21.347l-8.825-11.711c22.771-10.829,34.366-28.555,39.68-41.773-8.938-.499-21.021-.997-28.038-1.125l.775-14.619c4.915,.628,11.771,1.275,18.975,1.678,5.869,.328,12.016,.494,17.634,.543l5.627,6.852c-3.889,10.56-8.449,20.021-14.103,28.716,7.018,7.104,14.287,15.638,19.124,22.268l-10.112,10.565Z"/>
  </g>
  <g>
    <g>
      <path d="M307.999,111.754c13.024-3.072,22.482-8.108,29.549-14.604-3.573-4.175-8.075-8.489-11.849-11.526l8.302-9.342c3.582,2.85,8.09,7.076,11.878,10.998,2.933-4.43,5.295-9.42,7.272-14.698-7.605-.425-13.484-.577-19.369-.64-4.47,6.728-9.781,12.968-16.442,19.397l-8.573-10.284c11.247-8.204,21.206-21.959,24.862-34.297l11.249,4.515c-1.157,2.674-2.378,5.256-3.73,7.83,2.135,.119,4.463,.337,6.864,.471,4.803,.269,9.948,.38,14.844,.211l4.652,6.355c-10.572,31.298-22.629,48.909-51.667,58.151l-7.842-12.538Z"/>
      <path d="M425.516,97.647c-7.731-.521-19.8-1.283-31.339-1.928-9.47-.528-18.613-.951-24.688-1.202l.848-14.704c6.26,.526,15.727,1.144,25.531,1.691,11.271,.63,22.948,1.193,30.495,1.438l-.848,14.704Z"/>
    </g>
    <g>
      <path class="cls-3" d="M307.999,111.754c13.024-3.072,22.482-8.108,29.549-14.604-3.573-4.175-8.075-8.489-11.849-11.526l8.302-9.342c3.582,2.85,8.09,7.076,11.878,10.998,2.933-4.43,5.295-9.42,7.272-14.698-7.605-.425-13.484-.577-19.369-.64-4.47,6.728-9.781,12.968-16.442,19.397l-8.573-10.284c11.247-8.204,21.206-21.959,24.862-34.297l11.249,4.515c-1.157,2.674-2.378,5.256-3.73,7.83,2.135,.119,4.463,.337,6.864,.471,4.803,.269,9.948,.38,14.844,.211l4.652,6.355c-10.572,31.298-22.629,48.909-51.667,58.151l-7.842-12.538Z"/>
      <path class="cls-3" d="M425.516,97.647c-7.731-.521-19.8-1.283-31.339-1.928-9.47-.528-18.613-.951-24.688-1.202l.848-14.704c6.26,.526,15.727,1.144,25.531,1.691,11.271,.63,22.948,1.193,30.495,1.438l-.848,14.704Z"/>
    </g>
  </g>
  <g>
    <path d="M445.393,117.421c.819-9.582,2.08-29.122,3.086-46.556,.798-13.824,1.457-26.419,1.64-31.886l11.595,.824c-.428,5.1-1.258,17.155-2.111,30.799l5.829-7.095c6.832,4.534,14.952,11.082,22.194,17.759l-7.072,12.413c-5.411-5.955-14.389-13.877-21.215-18.499-.92,15.938-1.879,33.728-2.202,42.808l-11.743-.567Z"/>
    <path class="cls-3" d="M445.393,117.421c.819-9.582,2.08-29.122,3.086-46.556,.798-13.824,1.457-26.419,1.64-31.886l11.595,.824c-.428,5.1-1.258,17.155-2.111,30.799l5.829-7.095c6.832,4.534,14.952,11.082,22.194,17.759l-7.072,12.413c-5.411-5.955-14.389-13.877-21.215-18.499-.92,15.938-1.879,33.728-2.202,42.808l-11.743-.567Z"/>
  </g>
</svg>