<?xml version="1.0" encoding="UTF-8"?>
<svg id="_レイヤー_1" data-name="レイヤー 1" xmlns="http://www.w3.org/2000/svg" viewBox="0 0 651.016 416.777">
  <defs>
    <style>
      .cls-1 {
        fill: #fff;
        stroke-miterlimit: 10;
        stroke-width: 6px;
      }

      .cls-1, .cls-2 {
        stroke: #000;
      }

      .cls-2, .cls-3 {
        fill: none;
        stroke-width: 7px;
      }

      .cls-3 {
        stroke: #fff;
        stroke-linecap: round;
        stroke-linejoin: round;
      }

      .cls-4 {
        fill: red;
      }
    </style>
  </defs>
  <polygon points="634.664 390.359 17.874 383.811 20.434 87.723 637.224 94.272 634.664 390.359"/>
  <polygon class="cls-1" points="645.402 364.752 37.55 406.135 14.808 111.701 622.66 70.318 645.402 364.752"/>
  <g>
    <polygon class="cls-2" points="271.873 12.859 8.755 28.156 11.917 101.758 142.823 88.571 156.001 101.832 145.218 103.485 190.809 129.529 181.916 103.177 195.85 101.041 186.75 82.344 274.676 69.751 271.873 12.859"/>
    <g>
      <polygon points="278.873 19.859 15.755 35.156 18.917 108.758 149.823 95.571 163.001 108.832 152.218 110.485 197.809 136.529 188.916 110.177 202.85 108.041 193.75 89.344 281.676 76.751 278.873 19.859"/>
      <polygon class="cls-4" points="271.873 12.859 8.755 28.156 11.917 101.758 142.823 88.571 156.001 101.832 145.218 103.485 190.809 129.529 181.916 103.177 195.85 101.041 186.75 82.344 274.676 69.751 271.873 12.859"/>
    </g>
  </g>
  <g>
    <path class="cls-3" d="M83.224,80.559l-2.519-27.418-22.035,2.024,2.519,27.418-15.559,1.429-6.025-65.601,15.559-1.429,2.325,25.315,22.035-2.024-2.325-25.315,15.728-1.444,6.025,65.601-15.728,1.444Z"/>
    <path d="M83.224,80.559l-2.519-27.418-22.035,2.024,2.519,27.418-15.559,1.429-6.025-65.601,15.559-1.429,2.325,25.315,22.035-2.024-2.325-25.315,15.728-1.444,6.025,65.601-15.728,1.444Z"/>
  </g>
  <g>
    <path d="M48.321,211.919c0-10.003,4.589-17.072,12.525-17.072s12.524,7.068,12.524,17.072-4.547,16.989-12.524,16.989c-7.937,0-12.525-6.986-12.525-16.989Zm19.139-.909c0-5.581-1.653-10.582-6.613-10.582-4.878,0-6.614,5.001-6.614,10.582s2.025,9.879,6.614,9.879c4.63,0,6.613-4.299,6.613-9.879Z"/>
    <path d="M82.548,228.412c-2.355,0-4.299-1.86-4.299-4.216s1.943-4.299,4.299-4.299,4.341,1.943,4.341,4.299-1.984,4.216-4.341,4.216Z"/>
    <path d="M91.725,211.919c0-10.003,4.589-17.072,12.525-17.072s12.524,7.068,12.524,17.072-4.547,16.989-12.524,16.989c-7.937,0-12.525-6.986-12.525-16.989Zm19.139-.909c0-5.581-1.653-10.582-6.613-10.582-4.878,0-6.614,5.001-6.614,10.582s2.025,9.879,6.614,9.879c4.63,0,6.613-4.299,6.613-9.879Z"/>
    <path d="M120.662,211.919c0-10.003,4.589-17.072,12.525-17.072s12.524,7.068,12.524,17.072-4.547,16.989-12.524,16.989c-7.937,0-12.525-6.986-12.525-16.989Zm19.139-.909c0-5.581-1.653-10.582-6.613-10.582-4.878,0-6.614,5.001-6.614,10.582s2.025,9.879,6.614,9.879c4.63,0,6.613-4.299,6.613-9.879Z"/>
    <path d="M149.598,211.919c0-10.003,4.589-17.072,12.525-17.072s12.524,7.068,12.524,17.072-4.547,16.989-12.524,16.989c-7.937,0-12.525-6.986-12.525-16.989Zm19.139-.909c0-5.581-1.653-10.582-6.613-10.582-4.878,0-6.614,5.001-6.614,10.582s2.025,9.879,6.614,9.879c4.63,0,6.613-4.299,6.613-9.879Z"/>
    <path d="M178.535,211.919c0-10.003,4.589-17.072,12.525-17.072s12.524,7.068,12.524,17.072-4.547,16.989-12.524,16.989c-7.937,0-12.525-6.986-12.525-16.989Zm19.139-.909c0-5.581-1.653-10.582-6.613-10.582-4.878,0-6.614,5.001-6.614,10.582s2.025,9.879,6.614,9.879c4.63,0,6.613-4.299,6.613-9.879Z"/>
    <path d="M207.471,211.919c0-10.003,4.589-17.072,12.525-17.072s12.524,7.068,12.524,17.072-4.547,16.989-12.524,16.989c-7.937,0-12.525-6.986-12.525-16.989Zm19.139-.909c0-5.581-1.653-10.582-6.613-10.582-4.878,0-6.614,5.001-6.614,10.582s2.025,9.879,6.614,9.879c4.63,0,6.613-4.299,6.613-9.879Z"/>
    <path d="M236.408,211.919c0-10.003,4.589-17.072,12.525-17.072s12.524,7.068,12.524,17.072-4.547,16.989-12.524,16.989c-7.937,0-12.525-6.986-12.525-16.989Zm19.139-.909c0-5.581-1.653-10.582-6.613-10.582-4.878,0-6.614,5.001-6.614,10.582s2.025,9.879,6.614,9.879c4.63,0,6.613-4.299,6.613-9.879Z"/>
    <path d="M265.344,211.919c0-10.003,4.589-17.072,12.525-17.072s12.524,7.068,12.524,17.072-4.547,16.989-12.524,16.989c-7.937,0-12.525-6.986-12.525-16.989Zm19.139-.909c0-5.581-1.653-10.582-6.613-10.582-4.878,0-6.614,5.001-6.614,10.582s2.025,9.879,6.614,9.879c4.63,0,6.613-4.299,6.613-9.879Z"/>
    <path d="M294.281,211.919c0-10.003,4.589-17.072,12.525-17.072s12.524,7.068,12.524,17.072-4.547,16.989-12.524,16.989c-7.937,0-12.525-6.986-12.525-16.989Zm19.139-.909c0-5.581-1.653-10.582-6.613-10.582-4.878,0-6.614,5.001-6.614,10.582s2.025,9.879,6.614,9.879c4.63,0,6.613-4.299,6.613-9.879Z"/>
    <path d="M339.753,200.924c0,8.143,.206,13.475,1.405,24.14,0,.124,.041,.248,.041,.372,0,2.066-2.232,2.976-4.464,2.976s-4.465-.91-4.465-2.935c0-.124,.042-.289,.042-.413,1.157-11.574,1.487-15.336,1.529-22.322-.868,.455-1.86,.868-2.563,1.158-.454,.165-.867,.248-1.239,.248-1.736,0-2.812-1.488-2.812-2.935,0-.951,.496-1.86,1.653-2.315,1.571-.579,3.762-1.695,5.126-2.852,.62-.496,1.405-.744,2.273-.744,1.695,0,3.473,1.034,3.473,2.811v2.811Z"/>
    <path d="M373.938,227.089c-1.198,.868-2.562,1.281-3.927,1.281-4.588,0-8.061-4.133-8.061-11.119,0-11.12,9.136-19.759,21.577-19.759,9.095,0,16.989,5.787,16.989,15.708,0,16.163-15.459,17.444-15.955,17.444-2.604,0-4.382-2.811-4.382-5.291,0-1.653,.826-3.142,2.77-3.472,7.854-1.281,11.656-5.043,11.656-9.548,0-5.126-3.018-8.474-7.895-9.631-1.612,10.375-5.911,19.51-12.773,24.388Zm-6.241-10.872c0,1.901,.868,3.142,2.19,3.142,2.025,0,8.598-5.291,11.367-16.906-8.557,1.075-13.558,7.358-13.558,13.765Z"/>
    <path d="M425.941,222.831v2.025c0,3.927-.496,6.201-6.862,6.201-1.818,0-4.133-.207-7.068-.579-1.694-.207-2.521-1.86-2.521-3.472,0-1.943,1.075-3.968,3.018-3.968,.166,0,.29,0,.455,.041,3.018,.414,4.754,.62,5.787,.62,1.322,0,1.405-.331,1.405-.868h-12.524c-1.323,0-1.984-1.323-1.984-2.604,0-1.323,.661-2.604,1.984-2.604h12.731v-1.158h-14.633c-1.199,0-1.778-.827-1.778-1.612,0-.827,.579-1.612,1.778-1.612h14.633v-1.116h-12.814c-1.323,0-1.984-.827-1.984-1.653,0-.785,.661-1.612,1.984-1.612h12.814v-.992h-10.748c-1.859,0-2.811-.827-2.811-2.439v-2.563c0-1.571,.951-2.397,2.811-2.397h10.748v-1.033h-13.642c-1.446,0-2.149-.868-2.149-1.777,0-.868,.703-1.736,2.149-1.736h13.642v-.703c0-.868,1.322-1.323,2.604-1.323,1.323,0,2.604,.455,2.604,1.323v.703h12.855c1.447,0,2.149,.868,2.149,1.736,0,.909-.702,1.777-2.149,1.777h-12.855v1.033h10.21c1.901,0,2.853,.827,2.853,2.397v2.563c0,1.612-.951,2.439-2.853,2.439h-10.21v.992h10.293c2.231,0,3.39,.579,3.39,2.562v1.819h.744c.743,0,1.157,.827,1.157,1.653,0,.786-.372,1.571-1.157,1.571h-.744v3.266c0,2.067-1.158,3.1-3.39,3.1h-9.921Zm-5.58-19.345h-8.599v1.282h8.599v-1.282Zm13.31,0h-8.102v1.282h8.102v-1.282Zm.744,8.639h-8.846v1.116h8.846v-1.116Zm0,4.34h-8.846v1.158h8.846v-1.158Z"/>
    <path d="M477.861,222.046c1.57,0,2.397,1.943,2.397,3.968,0,2.067-.827,4.175-2.562,4.381-2.853,.331-5.002,.496-8.309,.496-11.161,0-14.716-2.438-14.716-6.903,0-5.953,3.803-10.127,12.566-13.724-.455-1.075-1.406-1.447-2.439-1.447-5.167,0-9.094,4.712-12.813,9.962-.62,.909-1.406,1.281-2.15,1.281-1.777,0-3.555-2.025-3.555-3.885,0-.662,.207-1.282,.744-1.819,4.175-4.175,7.11-7.812,9.012-11.74h-1.736c-1.405,0-2.853,0-4.175-.041-1.529-.042-2.356-1.282-2.356-2.521,0-1.199,.744-2.315,2.19-2.315h.166c2.562,.042,5.125,.042,7.688,.042,.289-.744,.537-1.53,.785-2.273,.289-1.034,1.323-1.488,2.397-1.488,1.447,0,2.977,.785,2.977,2.149,0,.042-.124,.909-.372,1.488,4.051-.166,8.102-.414,12.111-.786h.289c1.612,0,2.48,1.323,2.48,2.563,0,1.157-.661,2.232-2.108,2.315-5.002,.372-9.921,.661-14.633,.785-.413,.951-.909,1.612-1.405,2.521,1.529-.579,3.431-.992,4.63-.992,3.596,0,6.324,1.282,7.481,4.34,1.612-.579,5.746-1.86,6.696-1.86,1.653,0,2.646,1.447,2.646,2.811,0,.992-.496,1.943-1.653,2.232-2.687,.703-5.043,1.405-7.109,2.067v4.836c0,1.323-1.406,2.026-2.812,2.026s-2.77-.662-2.77-1.984v-.042l.042-2.77c-4.217,1.943-5.663,3.473-5.663,4.712,0,1.695,.702,2.191,7.564,2.191,3.059,0,5.621-.248,8.185-.579h.289Z"/>
    <path class="cls-4" d="M509.568,209.273c0,10.748-2.77,18.849-12.98,21.743-.371,.124-.743,.166-1.074,.166-2.604,0-4.341-2.852-4.341-5.374,0-1.695,.827-3.266,2.688-3.638,7.027-1.406,9.631-5.663,9.631-12.897h-14.922c-1.612,0-2.397-1.364-2.397-2.77,0-1.364,.785-2.728,2.397-2.728h14.964v-7.275c0-1.447,1.529-2.108,3.059-2.108,1.488,0,3.018,.661,3.018,2.025v7.358h12.194c1.653,0,2.479,1.364,2.479,2.728,0,1.405-.826,2.77-2.479,2.77h-12.235Z"/>
    <path class="cls-4" d="M534.95,230.065c-2.521,0-4.423-2.894-4.423-5.456,0-1.53,.702-2.935,2.397-3.473,14.178-4.547,17.857-12.111,20.048-23.851,.248-1.323,1.488-1.943,2.77-1.943,1.612,0,3.307,.951,3.307,2.563,0,.124,0,.289-.041,.413-1.943,11.822-7.44,24.554-22.528,31.416-.537,.248-1.033,.331-1.529,.331Z"/>
    <path d="M602.082,221.592c1.942,0,2.894,2.066,2.894,4.133s-.951,4.175-2.729,4.299c-3.473,.289-6.738,.413-9.756,.413-12.938,0-21.081-2.852-21.081-11.491,0-6.779,3.638-10.624,11.119-13.187-.206-3.1-.578-6.035-.95-9.176,0-.124-.041-.207-.041-.29,0-1.488,1.611-2.315,3.224-2.315,1.488,0,2.935,.744,3.059,2.315,.166,2.687,.331,5.167,.455,7.895,6.159-1.323,12.979-1.777,13.021-1.777,1.984,0,3.018,1.405,3.018,2.811,0,1.281-.868,2.562-2.646,2.687-18.56,1.282-24.223,5.705-24.223,9.714,0,3.596,3.721,4.753,10.706,4.753,3.679,0,8.268-.331,13.683-.785h.248Z"/>
    <path d="M50.512,244.139c-1.323,0-2.025-1.075-2.025-2.191,0-1.075,.702-2.149,2.025-2.149h33.068c1.364,0,2.025,1.075,2.025,2.149,0,1.116-.661,2.191-2.025,2.191H50.512Zm3.555,25.504c-1.901,0-2.853-.951-2.853-2.77v-8.805c0-1.736,.951-2.563,2.853-2.563h26.042c1.901,0,2.935,.827,2.935,2.563v8.805c0,1.818-1.033,2.77-2.935,2.77h-26.042Zm-.041-20.461c-1.405,0-2.108-.992-2.108-1.984s.703-1.984,2.108-1.984h26.124c1.405,0,2.108,.992,2.108,1.984s-.703,1.984-2.108,1.984h-26.124Zm.041,5.208c-1.405,0-2.108-1.075-2.108-2.108,0-1.075,.703-2.108,2.108-2.108h26.083c1.405,0,2.108,1.034,2.108,2.108,0,1.033-.703,2.108-2.108,2.108h-26.083Zm.62-15.459c-1.364,0-2.025-.992-2.025-2.025,0-.992,.661-1.984,2.025-1.984h24.719c1.364,0,2.067,.992,2.067,1.984,0,1.033-.703,2.025-2.067,2.025h-24.719Zm23.313,20.958h-21.701v2.687h21.701v-2.687Z"/>
    <path d="M110.369,242.858c9.342,0,14.054,3.844,14.054,11.244,0,6.944-3.514,14.591-21.246,16.658-.166,0-.331,.042-.455,.042-2.687,0-4.01-2.811-4.01-5.167,0-1.736,.703-3.266,2.067-3.39,12.483-1.116,17.526-4.588,17.526-8.763,0-3.844-2.149-5.539-7.854-5.539-4.092,0-9.094,1.24-14.343,3.183-.372,.124-.744,.207-1.075,.207-1.736,0-2.894-1.695-2.894-3.224,0-.992,.496-1.902,1.571-2.315,5.663-1.943,11.987-2.935,16.658-2.935Zm-11.119-3.183c-1.447-.207-2.15-1.364-2.15-2.48,0-1.281,.868-2.562,2.398-2.562,.165,0,.33,0,.495,.041,5.705,.827,11.078,1.282,18.146,1.447,1.571,.042,2.315,1.158,2.315,2.356,0,1.323-.951,2.728-2.562,2.728-.166,0-9.343-.29-18.643-1.529Z"/>
    <path d="M153.773,246.619c7.979,0,12.607,5.167,12.607,11.285,0,7.937-7.026,13.021-22.941,13.021-2.356,0-3.638-2.356-3.638-4.63,0-2.066,1.116-4.092,3.514-4.092,12.277,0,17.196-2.149,17.196-5.87,0-2.935-2.191-4.381-7.068-4.381-3.804,0-9.591,1.819-14.303,6.696-.496,.496-1.074,.703-1.736,.703-1.818,0-3.927-1.777-3.927-3.679,0-1.86,.744-9.838,1.736-13.765,.331-1.281,1.529-1.86,2.729-1.86,1.446,0,2.935,.827,2.935,2.19,0,.207-.041,.414-.083,.62-.62,2.067-1.074,5.208-1.405,7.978,3.762-2.728,8.97-4.216,14.385-4.216Zm1.033-6.035c-4.175-1.075-8.267-1.612-12.648-1.943-1.446-.083-2.19-1.24-2.19-2.438s.826-2.397,2.479-2.397c2.729,0,7.482,.537,13.724,1.736,1.364,.29,1.984,1.323,1.984,2.397,0,1.323-.992,2.77-2.562,2.77-.248,0-.496-.042-.786-.124Z"/>
    <path d="M185.397,236.575c-.702,13.393-.785,16.7-.785,17.567,0,5.457,2.604,7.358,7.978,7.358,5.25,0,9.136-2.521,10.582-7.895,.372-1.364,1.447-1.984,2.563-1.984,1.57,0,3.265,1.24,3.265,3.39,0,.29,0,.579-.082,.91-2.067,9.838-7.647,14.385-16.328,14.385s-14.054-3.348-14.054-12.773c0-.62,.041-1.24,.082-1.901,.496-7.358,.62-12.773,.744-19.345,0-1.488,1.447-2.232,2.936-2.232,1.529,0,3.1,.827,3.1,2.397v.124Z"/>
    <path d="M215.409,252.779c0-2.397,.124-9.011,2.108-15.377,.455-1.488,1.694-2.108,2.894-2.108,1.488,0,2.935,.951,2.935,2.356,0,.207-.041,.455-.124,.703-1.364,4.464-2.149,10.168-2.149,13.6,0,5.001,1.323,8.102,3.597,8.102,2.025,0,3.803-.992,4.96-4.216,.455-1.281,1.447-1.86,2.48-1.86,1.529,0,3.142,1.24,3.142,3.266,0,.331-.042,.703-.166,1.116-2.479,8.763-5.911,11.574-10.582,11.574-5.787,0-9.094-5.084-9.094-17.154Zm31.664,12.153c-1.943,0-3.886-1.075-3.886-3.101,0-.124,.041-.289,.041-.413,.165-1.529,.289-3.018,.289-4.464,0-6.118-1.694-11.202-5.208-16.08-.372-.496-.537-1.034-.537-1.488,0-1.364,1.322-2.48,2.811-2.48,.868,0,1.736,.372,2.48,1.24,4.753,5.705,7.522,14.179,7.771,23.562,.042,2.108-1.777,3.224-3.761,3.224Z"/>
  </g>
  <path d="M114.648,78.981V34.671h10.68v44.311h-10.68Z"/>
  <path d="M161.736,79.617l-8.249-21.98c-1.365-3.996-2.688-9.812-3.075-12.582l-.17-.015c.41,4.482,.297,12.398-.261,18.852l-1.261,14.602-9.793-.847,3.814-44.146,12.452,1.076,8.327,21.76c1.858,4.895,3.34,10.838,3.485,12.447l.283,.024c-.539-5.635-.336-13.258,.045-17.672l1.33-15.396,9.791,.846-3.813,44.146-12.906-1.115Z"/>
  <path d="M202.357,75.876l-2.229-40.799-13.447,.735-.54-9.875,39.045-2.133,.54,9.875-13.513,.738,2.229,40.799-12.085,.66Z"/>
</svg>