<?xml version="1.0" encoding="UTF-8"?>
<svg id="_レイヤー_1" data-name="レイヤー 1" xmlns="http://www.w3.org/2000/svg" viewBox="0 0 651.016 416.777">
  <defs>
    <style>
      .cls-1 {
        fill: #fff;
        stroke-miterlimit: 10;
        stroke-width: 6px;
      }

      .cls-1, .cls-2 {
        stroke: #000;
      }

      .cls-2, .cls-3 {
        fill: none;
        stroke-width: 7px;
      }

      .cls-3 {
        stroke: #fff;
        stroke-linecap: round;
        stroke-linejoin: round;
      }

      .cls-4 {
        fill: red;
      }
    </style>
  </defs>
  <polygon points="634.664 390.359 17.874 383.811 20.434 87.723 637.224 94.272 634.664 390.359"/>
  <polygon class="cls-1" points="645.402 364.752 37.55 406.135 14.808 111.701 622.66 70.318 645.402 364.752"/>
  <g>
    <polygon class="cls-2" points="271.873 12.859 8.755 28.156 11.917 101.758 142.823 88.571 156.001 101.832 145.218 103.485 190.809 129.529 181.916 103.177 195.85 101.041 186.75 82.344 274.676 69.751 271.873 12.859"/>
    <g>
      <polygon points="278.873 19.859 15.755 35.156 18.917 108.758 149.823 95.571 163.001 108.832 152.218 110.485 197.809 136.529 188.916 110.177 202.85 108.041 193.75 89.344 281.676 76.751 278.873 19.859"/>
      <polygon class="cls-4" points="271.873 12.859 8.755 28.156 11.917 101.758 142.823 88.571 156.001 101.832 145.218 103.485 190.809 129.529 181.916 103.177 195.85 101.041 186.75 82.344 274.676 69.751 271.873 12.859"/>
    </g>
  </g>
  <g>
    <path class="cls-3" d="M83.243,80.567l-2.519-27.418-22.036,2.023,2.519,27.418-15.559,1.43-6.025-65.602,15.559-1.43,2.325,25.315,22.036-2.023-2.325-25.315,15.728-1.444,6.025,65.602-15.728,1.444Z"/>
    <path d="M83.243,80.567l-2.519-27.418-22.036,2.023,2.519,27.418-15.559,1.43-6.025-65.602,15.559-1.43,2.325,25.315,22.036-2.023-2.325-25.315,15.728-1.444,6.025,65.602-15.728,1.444Z"/>
  </g>
  <g>
    <path d="M83.724,185.882c-2.185,0-4.051-1.821-4.051-4.006s1.866-4.051,4.051-4.051,4.051,1.866,4.051,4.051-1.866,4.006-4.051,4.006Z"/>
    <path d="M127.745,201.722c-2.458,0-3.732-1.275-3.732-3.732v-10.333h-.319c-.592,0-1.183-.182-1.638-.592v9.468c0,2.094-1.093,3.096-3.141,3.096h-5.917c-2.094,0-3.141-1.002-3.141-3.096v-29.904c0-1.866,1.047-2.776,3.141-2.776h5.917c2.048,0,3.141,.91,3.141,2.776v16.796c1.866-1.685,3.095-3.414,4.415-5.735l.136-.228c.182-.183,.41-.364,.637-.455h-2.777c-1.183,0-1.775-1.002-1.775-2.003s.592-2.003,1.775-2.003h5.326v-1.274h-4.961c-1.047,0-1.548-.91-1.548-1.775,0-.91,.501-1.775,1.548-1.775h4.961v-1.183h-5.553c-1.183,0-1.775-1.047-1.775-2.14,0-1.047,.592-2.094,1.775-2.094h7.101c2.367,0,3.596,1.093,3.596,3.231v8.147c0,2.094-1.229,2.868-3.596,2.868h-1.502c.819,.318,1.457,.955,1.502,1.774h4.006c.273-.272,.546-.591,.774-.955,.228-.364,.546-.684,.91-.819-1.001-.137-1.502-1.093-1.502-2.003,0-1.002,.592-2.003,1.775-2.003h5.781v-1.274h-5.462c-1.047,0-1.548-.91-1.548-1.775,0-.91,.501-1.775,1.548-1.775h5.462v-1.183h-5.917c-1.183,0-1.775-1.047-1.775-2.14,0-1.047,.592-2.094,1.775-2.094h7.647c2.367,0,3.596,1.093,3.596,3.231v8.147c0,2.094-1.229,2.868-3.596,2.868h-5.052c.774,.318,1.365,.864,1.365,1.456,0,.137,0,.228-.046,.318h5.963c1.274,0,1.957,1.047,1.957,2.049,0,.956-.592,1.866-1.957,1.866h-6.6v1.138h5.826c1.092,0,1.593,.865,1.593,1.729,0,.91-.501,1.775-1.593,1.775h-5.826v1.184h5.826c1.092,0,1.593,.91,1.593,1.775,0,.91-.501,1.82-1.593,1.82h-5.826v1.456h7.101c1.411,0,2.094,2.003,2.094,4.052,0,2.003-.728,4.097-2.094,4.097h-19.8Zm-10.514-33.273h-2.139v8.83h2.139v-8.83Zm0,13.428h-2.139v9.559h2.139v-9.559Zm17.979,.819h-5.872v1.138h5.872v-1.138Zm0,4.643h-5.872v1.184h5.872v-1.184Zm0,4.779h-5.872v1.456h5.872v-1.456Z"/>
    <path d="M161.981,201.085c-2.594,0-4.552-2.048-4.552-4.506v-29.268c0-2.367,2.094-4.097,4.552-4.097h25.717c2.412,0,4.552,1.775,4.552,4.097v29.268c0,2.503-2.048,4.506-4.552,4.506h-25.717Zm24.352-32.181c0-.455-.409-.729-.865-.729h-21.302c-.455,0-.819,.273-.819,.729v8.284h22.986v-8.284Zm0,13.883h-22.986v9.285c0,.455,.364,.774,.819,.774h21.302c.455,0,.865-.319,.865-.774v-9.285Z"/>
    <path d="M207.686,200.766c-2.048,0-4.096-1.093-4.552-3.505-.592-3.323-.865-7.966-.865-12.198,0-2.504,.091-11.425,2.458-19.937,.41-1.502,1.821-2.23,3.186-2.23,1.638,0,3.231,.956,3.231,2.686,0,.272-.045,.546-.136,.864-1.365,4.598-2.048,9.194-2.048,13.701,0,4.278,1.138,10.059,2.913,14.747,.273,.729,.41,1.365,.41,1.957,0,2.549-2.276,3.915-4.597,3.915Zm29.04-10.424c2.185,0,3.232,2.094,3.232,4.278,0,2.14-1.047,4.37-2.959,4.507-2.731,.228-5.234,.318-7.465,.318-9.558,0-16.295-1.866-16.295-9.877,0-.046,.091-7.647,4.142-7.647,1.32,0,2.595,.865,2.595,2.276,0,.228-.046,.501-.137,.773-.228,.774-.364,1.457-.364,2.094,0,1.411,.546,3.688,9.468,3.688,2.094,0,4.597-.137,7.465-.41h.318Zm-1.047-18.298c-3.095-.228-5.917-.364-8.648-.364-3.323,0-6.463,.183-9.604,.547h-.364c-1.639,0-2.549-1.411-2.549-2.868,0-1.319,.774-2.594,2.503-2.776,3.505-.455,6.782-.637,10.196-.637,2.731,0,5.553,.136,8.694,.363,1.73,.137,2.595,1.548,2.595,2.913,0,1.411-.91,2.822-2.595,2.822h-.228Z"/>
    <path d="M252.482,178.645c-2.048-.865-3.96-1.639-5.553-2.23-1.229-.501-1.775-1.457-1.775-2.413,0-1.365,1.138-2.776,2.867-2.776,.41,0,.819,.046,1.275,.228,1.775,.592,3.641,1.411,5.69,2.276,1.047,.455,1.457,1.319,1.457,2.23,0,1.456-1.047,2.958-2.731,2.958-.364,0-.774-.091-1.229-.272Zm-1.457,23.122c-2.549,0-5.598-2.321-5.598-5.098,0-.773,.228-1.593,.774-2.458,2.321-3.551,4.597-8.512,5.462-11.151,.41-1.229,1.365-1.775,2.321-1.775,1.547,0,3.141,1.229,3.141,3.231v.318c-.273,2.959-1.184,8.785-2.868,14.475-.5,1.729-1.775,2.458-3.232,2.458Zm3.732-31.907c-.455,0-.91-.137-1.411-.409-1.912-1.002-3.414-1.775-5.052-2.686-1.138-.592-1.593-1.457-1.593-2.322,0-1.365,1.183-2.64,2.867-2.64,.501,0,1.093,.091,1.684,.41,1.729,.91,3.186,1.684,5.052,2.821,.91,.547,1.274,1.274,1.274,2.049,0,1.365-1.229,2.776-2.822,2.776Zm3.596,31.589c-1.957,0-2.959-2.321-2.959-4.506,0-2.276,1.001-4.552,2.959-4.552h10.059v-7.92h-8.284c-1.411,0-2.048-1.229-2.048-2.413,0-1.274,.683-2.549,2.048-2.549h8.284v-7.191h-9.331c-1.365,0-2.048-1.229-2.048-2.458s.683-2.458,2.048-2.458h9.24c-.729-.637-1.548-1.229-2.458-1.912-.546-.409-.819-.91-.819-1.41,0-1.32,1.593-2.686,3.095-2.686,.455,0,.91,.136,1.32,.409,1.866,1.32,3.141,2.321,4.552,3.459,.592,.456,.819,.956,.819,1.548,0,.183-.045,.41-.091,.592h8.557c1.411,0,2.139,1.229,2.139,2.458s-.728,2.458-2.139,2.458h-9.104v7.191h8.011c1.411,0,2.094,1.229,2.094,2.458,0,1.274-.683,2.504-2.094,2.504h-8.011v7.92h9.104c2.003,0,3.004,2.275,3.004,4.552,0,2.185-1.001,4.597-3.004,4.597l-24.943-.091Z"/>
    <path d="M297.915,201.085c-2.549,0-4.506-2.048-4.506-4.506v-29.404c0-2.367,2.094-4.097,4.506-4.097h26.946c2.322,0,4.506,1.775,4.506,4.097v29.404c0,2.503-2.048,4.506-4.506,4.506h-26.946Zm25.58-32.271c0-.455-.364-.729-.865-.729h-22.531c-.5,0-.819,.273-.819,.729v3.687h24.215v-3.687Zm0,8.466h-24.215v4.962h24.215v-4.962Zm0,10.241h-24.215v4.507c0,.409,.319,.773,.819,.773h22.531c.501,0,.865-.364,.865-.773v-4.507Z"/>
    <path d="M350.63,164.626c-.774,14.747-.865,18.389-.865,19.345,0,6.008,2.868,8.102,8.785,8.102,5.781,0,10.059-2.776,11.652-8.693,.41-1.502,1.593-2.185,2.822-2.185,1.73,0,3.596,1.365,3.596,3.732,0,.318,0,.637-.091,1.001-2.276,10.833-8.42,15.84-17.979,15.84s-15.476-3.687-15.476-14.064c0-.683,.046-1.365,.091-2.094,.546-8.103,.683-14.064,.819-21.302,0-1.639,1.593-2.458,3.232-2.458,1.684,0,3.414,.91,3.414,2.64v.137Z"/>
    <path d="M418.275,172.955c1.547,0,2.412,1.366,2.412,2.731,0,1.274-.728,2.504-2.321,2.64-3.641,.319-7.647,.592-11.789,.683,.046,1.912,.091,3.642,.091,5.28,4.506,1.32,8.785,3.096,12.29,5.417,1.502,1.001,2.139,2.412,2.139,3.823,0,2.64-2.094,5.28-4.278,5.28-.637,0-1.275-.228-1.866-.729-2.549-2.185-5.462-4.278-8.239-5.826-.045,7.874-5.098,10.104-10.833,10.104-7.101,0-11.607-3.96-11.607-10.15,0-5.963,3.915-9.422,12.472-9.422,1.275,0,2.595,.091,3.915,.273,0-1.184-.045-2.595-.045-3.915h-2.594c-3.823,0-7.647-.045-11.288-.137-1.684,0-2.549-1.456-2.549-2.867,0-1.32,.819-2.64,2.458-2.64h.182c4.415,.182,9.058,.272,13.655,.272l-.091-2.821c-3.642,0-7.556,0-11.789-.092-1.639,0-2.458-1.274-2.458-2.594s.819-2.641,2.413-2.641h.182c4.142,.046,7.92,.137,11.516,.137,0-.683-.045-1.32-.045-1.866v-.091c0-1.502,1.457-2.276,2.958-2.276s3.05,.819,3.095,2.458c0,.501,0,1.047,.045,1.639,3.05-.045,6.099-.272,9.286-.546h.318c1.639,0,2.504,1.32,2.504,2.64,0,1.229-.728,2.413-2.23,2.549-3.323,.273-6.509,.456-9.786,.592,.046,.956,.046,1.73,.046,2.777,4.096-.137,8.056-.319,11.516-.684h.319Zm-17.615,16.478c-1.411-.592-3.323-1.047-4.734-1.047-2.913,0-4.597,.455-4.597,1.912,0,1.866,1.775,2.594,4.552,2.594,3.414,0,4.779-.637,4.779-3.186v-.273Z"/>
    <path d="M441.677,164.626c-.774,14.747-.865,18.389-.865,19.345,0,6.008,2.867,8.102,8.785,8.102,5.781,0,10.059-2.776,11.652-8.693,.41-1.502,1.593-2.185,2.822-2.185,1.73,0,3.596,1.365,3.596,3.732,0,.318,0,.637-.091,1.001-2.276,10.833-8.421,15.84-17.979,15.84s-15.476-3.687-15.476-14.064c0-.683,.046-1.365,.091-2.094,.546-8.103,.683-14.064,.819-21.302,0-1.639,1.593-2.458,3.232-2.458,1.684,0,3.414,.91,3.414,2.64v.137Z"/>
    <path d="M496.441,194.439c0,5.963-4.324,7.602-9.468,7.602-6.008,0-9.331-3.323-9.331-8.147,0-6.19,3.596-8.785,10.014-8.785,.865,0,1.73,.091,2.731,.228-.091-4.916-.137-10.97-.273-14.61v-.046c0-1.229,1.411-1.912,2.822-1.912,1.365,0,2.731,.638,2.731,2.003v4.188c2.594-.091,6.008-.228,9.104-.5h.228c1.548,0,2.276,1.183,2.276,2.412,0,1.184-.683,2.367-2.048,2.503-3.004,.273-6.736,.455-9.513,.455,.182,2.23,.228,4.779,.455,6.782,4.051,1.184,7.738,3.141,10.605,4.825,1.183,.729,1.638,1.911,1.638,3.095,0,2.276-1.684,4.734-3.641,4.734-.592,0-1.229-.228-1.821-.729-2.048-1.639-4.051-3.141-6.509-4.188v.091Zm-10.651-4.051c-1.274,0-2.276,.501-2.276,1.639,0,1.229,1.365,1.957,3.323,1.957,2.731,0,3.414-.865,3.459-2.23-2.094-1.365-4.188-1.365-4.506-1.365Z"/>
    <path d="M541.145,171.544c10.287,0,15.476,4.232,15.476,12.38,0,7.647-3.869,16.067-23.396,18.344-.182,0-.364,.045-.5,.045-2.958,0-4.415-3.095-4.415-5.689,0-1.911,.774-3.596,2.276-3.732,13.746-1.229,19.299-5.052,19.299-9.649,0-4.233-2.367-6.1-8.648-6.1-4.506,0-10.014,1.366-15.794,3.505-.41,.137-.819,.228-1.184,.228-1.912,0-3.186-1.866-3.186-3.55,0-1.093,.546-2.094,1.729-2.549,6.236-2.14,13.2-3.231,18.344-3.231Zm-12.244-3.505c-1.593-.228-2.367-1.502-2.367-2.731,0-1.411,.956-2.822,2.64-2.822,.182,0,.364,0,.546,.046,6.281,.91,12.198,1.411,19.982,1.593,1.73,.046,2.549,1.274,2.549,2.595,0,1.456-1.047,3.004-2.822,3.004-.182,0-10.287-.318-20.528-1.684Z"/>
    <path d="M83.724,273.419c-2.185,0-4.051-1.821-4.051-4.006s1.866-4.051,4.051-4.051,4.051,1.866,4.051,4.051-1.866,4.006-4.051,4.006Z"/>
    <path d="M137.304,289.35c-2.412,0-5.417-.547-5.417-4.87v-9.878h-5.28c0,8.694-.956,14.384-14.065,15.203h-.228c-2.367,0-3.641-2.549-3.641-4.87,0-2.23,1.047-4.324,3.186-4.37,7.51-.182,9.058-.773,9.058-5.963h-4.779c-2.503,0-3.732-1.138-3.732-3.413v-17.479c0-2.23,1.229-3.323,3.732-3.323h26.263c2.503,0,3.778,1.093,3.778,3.323v17.479c0,2.275-1.274,3.413-3.778,3.413h-4.87v5.28c0,.819,.501,.865,1.047,.865h3.55c1.593,0,1.912-.364,2.094-3.688,.046-1.319,1.32-1.957,2.595-1.957,1.411,0,2.867,.773,2.867,2.276v.091c-.273,7.373-.228,11.88-6.509,11.88h-5.872Zm3.232-34.274c0-.091-.046-.137-.136-.137h-22.212c-.045,0-.136,.091-.136,.137v1.593h22.485v-1.593Zm0,6.008h-22.485v1.866h22.485v-1.866Zm0,6.281h-22.485v1.866s.091,.092,.136,.092h22.212c.091,0,.136-.046,.136-.092v-1.866Z"/>
    <path d="M168.262,259.809c-.774,7.602-1.866,17.843-4.096,26.9-.546,2.14-2.139,3.005-3.915,3.005-2.777,0-5.963-2.14-5.963-4.734,0-.409,.091-.864,.273-1.319,3.459-7.966,6.145-15.84,7.237-23.578-1.821,.046-3.596,.091-5.189,.091-1.775,0-2.64-1.411-2.64-2.867,0-1.411,.865-2.822,2.594-2.822,1.821,0,3.823-.046,5.963-.091,.182-1.047,.273-2.23,.364-3.187,.091-1.32,1.548-2.003,3.004-2.003,1.548,0,3.186,.819,3.186,2.641,0,.5-.136,1.866-.182,2.275l5.462-.318h.318c1.73,0,2.64,1.411,2.64,2.822,0,1.319-.819,2.594-2.594,2.73l-6.463,.455Zm23.487,19.026c1.957,0,3.004,2.23,3.004,4.598,0,2.412-1.138,4.961-3.414,5.098-2.139,.137-4.142,.182-5.963,.182-12.472,0-17.433-3.095-17.433-11.516,0-2.367,0-6.054,3.414-6.054,1.411,0,2.685,.865,2.685,2.549,0,3.823,1.775,5.462,9.968,5.462,2.094,0,4.597-.137,7.556-.318h.182Zm-.501-12.426c-3.05-.183-6.145-.364-9.376-.364-1.866,0-3.732,.045-5.69,.182h-.228c-1.775,0-2.731-1.502-2.731-3.004,0-1.365,.819-2.686,2.549-2.776,2.094-.183,4.279-.228,6.463-.228,3.232,0,6.418,.137,9.331,.364,1.639,.136,2.367,1.456,2.367,2.821,0,1.457-.91,3.005-2.549,3.005h-.136Z"/>
    <path d="M206.867,288.622c-2.549,0-4.506-2.048-4.506-4.506v-29.404c0-2.367,2.094-4.097,4.506-4.097h26.946c2.322,0,4.506,1.775,4.506,4.097v29.404c0,2.503-2.048,4.506-4.506,4.506h-26.946Zm25.58-32.271c0-.455-.364-.729-.865-.729h-22.531c-.5,0-.819,.273-.819,.729v3.687h24.215v-3.687Zm0,8.466h-24.215v4.962h24.215v-4.962Zm0,10.241h-24.215v4.507c0,.409,.319,.773,.819,.773h22.531c.501,0,.865-.364,.865-.773v-4.507Z"/>
    <path d="M253.21,288.303c-2.048,0-4.096-1.093-4.552-3.505-.592-3.323-.865-7.966-.865-12.198,0-2.504,.091-11.425,2.458-19.937,.41-1.502,1.821-2.23,3.186-2.23,1.639,0,3.232,.956,3.232,2.686,0,.272-.046,.546-.137,.864-1.365,4.598-2.048,9.194-2.048,13.701,0,4.278,1.138,10.059,2.913,14.747,.273,.729,.41,1.365,.41,1.957,0,2.549-2.276,3.915-4.597,3.915Zm29.04-10.424c2.185,0,3.231,2.094,3.231,4.278,0,2.14-1.047,4.37-2.958,4.507-2.731,.228-5.234,.318-7.465,.318-9.559,0-16.295-1.866-16.295-9.877,0-.046,.091-7.647,4.142-7.647,1.32,0,2.594,.865,2.594,2.276,0,.228-.045,.501-.136,.773-.228,.774-.364,1.457-.364,2.094,0,1.411,.546,3.688,9.467,3.688,2.094,0,4.597-.137,7.465-.41h.319Zm-1.047-18.298c-3.095-.228-5.917-.364-8.648-.364-3.323,0-6.463,.183-9.604,.547h-.364c-1.638,0-2.549-1.411-2.549-2.868,0-1.319,.774-2.594,2.503-2.776,3.505-.455,6.782-.637,10.196-.637,2.731,0,5.553,.136,8.694,.363,1.729,.137,2.594,1.548,2.594,2.913,0,1.411-.91,2.822-2.594,2.822h-.228Z"/>
    <path d="M301.556,255.531c-.318,0-.364,.046-.364,.318v4.143h23.35c3.778,0,4.779,1.639,4.779,3.641,0,.638-.091,1.32-.228,2.003-1.093,5.144-2.867,9.468-5.599,13.019,1.912,.728,4.006,1.365,6.418,1.911,1.365,.318,1.957,1.912,1.957,3.642,0,2.503-1.32,5.553-3.414,5.553-.182,0-.364-.045-.592-.091-4.597-1.229-8.33-2.867-11.47-4.779-3.596,2.094-8.102,3.687-13.655,4.643-.182,.046-.319,.046-.501,.046-2.048,0-3.095-2.412-3.232-4.643-.455,1.547-.956,2.821-1.593,3.868-.455,.729-1.092,1.047-1.866,1.047-2.139,0-4.916-2.549-4.916-5.098,0-.637,.182-1.229,.5-1.82,2.503-4.278,4.051-10.924,4.051-18.024v-10.605c0-2.186,1.957-4.006,4.552-4.006h28.494c1.638,0,2.458,1.32,2.458,2.64,0,1.274-.819,2.595-2.458,2.595h-26.673Zm-.364,9.604c-.046,5.143-.41,11.196-1.32,16.158,.319-.455,.728-.729,1.229-.819,3.232-.455,5.963-1.047,8.375-1.866-3.004-3.778-4.87-8.33-6.145-13.473h-2.139Zm8.147,0c1.639,4.051,3.732,7.282,7.146,9.877,3.186-2.504,5.189-5.781,6.691-9.877h-13.837Z"/>
    <path d="M350.63,252.163c-.774,14.747-.865,18.389-.865,19.345,0,6.008,2.868,8.102,8.785,8.102,5.781,0,10.059-2.776,11.652-8.693,.41-1.502,1.593-2.185,2.822-2.185,1.73,0,3.596,1.365,3.596,3.732,0,.318,0,.637-.091,1.001-2.276,10.833-8.42,15.84-17.979,15.84s-15.476-3.687-15.476-14.064c0-.683,.046-1.365,.091-2.094,.546-8.103,.683-14.064,.819-21.302,0-1.639,1.593-2.458,3.232-2.458,1.684,0,3.414,.91,3.414,2.64v.137Z"/>
    <path d="M385.685,259.445c-2.048,0-3.141-1.639-3.141-3.231,0-1.365,.819-2.686,2.594-2.776,8.603-.455,18.48-.956,33.956-1.093,1.957,0,3.095,1.639,3.095,3.277,0,1.457-.91,2.868-2.913,3.05-16.113,1.502-23.76,9.969-23.76,15.521,0,3.55,3.141,6.327,10.378,6.327,2.139,0,4.597-.273,7.465-.774,.273-.045,.501-.045,.728-.045,2.276,0,3.368,2.139,3.368,4.415s-1.093,4.597-3.232,4.961c-2.731,.455-5.234,.638-7.465,.638-12.972,0-18.344-6.828-18.344-14.02,0-10.787,10.241-15.749,14.065-17.388-5.553,.273-11.516,.774-16.477,1.138h-.319Z"/>
    <path d="M431.572,287.438c-2.094,0-3.095-1.001-3.095-3.05v-30.313c0-1.866,1.001-2.777,3.095-2.777h7.692c2.094,0,3.141,.911,3.141,2.777v30.313c0,2.049-1.047,3.05-3.141,3.05h-7.692Zm5.462-31.543h-3.186v8.784h3.186v-8.784Zm0,13.428h-3.186v9.831h3.186v-9.831Zm27.401,2.594v9.923c0,5.872-1.775,8.011-7.556,8.011-2.23,0-5.098-.318-8.648-.864-1.639-.273-2.412-2.276-2.412-4.233,0-2.275,.956-4.552,2.822-4.552,.136,0,.228,.046,.364,.046,3.186,.455,5.326,.773,6.737,.773,2.412,0,2.731-.91,2.731-3.641v-5.463h-9.103c.41,.137,.819,.319,1.183,.592,.819,.638,1.639,1.548,2.322,2.686,.273,.455,.41,.91,.41,1.366,0,1.82-2.322,3.049-4.188,3.049-.956,0-1.775-.318-2.094-1.047-.546-1.183-1.047-2.048-1.957-3.231-.273-.318-.364-.683-.364-1.001,0-1.047,1.093-2.049,2.458-2.413h-2.23c-1.457,0-2.185-1.229-2.185-2.458s.728-2.457,2.185-2.457h14.019v-2.458h-13.837c-1.457,0-2.185-1.229-2.185-2.458,0-1.184,.728-2.413,2.185-2.413h7.647v-2.867h-6.463c-1.548,0-2.367-1.184-2.367-2.412,0-1.184,.819-2.367,2.367-2.367h6.463v-.91c0-1.411,1.411-2.14,2.822-2.14s2.822,.729,2.822,2.14v.91h5.735c1.593,0,2.367,1.184,2.367,2.367,0,1.229-.774,2.412-2.367,2.412h-5.735v2.867h7.192c1.547,0,2.321,1.229,2.321,2.413,0,1.229-.774,2.458-2.321,2.458h-1.138v2.458h1.593c1.593,0,2.412,1.229,2.412,2.457s-.819,2.458-2.412,2.458h-1.593Z"/>
    <path d="M473.182,286.21c.683-8.057,.728-16.432,.728-26.445v-6.873c0-1.866,1.001-2.776,3.095-2.776h12.198c2.094,0,3.141,.91,3.141,2.776v9.058c0,1.82-1.047,2.822-3.141,2.822h-9.832s.364,11.652,1.866,21.483c.045,.183,.045,.319,.045,.501,0,2.048-1.957,3.095-3.915,3.095-2.094,0-4.188-1.138-4.188-3.322v-.318Zm13.792-31.999h-7.601v1.548h7.601v-1.548Zm0,4.779h-7.601v1.639h7.601v-1.639Zm20.574,5.781h-10.241c-2.048,0-3.095-1.002-3.095-2.822v-9.058c0-1.866,1.047-2.776,3.095-2.776h12.562c2.094,0,3.141,.91,3.141,2.776v32.181c0,3.095-1.639,4.778-5.917,4.778-1.457,0-3.232-.182-5.371-.591-1.274-.228-1.775-1.594-1.866-3.05h-13.883c-1.957,0-2.959-1.002-2.959-2.959v-14.338c0-1.729,1.001-2.64,2.959-2.64h14.748c1.957,0,2.958,.91,2.958,2.64v12.153c1.047,.137,1.821,.228,2.412,.228,1.093,0,1.457-.273,1.457-.773v-15.749Zm-8.83,6.19h-10.697v1.911h10.697v-1.911Zm0,6.145h-10.697v2.094h10.697v-2.094Zm8.83-22.896h-7.92v1.548h7.92v-1.548Zm0,4.779h-7.92v1.639h7.92v-1.639Z"/>
    <path d="M520.754,272.236c-1.457,0-2.185-1.093-2.185-2.186s.728-2.185,2.185-2.185h8.739v-1.184h-7.192c-1.457,0-2.185-1.001-2.185-1.957,0-1.001,.729-1.957,2.185-1.957h7.192v-1.138h-5.781c-1.32,0-2.003-.819-2.139-1.729-1.092-.137-2.048-.729-2.048-1.73v-4.142c0-1.866,1.001-2.822,3.095-2.822h6.873v-.501c0-1.138,1.411-1.684,2.777-1.684,1.411,0,2.776,.546,2.776,1.684v.501h7.101c2.094,0,3.186,.956,3.186,2.822v4.233c0,1.001-1.001,1.593-2.094,1.729-.136,.864-.865,1.639-2.185,1.639h-6.008v1.138h7.101c1.457,0,2.185,.956,2.185,1.957,0,.956-.729,1.957-2.185,1.957h-7.101v1.184h8.557c1.457,0,2.185,1.093,2.185,2.185s-.729,2.186-2.185,2.186h-22.849Zm3.141,16.887c-2.094,0-3.095-1.093-3.095-3.096v-9.968c0-1.866,1.001-2.776,3.095-2.776h17.387c2.094,0,3.141,.91,3.141,2.776v10.06c0,2.048-1.001,3.004-3.141,3.004h-17.387Zm5.599-32.363c0-.455,.228-.864,.592-1.138h-5.553v2.003h4.961v-.865Zm9.65,20.665h-13.063v3.187h13.063v-3.187Zm1.047-21.803h-5.735c.364,.273,.592,.683,.592,1.138v.865h5.144v-2.003Zm6.008-1.957c0-1.411,1.32-2.094,2.64-2.094s2.64,.683,2.64,2.094v21.029c0,1.41-1.32,2.139-2.64,2.139s-2.64-.729-2.64-2.139v-21.029Zm6.736-2.549c0-1.411,1.365-2.094,2.731-2.094s2.731,.683,2.731,2.094v32.954c0,3.687-1.183,5.599-4.916,5.599-1.275,0-2.868-.228-4.825-.683-1.502-.318-2.185-2.276-2.185-4.188,0-2.504,1.047-5.144,2.958-5.144,.091,0,.182,.046,.319,.046,1.047,.182,1.729,.272,2.185,.272,.865,0,1.001-.318,1.001-1.092v-27.766Z"/>
    <path d="M142.583,323.195c2.139,0,3.186,2.275,3.186,4.552s-1.047,4.597-3.004,4.733c-3.823,.319-7.419,.455-10.742,.455-14.247,0-23.214-3.141-23.214-12.653,0-7.465,4.006-11.698,12.244-14.52-.228-3.414-.637-6.646-1.047-10.105,0-.137-.046-.228-.046-.318,0-1.639,1.775-2.549,3.55-2.549,1.639,0,3.232,.819,3.368,2.549,.182,2.959,.364,5.689,.501,8.693,6.782-1.456,14.292-1.957,14.338-1.957,2.185,0,3.323,1.548,3.323,3.096,0,1.411-.956,2.821-2.913,2.958-20.437,1.411-26.673,6.281-26.673,10.696,0,3.96,4.096,5.235,11.789,5.235,4.051,0,9.104-.364,15.066-.865h.273Z"/>
    <path d="M158.475,332.162c-1.593,0-3.05-.773-3.505-2.64-.683-2.731-.91-6.782-.91-10.697,0-10.65,1.593-17.888,2.867-22.985,.364-1.411,1.593-2.003,2.868-2.003,1.593,0,3.232,.91,3.232,2.412,0,.183-.046,.364-.091,.592-1.775,6.327-2.23,13.063-2.23,15.476,0,4.688,1.001,11.152,2.276,14.839,.136,.409,.228,.773,.228,1.138,0,2.23-2.503,3.869-4.734,3.869Zm31.771-32.545c1.547,0,2.367,1.411,2.367,2.868,0,1.319-.683,2.64-2.185,2.776-1.684,.137-3.641,.318-5.826,.409,.136,4.052,.228,7.784,.273,10.925,6.918,3.049,8.466,4.232,8.466,7.055,0,2.595-1.866,5.28-3.778,5.28-.546,0-1.047-.228-1.548-.683-.956-.911-2.094-1.912-3.323-2.686-.546,6.054-4.87,7.692-10.014,7.692-6.919,0-11.061-3.551-11.061-10.651,0-5.325,3.778-8.921,10.287-8.921,1.548,0,3.277,.318,4.961,.773-.045-2.731-.136-5.508-.228-8.603h-2.913c-2.958,0-6.008-.046-9.058-.137-1.866-.046-2.822-1.548-2.822-3.004,0-1.411,.865-2.731,2.686-2.731h.273c3.277,.183,6.6,.273,9.786,.273h1.912c0-.137-.182-4.779-.182-5.007,0-1.457,1.638-2.276,3.186-2.276,1.411,0,2.776,.683,2.822,2.14l.137,4.916c2.094-.046,3.96-.228,5.508-.41h.273Zm-16.341,19.527c-2.503,0-3.96,.546-3.96,2.094,0,1.593,1.639,2.822,4.734,2.822,2.958,0,3.915-.774,3.915-2.822-1.548-1.366-3.095-2.094-4.688-2.094Z"/>
    <path d="M204.317,332.208c-3.232,0-4.506-2.23-4.506-12.927,0-5.599,.364-13.564,2.867-23.487,.364-1.411,1.593-2.003,2.868-2.003,1.593,0,3.232,.91,3.232,2.413,0,.182-.046,.363-.091,.591-.364,1.366-2.23,8.103-2.23,15.613,0,4.688,.683,11.105,2.048,14.701,.182,.455,.273,.911,.273,1.32,0,2.275-2.322,3.778-4.461,3.778Zm26.172-15.567c6.964,3.414,7.874,4.324,7.874,7.056,0,2.503-1.548,5.188-3.55,5.188-.592,0-1.229-.228-1.866-.773-.774-.683-1.73-1.457-2.685-2.14-1.001,5.735-5.508,7.237-10.605,7.237-6.281,0-10.469-3.732-10.469-9.194,0-7.146,4.006-10.241,10.332-10.241,1.593,0,3.186,.318,4.961,.91l-.137-5.144h-2.822c-3.05,0-6.236-.045-9.377-.182-1.912-.046-2.867-1.411-2.867-2.776,0-1.32,.91-2.641,2.731-2.641h.273c3.095,.183,6.327,.318,9.422,.318,.865,0,1.684-.045,2.503-.045,0-1.457-.045-2.458-.091-3.778h-2.412c-2.685,0-5.553-.045-8.648-.182-1.639-.046-2.412-1.274-2.412-2.549,0-1.32,.865-2.641,2.503-2.641h.182c3.277,.137,6.418,.183,9.285,.183,4.37,0,8.193-.137,11.379-.41h.273c1.593,0,2.412,1.274,2.412,2.549,0,1.184-.728,2.367-2.23,2.504-1.411,.137-2.913,.273-4.415,.318l.136,3.869c1.958-.091,3.687-.182,5.144-.318h.319c1.593,0,2.458,1.365,2.458,2.73,0,1.184-.728,2.367-2.23,2.504-1.593,.137-3.55,.272-5.598,.364l.228,7.282Zm-11.47,2.641c-2.549,0-3.323,.864-3.323,2.185,0,1.548,1.229,2.549,3.96,2.549,3.05,0,4.278-.546,4.688-2.504-1.775-1.456-3.732-2.229-5.325-2.229Z"/>
    <path d="M249.158,332.663c-3.231,0-4.506-2.23-4.506-12.927,0-5.599,.364-13.564,2.868-23.487,.364-1.411,1.593-2.003,2.867-2.003,1.593,0,3.232,.911,3.232,2.413,0,.182-.046,.364-.091,.592-.364,1.365-2.23,8.102-2.23,15.612,0,4.688,.683,11.105,2.048,14.701,.182,.456,.273,.911,.273,1.32,0,2.276-2.322,3.778-4.461,3.778Zm26.172-15.567c2.412,1.184,4.643,2.458,6.19,3.46,1.183,.773,1.684,2.185,1.684,3.687,0,2.503-1.457,5.144-3.459,5.144-.592,0-1.274-.228-1.957-.819-.819-.683-1.73-1.457-2.686-2.14-1.001,5.735-5.508,7.237-10.605,7.237-6.281,0-10.514-3.732-10.514-9.194,0-6.873,4.051-10.241,10.378-10.241,1.593,0,3.186,.318,4.961,.91l-.136-5.144h-2.822c-3.05,0-6.236-.045-9.376-.182-1.912-.046-2.868-1.411-2.868-2.776,0-1.32,.91-2.641,2.731-2.641h.273c3.095,.183,6.327,.319,9.422,.319,.865,0,1.684-.046,2.503-.046,0-1.457-.046-2.458-.091-3.778h-2.412c-2.686,0-5.553-.045-8.648-.182-1.638-.046-2.412-1.274-2.412-2.549,0-1.32,.865-2.641,2.504-2.641h.182c2.731,.092,5.371,.137,7.829,.137,3.778,0,7.192-.091,10.15-.228-.045-.182-.091-.364-.091-.546,0-1.001,.91-1.639,1.821-1.639,.546,0,1.138,.228,1.502,.773,.273,.364,2.822,4.415,2.822,5.508,0,1.047-.91,1.729-1.821,1.729-.592,0-1.183-.272-1.593-.864-1.274,.136-2.594,.228-3.914,.272l.136,3.869c1.957-.091,3.687-.182,5.143-.318h.319c1.593,0,2.458,1.365,2.458,2.73,0,1.184-.728,2.367-2.23,2.504-1.593,.137-3.55,.273-5.599,.364l.228,7.282Zm-11.47,2.641c-2.549,0-3.323,.864-3.323,2.185,0,1.548,1.229,2.549,3.96,2.549,3.05,0,4.279-.546,4.688-2.504-1.775-1.456-3.732-2.229-5.325-2.229Zm20.847-20.938c-.546,0-1.138-.272-1.502-.955-.637-1.229-1.593-2.868-2.367-3.915-.273-.364-.364-.683-.364-1.001,0-.774,.819-1.366,1.684-1.366,.546,0,1.138,.228,1.547,.729,.137,.183,2.868,3.642,2.868,4.87,0,.911-.91,1.639-1.866,1.639Z"/>
    <path d="M328.592,328.839c0,3.186-1.275,4.733-4.279,4.733-.865,0-1.912-.137-3.141-.41-1.001-.182-1.548-.955-1.775-1.774-.319,.318-.91,.409-1.411,.409-.319,0-.592,0-.819-.091-3.596-1.184-5.872-3.323-7.966-5.599-1.821,2.367-4.006,4.597-9.058,6.1-.182,.045-.364,.091-.501,.091-1.001,0-2.139-.729-2.685-1.775-.046,2.048-2.003,3.095-4.006,3.095-2.048,0-4.142-1.138-4.142-3.322v-.318c.683-6.782,.774-13.746,.774-21.712v-11.562c0-1.911,1.001-2.776,3.095-2.776h12.153c2.094,0,3.141,.865,3.141,2.776v8.33c0,1.866-1.365,2.822-3.368,2.822,.182,.136,.364,.318,.501,.5,.41,.638,.865,1.411,1.229,2.186h5.007l1.183-2.003c.182-.319,.455-.501,.774-.683-2.003,0-3.459-.956-3.459-2.822v-8.33c0-1.911,1.047-2.776,3.095-2.776h12.517c2.094,0,3.141,.865,3.141,2.776v32.136Zm-25.854-30.815h-7.783v1.229h7.783v-1.229Zm0,4.506h-7.783v1.229h7.783v-1.229Zm-4.825,17.979c-1.411,0-2.139-1.047-2.139-2.094,0-1.001,.728-2.048,2.139-2.048h8.557c.045-.456,.091-.774,.091-1.184v-.455h-7.146c-1.457,0-2.185-1.047-2.185-2.094s.728-2.094,2.185-2.094h1.502c-.273-.319-.364-.684-.364-.956,0-.729,.592-1.366,1.365-1.729h-6.964s.319,9.103,1.365,17.888c.273-.773,.774-1.411,1.548-1.593,3.915-1.002,5.826-2.094,7.101-3.642h-7.055Zm25.399-12.653h-7.556c.91,.272,1.548,.91,1.548,1.684,0,.318-.091,.638-.319,1.002h1.502c1.457,0,2.185,1.047,2.185,2.094s-.728,2.094-2.185,2.094h-6.827c0,.592-.046,1.001-.091,1.639h8.557c1.457,0,2.139,1.047,2.139,2.048,0,1.047-.683,2.094-2.139,2.094h-7.101c1.821,1.639,3.96,2.64,6.372,3.141,.774,.182,1.183,.592,1.365,1.184,.228-.091,.41-.137,.683-.137,.136,0,.273,0,.41,.046,.409,.091,.683,.136,.91,.136,.41,0,.546-.182,.546-.546v-16.477Zm0-9.832h-8.193v1.229h8.193v-1.229Zm0,4.506h-8.193v1.229h8.193v-1.229Z"/>
    <path d="M366.787,307.81c-.228-.364-.319-.683-.319-1.001,0-1.229,1.411-2.14,2.731-2.14,.728,0,1.411,.273,1.866,.956,1.411,2.094,2.867,4.733,3.869,7.146,.091,.273,.137,.501,.137,.729,0,1.411-1.548,2.549-2.959,2.549-.819,0-1.548-.364-1.912-1.274-.182-.455-.364-.956-.592-1.411-2.412,.183-5.052,.364-7.783,.501,0,0,.683,9.24,2.003,16.341,.045,.091,.045,.228,.045,.409,0,2.003-2.412,3.004-4.87,3.004s-4.87-1.001-4.87-3.004c0-.182,0-.318,.046-.409,1.32-7.056,2.003-16.067,2.003-16.067-3.55,.182-7.055,.272-10.241,.364h-.091c-1.411,0-2.23-1.32-2.23-2.595,0-1.093,.683-2.185,2.185-2.185,1.957,0,4.006-.046,6.145-.092l2.002-1.411c-2.321-1.365-4.825-2.776-7.51-4.188-.728-.363-1.001-1.001-1.001-1.639,0-1.274,1.229-2.73,2.64-2.73,.364,0,.774,.091,1.138,.318l1.684,.91c1.001-.819,1.957-1.639,2.913-2.503-2.094,.045-4.324,.045-6.645,.045-1.138,0-1.866-.773-2.139-1.639-.546,2.186-1.365,4.507-2.276,6.601,.136,4.415,.546,13.974,1.138,21.575,.091-.183,.182-.319,.319-.455,2.367-2.913,3.778-4.962,5.143-8.512,.41-1.047,1.32-1.502,2.23-1.502,1.32,0,2.686,.955,2.686,2.549v.318c-.364,3.505-1.093,7.51-2.413,11.288-.546,1.593-1.775,2.14-3.141,2.14-1.639,0-3.459-.819-4.46-2.14l.136,1.365c0,.137,.045,.273,.045,.319,0,2.185-2.23,3.276-4.461,3.276-2.185,0-4.415-1.047-4.415-3.231,0-.091,.045-.182,.045-.364,.819-5.962,1.366-12.927,1.73-18.479-.136,.046-.228,.046-.364,.046-1.548,0-2.959-2.186-2.959-3.915,0-.546,.136-1.047,.455-1.411,2.458-2.822,4.415-7.01,5.598-11.925,.228-1.047,1.32-1.548,2.458-1.548,1.32,0,2.685,.637,2.867,1.82,.319-.409,.819-.683,1.502-.683,10.014,0,17.979-.455,23.76-1.047,.182,0,.319-.046,.455-.046,1.639,0,2.594,1.275,2.594,2.458,0,.956-.637,1.866-2.048,2.003-2.913,.318-6.509,.638-10.788,.819-1.821,1.957-3.596,3.596-5.644,5.234,1.001,.547,1.957,1.184,2.958,1.775,2.549-1.912,4.779-3.823,6.919-5.872,.5-.455,1.047-.637,1.639-.637,1.457,0,2.913,1.365,2.913,2.686,0,.455-.182,.91-.592,1.319-2.594,2.413-5.234,4.598-8.102,6.691l6.463-.409-.637-1.093Zm-2.686,9.24c0-1.594,1.365-2.549,2.686-2.549,.91,0,1.821,.455,2.23,1.502,1.365,3.55,2.776,5.599,5.143,8.512,.546,.683,.774,1.365,.774,2.002,0,2.322-2.822,4.279-5.28,4.279-1.366,0-2.595-.547-3.141-2.14-1.32-3.778-2.048-7.783-2.413-11.288v-.318Z"/>
    <path d="M382.406,307.082c-1.639,0-2.549-1.593-2.549-3.095,0-1.229,.637-2.413,2.003-2.504,2.23-.182,4.461-.318,6.646-.409,.182-1.775,.364-3.596,.455-5.508,.046-1.365,1.548-2.094,3.05-2.094s3.004,.729,3.004,2.275c0,.364-.364,3.732-.501,5.008,1.866-.046,3.596-.046,5.144-.046,6.327,0,9.467,2.867,9.467,10.787,0,16.204-3.231,22.167-10.241,22.167-2.777,0-5.052-.683-6.737-1.32-1.32-.5-1.912-2.139-1.912-3.914,0-2.686,1.32-5.689,3.277-5.689,.273,0,.546,.045,.819,.182,1.548,.638,2.686,1.047,4.324,1.047,2.868,0,4.233-3.869,4.233-12.472,0-4.597-1.32-5.279-3.55-5.279-1.593,0-3.505,.045-5.599,.136-.956,8.648-2.549,18.253-7.419,25.672-.683,1.093-1.638,1.548-2.64,1.548-2.413,0-5.052-2.595-5.052-5.325,0-.956,.364-1.958,1.183-2.868,4.188-4.552,6.919-12.062,7.875-18.707-1.639,.137-3.323,.228-5.052,.409h-.228Zm34.502,9.24c-1.001,0-1.866-.455-2.276-1.457-1.639-4.232-4.279-8.921-6.373-11.606-.41-.546-.592-1.093-.592-1.593,0-1.366,1.274-2.413,2.822-2.413,.819,0,1.775,.364,2.549,1.139,2.549,2.549,5.417,6.19,7.783,10.241,.364,.637,.501,1.229,.501,1.775,0,2.229-2.413,3.914-4.415,3.914Zm1.275-13.063c-.637,0-1.32-.273-1.821-.956-1.138-1.502-2.367-2.822-3.323-3.732-.455-.409-.637-.864-.637-1.274,0-.956,.956-1.82,2.094-1.82,.546,0,1.821,.182,5.417,4.733,.319,.41,.455,.774,.455,1.184,0,1.001-1.047,1.866-2.185,1.866Zm4.005-3.187c-.546,0-1.138-.272-1.593-.864-.91-1.138-2.185-2.458-3.095-3.231-.501-.41-.683-.865-.683-1.275,0-.864,.91-1.638,1.957-1.638,.546,0,1.593,.136,4.961,4.051,.319,.364,.455,.773,.455,1.138,0,.956-.956,1.82-2.003,1.82Z"/>
    <path d="M446.046,297.068c1.821,0,2.731,1.229,2.731,2.504,0,1.229-.819,2.458-2.458,2.549-2.731,.182-5.235,.318-7.784,.409-1.229,5.599-3.596,12.244-7.055,18.207-.774,1.32-1.775,1.82-2.776,1.82-2.048,0-4.097-2.139-4.097-4.232,0-.592,.182-1.184,.592-1.729,3.687-4.871,5.781-9.377,7.237-13.929l-3.687-.091c-1.729-.046-2.594-1.274-2.594-2.549,0-1.229,.819-2.458,2.458-2.458h.046c.819,0,1.639,.045,2.458,.045s1.684-.045,2.503-.045l.546-2.776c.228-1.229,1.457-1.821,2.777-1.821,1.548,0,3.186,.819,3.186,2.23,0,.41-.228,1.411-.41,2.23,2.003-.046,3.96-.182,5.963-.364h.364Zm10.06,8.147c-.091,2.14-.137,4.233-.137,6.146s.045,3.596,.091,5.052c2.686,1.002,5.508,2.367,7.738,3.778,1.229,.819,1.729,1.957,1.729,3.186,0,2.458-2.094,5.144-4.051,5.144-.592,0-1.138-.228-1.639-.773-1.092-1.184-2.094-1.866-3.55-2.822-.501,6.736-5.234,8.512-10.742,8.512-6.281,0-11.47-3.596-11.47-9.058,0-6.418,3.869-10.196,11.88-10.196,1.229,0,2.549,.137,4.096,.455-.136-1.593-.182-3.687-.182-6.008,0-1.138,0-2.367,.045-3.596,0-1.548,1.548-2.321,3.095-2.321s3.095,.819,3.095,2.321v.182Zm-10.605,14.429c-2.822,0-4.188,1.093-4.188,2.186,0,1.138,1.457,2.321,4.233,2.321,3.687,0,4.461-.729,4.552-3.096-1.229-.773-3.55-1.411-4.597-1.411Zm15.84-14.429c-2.64-2.003-6.19-3.914-9.149-4.916-1.184-.409-1.73-1.319-1.73-2.229,0-1.366,1.138-2.777,2.867-2.777,1.275,0,7.146,2.276,10.97,4.688,.956,.592,1.365,1.457,1.365,2.276,0,1.684-1.548,3.413-3.05,3.413-.455,0-.865-.136-1.274-.455Z"/>
    <path d="M472.452,313.773c0-2.641,.136-9.923,2.321-16.933,.501-1.639,1.866-2.321,3.186-2.321,1.638,0,3.232,1.047,3.232,2.595,0,.228-.045,.5-.137,.773-1.502,4.916-2.367,11.197-2.367,14.976,0,5.507,1.457,8.921,3.96,8.921,2.23,0,4.188-1.093,5.462-4.643,.501-1.411,1.593-2.049,2.731-2.049,1.684,0,3.459,1.366,3.459,3.597,0,.363-.045,.773-.182,1.229-2.731,9.649-6.509,12.745-11.652,12.745-6.372,0-10.014-5.599-10.014-18.89Zm34.866,13.382c-2.139,0-4.279-1.184-4.279-3.414,0-.137,.045-.318,.045-.455,.182-1.684,.319-3.322,.319-4.916,0-6.736-1.866-12.335-5.735-17.706-.41-.546-.592-1.138-.592-1.639,0-1.502,1.457-2.73,3.095-2.73,.956,0,1.912,.409,2.731,1.365,5.235,6.281,8.284,15.612,8.557,25.944,.046,2.321-1.957,3.551-4.142,3.551Z"/>
  </g>
  <path d="M114.649,78.981V34.67h10.68v44.311h-10.68Z"/>
  <path d="M161.743,79.648l-8.25-21.981c-1.365-3.995-2.688-9.812-3.075-12.582l-.169-.015c.41,4.482,.297,12.398-.261,18.852l-1.262,14.602-9.792-.846,3.814-44.146,12.451,1.076,8.327,21.76c1.858,4.894,3.341,10.838,3.486,12.447l.282,.024c-.54-5.636-.337-13.259,.045-17.673l1.33-15.395,9.792,.846-3.814,44.146-12.905-1.115Z"/>
  <path d="M202.385,75.824l-2.23-40.799-13.448,.734-.539-9.875,39.046-2.134,.539,9.875-13.514,.738,2.23,40.8-12.084,.66Z"/>
</svg>