<?xml version="1.0" encoding="UTF-8"?>
<svg id="_レイヤー_1" data-name="レイヤー 1" xmlns="http://www.w3.org/2000/svg" viewBox="0 0 651.016 96.913">
  <defs>
    <style>
      .cls-1 {
        fill: #fff;
      }

      .cls-2 {
        fill: none;
        stroke: #000;
        stroke-miterlimit: 10;
        stroke-width: 12px;
      }
    </style>
  </defs>
  <g>
    <g>
      <polygon class="cls-2" points="573.723 42.065 594.183 18.536 68.412 18.536 48.62 64.4 77.648 60.928 56.684 86.343 598.372 86.343 616.396 40.327 573.723 42.065"/>
      <polygon class="cls-2" points="566.723 35.065 587.183 11.536 61.412 11.536 41.62 57.4 70.648 53.928 49.684 79.343 591.372 79.343 609.396 33.327 566.723 35.065"/>
    </g>
    <polygon class="cls-1" points="566.723 35.065 587.183 11.536 61.412 11.536 41.62 57.4 70.648 53.928 49.684 79.343 591.372 79.343 609.396 33.327 566.723 35.065"/>
  </g>
  <g>
    <path d="M191.071,35.557v-6.318h15.916v6.318h-15.916Zm29.952,28.65c-5.017,0-6.463-1.543-8.199-3.231-.627,1.206-2.171,2.797-3.28,3.859l-3.425-4.389v3.231h-7.813v1.158h-6.463v-14.519h14.276v6.415c1.447-1.109,2.412-2.219,2.412-2.219v-8.44h-1.64v-7.717h8.247v-5.354h6.223v-2.315l-3.473,2.219c-.965-2.701-2.268-5.45-3.859-7.862l5.017-2.412s1.398,2.412,2.315,4.823v-6.029h6.56v5.836s.82-1.495,1.543-4.341l5.161,2.122c-.916,2.701-1.929,5.257-3.135,7.862l-3.569-2.074v2.17h5.788v6.945h-4.438c1.688,2.75,3.425,4.775,5.547,6.801l-3.955,6.415c-1.109-1.737-2.268-4.245-2.942-7.187v9.55h-6.56v-9.55c-.676,2.942-1.785,5.884-2.942,7.669l-2.652-4.341v4.148c1.495,1.929,2.218,3.039,5.546,3.039h13.265l-1.736,7.717h-11.817Zm-11.094-29.036c-1.302-3.183-2.652-6.029-4.003-8.007v.627h-13.746v-5.499h13.746v2.797l4.823-3.328c1.881,2.797,3.811,6.318,5.064,8.778l-5.885,4.63Zm-17.749,7.042v-5.209h13.746v5.209h-13.746Zm0,6.656v-5.209h13.746v5.209h-13.746Zm7.958,7.042h-2.315v2.074h2.315v-2.074Zm15.628-15.965v5.981c1.591-1.64,3.376-4.196,4.244-5.981h-4.244Z"/>
    <path d="M256.189,67.005c-13.216,0-23.923-10.708-23.923-23.924s10.707-23.923,23.923-23.923,23.924,10.708,23.924,23.923-10.708,23.924-23.924,23.924Zm0-44.326c-11.238,0-20.402,9.164-20.402,20.402s9.164,20.403,20.402,20.403,20.403-9.116,20.403-20.403-9.165-20.402-20.403-20.402Zm-1.978,35.307v-20.306l-5.836,2.074-1.736-5.595c4.148-1.206,7.042-3.328,8.296-6.271h6.463v30.098h-7.187Z"/>
    <path d="M341.904,61.313c-4.437,.289-11.238,.482-17.942,.482-2.46,0-4.968-.048-7.283-.096-6.993-.145-9.261-2.653-9.261-8.344v-.531c.097-3.039,.193-9.55,.193-16.062,0-4.823-.049-9.646-.241-13.071l8.393,.241c-.29,3.859-.482,8.585-.531,13.264,6.994-1.592,16.304-4.389,21.85-7.669l5.451,6.752c-8.827,3.762-18.521,6.463-27.396,8.393v7.766c0,1.398,.337,1.833,1.881,1.881,.724,0,2.025,.048,3.666,.048,5.691,0,15.627-.241,22.139-1.399l-.917,8.345Z"/>
    <path d="M347.938,54.319c17.99-1.254,28.795-10.322,35.065-24.068l6.463,5.161c-7.621,14.711-19.39,24.213-38.2,27.3l-3.328-8.393Zm12.589-16.833c-3.231-2.653-8.875-6.56-12.3-8.489l5.499-5.595c3.714,1.929,8.682,5.064,12.348,7.765l-5.547,6.319Z"/>
    <path d="M401.095,64.593c.192-5.257,.289-15.965,.289-25.516,0-7.572-.048-14.47-.145-17.46l8.393,.096c-.097,2.797-.193,9.405-.241,16.882l3.906-4.052c5.113,2.267,11.238,5.595,16.737,9.02l-4.582,6.994c-4.148-3.087-10.949-7.138-16.062-9.454,0,8.73,.048,18.473,.192,23.441l-8.488,.048Z"/>
  </g>
</svg>