<?xml version="1.0" encoding="UTF-8"?>
<svg id="_レイヤー_1" data-name="レイヤー 1" xmlns="http://www.w3.org/2000/svg" viewBox="0 0 651.016 410.772">
  <defs>
    <style>
      .cls-1 {
        fill: #fff;
        stroke-miterlimit: 10;
        stroke-width: 6px;
      }

      .cls-1, .cls-2 {
        stroke: #000;
      }

      .cls-2, .cls-3 {
        fill: none;
        stroke-width: 7px;
      }

      .cls-3 {
        stroke: #fff;
        stroke-linecap: round;
        stroke-linejoin: round;
      }

      .cls-4 {
        fill: red;
      }
    </style>
  </defs>
  <polygon points="634.664 390.359 17.874 383.811 20.434 87.723 637.224 94.272 634.664 390.359"/>
  <polygon class="cls-1" points="645.402 364.752 37.55 406.135 14.808 111.701 622.66 70.318 645.402 364.752"/>
  <g>
    <polygon class="cls-2" points="271.873 12.859 8.755 28.156 11.917 101.758 142.823 88.571 156.001 101.832 145.218 103.485 190.809 129.529 181.916 103.177 195.85 101.041 186.75 82.344 274.676 69.751 271.873 12.859"/>
    <g>
      <polygon points="278.873 19.859 15.755 35.156 18.917 108.758 149.823 95.571 163.001 108.832 152.218 110.485 197.809 136.529 188.916 110.177 202.85 108.041 193.75 89.344 281.676 76.751 278.873 19.859"/>
      <polygon class="cls-4" points="271.873 12.859 8.755 28.156 11.917 101.758 142.823 88.571 156.001 101.832 145.218 103.485 190.809 129.529 181.916 103.177 195.85 101.041 186.75 82.344 274.676 69.751 271.873 12.859"/>
    </g>
  </g>
  <g>
    <path class="cls-3" d="M83.224,80.559l-2.519-27.418-22.035,2.024,2.519,27.418-15.559,1.429-6.025-65.601,15.559-1.429,2.325,25.315,22.035-2.024-2.325-25.315,15.728-1.444,6.025,65.601-15.728,1.444Z"/>
    <path d="M83.224,80.559l-2.519-27.418-22.035,2.024,2.519,27.418-15.559,1.429-6.025-65.601,15.559-1.429,2.325,25.315,22.035-2.024-2.325-25.315,15.728-1.444,6.025,65.601-15.728,1.444Z"/>
  </g>
  <g>
    <path d="M58.987,230.554c-2.789,0-3.978-1.417-3.978-3.977v-23.863c0-2.377,1.188-3.657,3.978-3.657h1.188v-2.743h-3.84c-1.463,0-2.194-1.188-2.194-2.332,0-1.188,.731-2.332,2.194-2.332h16.503c1.463,0,2.148,1.143,2.148,2.332,0,1.143-.686,2.332-2.148,2.332h-3.429v2.743h.914c2.789,0,4.069,1.28,4.069,3.657v23.863c0,2.56-1.189,3.977-3.978,3.977h-11.429Zm11.062-17.097h-1.006c-2.56,0-3.748-1.052-3.748-3.84v-6.08h-1.28c-.137,4.754-.365,7.269-1.6,9.737-.274,.594-.823,.823-1.417,.823-.687,0-1.372-.411-1.601-1.097v2.423h10.651v-1.966Zm-10.651-9.92v6.629c1.143-2.149,1.234-3.794,1.28-6.629h-1.28Zm10.651,16.229h-10.651v2.56h10.651v-2.56Zm-4.754-23.452h-1.188v2.743h1.188v-2.743Zm4.754,7.223h-1.417v4.708c0,1.189,.046,1.234,1.417,1.234v-5.943Zm12.847,26.698c-5.12,0-7.04-2.103-7.04-6.583v-16.274c0-2.24,1.279-3.429,3.702-3.429h8.412v-7.36h-10.469c-1.372,0-2.058-1.188-2.058-2.377,0-1.234,.686-2.469,2.058-2.469h12.252c2.423,0,3.748,1.188,3.748,3.383v10.789c0,2.194-1.325,3.383-3.748,3.383h-8.458v11.017c0,1.143,.184,1.692,1.829,1.692h3.2c2.239,0,2.788-.64,3.291-5.257,.138-1.372,1.371-2.012,2.651-2.012,1.463,0,2.972,.823,2.972,2.423v.274c0,11.292-2.926,12.8-8.549,12.8h-3.794Z"/>
    <path d="M126.825,227.811c0,.137,.046,.229,.046,.32,0,2.149-2.606,3.246-5.166,3.246-2.605,0-5.257-1.097-5.257-3.246,0-.091,.045-.183,.045-.32,1.691-11.703,1.875-18.515,1.875-18.515h-7.132c-.229,0-.411,.183-.411,.411,0,0,.548,8.777,1.554,15.315,0,.137,.046,.274,.046,.366,0,1.92-2.24,2.789-4.435,2.789s-4.343-.869-4.343-2.743c0-.137,.046-.274,.046-.411,.868-6.126,1.143-11.383,1.143-11.383l-.822,.594c-.366,.274-.731,.366-1.098,.366-1.555,0-3.108-2.011-3.108-3.794,0-.869,.365-1.646,1.188-2.194,4.571-2.926,8.138-5.852,10.469-9.143h-8.731c-1.555,0-2.332-1.28-2.332-2.514,0-1.28,.777-2.514,2.332-2.514h11.749c.457-.869,.914-1.875,1.279-2.88,.32-.914,1.326-1.28,2.423-1.28,1.646,0,3.429,.823,3.429,2.103,0,.229-.091,.458-.183,.686l-.686,1.372h17.966c1.555,0,2.332,1.234,2.332,2.514,0,1.234-.777,2.514-2.332,2.514h-20.709c-1.006,1.6-2.148,3.109-3.429,4.617h3.978v-1.554c0-1.6,1.555-2.377,3.108-2.377,1.509,0,3.063,.777,3.063,2.377v1.554h10.651c2.515,0,3.794,1.098,3.794,3.383v14.812c0,3.749-2.057,5.486-6.309,5.486-1.28,0-2.743-.183-4.435-.457-.914-.183-1.508-.823-1.92-1.737l.32,2.24Zm6.4-18.149c0-.229-.184-.366-.412-.366h-7.862s.137,4.754,1.188,13.257c.183-2.057,1.097-3.977,2.743-3.977,.137,0,.273,0,.411,.045,1.325,.274,2.24,.412,2.834,.412,.869,0,1.098-.32,1.098-1.006v-8.366Z"/>
    <path d="M148.764,196.77c2.149,.092,4.344,.137,6.538,.137,2.88,0,5.806-.091,8.594-.229-1.188-3.017-1.188-3.063-1.188-3.429,0-1.508,1.691-2.377,3.338-2.377,1.279,0,2.56,.548,2.88,1.737,.365,1.234,.777,2.468,1.28,3.657,4.479-.412,8.549-.96,11.932-1.646,.229-.046,.457-.091,.686-.091,1.783,0,2.834,1.646,2.834,3.2,0,1.143-.594,2.194-1.92,2.423-3.062,.594-6.812,1.097-10.926,1.508,2.012,3.2,4.663,5.943,8.595,9.463,.594,.503,.868,1.188,.868,1.92,0,1.691-1.6,3.566-3.565,3.566-.549,0-1.144-.137-1.737-.503-4.252-2.606-9.372-4.251-14.583-4.251-4.663,0-7.909,1.554-7.909,4.846,0,2.88,2.103,4.892,12.16,4.892,4.892,0,7.681-.32,10.423-.869,.229-.046,.458-.046,.687-.046,2.331,0,3.52,2.332,3.52,4.663,0,2.057-.96,4.069-2.926,4.343-3.52,.549-6.4,.869-11.703,.869-13.028,0-18.697-4.114-18.697-13.029,0-6.994,6.4-11.154,14.446-11.154,2.971,0,5.942,.411,8.549,1.188-1.555-1.646-2.972-3.2-4.344-5.395-3.657,.274-7.451,.366-11.291,.366-2.149,0-4.298-.045-6.446-.091-1.737-.091-2.651-1.6-2.651-3.017,0-1.372,.777-2.652,2.469-2.652h.091Z"/>
    <path d="M218.385,222.28c.184-4.846,1.28-16.046,1.28-19.932,0-1.28-.365-1.783-1.325-1.783-.549,0-4.938,.412-12.572,7.955v1.463c0,5.486,.229,13.166,.641,18.515,.183,2.103-2.332,3.018-4.206,3.018-2.012,0-4.023-.915-4.023-2.789v-.091c.092-3.108,.549-9.372,.731-12.709-.686,.915-1.325,1.692-2.103,2.789-.64,.869-1.509,1.234-2.331,1.234-1.646,0-3.246-1.371-3.246-3.154,0-.686,.274-1.417,.822-2.148,2.561-3.337,4.847-5.897,7.406-8.229,.046-.914,.183-1.92,.229-2.88-.594,.046-1.097,.046-1.6,.046-1.463,0-2.743-.092-4.48-.274-1.555-.183-2.377-1.554-2.377-2.834,0-1.234,.777-2.377,2.285-2.377h.274c2.286,.229,3.841,.274,6.172,.32,.137-2.377,.274-4.435,.457-5.989,.138-1.417,1.646-2.057,3.108-2.057,1.509,0,3.018,.731,3.018,2.103v.274c-.32,2.103-.457,4.891-.686,8.046,6.812-5.349,11.246-6.354,13.852-6.354,3.978,0,6.263,2.377,6.263,7.131,0,3.566-.548,12.206-.548,16.458,0,1.006,0,2.332,.776,2.332,.595,0,1.463-.96,2.469-3.52,.457-1.143,1.326-1.691,2.24-1.691,1.691,0,3.611,1.691,3.611,4.16,0,.183-.731,11.017-8.823,11.017-4.525,0-7.314-2.377-7.314-7.314v-.731Z"/>
    <path d="M251.023,201.205c-.777,7.635-1.874,17.92-4.114,27.018-.549,2.149-2.148,3.018-3.932,3.018-2.789,0-5.988-2.149-5.988-4.754,0-.412,.091-.869,.273-1.326,3.475-8,6.172-15.909,7.27-23.681-1.829,.046-3.611,.091-5.212,.091-1.783,0-2.651-1.417-2.651-2.88,0-1.417,.868-2.834,2.605-2.834,1.829,0,3.84-.046,5.989-.091,.183-1.052,.274-2.24,.365-3.2,.092-1.326,1.555-2.011,3.018-2.011,1.554,0,3.2,.823,3.2,2.651,0,.503-.138,1.874-.184,2.286l5.486-.32h.32c1.736,0,2.651,1.417,2.651,2.834,0,1.326-.823,2.606-2.606,2.743l-6.491,.457Zm23.589,19.109c1.966,0,3.018,2.24,3.018,4.618,0,2.423-1.143,4.983-3.429,5.12-2.148,.137-4.16,.183-5.988,.183-12.526,0-17.51-3.108-17.51-11.566,0-2.377,0-6.08,3.429-6.08,1.418,0,2.697,.869,2.697,2.56,0,3.84,1.783,5.486,10.012,5.486,2.104,0,4.617-.137,7.589-.32h.183Zm-.503-12.48c-3.062-.183-6.171-.366-9.417-.366-1.874,0-3.749,.045-5.715,.183h-.229c-1.782,0-2.742-1.508-2.742-3.017,0-1.372,.822-2.697,2.56-2.789,2.103-.183,4.298-.229,6.491-.229,3.246,0,6.446,.137,9.372,.366,1.646,.137,2.377,1.463,2.377,2.834,0,1.463-.914,3.018-2.56,3.018h-.138Z"/>
    <path d="M285.306,228.589c-1.417,0-2.88-.869-2.88-2.469,0-.274,.046-.594,.137-.915,1.188-3.84,1.829-8.64,2.058-10.651,.091-1.052,.96-1.555,1.782-1.555s1.691,.503,1.783,1.6c.046,.366,.046,.869,.046,1.417,0,2.697-.366,7.314-.64,10.606-.138,1.417-1.189,1.966-2.286,1.966Zm38.995-11.063c0,9.555-1.371,13.852-5.806,13.852-5.303,0-7.269-10.88-7.681-22.492h-4.754v11.292l3.154-1.28c.183-.091,.365-.137,.549-.137,1.508,0,2.605,2.834,2.605,5.257,0,1.372-.366,2.606-1.234,3.063-2.88,1.463-6.126,2.88-9.326,3.886-.183,.046-.365,.091-.549,.091-1.6,0-2.788-2.24-3.108-4.434-.274,.091-.594,.137-.868,.137-.96,0-1.737-.457-1.737-1.508,0-3.429-.183-7.634-.457-9.783v-.229c0-.96,.822-1.509,1.691-1.509,.686,0,1.325,.366,1.554,1.189,.32,1.326,1.006,4.297,1.509,7.086,.229-.092,.457-.137,.687-.183v-9.509c-.412,.548-1.234,.915-2.012,.915-.914,0-1.783-.458-1.966-1.509,0-.091-.046-.229-.046-.32-.777,.092-1.555,.183-2.331,.229v2.332c0,3.703,.137,9.783,.96,14.4,.045,.183,.045,.32,.045,.503,0,1.691-1.736,2.56-3.428,2.56-1.737,0-3.521-.869-3.521-2.651,0-.137,.046-.274,.046-.412,.64-5.943,.96-13.943,.96-16.32-1.691,.137-3.154,.183-4.16,.183-1.601,0-2.423-1.234-2.423-2.423,0-1.097,.731-2.194,2.24-2.194h1.554c.96-1.006,1.875-2.012,2.697-3.018-1.28-1.143-3.154-2.743-5.166-4.114-.686-.457-.96-1.051-.96-1.646,0-1.326,1.326-2.697,2.789-2.697,.457,0,.868,.091,1.325,.411,1.189-1.463,2.194-3.062,3.292-4.983,.457-.823,1.326-1.188,2.148-1.188,1.326,0,2.651,.869,2.651,2.103,0,.411-.137,.823-.457,1.28-1.143,1.691-2.56,3.749-4.16,5.669l1.555,1.417c1.006-1.326,1.874-2.606,2.605-3.749,.457-.731,1.188-1.052,1.92-1.052,1.28,0,2.606,.96,2.606,2.149,0,.366-.092,.777-.412,1.188-1.325,1.829-3.703,5.349-6.309,8.092,.96-.046,1.874-.091,2.789-.183-.092-.183-.138-.411-.229-.64-.092-.274-.138-.503-.138-.731,0-1.098,1.006-1.783,2.012-1.783,.777,0,1.555,.366,1.92,1.188,.731,1.6,1.234,3.429,1.601,4.754v-13.714c0-2.697,2.011-4.114,4.525-4.114,3.657,0,9.188-.183,13.852-1.372,.32-.091,.595-.091,.869-.091,1.736,0,2.834,1.371,2.834,2.697,0,.96-.549,1.874-1.874,2.194-1.601,.365-3.154,.64-4.755,.823v2.332c0,1.829,0,3.565,.046,5.166h5.349c1.555,0,2.331,1.234,2.331,2.423,0,1.234-.776,2.469-2.331,2.469h-5.166c.457,8.64,1.601,12.115,2.515,12.526,.183,.092,.411-1.097,.411-3.611,0-.594,0-1.234-.046-1.92v-.092c0-1.417,1.188-2.148,2.423-2.148,1.372,0,2.743,.823,2.789,2.423v1.463Zm-13.715-13.532c-.091-2.514-.091-4.937-.091-7.04-1.509,.091-2.835,.137-4.298,.183-.091,0-.137,.045-.137,.091v6.766h4.525Z"/>
    <path d="M364.664,220.908c2.148,0,3.2,2.286,3.2,4.572s-1.052,4.617-3.018,4.754c-3.84,.32-7.451,.457-10.789,.457-14.309,0-23.314-3.154-23.314-12.709,0-7.497,4.023-11.749,12.298-14.583-.229-3.429-.641-6.674-1.052-10.149,0-.137-.046-.229-.046-.32,0-1.646,1.783-2.56,3.566-2.56,1.646,0,3.245,.823,3.383,2.56,.183,2.972,.365,5.714,.503,8.731,6.812-1.463,14.354-1.966,14.399-1.966,2.195,0,3.338,1.555,3.338,3.109,0,1.417-.96,2.834-2.926,2.972-20.526,1.417-26.789,6.309-26.789,10.743,0,3.978,4.114,5.257,11.84,5.257,4.068,0,9.144-.366,15.132-.869h.274Z"/>
    <path d="M383.176,231.377c-1.234,0-2.424-.549-3.2-1.966-1.326-2.332-2.926-4.754-4.114-6.309-.458-.548-.641-1.143-.641-1.737,0-1.6,1.463-2.972,3.2-2.972,.595,0,1.234,.137,1.829,.503,2.331,1.417,4.754,3.2,6.674,5.166,.869,.914,1.234,1.874,1.234,2.789,0,2.332-2.56,4.526-4.982,4.526Z"/>
    <path d="M423.996,228.954c-2.104,0-3.109-1.005-3.109-3.062v-30.447c0-1.874,1.006-2.789,3.109-2.789h7.726c2.103,0,3.154,.915,3.154,2.789v30.447c0,2.057-1.052,3.062-3.154,3.062h-7.726Zm5.485-31.681h-3.2v8.823h3.2v-8.823Zm0,13.486h-3.2v9.875h3.2v-9.875Zm27.521,2.605v9.966c0,5.897-1.783,8.046-7.589,8.046-2.239,0-5.12-.32-8.686-.869-1.646-.274-2.423-2.286-2.423-4.251,0-2.286,.96-4.572,2.834-4.572,.138,0,.229,.046,.366,.046,3.2,.457,5.349,.777,6.766,.777,2.423,0,2.743-.914,2.743-3.657v-5.486h-9.144c.412,.137,.823,.32,1.188,.595,.823,.64,1.646,1.554,2.332,2.697,.274,.458,.411,.915,.411,1.372,0,1.829-2.331,3.063-4.206,3.063-.96,0-1.782-.32-2.103-1.051-.549-1.189-1.052-2.058-1.966-3.246-.274-.32-.365-.686-.365-1.006,0-1.051,1.097-2.057,2.468-2.423h-2.239c-1.463,0-2.194-1.234-2.194-2.468s.731-2.469,2.194-2.469h14.08v-2.469h-13.897c-1.463,0-2.194-1.234-2.194-2.469,0-1.188,.731-2.423,2.194-2.423h7.68v-2.88h-6.491c-1.555,0-2.377-1.188-2.377-2.423,0-1.189,.822-2.377,2.377-2.377h6.491v-.914c0-1.417,1.418-2.149,2.835-2.149s2.834,.731,2.834,2.149v.914h5.76c1.601,0,2.378,1.188,2.378,2.377,0,1.234-.777,2.423-2.378,2.423h-5.76v2.88h7.223c1.555,0,2.332,1.234,2.332,2.423,0,1.234-.777,2.469-2.332,2.469h-1.143v2.469h1.601c1.6,0,2.423,1.234,2.423,2.469s-.823,2.468-2.423,2.468h-1.601Z"/>
    <path d="M465.777,227.72c.686-8.092,.731-16.503,.731-26.561v-6.903c0-1.875,1.006-2.789,3.108-2.789h12.252c2.103,0,3.154,.914,3.154,2.789v9.097c0,1.829-1.052,2.834-3.154,2.834h-9.875s.366,11.703,1.874,21.578c.046,.183,.046,.32,.046,.503,0,2.057-1.966,3.109-3.932,3.109-2.103,0-4.205-1.143-4.205-3.337v-.32Zm13.852-32.138h-7.635v1.555h7.635v-1.555Zm0,4.8h-7.635v1.646h7.635v-1.646Zm20.663,5.806h-10.286c-2.057,0-3.108-1.005-3.108-2.834v-9.097c0-1.875,1.052-2.789,3.108-2.789h12.618c2.103,0,3.154,.914,3.154,2.789v32.321c0,3.108-1.646,4.8-5.943,4.8-1.463,0-3.246-.183-5.395-.594-1.28-.229-1.783-1.6-1.874-3.063h-13.943c-1.966,0-2.972-1.006-2.972-2.972v-14.4c0-1.737,1.006-2.651,2.972-2.651h14.812c1.966,0,2.972,.914,2.972,2.651v12.206c1.052,.137,1.829,.229,2.423,.229,1.098,0,1.463-.274,1.463-.777v-15.818Zm-8.869,6.217h-10.742v1.92h10.742v-1.92Zm0,6.172h-10.742v2.103h10.742v-2.103Zm8.869-22.995h-7.954v1.555h7.954v-1.555Zm0,4.8h-7.954v1.646h7.954v-1.646Z"/>
    <path d="M513.545,213.685c-1.463,0-2.194-1.097-2.194-2.194s.731-2.194,2.194-2.194h8.777v-1.188h-7.223c-1.463,0-2.194-1.006-2.194-1.966,0-1.006,.731-1.966,2.194-1.966h7.223v-1.143h-5.806c-1.325,0-2.012-.823-2.148-1.737-1.098-.137-2.058-.731-2.058-1.737v-4.16c0-1.875,1.006-2.834,3.109-2.834h6.902v-.503c0-1.143,1.417-1.691,2.789-1.691,1.417,0,2.788,.548,2.788,1.691v.503h7.132c2.104,0,3.2,.96,3.2,2.834v4.251c0,1.006-1.006,1.6-2.103,1.737-.138,.869-.869,1.646-2.194,1.646h-6.035v1.143h7.132c1.463,0,2.194,.96,2.194,1.966,0,.96-.731,1.966-2.194,1.966h-7.132v1.188h8.595c1.463,0,2.194,1.097,2.194,2.194s-.731,2.194-2.194,2.194h-22.949Zm3.154,16.96c-2.103,0-3.108-1.097-3.108-3.109v-10.012c0-1.874,1.006-2.789,3.108-2.789h17.464c2.103,0,3.154,.915,3.154,2.789v10.103c0,2.057-1.006,3.018-3.154,3.018h-17.464Zm5.623-32.504c0-.457,.229-.869,.595-1.143h-5.577v2.011h4.982v-.869Zm9.691,20.755h-13.12v3.2h13.12v-3.2Zm1.052-21.897h-5.76c.365,.274,.594,.686,.594,1.143v.869h5.166v-2.011Zm6.034-1.966c0-1.417,1.326-2.103,2.652-2.103s2.651,.686,2.651,2.103v21.121c0,1.417-1.326,2.148-2.651,2.148s-2.652-.731-2.652-2.148v-21.121Zm6.767-2.56c0-1.417,1.371-2.103,2.742-2.103s2.743,.686,2.743,2.103v33.098c0,3.703-1.188,5.623-4.938,5.623-1.279,0-2.88-.229-4.846-.686-1.508-.32-2.194-2.286-2.194-4.206,0-2.514,1.052-5.166,2.972-5.166,.092,0,.183,.045,.32,.045,1.051,.183,1.737,.274,2.194,.274,.868,0,1.006-.32,1.006-1.097v-27.886Z"/>
    <path d="M592.996,221.411c1.737,0,2.651,2.149,2.651,4.389,0,2.286-.914,4.617-2.834,4.846-3.154,.366-5.532,.548-9.189,.548-12.343,0-16.274-2.697-16.274-7.634,0-6.583,4.206-11.2,13.897-15.178-.503-1.188-1.555-1.6-2.697-1.6-5.714,0-10.058,5.212-14.172,11.018-.686,1.006-1.554,1.417-2.377,1.417-1.966,0-3.932-2.24-3.932-4.297,0-.731,.229-1.417,.823-2.012,4.617-4.617,7.862-8.64,9.966-12.983h-1.92c-1.555,0-3.154,0-4.617-.046-1.691-.046-2.606-1.417-2.606-2.789,0-1.326,.823-2.56,2.423-2.56h.184c2.834,.045,5.668,.045,8.503,.045,.319-.823,.594-1.691,.868-2.514,.32-1.143,1.463-1.646,2.651-1.646,1.601,0,3.292,.869,3.292,2.377,0,.046-.138,1.006-.411,1.646,4.479-.183,8.96-.458,13.395-.869h.319c1.783,0,2.743,1.463,2.743,2.834,0,1.28-.731,2.468-2.331,2.56-5.532,.412-10.972,.731-16.184,.869-.457,1.052-1.006,1.783-1.555,2.789,1.691-.64,3.795-1.097,5.12-1.097,3.978,0,6.995,1.417,8.274,4.8,1.783-.64,6.354-2.057,7.406-2.057,1.829,0,2.926,1.6,2.926,3.109,0,1.097-.549,2.148-1.828,2.468-2.972,.777-5.578,1.554-7.863,2.286v5.349c0,1.463-1.555,2.24-3.108,2.24s-3.063-.731-3.063-2.194v-.045l.046-3.063c-4.663,2.148-6.263,3.84-6.263,5.211,0,1.875,.776,2.423,8.365,2.423,3.383,0,6.218-.274,9.052-.64h.32Z"/>
    <path d="M82.804,274.824c-2.423,0-5.44-.549-5.44-4.892v-9.92h-5.303c0,8.732-.96,14.446-14.126,15.269h-.229c-2.377,0-3.657-2.56-3.657-4.892,0-2.24,1.052-4.343,3.2-4.389,7.543-.183,9.098-.777,9.098-5.989h-4.801c-2.514,0-3.748-1.143-3.748-3.429v-17.555c0-2.24,1.234-3.337,3.748-3.337h26.378c2.515,0,3.795,1.097,3.795,3.337v17.555c0,2.286-1.28,3.429-3.795,3.429h-4.892v5.303c0,.823,.503,.869,1.052,.869h3.565c1.601,0,1.92-.366,2.104-3.703,.045-1.326,1.325-1.966,2.605-1.966,1.417,0,2.88,.777,2.88,2.286v.092c-.274,7.406-.229,11.932-6.537,11.932h-5.897Zm3.246-34.424c0-.091-.046-.137-.138-.137h-22.309c-.046,0-.138,.091-.138,.137v1.6h22.584v-1.6Zm0,6.035h-22.584v1.874h22.584v-1.874Zm0,6.309h-22.584v1.875s.092,.091,.138,.091h22.309c.092,0,.138-.046,.138-.091v-1.875Z"/>
    <path d="M102.824,275.053c-1.736,0-2.926-3.109-2.926-5.897,0-1.92,.549-3.611,1.921-3.84,.914-.137,1.782-.366,2.605-.503v-28.526c0-1.372,1.509-2.012,3.062-2.012,1.509,0,3.018,.64,3.018,2.012v7.726h8.274c1.555,0,2.331,1.417,2.331,2.834s-.776,2.834-2.331,2.834h-8.274v13.989c2.926-.64,5.44-1.508,7.497-2.148,.183-.046,.32-.091,.503-.091,1.601,0,2.561,2.514,2.561,4.983,0,1.874-.549,3.703-1.92,4.297-2.881,1.28-10.515,3.428-16.047,4.343h-.274Zm24.778-.412c-4.16,0-5.852-2.377-5.852-5.668v-32.641c0-1.417,1.417-2.103,2.926-2.103s3.062,.731,3.062,2.148v10.926c2.88-2.103,5.074-4.343,7.543-7.635,.457-.594,1.098-.869,1.783-.869,1.509,0,3.108,1.28,3.108,2.88,0,.594-.229,1.188-.686,1.783-3.2,3.977-7.223,7.726-11.749,10.332v9.783c0,1.234,.32,1.6,1.829,1.6h2.103c2.148,0,2.834-1.006,3.566-6.72,.183-1.234,1.279-1.829,2.514-1.829,1.509,0,3.2,.96,3.2,2.834,0,13.395-3.794,15.177-8.138,15.177h-5.211Z"/>
    <path d="M186.708,263.99c1.234,.914,1.737,2.148,1.737,3.383,0,2.926-2.743,6.034-5.303,6.034-.732,0-1.463-.274-2.104-.869-7.314-6.857-14.857-16.777-19.429-23.955-.274-.412-.549-.64-.823-.64-.183,0-.365,.137-.503,.412-1.737,3.52-5.395,9.875-8.823,13.989-.686,.823-1.463,1.143-2.285,1.143-2.104,0-4.252-2.286-4.252-4.48,0-.777,.274-1.555,.96-2.24,3.475-3.475,7.727-9.189,9.509-12.343,1.326-2.332,3.109-3.566,5.029-3.566s4.022,1.234,5.988,3.703c5.531,7.223,12.709,13.669,20.298,19.429Zm-10.286-16.595c-.686,0-1.371-.32-1.92-1.052-1.188-1.554-2.469-3.063-3.429-3.977-.457-.412-.64-.869-.64-1.326,0-1.006,1.051-1.875,2.194-1.875,.731,0,2.011,.32,5.623,4.983,.319,.412,.457,.823,.457,1.189,0,1.143-1.098,2.057-2.286,2.057Zm4.892-3.246c-.595,0-1.188-.274-1.691-.914-.96-1.28-2.286-2.606-3.2-3.429-.457-.457-.686-.915-.686-1.372,0-.96,1.006-1.737,2.103-1.737,.457,0,1.691,.092,5.166,4.343,.32,.366,.457,.777,.457,1.143,0,1.051-1.052,1.965-2.148,1.965Z"/>
    <path d="M195.071,244.789c-2.057,0-3.154-1.646-3.154-3.246,0-1.372,.823-2.697,2.605-2.789,8.641-.458,18.561-.96,34.104-1.097,1.966,0,3.109,1.646,3.109,3.292,0,1.463-.915,2.88-2.926,3.062-16.184,1.509-23.863,10.012-23.863,15.589,0,3.565,3.154,6.354,10.423,6.354,2.148,0,4.617-.274,7.497-.777,.274-.046,.503-.046,.731-.046,2.286,0,3.383,2.149,3.383,4.435s-1.097,4.617-3.245,4.983c-2.743,.457-5.258,.64-7.498,.64-13.028,0-18.423-6.857-18.423-14.081,0-10.834,10.286-15.817,14.126-17.463-5.577,.274-11.566,.777-16.549,1.143h-.32Z"/>
    <path d="M274.246,247.258c0,2.24-.046,4.251-.183,6.08,3.931,1.691,5.439,2.56,5.439,4.617,0,1.829-1.28,3.886-2.972,3.886-.457,0-.914-.091-1.371-.411-.686-.458-1.097-.777-1.783-1.143-1.371,8.915-5.988,12.846-13.349,14.492-.411,.091-.823,.137-1.188,.137-3.018,0-4.8-2.789-4.8-5.303,0-1.828,.914-3.474,2.926-3.886,6.171-1.234,9.463-2.789,10.651-8.091-3.383-1.28-6.583-2.012-9.783-2.286-2.423,6.812-6.674,17.372-14.172,17.372-3.748,0-6.674-3.154-6.674-8.412,0-6.263,5.668-14.4,16.411-14.949,.869-2.423,1.188-4.572,1.783-7.086v-.046c0-.091-.092-.137-.183-.137-2.515,.092-5.074,.229-7.817,.229-1.144,0-2.332-.045-3.566-.091-1.646-.045-2.514-1.417-2.514-2.789,0-1.28,.777-2.56,2.377-2.56h.092c1.508,.046,2.971,.046,4.389,.046,2.605,0,5.165-.046,8.137-.137h.366c3.475,0,4.938,1.508,4.938,4.068,0,1.006-.961,5.943-1.783,8.641,2.972,.274,5.76,.823,8.595,1.646v-1.372c0-1.417-.046-3.017-.138-4.708v-.229c0-1.6,1.463-2.377,2.926-2.377,1.601,0,3.2,.869,3.246,2.652v2.148Zm-30.355,14.035c0,1.097,.366,1.646,.96,1.646,1.188,0,4.755-3.383,6.767-8-4.709,1.143-7.727,4.16-7.727,6.354Z"/>
    <path d="M319.227,245.841c1.554,0,2.423,1.371,2.423,2.743,0,1.28-.731,2.514-2.332,2.651-3.657,.32-7.68,.594-11.84,.686,.046,1.92,.092,3.657,.092,5.303,4.525,1.326,8.822,3.109,12.343,5.44,1.509,1.005,2.148,2.423,2.148,3.84,0,2.651-2.103,5.303-4.297,5.303-.641,0-1.28-.229-1.875-.731-2.56-2.194-5.485-4.297-8.274-5.852-.045,7.909-5.12,10.149-10.88,10.149-7.132,0-11.657-3.977-11.657-10.194,0-5.989,3.932-9.463,12.526-9.463,1.279,0,2.605,.092,3.931,.274,0-1.188-.045-2.605-.045-3.932h-2.606c-3.84,0-7.68-.045-11.337-.137-1.691,0-2.561-1.463-2.561-2.88,0-1.326,.823-2.651,2.469-2.651h.183c4.435,.183,9.098,.274,13.715,.274l-.092-2.834c-3.656,0-7.588,0-11.84-.091-1.646,0-2.469-1.28-2.469-2.606s.823-2.651,2.423-2.651h.183c4.16,.046,7.955,.137,11.566,.137,0-.686-.046-1.326-.046-1.875v-.091c0-1.509,1.463-2.286,2.972-2.286s3.062,.823,3.108,2.468c0,.503,0,1.052,.046,1.646,3.063-.046,6.126-.274,9.326-.549h.32c1.646,0,2.514,1.326,2.514,2.652,0,1.234-.731,2.423-2.24,2.56-3.337,.274-6.537,.457-9.828,.594,.046,.96,.046,1.737,.046,2.789,4.114-.137,8.091-.32,11.565-.686h.32Zm-17.692,16.549c-1.417-.594-3.337-1.052-4.754-1.052-2.926,0-4.617,.458-4.617,1.92,0,1.874,1.782,2.605,4.571,2.605,3.429,0,4.8-.64,4.8-3.2v-.274Z"/>
    <path d="M342.721,237.474c-.777,14.812-.869,18.469-.869,19.429,0,6.034,2.881,8.137,8.823,8.137,5.806,0,10.104-2.789,11.703-8.731,.412-1.509,1.601-2.194,2.835-2.194,1.737,0,3.611,1.371,3.611,3.749,0,.32,0,.64-.092,1.006-2.285,10.88-8.457,15.909-18.058,15.909s-15.543-3.703-15.543-14.126c0-.686,.046-1.372,.092-2.103,.548-8.137,.686-14.126,.822-21.395,0-1.646,1.601-2.469,3.246-2.469,1.691,0,3.429,.915,3.429,2.651v.137Z"/>
    <path d="M397.713,267.418c0,5.989-4.343,7.635-9.509,7.635-6.034,0-9.372-3.337-9.372-8.183,0-6.217,3.611-8.823,10.058-8.823,.868,0,1.737,.092,2.743,.229-.092-4.938-.138-11.018-.274-14.675v-.046c0-1.234,1.417-1.92,2.834-1.92,1.372,0,2.743,.64,2.743,2.012v4.206c2.605-.091,6.034-.229,9.144-.503h.229c1.554,0,2.285,1.188,2.285,2.423,0,1.189-.686,2.377-2.057,2.515-3.018,.274-6.767,.457-9.555,.457,.183,2.24,.229,4.8,.457,6.812,4.068,1.188,7.771,3.154,10.651,4.846,1.188,.731,1.646,1.92,1.646,3.109,0,2.286-1.691,4.754-3.657,4.754-.595,0-1.234-.229-1.829-.731-2.057-1.646-4.068-3.154-6.537-4.206v.091Zm-10.697-4.068c-1.28,0-2.286,.503-2.286,1.646,0,1.234,1.372,1.966,3.337,1.966,2.743,0,3.429-.869,3.475-2.24-2.103-1.372-4.206-1.372-4.525-1.372Z"/>
    <path d="M442.602,244.423c10.332,0,15.543,4.251,15.543,12.435,0,7.68-3.886,16.138-23.497,18.423-.183,0-.366,.046-.503,.046-2.972,0-4.435-3.109-4.435-5.715,0-1.92,.777-3.611,2.286-3.749,13.806-1.234,19.383-5.074,19.383-9.691,0-4.251-2.377-6.126-8.686-6.126-4.526,0-10.058,1.372-15.863,3.52-.411,.137-.823,.229-1.188,.229-1.92,0-3.2-1.874-3.2-3.565,0-1.098,.549-2.103,1.737-2.561,6.263-2.148,13.257-3.246,18.423-3.246Zm-12.297-3.52c-1.601-.229-2.378-1.509-2.378-2.743,0-1.417,.96-2.834,2.652-2.834,.183,0,.365,0,.548,.045,6.309,.915,12.252,1.417,20.069,1.6,1.737,.046,2.56,1.28,2.56,2.606,0,1.463-1.051,3.017-2.834,3.017-.183,0-10.332-.32-20.617-1.691Z"/>
    <path d="M472.908,275.601c-3.977,0-7.085-3.108-7.085-6.903,0-3.977,3.108-7.177,7.085-7.177,4.023,0,7.132,3.2,7.132,7.177,0,3.794-3.108,6.903-7.132,6.903Zm0-10.606c-1.736,0-3.017,1.372-3.017,3.063,0,1.6,1.28,2.789,3.017,2.789,1.829,0,3.109-1.188,3.109-2.789,0-1.691-1.28-3.063-3.109-3.063Z"/>
  </g>
  <path d="M114.648,78.981V34.671h10.68v44.311h-10.68Z"/>
  <path d="M161.737,79.617l-8.25-21.98c-1.365-3.996-2.688-9.812-3.074-12.582l-.17-.015c.41,4.482,.297,12.398-.262,18.852l-1.26,14.602-9.793-.847,3.814-44.146,12.451,1.076,8.328,21.76c1.857,4.895,3.34,10.838,3.484,12.447l.283,.024c-.539-5.635-.336-13.258,.045-17.672l1.33-15.396,9.791,.846-3.812,44.146-12.906-1.115Z"/>
  <path d="M202.358,75.876l-2.229-40.799-13.447,.735-.54-9.875,39.045-2.133,.54,9.875-13.513,.738,2.229,40.799-12.085,.66Z"/>
</svg>