<?xml version="1.0" encoding="UTF-8"?>
<svg id="_レイヤー_1" data-name="レイヤー 1" xmlns="http://www.w3.org/2000/svg" viewBox="0 0 651.016 416.777">
  <defs>
    <style>
      .cls-1 {
        fill: #fff;
        stroke-miterlimit: 10;
        stroke-width: 6px;
      }

      .cls-1, .cls-2 {
        stroke: #000;
      }

      .cls-2, .cls-3 {
        fill: none;
        stroke-width: 7px;
      }

      .cls-3 {
        stroke: #fff;
        stroke-linecap: round;
        stroke-linejoin: round;
      }

      .cls-4 {
        fill: red;
      }
    </style>
  </defs>
  <polygon points="634.664 390.359 17.874 383.811 20.434 87.723 637.224 94.272 634.664 390.359"/>
  <polygon class="cls-1" points="645.402 364.752 37.55 406.135 14.808 111.701 622.66 70.318 645.402 364.752"/>
  <g>
    <polygon class="cls-2" points="271.873 12.859 8.755 28.156 11.917 101.758 142.823 88.571 156.001 101.832 145.218 103.485 190.809 129.529 181.916 103.177 195.85 101.041 186.75 82.344 274.676 69.751 271.873 12.859"/>
    <g>
      <polygon points="278.873 19.859 15.755 35.156 18.917 108.758 149.823 95.571 163.001 108.832 152.218 110.485 197.809 136.529 188.916 110.177 202.85 108.041 193.75 89.344 281.676 76.751 278.873 19.859"/>
      <polygon class="cls-4" points="271.873 12.859 8.755 28.156 11.917 101.758 142.823 88.571 156.001 101.832 145.218 103.485 190.809 129.529 181.916 103.177 195.85 101.041 186.75 82.344 274.676 69.751 271.873 12.859"/>
    </g>
  </g>
  <g>
    <path class="cls-3" d="M83.243,80.567l-2.519-27.418-22.036,2.023,2.519,27.418-15.559,1.43-6.025-65.602,15.559-1.43,2.325,25.315,22.036-2.023-2.325-25.315,15.728-1.444,6.025,65.602-15.728,1.444Z"/>
    <path d="M83.243,80.567l-2.519-27.418-22.036,2.023,2.519,27.418-15.559,1.43-6.025-65.602,15.559-1.43,2.325,25.315,22.036-2.023-2.325-25.315,15.728-1.444,6.025,65.602-15.728,1.444Z"/>
  </g>
  <g>
    <path d="M130.277,170.404h-23.305v.729c0,3.914-.045,9.422-1.365,12.062-.637,1.274-1.684,1.82-2.822,1.82-2.503,0-5.462-2.549-5.462-5.37,0-.638,.137-1.32,.455-1.958,2.321-4.688,3.095-9.604,3.095-17.523v-11.152c0-2.275,1.32-3.504,3.915-3.504h28.039c2.594,0,3.96,1.229,3.96,3.504v28.13c0,5.735-2.731,8.011-10.333,8.011-2.367,0-5.189-.228-8.557-.637-2.003-.228-2.822-2.14-2.822-4.097,0-2.595,1.274-5.325,3.277-5.325h.228c3.96,.409,6.554,.683,8.284,.683,3.323,0,3.414-.91,3.414-3.277v-2.094Zm.455-19.663h-23.805v4.324h23.805v-4.324Zm0,9.194h-23.805v4.87h23.805v-4.87Z"/>
    <path d="M161.873,184.423c-2.458,0-3.732-1.275-3.732-3.732v-10.333h-.318c-.592,0-1.184-.182-1.639-.592v9.468c0,2.094-1.093,3.096-3.141,3.096h-5.917c-2.094,0-3.141-1.002-3.141-3.096v-29.904c0-1.866,1.047-2.776,3.141-2.776h5.917c2.048,0,3.141,.91,3.141,2.776v16.796c1.866-1.685,3.095-3.414,4.415-5.735l.137-.228c.182-.183,.409-.364,.637-.455h-2.777c-1.183,0-1.775-1.002-1.775-2.003s.592-2.003,1.775-2.003h5.325v-1.274h-4.961c-1.047,0-1.547-.91-1.547-1.775,0-.91,.5-1.775,1.547-1.775h4.961v-1.183h-5.553c-1.183,0-1.775-1.047-1.775-2.14,0-1.047,.592-2.094,1.775-2.094h7.101c2.367,0,3.596,1.093,3.596,3.231v8.147c0,2.094-1.229,2.868-3.596,2.868h-1.502c.819,.318,1.457,.955,1.502,1.774h4.006c.273-.272,.546-.591,.774-.955,.228-.364,.546-.684,.91-.819-1.001-.137-1.502-1.093-1.502-2.003,0-1.002,.592-2.003,1.775-2.003h5.781v-1.274h-5.462c-1.047,0-1.548-.91-1.548-1.775,0-.91,.501-1.775,1.548-1.775h5.462v-1.183h-5.917c-1.183,0-1.775-1.047-1.775-2.14,0-1.047,.592-2.094,1.775-2.094h7.647c2.367,0,3.596,1.093,3.596,3.231v8.147c0,2.094-1.229,2.868-3.596,2.868h-5.052c.774,.318,1.365,.864,1.365,1.456,0,.137,0,.228-.046,.318h5.963c1.274,0,1.957,1.047,1.957,2.049,0,.956-.592,1.866-1.957,1.866h-6.6v1.138h5.826c1.093,0,1.593,.865,1.593,1.729,0,.91-.501,1.775-1.593,1.775h-5.826v1.184h5.826c1.093,0,1.593,.91,1.593,1.775,0,.91-.501,1.82-1.593,1.82h-5.826v1.456h7.101c1.411,0,2.094,2.003,2.094,4.052,0,2.003-.728,4.097-2.094,4.097h-19.8Zm-10.514-33.273h-2.139v8.83h2.139v-8.83Zm0,13.428h-2.139v9.559h2.139v-9.559Zm17.979,.819h-5.872v1.138h5.872v-1.138Zm0,4.643h-5.872v1.184h5.872v-1.184Zm0,4.779h-5.872v1.456h5.872v-1.456Z"/>
    <path d="M205.486,182.101c-2.594,0-4.734-2.048-4.734-4.643s2.139-4.733,4.734-4.733,4.779,2.14,4.779,4.733-2.185,4.643-4.779,4.643Z"/>
    <path d="M221.419,182.101c-2.594,0-4.734-2.048-4.734-4.643s2.139-4.733,4.734-4.733,4.779,2.14,4.779,4.733-2.185,4.643-4.779,4.643Z"/>
    <path d="M237.352,182.101c-2.594,0-4.734-2.048-4.734-4.643s2.139-4.733,4.734-4.733,4.779,2.14,4.779,4.733-2.185,4.643-4.779,4.643Z"/>
    <path d="M285.648,179.188c0,2.049-2.003,2.959-4.005,2.959-2.139,0-4.279-1.001-4.279-3.05v-.272c.91-10.605,1.821-23.26,1.821-23.26l-6.873,22.713c-.819,2.641-3.232,3.414-5.098,3.414-1.73,0-4.279-.865-5.052-3.414l-6.918-22.713s.91,12.745,1.821,23.26v.272c0,2.049-2.139,3.05-4.279,3.05-2.003,0-4.005-.91-4.005-2.959v-.182c.637-11.652,.91-17.888,.91-29.449,0-2.595,2.503-3.915,4.87-3.915,1.73,0,3.368,.684,3.915,2.049l8.739,22.212,8.739-22.212c.546-1.365,2.185-2.049,3.869-2.049,2.367,0,4.916,1.32,4.916,3.915,0,11.562,.364,17.797,.91,29.449v.182Z"/>
    <path d="M290.979,168.127c0-8.192,5.781-14.565,13.974-14.565s13.974,6.373,13.974,14.565-5.781,14.43-13.974,14.43-13.974-6.236-13.974-14.43Zm13.974-8.647c-4.461,0-7.419,3.277-7.419,7.465s2.777,7.101,7.419,7.101,7.419-2.913,7.419-7.101-2.958-7.465-7.419-7.465Z"/>
    <path d="M340.233,179.052c0-5.826,.546-10.014,.91-14.201,0-.229,.045-.456,.045-.684,0-2.913-1.775-4.552-4.688-4.552-3.823,0-6.236,2.868-6.236,6.282,0,5.052,0,7.236,1.411,12.562,.091,.272,.091,.546,.091,.773,0,1.957-2.139,2.867-4.324,2.867-2.276,0-4.552-1.001-4.552-3.231v-.318c.637-6.873,.683-11.334,.683-19.208v-3.141c0-1.502,1.502-2.23,3.05-2.23s3.141,.773,3.141,2.23v.364c1.821-1.73,3.869-2.868,6.964-2.868,7.055,0,11.106,3.642,11.106,10.014,0,.319-.046,.638-.046,.956-.045,.819-.091,1.639-.091,2.504,0,3.322,.41,6.827,1.229,11.516,.045,.182,.045,.318,.045,.5,0,1.958-2.276,2.959-4.506,2.959-2.139,0-4.233-.91-4.233-3.05v-.045Z"/>
    <path d="M372.827,179.689c-2.003,1.775-4.597,2.731-7.465,2.731-7.374,0-12.745-5.417-12.745-14.293s5.371-14.429,12.745-14.429c2.822,0,5.371,1.002,7.374,2.731v-8.375c0-1.639,1.593-2.413,3.186-2.413,1.548,0,3.141,.774,3.141,2.413v32.135c0,1.365-1.548,1.957-3.095,1.957s-3.141-.592-3.141-1.957v-.501Zm-.228-12.836c0-4.051-2.594-7.191-6.873-7.191-4.142,0-6.691,3.551-6.691,7.191,0,4.188,2.549,7.192,6.691,7.192,4.279,0,6.873-2.55,6.873-7.192Z"/>
    <path d="M408.471,165.989c0,4.232,.683,9.74,1.866,12.107,.182,.409,.273,.773,.273,1.138,0,1.775-2.048,2.913-3.96,2.913-1.138,0-2.185-.409-2.685-1.365-.273-.592-.592-1.685-.592-1.685-2.094,2.321-5.735,3.323-8.785,3.323-7.738,0-10.788-3.368-10.788-8.83,0-3.96,1.912-7.102,5.507-8.33,5.508-1.912,12.199-1.32,12.199-3.732,0-1.365-1.366-2.275-4.87-2.275-2.959,0-4.779,1.365-6.236,3.368-.546,.773-1.32,1.047-2.139,1.047-1.638,0-3.414-1.274-3.414-2.868,0-.5,.182-1.047,.546-1.547,2.276-3.232,6.099-5.554,11.197-5.554,8.284,0,11.88,3.323,11.88,10.515v1.775Zm-6.145,1.274c-3.414,1.82-7.465,1.502-10.423,3.05-.956,.5-1.548,1.319-1.548,2.094,0,.91,.865,1.729,3.004,1.729,5.189,0,8.921-1.685,8.921-5.189,0-.91,.046-1.684,.046-1.684Z"/>
    <path d="M421.766,178.688l-9.559-20.347c-.228-.455-.319-.864-.319-1.274,0-1.729,1.821-2.821,3.55-2.821,1.092,0,2.094,.455,2.594,1.456l7.419,15.339,5.872-15.521c.41-1.047,1.457-1.503,2.549-1.503,1.684,0,3.55,1.048,3.55,2.731,0,.273-.091,.592-.182,.91l-9.286,25.899c-1.365,3.823-4.142,5.325-7.692,5.325-1.547,0-3.277-.272-5.052-.773-1.548-.41-2.276-2.14-2.276-3.914,0-2.14,1.047-4.188,2.913-4.188,.273,0,.501,0,.774,.092,1.183,.318,2.048,.5,2.731,.5,1.183,0,1.729-.546,2.23-1.547l.182-.364Z"/>
    <path d="M114.665,190.23c0-1.547,1.593-2.321,3.186-2.321s3.232,.774,3.232,2.321v8.467c0,11.925,5.553,17.387,15.43,20.938,1.365,.501,1.912,1.775,1.912,3.187,0,2.686-2.048,6.054-4.916,6.054-.546,0-1.138-.137-1.729-.41-6.145-2.776-10.879-8.057-13.883-14.292-3.004,6.281-7.738,11.562-13.883,14.338-.592,.272-1.183,.409-1.73,.409-2.868,0-4.916-3.368-4.916-6.008,0-1.457,.592-2.731,1.912-3.231,10.833-4.188,15.385-9.149,15.385-20.983v-8.467Zm-8.785,17.114c-1.047,0-2.003-.455-2.412-1.547-1.184-3.187-2.458-6.009-4.415-9.559-.273-.501-.364-.956-.364-1.411,0-1.685,1.775-2.822,3.414-2.822,1.001,0,1.957,.41,2.503,1.32,2.322,3.96,3.642,6.918,4.779,9.877,.137,.364,.182,.683,.182,1.001,0,1.866-1.957,3.141-3.687,3.141Zm23.259,.046c-1.775,0-3.641-1.411-3.641-3.05,0-.455,.182-.91,.501-1.365,1.912-2.64,3.687-5.735,5.462-9.377,.501-1.047,1.457-1.502,2.458-1.502,1.593,0,3.323,1.184,3.323,2.913,0,.41-.091,.865-.319,1.366-1.866,3.96-3.596,7.101-5.508,9.831-.592,.819-1.411,1.184-2.276,1.184Z"/>
    <path d="M161.873,228.192c-2.458,0-3.732-1.274-3.732-3.732v-10.333h-.318c-.592,0-1.184-.182-1.639-.592v9.468c0,2.094-1.093,3.096-3.141,3.096h-5.917c-2.094,0-3.141-1.002-3.141-3.096v-29.904c0-1.866,1.047-2.776,3.141-2.776h5.917c2.048,0,3.141,.91,3.141,2.776v16.796c1.866-1.685,3.095-3.414,4.415-5.735l.137-.228c.182-.183,.409-.364,.637-.455h-2.777c-1.183,0-1.775-1.002-1.775-2.003s.592-2.003,1.775-2.003h5.325v-1.274h-4.961c-1.047,0-1.547-.91-1.547-1.775,0-.91,.5-1.775,1.547-1.775h4.961v-1.183h-5.553c-1.183,0-1.775-1.047-1.775-2.14,0-1.047,.592-2.094,1.775-2.094h7.101c2.367,0,3.596,1.093,3.596,3.231v8.147c0,2.094-1.229,2.868-3.596,2.868h-1.502c.819,.318,1.457,.955,1.502,1.774h4.006c.273-.272,.546-.591,.774-.955,.228-.364,.546-.683,.91-.819-1.001-.137-1.502-1.093-1.502-2.003,0-1.002,.592-2.003,1.775-2.003h5.781v-1.274h-5.462c-1.047,0-1.548-.91-1.548-1.775,0-.91,.501-1.775,1.548-1.775h5.462v-1.183h-5.917c-1.183,0-1.775-1.047-1.775-2.14,0-1.047,.592-2.094,1.775-2.094h7.647c2.367,0,3.596,1.093,3.596,3.231v8.147c0,2.094-1.229,2.868-3.596,2.868h-5.052c.774,.318,1.365,.864,1.365,1.456,0,.137,0,.228-.046,.318h5.963c1.274,0,1.957,1.047,1.957,2.049,0,.956-.592,1.866-1.957,1.866h-6.6v1.138h5.826c1.093,0,1.593,.865,1.593,1.729,0,.91-.501,1.775-1.593,1.775h-5.826v1.184h5.826c1.093,0,1.593,.91,1.593,1.775,0,.91-.501,1.82-1.593,1.82h-5.826v1.456h7.101c1.411,0,2.094,2.003,2.094,4.052,0,2.003-.728,4.097-2.094,4.097h-19.8Zm-10.514-33.273h-2.139v8.83h2.139v-8.83Zm0,13.428h-2.139v9.559h2.139v-9.559Zm17.979,.819h-5.872v1.138h5.872v-1.138Zm0,4.643h-5.872v1.184h5.872v-1.184Zm0,4.779h-5.872v1.456h5.872v-1.456Z"/>
    <path d="M205.486,225.87c-2.594,0-4.734-2.048-4.734-4.643s2.139-4.733,4.734-4.733,4.779,2.14,4.779,4.733-2.185,4.643-4.779,4.643Z"/>
    <path d="M221.419,225.87c-2.594,0-4.734-2.048-4.734-4.643s2.139-4.733,4.734-4.733,4.779,2.14,4.779,4.733-2.185,4.643-4.779,4.643Z"/>
    <path d="M237.352,225.87c-2.594,0-4.734-2.048-4.734-4.643s2.139-4.733,4.734-4.733,4.779,2.14,4.779,4.733-2.185,4.643-4.779,4.643Z"/>
    <path d="M264.892,222.547c0,2.321-2.503,3.368-4.961,3.368-2.504,0-5.007-1.047-5.007-3.368v-.364c1.32-12.381,1.548-17.615,1.593-26.035h-8.648c-1.684,0-2.503-1.548-2.503-3.096s.819-3.095,2.503-3.095h23.942c1.684,0,2.549,1.547,2.549,3.095s-.865,3.096-2.549,3.096h-8.557c.046,8.375,.319,13.609,1.639,26.035v.364Z"/>
    <path d="M294.482,199.971c0-1.502,1.502-2.23,3.095-2.23s3.232,.773,3.232,2.321c0,9.104,.228,16.568,1.457,22.167,.045,.228,.045,.409,.045,.592,0,2.048-2.321,3.095-4.37,3.095-1.502,0-2.776-.501-3.004-1.729-.091-.501-.137-1.093-.137-1.093-1.365,2.003-3.914,3.096-6.918,3.096-7.556,0-10.651-3.004-10.651-10.651v-15.612c0-1.456,1.547-2.185,3.141-2.185s3.186,.729,3.186,2.185v12.836c0,3.414,1.639,5.053,4.779,5.053,4.006,0,6.145-2.049,6.145-5.918v-11.925Z"/>
    <path d="M312.647,213.126c.364,2.822,3.323,4.824,7.283,4.824,4.096,0,6.19-.864,7.692-2.594,.501-.592,1.183-.819,1.821-.819,1.502,0,3.095,1.274,3.095,2.958,0,.273-.045,.547-.136,.865-1.502,4.825-5.644,7.829-12.517,7.829-8.193,0-13.564-6.146-13.564-14.201,0-8.876,5.826-14.521,13.519-14.521,7.101,0,12.062,5.098,13.063,11.38,.046,.363,.091,.728,.091,1.047,0,1.82-.865,3.231-3.414,3.231h-16.932Zm14.019-5.28c-1.001-2.913-3.141-4.87-6.782-4.87-3.915,0-6.145,2.185-6.964,4.87h13.746Z"/>
    <path d="M349.429,217.95c3.095,0,4.461-1.138,4.461-2.275,0-.865-.728-1.685-2.048-2.14-2.685-.864-6.327-1.229-9.194-2.002-3.778-1.002-5.189-3.005-5.189-5.781,0-.364,.046-.773,.091-1.184,.501-4.188,4.506-7.101,10.742-7.101,6.327,0,10.515,2.822,11.288,7.511v.272c0,1.184-1.502,1.866-2.959,1.866-1.32,0-2.594-.5-2.822-1.547-.364-1.502-2.23-2.686-5.598-2.686-3.095,0-4.188,.729-4.37,1.911v.228c0,.729,.592,1.229,1.684,1.502,2.139,.547,6.008,1.139,8.42,1.73,4.415,1.092,6.464,3.96,6.464,8.693,0,.273-.046,.592-.046,.91-.273,5.144-3.687,8.33-11.743,8.33-7.647,0-12.017-4.097-12.017-10.879,0-1.775,1.548-2.64,3.05-2.64,1.183,0,2.322,.546,2.549,1.684,.455,2.14,2.503,3.414,6.6,3.596h.637Z"/>
    <path d="M384.389,223.458c-2.003,1.775-4.597,2.731-7.465,2.731-7.374,0-12.745-5.417-12.745-14.293s5.371-14.429,12.745-14.429c2.822,0,5.371,1.002,7.374,2.731v-8.375c0-1.639,1.593-2.413,3.186-2.413,1.548,0,3.141,.774,3.141,2.413v32.135c0,1.365-1.548,1.957-3.095,1.957s-3.141-.592-3.141-1.957v-.501Zm-.228-12.836c0-4.051-2.594-7.191-6.873-7.191-4.142,0-6.691,3.551-6.691,7.191,0,4.188,2.549,7.192,6.691,7.192,4.279,0,6.873-2.549,6.873-7.192Z"/>
    <path d="M420.033,209.757c0,4.232,.683,9.74,1.866,12.107,.182,.409,.273,.773,.273,1.138,0,1.775-2.048,2.913-3.96,2.913-1.138,0-2.185-.409-2.686-1.365-.273-.592-.592-1.685-.592-1.685-2.094,2.321-5.735,3.323-8.785,3.323-7.738,0-10.788-3.368-10.788-8.83,0-3.96,1.912-7.102,5.508-8.33,5.508-1.912,12.198-1.32,12.198-3.732,0-1.365-1.365-2.275-4.87-2.275-2.958,0-4.779,1.365-6.236,3.368-.546,.773-1.32,1.047-2.139,1.047-1.639,0-3.414-1.274-3.414-2.868,0-.5,.182-1.047,.546-1.547,2.276-3.232,6.099-5.554,11.197-5.554,8.284,0,11.88,3.323,11.88,10.515v1.775Zm-6.145,1.274c-3.414,1.82-7.465,1.502-10.423,3.05-.956,.5-1.548,1.319-1.548,2.094,0,.91,.865,1.729,3.004,1.729,5.189,0,8.921-1.685,8.921-5.189,0-.91,.045-1.684,.045-1.684Z"/>
    <path d="M433.328,222.457l-9.559-20.347c-.228-.455-.319-.864-.319-1.274,0-1.729,1.821-2.821,3.55-2.821,1.092,0,2.094,.455,2.594,1.456l7.419,15.339,5.872-15.521c.41-1.047,1.457-1.502,2.549-1.502,1.684,0,3.55,1.047,3.55,2.73,0,.273-.091,.592-.182,.91l-9.286,25.899c-1.365,3.823-4.142,5.325-7.692,5.325-1.547,0-3.277-.272-5.052-.773-1.548-.41-2.276-2.14-2.276-3.914,0-2.14,1.047-4.188,2.913-4.188,.273,0,.501,0,.774,.092,1.183,.318,2.048,.5,2.731,.5,1.183,0,1.729-.546,2.23-1.547l.182-.364Z"/>
    <path d="M108.156,243.785c0-.091-.045-.182-.136-.182h-7.419c-1.502,0-2.23-1.274-2.23-2.595,0-1.274,.729-2.549,2.23-2.549h9.468c2.913,0,3.914,1.82,3.914,4.324-.045,8.648-5.098,18.435-11.243,23.396-.5,.41-1.001,.546-1.457,.546-2.048,0-3.869-2.958-3.869-5.416,0-1.047,.319-2.003,1.138-2.595,5.417-3.914,8.375-8.921,9.604-14.793v-.137Zm6.737-9.968c0-1.411,1.548-2.14,3.095-2.14s3.095,.729,3.095,2.14v6.19c3.323,8.921,8.239,14.702,15.885,18.935,.956,.547,1.32,1.639,1.32,2.913,0,2.595-1.684,5.872-3.732,5.872-.364,0-.774-.137-1.138-.364-6.281-3.914-9.923-9.468-12.335-14.52v12.062c0,4.733-1.183,7.602-7.419,7.602-1.548,0-3.459-.183-5.69-.546-1.639-.273-2.367-2.276-2.367-4.279,0-2.458,1.001-5.007,2.822-5.007,.136,0,.228,.046,.364,.046,2.185,.364,3.596,.592,4.506,.592,1.411,0,1.593-.547,1.593-1.729v-27.766Zm14.156,13.837c-.41,.273-.819,.41-1.275,.41-1.638,0-3.232-1.73-3.232-3.323,0-.683,.273-1.32,.91-1.775,2.913-2.185,5.143-4.232,6.964-6.372,.5-.592,1.183-.865,1.912-.865,1.639,0,3.459,1.457,3.459,3.096,0,.592-.228,1.184-.729,1.729-2.048,2.321-4.87,4.825-8.011,7.101Z"/>
    <path d="M161.873,271.96c-2.458,0-3.732-1.275-3.732-3.732v-10.333h-.318c-.592,0-1.184-.182-1.639-.592v9.468c0,2.094-1.093,3.096-3.141,3.096h-5.917c-2.094,0-3.141-1.002-3.141-3.096v-29.904c0-1.866,1.047-2.776,3.141-2.776h5.917c2.048,0,3.141,.91,3.141,2.776v16.796c1.866-1.685,3.095-3.414,4.415-5.735l.137-.228c.182-.183,.409-.364,.637-.455h-2.777c-1.183,0-1.775-1.002-1.775-2.003s.592-2.003,1.775-2.003h5.325v-1.274h-4.961c-1.047,0-1.547-.91-1.547-1.775,0-.91,.5-1.775,1.547-1.775h4.961v-1.183h-5.553c-1.183,0-1.775-1.047-1.775-2.14,0-1.047,.592-2.094,1.775-2.094h7.101c2.367,0,3.596,1.093,3.596,3.231v8.147c0,2.094-1.229,2.868-3.596,2.868h-1.502c.819,.318,1.457,.955,1.502,1.774h4.006c.273-.272,.546-.591,.774-.955,.228-.364,.546-.684,.91-.819-1.001-.137-1.502-1.093-1.502-2.003,0-1.002,.592-2.003,1.775-2.003h5.781v-1.274h-5.462c-1.047,0-1.548-.91-1.548-1.775,0-.91,.501-1.775,1.548-1.775h5.462v-1.183h-5.917c-1.183,0-1.775-1.047-1.775-2.14,0-1.047,.592-2.094,1.775-2.094h7.647c2.367,0,3.596,1.093,3.596,3.231v8.147c0,2.094-1.229,2.868-3.596,2.868h-5.052c.774,.318,1.365,.864,1.365,1.456,0,.137,0,.228-.046,.318h5.963c1.274,0,1.957,1.047,1.957,2.049,0,.956-.592,1.866-1.957,1.866h-6.6v1.138h5.826c1.093,0,1.593,.865,1.593,1.729,0,.91-.501,1.775-1.593,1.775h-5.826v1.184h5.826c1.093,0,1.593,.91,1.593,1.775,0,.91-.501,1.82-1.593,1.82h-5.826v1.456h7.101c1.411,0,2.094,2.003,2.094,4.052,0,2.003-.728,4.097-2.094,4.097h-19.8Zm-10.514-33.273h-2.139v8.83h2.139v-8.83Zm0,13.428h-2.139v9.559h2.139v-9.559Zm17.979,.819h-5.872v1.138h5.872v-1.138Zm0,4.643h-5.872v1.184h5.872v-1.184Zm0,4.779h-5.872v1.456h5.872v-1.456Z"/>
    <path d="M205.486,269.638c-2.594,0-4.734-2.048-4.734-4.643s2.139-4.733,4.734-4.733,4.779,2.14,4.779,4.733-2.185,4.643-4.779,4.643Z"/>
    <path d="M221.419,269.638c-2.594,0-4.734-2.048-4.734-4.643s2.139-4.733,4.734-4.733,4.779,2.14,4.779,4.733-2.185,4.643-4.779,4.643Z"/>
    <path d="M237.352,269.638c-2.594,0-4.734-2.048-4.734-4.643s2.139-4.733,4.734-4.733,4.779,2.14,4.779,4.733-2.185,4.643-4.779,4.643Z"/>
    <path d="M267.896,244.058l-4.37,22.076c-.501,2.503-2.64,3.55-4.916,3.55-2.458,0-5.007-1.229-5.599-3.55-2.958-12.062-4.87-20.073-6.736-29.723-.046-.183-.046-.364-.046-.547,0-1.729,1.684-2.686,3.323-2.686,1.365,0,2.686,.638,3.004,1.958,2.003,8.238,3.505,14.109,5.735,20.801l5.007-18.753c.501-1.82,2.412-2.731,4.37-2.731s3.96,.911,4.461,2.731l5.28,18.753c2.139-6.145,3.732-12.426,5.69-20.801,.318-1.366,1.593-1.958,2.958-1.958,1.639,0,3.368,.956,3.368,2.686,0,.183,0,.364-.045,.547-2.276,11.333-3.778,17.797-6.737,29.723-.592,2.275-3.141,3.55-5.644,3.55-2.23,0-4.37-1.001-4.87-3.55l-4.233-22.076Z"/>
    <path d="M298.49,256.894c.364,2.822,3.323,4.824,7.283,4.824,4.097,0,6.19-.864,7.692-2.594,.501-.592,1.184-.819,1.821-.819,1.502,0,3.095,1.274,3.095,2.958,0,.273-.046,.547-.137,.865-1.502,4.825-5.644,7.829-12.517,7.829-8.193,0-13.564-6.146-13.564-14.201,0-8.876,5.826-14.521,13.518-14.521,7.101,0,12.062,5.098,13.063,11.38,.045,.363,.091,.728,.091,1.047,0,1.82-.865,3.231-3.414,3.231h-16.932Zm14.019-5.28c-1.001-2.913-3.141-4.87-6.782-4.87-3.915,0-6.145,2.185-6.964,4.87h13.746Z"/>
    <path d="M342.919,267.226c-2.003,1.775-4.597,2.731-7.465,2.731-7.374,0-12.745-5.417-12.745-14.293s5.371-14.429,12.745-14.429c2.822,0,5.371,1.002,7.374,2.731v-8.375c0-1.639,1.593-2.413,3.186-2.413,1.548,0,3.141,.774,3.141,2.413v32.135c0,1.365-1.548,1.957-3.095,1.957s-3.141-.592-3.141-1.957v-.501Zm-.228-12.836c0-4.051-2.594-7.191-6.873-7.191-4.142,0-6.691,3.551-6.691,7.191,0,4.188,2.549,7.192,6.691,7.192,4.279,0,6.873-2.55,6.873-7.192Z"/>
    <path d="M371.508,266.589c0-5.826,.546-10.014,.91-14.201,0-.229,.045-.456,.045-.684,0-2.913-1.775-4.552-4.688-4.552-3.823,0-6.236,2.868-6.236,6.282,0,5.052,0,7.236,1.411,12.562,.091,.272,.091,.546,.091,.773,0,1.957-2.139,2.867-4.324,2.867-2.276,0-4.552-1.001-4.552-3.231v-.318c.637-6.873,.683-11.334,.683-19.208v-3.141c0-1.502,1.502-2.23,3.05-2.23s3.141,.773,3.141,2.23v.364c1.821-1.73,3.869-2.868,6.964-2.868,7.055,0,11.106,3.642,11.106,10.014,0,.319-.045,.638-.045,.956-.046,.819-.091,1.639-.091,2.504,0,3.322,.409,6.827,1.229,11.516,.046,.182,.046,.318,.046,.5,0,1.958-2.276,2.959-4.506,2.959-2.139,0-4.233-.91-4.233-3.05v-.045Z"/>
    <path d="M390.173,256.894c.364,2.822,3.323,4.824,7.283,4.824,4.097,0,6.19-.864,7.692-2.594,.501-.592,1.184-.819,1.821-.819,1.502,0,3.095,1.274,3.095,2.958,0,.273-.046,.547-.137,.865-1.502,4.825-5.644,7.829-12.517,7.829-8.193,0-13.564-6.146-13.564-14.201,0-8.876,5.826-14.521,13.519-14.521,7.101,0,12.062,5.098,13.063,11.38,.046,.363,.091,.728,.091,1.047,0,1.82-.865,3.231-3.414,3.231h-16.932Zm14.019-5.28c-1.001-2.913-3.141-4.87-6.782-4.87-3.915,0-6.145,2.185-6.964,4.87h13.746Z"/>
    <path d="M426.956,261.718c3.095,0,4.46-1.138,4.46-2.275,0-.865-.728-1.685-2.048-2.14-2.686-.864-6.327-1.229-9.195-2.002-3.778-1.002-5.189-3.005-5.189-5.781,0-.364,.046-.773,.091-1.184,.5-4.188,4.506-7.101,10.742-7.101,6.327,0,10.515,2.822,11.288,7.511v.272c0,1.184-1.502,1.866-2.959,1.866-1.32,0-2.594-.5-2.822-1.547-.364-1.502-2.23-2.686-5.599-2.686-3.095,0-4.188,.728-4.37,1.911v.228c0,.729,.592,1.229,1.684,1.503,2.139,.546,6.008,1.138,8.421,1.729,4.415,1.092,6.463,3.96,6.463,8.693,0,.273-.046,.592-.046,.91-.273,5.144-3.687,8.33-11.743,8.33-7.647,0-12.017-4.097-12.017-10.879,0-1.775,1.548-2.64,3.05-2.64,1.183,0,2.321,.546,2.549,1.684,.455,2.14,2.503,3.414,6.6,3.596h.637Z"/>
    <path d="M454.269,261.718c3.095,0,4.461-1.138,4.461-2.275,0-.865-.729-1.685-2.048-2.14-2.686-.864-6.327-1.229-9.194-2.002-3.778-1.002-5.189-3.005-5.189-5.781,0-.364,.045-.773,.091-1.184,.501-4.188,4.506-7.101,10.742-7.101,6.327,0,10.514,2.822,11.288,7.511v.272c0,1.184-1.502,1.866-2.958,1.866-1.32,0-2.594-.5-2.822-1.547-.364-1.502-2.23-2.686-5.598-2.686-3.095,0-4.188,.728-4.37,1.911v.228c0,.729,.592,1.229,1.684,1.503,2.139,.546,6.008,1.138,8.421,1.729,4.415,1.092,6.463,3.96,6.463,8.693,0,.273-.045,.592-.045,.91-.273,5.144-3.687,8.33-11.744,8.33-7.647,0-12.016-4.097-12.016-10.879,0-1.775,1.548-2.64,3.05-2.64,1.184,0,2.322,.546,2.549,1.684,.455,2.14,2.503,3.414,6.6,3.596h.637Z"/>
    <path d="M489.23,267.226c-2.003,1.775-4.597,2.731-7.465,2.731-7.374,0-12.745-5.417-12.745-14.293s5.371-14.429,12.745-14.429c2.822,0,5.371,1.002,7.374,2.731v-8.375c0-1.639,1.593-2.413,3.186-2.413,1.548,0,3.141,.774,3.141,2.413v32.135c0,1.365-1.548,1.957-3.095,1.957s-3.141-.592-3.141-1.957v-.501Zm-.228-12.836c0-4.051-2.594-7.191-6.873-7.191-4.142,0-6.691,3.551-6.691,7.191,0,4.188,2.549,7.192,6.691,7.192,4.279,0,6.873-2.55,6.873-7.192Z"/>
    <path d="M524.874,253.526c0,4.232,.683,9.74,1.866,12.107,.182,.409,.273,.773,.273,1.138,0,1.775-2.048,2.913-3.96,2.913-1.138,0-2.185-.409-2.686-1.365-.273-.592-.592-1.685-.592-1.685-2.094,2.321-5.735,3.323-8.785,3.323-7.738,0-10.787-3.368-10.787-8.83,0-3.96,1.912-7.102,5.507-8.33,5.508-1.912,12.199-1.32,12.199-3.732,0-1.365-1.366-2.275-4.87-2.275-2.959,0-4.779,1.365-6.236,3.368-.546,.773-1.32,1.047-2.139,1.047-1.639,0-3.414-1.274-3.414-2.868,0-.5,.182-1.047,.546-1.547,2.276-3.232,6.1-5.554,11.197-5.554,8.284,0,11.88,3.323,11.88,10.515v1.775Zm-6.145,1.274c-3.414,1.82-7.465,1.502-10.424,3.05-.956,.5-1.548,1.319-1.548,2.094,0,.91,.865,1.729,3.004,1.729,5.189,0,8.921-1.685,8.921-5.189,0-.91,.046-1.684,.046-1.684Z"/>
    <path d="M538.169,266.225l-9.559-20.347c-.228-.455-.319-.864-.319-1.274,0-1.729,1.821-2.821,3.55-2.821,1.092,0,2.094,.455,2.594,1.456l7.419,15.339,5.872-15.521c.41-1.047,1.457-1.503,2.549-1.503,1.684,0,3.55,1.048,3.55,2.731,0,.273-.091,.592-.182,.91l-9.286,25.899c-1.365,3.823-4.142,5.325-7.692,5.325-1.547,0-3.277-.272-5.052-.773-1.548-.41-2.276-2.14-2.276-3.914,0-2.14,1.047-4.188,2.913-4.188,.273,0,.501,0,.774,.092,1.183,.318,2.048,.5,2.731,.5,1.183,0,1.729-.546,2.23-1.547l.182-.364Z"/>
    <path d="M123.905,287.78c2.868,5.826,7.829,12.017,13.109,16.387,.956,.773,1.365,1.866,1.365,2.958,0,2.55-2.094,5.28-4.324,5.28-.637,0-1.275-.228-1.912-.773-4.734-4.143-9.149-12.381-11.197-19.117,0,0,.364,10.56,1.821,20.482,0,.137,.046,.228,.046,.364,0,1.957-2.503,2.958-4.961,2.958-2.503,0-5.007-1.001-5.007-2.958,0-.091,.045-.228,.045-.364,1.548-9.923,1.821-20.482,1.821-20.482-2.048,6.736-6.463,14.975-11.197,19.117-.637,.546-1.274,.773-1.912,.773-2.23,0-4.324-2.73-4.324-5.28,0-1.092,.41-2.185,1.365-2.958,5.28-4.37,10.241-10.561,13.109-16.387h-11.197c-1.821,0-2.731-1.41-2.731-2.821,0-1.366,.91-2.777,2.731-2.777h14.156v-4.369c0-1.593,1.547-2.412,3.141-2.412,1.547,0,3.095,.819,3.095,2.412v4.369h14.156c1.821,0,2.731,1.411,2.731,2.777,0,1.411-.91,2.821-2.731,2.821h-11.197Z"/>
    <path d="M161.873,315.728c-2.458,0-3.732-1.275-3.732-3.732v-10.333h-.318c-.592,0-1.184-.182-1.639-.592v9.468c0,2.094-1.093,3.096-3.141,3.096h-5.917c-2.094,0-3.141-1.002-3.141-3.096v-29.904c0-1.866,1.047-2.776,3.141-2.776h5.917c2.048,0,3.141,.91,3.141,2.776v16.796c1.866-1.685,3.095-3.414,4.415-5.735l.137-.228c.182-.183,.409-.364,.637-.455h-2.777c-1.183,0-1.775-1.002-1.775-2.003s.592-2.003,1.775-2.003h5.325v-1.274h-4.961c-1.047,0-1.547-.91-1.547-1.775,0-.91,.5-1.775,1.547-1.775h4.961v-1.183h-5.553c-1.183,0-1.775-1.047-1.775-2.14,0-1.047,.592-2.094,1.775-2.094h7.101c2.367,0,3.596,1.093,3.596,3.231v8.147c0,2.094-1.229,2.868-3.596,2.868h-1.502c.819,.318,1.457,.955,1.502,1.774h4.006c.273-.272,.546-.591,.774-.955,.228-.364,.546-.684,.91-.819-1.001-.137-1.502-1.093-1.502-2.003,0-1.002,.592-2.003,1.775-2.003h5.781v-1.274h-5.462c-1.047,0-1.548-.91-1.548-1.775,0-.91,.501-1.775,1.548-1.775h5.462v-1.183h-5.917c-1.183,0-1.775-1.047-1.775-2.14,0-1.047,.592-2.094,1.775-2.094h7.647c2.367,0,3.596,1.093,3.596,3.231v8.147c0,2.094-1.229,2.868-3.596,2.868h-5.052c.774,.318,1.365,.864,1.365,1.456,0,.137,0,.228-.046,.318h5.963c1.274,0,1.957,1.047,1.957,2.049,0,.956-.592,1.866-1.957,1.866h-6.6v1.138h5.826c1.093,0,1.593,.865,1.593,1.729,0,.91-.501,1.775-1.593,1.775h-5.826v1.184h5.826c1.093,0,1.593,.91,1.593,1.775,0,.91-.501,1.82-1.593,1.82h-5.826v1.456h7.101c1.411,0,2.094,2.003,2.094,4.052,0,2.003-.728,4.097-2.094,4.097h-19.8Zm-10.514-33.273h-2.139v8.83h2.139v-8.83Zm0,13.428h-2.139v9.559h2.139v-9.559Zm17.979,.819h-5.872v1.138h5.872v-1.138Zm0,4.643h-5.872v1.184h5.872v-1.184Zm0,4.779h-5.872v1.456h5.872v-1.456Z"/>
    <path d="M205.486,313.406c-2.594,0-4.734-2.048-4.734-4.643s2.139-4.733,4.734-4.733,4.779,2.14,4.779,4.733-2.185,4.643-4.779,4.643Z"/>
    <path d="M221.419,313.406c-2.594,0-4.734-2.048-4.734-4.643s2.139-4.733,4.734-4.733,4.779,2.14,4.779,4.733-2.185,4.643-4.779,4.643Z"/>
    <path d="M237.352,313.406c-2.594,0-4.734-2.048-4.734-4.643s2.139-4.733,4.734-4.733,4.779,2.14,4.779,4.733-2.185,4.643-4.779,4.643Z"/>
    <path d="M264.892,310.084c0,2.321-2.503,3.368-4.961,3.368-2.504,0-5.007-1.047-5.007-3.368v-.364c1.32-12.381,1.548-17.615,1.593-26.035h-8.648c-1.684,0-2.503-1.548-2.503-3.096s.819-3.095,2.503-3.095h23.942c1.684,0,2.549,1.547,2.549,3.095s-.865,3.096-2.549,3.096h-8.557c.046,8.375,.319,13.609,1.639,26.035v.364Z"/>
    <path d="M293.89,310.357c0-5.826,.637-10.06,.91-14.247v-.592c0-3.004-1.684-4.643-4.643-4.643-3.823,0-6.236,3.004-6.236,6.418,0,5.052,.546,7.237,1.411,12.472,.045,.182,.045,.364,.045,.546,0,2.14-2.185,3.141-4.415,3.141s-4.415-1.001-4.415-3.277v-.318c.637-6.873,.683-17.934,.683-27.265v-3.414c0-1.502,1.547-2.23,3.141-2.23s3.186,.774,3.186,2.23v8.694c1.821-1.73,3.732-2.868,6.828-2.868,7.055,0,11.106,3.642,11.106,10.014,0,.319-.046,.638-.046,.956-.045,.819-.091,1.639-.091,2.504,0,3.322,.41,6.827,1.229,11.516,.046,.182,.046,.318,.046,.5,0,1.958-2.276,2.959-4.506,2.959-2.139,0-4.233-.91-4.233-3.05v-.045Z"/>
    <path d="M324.435,287.507c0-1.502,1.502-2.23,3.095-2.23s3.232,.773,3.232,2.321c0,9.104,.228,16.568,1.457,22.167,.045,.228,.045,.409,.045,.592,0,2.048-2.321,3.095-4.37,3.095-1.502,0-2.776-.501-3.004-1.729-.091-.501-.137-1.093-.137-1.093-1.365,2.003-3.915,3.096-6.918,3.096-7.556,0-10.651-3.004-10.651-10.651v-15.612c0-1.456,1.548-2.185,3.141-2.185s3.186,.729,3.186,2.185v12.836c0,3.414,1.639,5.053,4.779,5.053,4.005,0,6.145-2.049,6.145-5.918v-11.925Z"/>
    <path d="M336.228,309.765c.774-7.692,1.001-12.335,1.001-22.258,0-1.502,1.548-2.23,3.095-2.23s3.141,.729,3.141,2.23v.683c1.274-1.957,3.869-3.141,6.6-3.141,.546,0,1.093,.045,1.639,.137,1.548,.272,2.185,1.502,2.185,2.73,0,1.502-1.001,3.096-2.594,3.096-.182,0-.319,0-.501-.046-.273-.046-.592-.091-.865-.091-2.594,0-5.644,2.094-5.963,5.826-.045,.683-.091,1.411-.091,2.139,0,3.05,.455,6.874,1.274,10.925,.045,.228,.045,.455,.045,.637,0,2.049-2.139,3.004-4.37,3.004-2.276,0-4.597-1.001-4.597-3.276v-.364Z"/>
    <path d="M368.002,305.486c3.095,0,4.461-1.138,4.461-2.275,0-.865-.728-1.685-2.048-2.14-2.686-.864-6.327-1.229-9.194-2.002-3.778-1.002-5.189-3.005-5.189-5.781,0-.364,.045-.773,.091-1.184,.501-4.188,4.506-7.101,10.742-7.101,6.327,0,10.514,2.822,11.288,7.511v.272c0,1.184-1.502,1.866-2.958,1.866-1.32,0-2.594-.5-2.822-1.547-.364-1.502-2.23-2.686-5.599-2.686-3.095,0-4.188,.728-4.37,1.911v.228c0,.729,.592,1.229,1.684,1.503,2.139,.546,6.008,1.138,8.421,1.729,4.415,1.092,6.463,3.96,6.463,8.693,0,.273-.045,.592-.045,.91-.273,5.144-3.687,8.33-11.743,8.33-7.647,0-12.016-4.097-12.016-10.879,0-1.775,1.547-2.64,3.05-2.64,1.183,0,2.321,.546,2.549,1.684,.455,2.14,2.503,3.414,6.6,3.596h.637Z"/>
    <path d="M402.963,310.994c-2.003,1.775-4.597,2.731-7.465,2.731-7.374,0-12.745-5.417-12.745-14.293s5.371-14.429,12.745-14.429c2.822,0,5.371,1.002,7.374,2.731v-8.375c0-1.639,1.593-2.413,3.187-2.413,1.547,0,3.141,.774,3.141,2.413v32.135c0,1.365-1.548,1.957-3.095,1.957s-3.141-.592-3.141-1.957v-.501Zm-.228-12.836c0-4.051-2.595-7.191-6.873-7.191-4.142,0-6.691,3.551-6.691,7.191,0,4.188,2.549,7.192,6.691,7.192,4.278,0,6.873-2.55,6.873-7.192Z"/>
    <path d="M438.606,297.294c0,4.232,.683,9.74,1.866,12.107,.182,.409,.273,.773,.273,1.138,0,1.775-2.048,2.913-3.96,2.913-1.138,0-2.185-.409-2.686-1.365-.273-.592-.592-1.685-.592-1.685-2.094,2.321-5.735,3.323-8.785,3.323-7.738,0-10.787-3.368-10.787-8.83,0-3.96,1.912-7.102,5.507-8.33,5.508-1.912,12.199-1.32,12.199-3.732,0-1.365-1.366-2.275-4.87-2.275-2.959,0-4.779,1.365-6.236,3.368-.546,.773-1.32,1.047-2.139,1.047-1.639,0-3.414-1.274-3.414-2.868,0-.5,.182-1.047,.546-1.547,2.276-3.232,6.1-5.554,11.197-5.554,8.284,0,11.88,3.323,11.88,10.515v1.775Zm-6.145,1.274c-3.414,1.82-7.465,1.502-10.424,3.05-.956,.5-1.548,1.319-1.548,2.094,0,.91,.865,1.729,3.004,1.729,5.189,0,8.921-1.685,8.921-5.189,0-.91,.046-1.684,.046-1.684Z"/>
    <path d="M451.901,309.993l-9.559-20.347c-.228-.455-.319-.864-.319-1.274,0-1.729,1.821-2.821,3.55-2.821,1.092,0,2.094,.455,2.594,1.456l7.419,15.339,5.872-15.521c.41-1.047,1.457-1.503,2.549-1.503,1.684,0,3.55,1.048,3.55,2.731,0,.273-.091,.592-.182,.91l-9.286,25.899c-1.365,3.823-4.142,5.325-7.692,5.325-1.547,0-3.277-.272-5.052-.773-1.548-.41-2.276-2.14-2.276-3.914,0-2.14,1.047-4.188,2.913-4.188,.273,0,.501,0,.774,.092,1.183,.318,2.048,.5,2.731,.5,1.183,0,1.729-.546,2.23-1.547l.182-.364Z"/>
    <path d="M99.644,359.314c-1.502,0-2.276-2.14-2.276-4.278,0-2.185,.774-4.324,2.276-4.324h6.463c-.637-1.548-1.639-3.551-2.686-5.28-.182-.318-.273-.637-.273-.956,0-1.365,1.73-2.457,3.368-2.457,.91,0,1.821,.363,2.367,1.229,1.32,2.23,2.686,5.28,3.55,7.465h2.367v-9.331h-13.655c-1.502,0-2.276-1.229-2.276-2.412,0-1.229,.774-2.413,2.276-2.413h13.655v-3.641h-6.827c-1.411,0-2.185-.911-2.276-2.094-1.411,.637-2.867,1.229-4.461,1.866-.364,.136-.683,.182-1.001,.182-1.729,0-3.05-1.729-3.05-3.277,0-.956,.501-1.82,1.684-2.23,5.371-1.774,10.651-4.46,15.339-7.282,1.183-.729,2.276-1.093,3.414-1.093s2.276,.364,3.596,1.093c4.415,2.412,10.196,5.325,15.567,7.237,1.274,.455,1.821,1.456,1.821,2.503,0,1.548-1.229,3.232-2.958,3.232-.364,0-.728-.092-1.138-.229-1.548-.637-3.141-1.319-4.734-2.094-.045,1.229-.819,2.186-2.276,2.186h-6.6v3.641h13.2c1.548,0,2.276,1.184,2.276,2.413,0,1.184-.728,2.412-2.276,2.412h-13.2v9.331h2.731c1.229-2.23,2.276-4.916,3.05-7.328,.364-1.093,1.275-1.548,2.322-1.548,1.593,0,3.459,1.138,3.459,2.595,0,.228-.045,.455-.136,.683-.683,2.003-1.548,4.006-2.458,5.599h6.145c1.548,0,2.276,2.14,2.276,4.324,0,2.139-.728,4.278-2.276,4.278h-36.368Zm25.125-31.088c-2.321-1.229-4.779-2.64-6.782-3.869-.046-.045-.136-.091-.182-.091-.045,0-.091,.046-.182,.091-2.139,1.32-4.461,2.686-6.691,3.869h13.837Z"/>
    <path d="M161.873,359.497c-2.458,0-3.732-1.274-3.732-3.732v-10.333h-.318c-.592,0-1.184-.182-1.639-.592v9.468c0,2.094-1.093,3.096-3.141,3.096h-5.917c-2.094,0-3.141-1.002-3.141-3.096v-29.904c0-1.866,1.047-2.776,3.141-2.776h5.917c2.048,0,3.141,.91,3.141,2.776v16.796c1.866-1.685,3.095-3.414,4.415-5.735l.137-.228c.182-.183,.409-.364,.637-.455h-2.777c-1.183,0-1.775-1.002-1.775-2.003s.592-2.003,1.775-2.003h5.325v-1.274h-4.961c-1.047,0-1.547-.91-1.547-1.775,0-.91,.5-1.775,1.547-1.775h4.961v-1.183h-5.553c-1.183,0-1.775-1.047-1.775-2.14,0-1.047,.592-2.094,1.775-2.094h7.101c2.367,0,3.596,1.093,3.596,3.231v8.147c0,2.094-1.229,2.868-3.596,2.868h-1.502c.819,.318,1.457,.955,1.502,1.774h4.006c.273-.272,.546-.591,.774-.955,.228-.364,.546-.683,.91-.819-1.001-.137-1.502-1.093-1.502-2.003,0-1.002,.592-2.003,1.775-2.003h5.781v-1.274h-5.462c-1.047,0-1.548-.91-1.548-1.775,0-.91,.501-1.775,1.548-1.775h5.462v-1.183h-5.917c-1.183,0-1.775-1.047-1.775-2.14,0-1.047,.592-2.094,1.775-2.094h7.647c2.367,0,3.596,1.093,3.596,3.231v8.147c0,2.094-1.229,2.868-3.596,2.868h-5.052c.774,.318,1.365,.864,1.365,1.456,0,.137,0,.228-.046,.318h5.963c1.274,0,1.957,1.047,1.957,2.049,0,.956-.592,1.866-1.957,1.866h-6.6v1.138h5.826c1.093,0,1.593,.865,1.593,1.729,0,.91-.501,1.775-1.593,1.775h-5.826v1.184h5.826c1.093,0,1.593,.91,1.593,1.775,0,.91-.501,1.82-1.593,1.82h-5.826v1.456h7.101c1.411,0,2.094,2.003,2.094,4.052,0,2.003-.728,4.097-2.094,4.097h-19.8Zm-10.514-33.273h-2.139v8.83h2.139v-8.83Zm0,13.428h-2.139v9.559h2.139v-9.559Zm17.979,.819h-5.872v1.138h5.872v-1.138Zm0,4.643h-5.872v1.184h5.872v-1.184Zm0,4.779h-5.872v1.456h5.872v-1.456Z"/>
    <path d="M205.486,357.174c-2.594,0-4.734-2.048-4.734-4.643s2.139-4.733,4.734-4.733,4.779,2.14,4.779,4.733-2.185,4.643-4.779,4.643Z"/>
    <path d="M221.419,357.174c-2.594,0-4.734-2.048-4.734-4.643s2.139-4.733,4.734-4.733,4.779,2.14,4.779,4.733-2.185,4.643-4.779,4.643Z"/>
    <path d="M237.352,357.174c-2.594,0-4.734-2.048-4.734-4.643s2.139-4.733,4.734-4.733,4.779,2.14,4.779,4.733-2.185,4.643-4.779,4.643Z"/>
    <path d="M257.837,354.08c0,2.094-2.367,3.141-4.688,3.141-2.23,0-4.415-.956-4.415-3.05v-.137c.41-10.924,.501-21.165,.501-28.356,0-2.776,1.639-4.415,4.916-4.415h16.796c1.912,0,2.868,1.502,2.868,3.05,0,1.502-.956,3.049-2.822,3.049h-14.929c-.091,0-.228,.092-.228,.183,0,1.456,.046,3.687,.136,6.509h13.974c1.912,0,2.867,1.502,2.867,3.05,0,1.502-.956,3.05-2.822,3.05h-13.291c.228,4.188,.592,8.921,1.138,13.609v.318Z"/>
    <path d="M276.503,353.534c.774-7.692,1.001-12.335,1.001-22.258,0-1.502,1.548-2.23,3.095-2.23s3.141,.729,3.141,2.23v.683c1.275-1.957,3.869-3.141,6.6-3.141,.546,0,1.092,.045,1.639,.137,1.547,.272,2.185,1.502,2.185,2.73,0,1.502-1.001,3.096-2.594,3.096-.182,0-.319,0-.501-.046-.273-.046-.592-.091-.865-.091-2.594,0-5.644,2.094-5.963,5.826-.045,.683-.091,1.411-.091,2.139,0,3.05,.455,6.873,1.275,10.925,.045,.228,.045,.455,.045,.637,0,2.049-2.139,3.004-4.37,3.004-2.276,0-4.597-1.001-4.597-3.276v-.364Z"/>
    <path d="M302.996,333.096c0,8.694,.046,12.79,1.32,20.482,.046,.183,.046,.364,.046,.547,0,2.094-2.276,3.095-4.506,3.095s-4.506-1.001-4.506-3.095c0-.183,0-.364,.046-.547,1.274-7.646,1.32-11.834,1.32-20.527v-1.775c0-1.502,1.548-2.23,3.141-2.23,1.548,0,3.141,.729,3.141,2.23v1.82Zm-3.186-5.689c-2.094,0-3.869-1.457-3.869-3.323s1.775-3.368,3.869-3.368,3.869,1.502,3.869,3.368-1.775,3.323-3.869,3.323Z"/>
    <path d="M328.123,354.762c-2.003,1.775-4.597,2.731-7.465,2.731-7.374,0-12.745-5.417-12.745-14.293s5.371-14.429,12.745-14.429c2.822,0,5.371,1.002,7.374,2.731v-8.375c0-1.639,1.593-2.413,3.186-2.413,1.548,0,3.141,.774,3.141,2.413v32.135c0,1.365-1.548,1.957-3.095,1.957s-3.141-.592-3.141-1.957v-.501Zm-.228-12.836c0-4.051-2.595-7.191-6.873-7.191-4.142,0-6.691,3.551-6.691,7.191,0,4.188,2.549,7.192,6.691,7.192,4.279,0,6.873-2.549,6.873-7.192Z"/>
    <path d="M363.767,341.062c0,4.232,.683,9.74,1.866,12.107,.182,.409,.273,.773,.273,1.138,0,1.775-2.048,2.913-3.96,2.913-1.138,0-2.185-.409-2.685-1.365-.273-.592-.592-1.685-.592-1.685-2.094,2.321-5.735,3.323-8.785,3.323-7.738,0-10.787-3.368-10.787-8.83,0-3.96,1.912-7.102,5.507-8.33,5.508-1.912,12.199-1.32,12.199-3.732,0-1.365-1.365-2.275-4.87-2.275-2.959,0-4.779,1.365-6.236,3.368-.546,.773-1.32,1.047-2.139,1.047-1.638,0-3.414-1.274-3.414-2.868,0-.5,.182-1.047,.546-1.547,2.276-3.232,6.099-5.554,11.197-5.554,8.284,0,11.88,3.323,11.88,10.515v1.775Zm-6.145,1.274c-3.414,1.82-7.465,1.502-10.423,3.05-.956,.5-1.548,1.319-1.548,2.094,0,.91,.865,1.729,3.004,1.729,5.189,0,8.921-1.685,8.921-5.189,0-.91,.046-1.684,.046-1.684Z"/>
    <path d="M377.062,353.761l-9.559-20.347c-.228-.455-.319-.864-.319-1.274,0-1.729,1.821-2.821,3.55-2.821,1.093,0,2.094,.455,2.594,1.456l7.419,15.339,5.872-15.521c.41-1.047,1.457-1.502,2.549-1.502,1.684,0,3.55,1.047,3.55,2.73,0,.273-.091,.592-.182,.91l-9.286,25.899c-1.365,3.823-4.142,5.325-7.692,5.325-1.547,0-3.277-.272-5.052-.773-1.548-.41-2.276-2.14-2.276-3.914,0-2.14,1.047-4.188,2.913-4.188,.273,0,.501,0,.774,.092,1.183,.318,2.048,.5,2.731,.5,1.183,0,1.729-.546,2.23-1.547l.182-.364Z"/>
  </g>
  <path d="M114.65,78.981V34.67h10.68v44.311h-10.68Z"/>
  <path d="M161.743,79.648l-8.25-21.981c-1.365-3.995-2.688-9.812-3.075-12.582l-.169-.015c.41,4.482,.297,12.398-.261,18.852l-1.262,14.602-9.792-.846,3.814-44.146,12.451,1.076,8.327,21.76c1.858,4.894,3.341,10.838,3.486,12.447l.282,.024c-.54-5.636-.337-13.259,.045-17.673l1.33-15.395,9.792,.846-3.814,44.146-12.905-1.115Z"/>
  <path d="M202.386,75.824l-2.23-40.799-13.448,.734-.539-9.875,39.046-2.134,.539,9.875-13.514,.738,2.23,40.8-12.084,.66Z"/>
</svg>