<?xml version="1.0" encoding="UTF-8"?>
<svg id="_レイヤー_1" data-name="レイヤー 1" xmlns="http://www.w3.org/2000/svg" viewBox="0 0 651.016 416.777">
  <defs>
    <style>
      .cls-1 {
        fill: #fff;
        stroke-miterlimit: 10;
        stroke-width: 6px;
      }

      .cls-1, .cls-2 {
        stroke: #000;
      }

      .cls-2, .cls-3 {
        fill: none;
        stroke-width: 7px;
      }

      .cls-3 {
        stroke: #fff;
        stroke-linecap: round;
        stroke-linejoin: round;
      }

      .cls-4 {
        fill: red;
      }
    </style>
  </defs>
  <polygon points="634.664 390.359 17.874 383.811 20.434 87.723 637.224 94.272 634.664 390.359"/>
  <polygon class="cls-1" points="645.402 364.752 37.55 406.135 14.808 111.701 622.66 70.318 645.402 364.752"/>
  <g>
    <polygon class="cls-2" points="271.873 12.859 8.755 28.156 11.917 101.758 142.823 88.571 156.001 101.832 145.218 103.485 190.809 129.529 181.916 103.177 195.85 101.041 186.75 82.344 274.676 69.751 271.873 12.859"/>
    <g>
      <polygon points="278.873 19.859 15.755 35.156 18.917 108.758 149.823 95.571 163.001 108.832 152.218 110.485 197.809 136.529 188.916 110.177 202.85 108.041 193.75 89.344 281.676 76.751 278.873 19.859"/>
      <polygon class="cls-4" points="271.873 12.859 8.755 28.156 11.917 101.758 142.823 88.571 156.001 101.832 145.218 103.485 190.809 129.529 181.916 103.177 195.85 101.041 186.75 82.344 274.676 69.751 271.873 12.859"/>
    </g>
  </g>
  <g>
    <path class="cls-3" d="M83.225,80.559l-2.519-27.418-22.035,2.024,2.519,27.418-15.559,1.429-6.025-65.601,15.559-1.429,2.325,25.315,22.035-2.024-2.325-25.315,15.728-1.444,6.025,65.601-15.728,1.444Z"/>
    <path d="M83.225,80.559l-2.519-27.418-22.035,2.024,2.519,27.418-15.559,1.429-6.025-65.601,15.559-1.429,2.325,25.315,22.035-2.024-2.325-25.315,15.728-1.444,6.025,65.601-15.728,1.444Z"/>
  </g>
  <g>
    <path d="M74.641,193.389c-2.288,0-3.475-1.187-3.475-3.475v-9.619h-.296c-.551,0-1.102-.169-1.525-.551v8.814c0,1.949-1.018,2.881-2.924,2.881h-5.509c-1.949,0-2.924-.932-2.924-2.881v-27.839c0-1.738,.975-2.585,2.924-2.585h5.509c1.906,0,2.924,.847,2.924,2.585v15.636c1.737-1.568,2.881-3.178,4.109-5.339l.128-.212c.169-.169,.381-.339,.593-.423h-2.585c-1.102,0-1.652-.933-1.652-1.865s.551-1.864,1.652-1.864h4.958v-1.187h-4.619c-.975,0-1.44-.848-1.44-1.652,0-.848,.466-1.653,1.44-1.653h4.619v-1.102h-5.17c-1.102,0-1.652-.975-1.652-1.992,0-.975,.551-1.949,1.652-1.949h6.61c2.204,0,3.348,1.017,3.348,3.009v7.584c0,1.949-1.144,2.67-3.348,2.67h-1.398c.763,.296,1.356,.89,1.398,1.652h3.729c.254-.254,.508-.551,.72-.89,.212-.339,.509-.636,.848-.763-.932-.127-1.398-1.017-1.398-1.865,0-.932,.551-1.864,1.652-1.864h5.382v-1.187h-5.085c-.975,0-1.44-.848-1.44-1.652,0-.848,.466-1.653,1.44-1.653h5.085v-1.102h-5.509c-1.102,0-1.652-.975-1.652-1.992,0-.975,.551-1.949,1.652-1.949h7.119c2.203,0,3.348,1.017,3.348,3.009v7.584c0,1.949-1.145,2.67-3.348,2.67h-4.703c.72,.296,1.271,.805,1.271,1.356,0,.127,0,.212-.042,.296h5.551c1.187,0,1.822,.975,1.822,1.907,0,.89-.551,1.737-1.822,1.737h-6.145v1.06h5.424c1.018,0,1.483,.805,1.483,1.61,0,.847-.466,1.652-1.483,1.652h-5.424v1.102h5.424c1.018,0,1.483,.848,1.483,1.653,0,.847-.466,1.695-1.483,1.695h-5.424v1.356h6.61c1.313,0,1.949,1.864,1.949,3.771,0,1.864-.678,3.813-1.949,3.813h-18.433Zm-9.788-30.975h-1.991v8.22h1.991v-8.22Zm0,12.5h-1.991v8.898h1.991v-8.898Zm16.737,.763h-5.466v1.06h5.466v-1.06Zm0,4.322h-5.466v1.102h5.466v-1.102Zm0,4.449h-5.466v1.356h5.466v-1.356Z"/>
    <path d="M106.502,192.796c-2.416,0-4.238-1.907-4.238-4.195v-27.247c0-2.203,1.949-3.813,4.238-3.813h23.94c2.246,0,4.237,1.652,4.237,3.813v27.247c0,2.331-1.906,4.195-4.237,4.195h-23.94Zm22.67-29.958c0-.424-.382-.678-.806-.678h-19.831c-.424,0-.763,.254-.763,.678v7.712h21.399v-7.712Zm0,12.924h-21.399v8.644c0,.424,.339,.721,.763,.721h19.831c.424,0,.806-.297,.806-.721v-8.644Z"/>
    <path d="M175.312,184.237c1.992,0,2.967,2.119,2.967,4.237s-.975,4.28-2.797,4.407c-3.56,.296-6.907,.423-10,.423-13.264,0-21.611-2.924-21.611-11.78,0-6.949,3.729-10.89,11.399-13.517-.212-3.178-.594-6.187-.975-9.407,0-.127-.043-.211-.043-.296,0-1.525,1.652-2.373,3.306-2.373,1.525,0,3.008,.763,3.136,2.373,.169,2.754,.339,5.297,.466,8.093,6.313-1.356,13.305-1.822,13.348-1.822,2.034,0,3.093,1.44,3.093,2.881,0,1.313-.89,2.627-2.712,2.754-19.025,1.313-24.831,5.847-24.831,9.958,0,3.687,3.814,4.873,10.976,4.873,3.771,0,8.475-.339,14.025-.805h.254Z"/>
    <path d="M208.528,180.126c2.839,2.839,6.44,4.322,11.568,5.551,1.482,.381,2.16,1.907,2.16,3.517,0,2.246-1.271,4.788-3.475,4.788-.254,0-.593-.042-.89-.127-6.313-1.864-10.551-4.619-14.279-9.746-3.009,5-7.967,8.051-15.382,9.788-.212,.042-.466,.085-.678,.085-2.204,0-3.56-2.712-3.56-4.958,0-1.567,.636-2.966,2.076-3.22,6.737-1.144,10.17-3.178,12.246-5.678h-12.077c-1.44,0-2.16-1.229-2.16-2.415,0-1.229,.72-2.416,2.16-2.416h1.06v-5c0-2.966,.848-3.813,4.153-3.813h9.025v-1.06c0-1.187,1.355-1.737,2.712-1.737s2.712,.551,2.712,1.737v1.06h8.771c3.135,0,4.194,.847,4.194,3.813v5h1.145c1.44,0,2.161,1.187,2.161,2.416,0,1.187-.721,2.415-2.161,2.415h-11.483Zm5.848-16.949v1.144c0,1.187-1.313,1.78-2.627,1.78s-2.628-.593-2.628-1.78v-1.144h-11.949v1.144c0,1.187-1.313,1.78-2.627,1.78s-2.627-.593-2.627-1.78v-1.144h-5.594c-1.44,0-2.161-1.102-2.161-2.161,0-1.102,.721-2.161,2.161-2.161h5.594v-1.017c0-1.313,1.313-1.991,2.627-1.991s2.627,.678,2.627,1.991v1.017h11.949v-1.017c0-1.313,1.313-1.991,2.628-1.991s2.627,.678,2.627,1.991v1.017h5.509c1.44,0,2.161,1.06,2.161,2.161,0,1.06-.721,2.161-2.161,2.161h-5.509Zm-13.898,7.542h-7.543c-.339,0-.466,.084-.466,.381v4.195h7.839c.17-.678,.17-2.161,.17-3.263v-1.313Zm13.221,.381c0-.297-.17-.381-.509-.381h-7.288v1.017c0,1.187,0,3.008-.127,3.559h7.924v-4.195Z"/>
    <path d="M228.567,166.355c-1.398,0-2.118-1.059-2.118-2.076,0-1.059,.72-2.076,2.118-2.076h11.356c1.44,0,2.161,1.017,2.161,2.076,0,1.017-.721,2.076-2.161,2.076h-11.356Zm1.737,26.653c-1.949,0-2.881-1.017-2.881-2.881v-10.212c0-1.737,.932-2.584,2.881-2.584h8.221c1.906,0,2.924,.847,2.924,2.584v10.17c0,1.864-1.018,2.924-2.924,2.924h-8.221Zm-.339-31.738c-1.398,0-2.119-1.017-2.119-2.077,0-1.017,.721-2.034,2.119-2.034h8.771c1.44,0,2.161,1.017,2.161,2.034,0,1.06-.721,2.077-2.161,2.077h-8.771Zm0,15c-1.398,0-2.119-1.017-2.119-2.034,0-.975,.721-1.992,2.119-1.992h8.898c1.44,0,2.161,1.017,2.161,1.992,0,1.017-.721,2.034-2.161,2.034h-8.898Zm.042-5c-1.398,0-2.118-1.017-2.118-2.034,0-.975,.72-1.992,2.118-1.992h8.856c1.44,0,2.161,1.017,2.161,1.992,0,1.017-.721,2.034-2.161,2.034h-8.856Zm6.61,10.127h-4.364v3.898h4.364v-3.898Zm6.313-6.822c-1.313,0-1.991-1.06-1.991-2.161,0-1.059,.678-2.119,1.991-2.119h2.416c.254-1.059,.424-1.907,.636-3.051h-1.737c-1.229,0-1.865-1.017-1.865-2.076,0-1.017,.636-2.077,1.865-2.077h2.415l.297-1.78h-3.263c-1.314,0-1.992-1.059-1.992-2.119,0-1.017,.678-2.076,1.992-2.076h17.881c1.356,0,1.992,1.06,1.992,2.076,0,1.06-.636,2.119-1.992,2.119h-9.406l-.255,1.78h6.653c2.33,0,3.517,1.06,3.517,3.136v4.068h.509c1.355,0,1.991,1.06,1.991,2.119,0,1.102-.636,2.161-1.991,2.161h-19.662Zm3.264,18.602c-2.289,0-3.433-1.187-3.433-3.432v-10.721c0-2.076,1.144-3.093,3.433-3.093h13.22c2.331,0,3.518,1.017,3.518,3.093v10.721c0,2.246-1.187,3.432-3.518,3.432h-13.22Zm11.398-12.797h-9.492v4.788h9.492v-4.788Zm-.467-13.136h-5.805c-.17,1.144-.382,2.076-.594,3.051h6.398v-3.051Z"/>
    <path d="M271.402,169.237c-1.525,0-2.373-1.483-2.373-2.882,0-1.144,.594-2.246,1.865-2.331,2.076-.169,4.152-.296,6.187-.381,.169-1.652,.339-3.347,.424-5.127,.042-1.271,1.44-1.949,2.839-1.949s2.797,.678,2.797,2.119c0,.339-.34,3.475-.467,4.661,1.737-.042,3.348-.042,4.788-.042,5.891,0,8.814,2.669,8.814,10.042,0,15.085-3.009,20.636-9.534,20.636-2.585,0-4.704-.636-6.271-1.229-1.229-.466-1.779-1.992-1.779-3.644,0-2.5,1.229-5.297,3.051-5.297,.254,0,.508,.042,.763,.169,1.44,.593,2.5,.975,4.025,.975,2.669,0,3.94-3.602,3.94-11.61,0-4.28-1.229-4.915-3.305-4.915-1.483,0-3.263,.042-5.212,.127-.891,8.051-2.373,16.992-6.907,23.899-.636,1.017-1.525,1.44-2.458,1.44-2.245,0-4.703-2.415-4.703-4.958,0-.89,.339-1.822,1.102-2.669,3.898-4.237,6.44-11.229,7.331-17.416-1.525,.127-3.094,.211-4.704,.381h-.212Zm32.119,8.602c-.932,0-1.737-.424-2.118-1.356-1.525-3.941-3.983-8.305-5.933-10.805-.381-.508-.551-1.017-.551-1.483,0-1.271,1.187-2.246,2.627-2.246,.763,0,1.653,.339,2.373,1.06,2.373,2.373,5.043,5.763,7.246,9.534,.339,.593,.466,1.145,.466,1.653,0,2.076-2.245,3.644-4.11,3.644Zm1.187-12.161c-.593,0-1.229-.254-1.694-.89-1.06-1.398-2.204-2.627-3.094-3.475-.424-.381-.593-.805-.593-1.186,0-.89,.89-1.695,1.949-1.695,.508,0,1.694,.169,5.042,4.407,.297,.381,.424,.72,.424,1.102,0,.932-.975,1.737-2.034,1.737Zm3.729-2.966c-.509,0-1.06-.254-1.483-.805-.848-1.059-2.034-2.288-2.881-3.008-.467-.381-.636-.805-.636-1.187,0-.805,.847-1.525,1.821-1.525,.509,0,1.483,.127,4.619,3.771,.297,.339,.424,.721,.424,1.06,0,.89-.89,1.695-1.864,1.695Z"/>
    <path d="M348.433,189.491c0,2.966-1.187,4.407-3.983,4.407-.805,0-1.779-.127-2.924-.381-.932-.169-1.44-.89-1.652-1.652-.297,.296-.848,.381-1.313,.381-.297,0-.551,0-.763-.085-3.348-1.102-5.467-3.093-7.416-5.212-1.694,2.204-3.729,4.28-8.432,5.678-.17,.042-.339,.084-.467,.084-.932,0-1.991-.678-2.5-1.652-.042,1.907-1.864,2.881-3.729,2.881-1.907,0-3.856-1.059-3.856-3.093v-.296c.636-6.314,.721-12.797,.721-20.212v-10.763c0-1.779,.933-2.584,2.882-2.584h11.313c1.949,0,2.924,.805,2.924,2.584v7.754c0,1.737-1.271,2.627-3.136,2.627,.17,.127,.339,.296,.466,.466,.382,.593,.806,1.314,1.145,2.034h4.661l1.102-1.864c.17-.297,.424-.466,.721-.636-1.865,0-3.221-.89-3.221-2.627v-7.754c0-1.779,.975-2.584,2.882-2.584h11.652c1.949,0,2.924,.805,2.924,2.584v29.916Zm-24.068-28.687h-7.246v1.144h7.246v-1.144Zm0,4.195h-7.246v1.145h7.246v-1.145Zm-4.491,16.738c-1.313,0-1.992-.975-1.992-1.949,0-.932,.679-1.907,1.992-1.907h7.966c.042-.424,.085-.72,.085-1.102v-.424h-6.653c-1.355,0-2.033-.975-2.033-1.949s.678-1.949,2.033-1.949h1.398c-.254-.297-.339-.636-.339-.89,0-.678,.551-1.271,1.271-1.61h-6.483s.297,8.475,1.271,16.653c.254-.72,.721-1.313,1.44-1.483,3.645-.933,5.424-1.949,6.61-3.39h-6.567Zm23.645-11.78h-7.034c.848,.254,1.44,.847,1.44,1.568,0,.296-.085,.593-.297,.932h1.398c1.356,0,2.034,.975,2.034,1.949s-.678,1.949-2.034,1.949h-6.355c0,.551-.043,.932-.085,1.525h7.966c1.356,0,1.992,.975,1.992,1.907,0,.975-.636,1.949-1.992,1.949h-6.61c1.695,1.525,3.687,2.458,5.933,2.924,.721,.169,1.102,.551,1.271,1.102,.212-.084,.381-.127,.636-.127,.127,0,.254,0,.381,.042,.382,.084,.636,.127,.848,.127,.381,0,.509-.169,.509-.508v-15.339Zm0-9.153h-7.628v1.144h7.628v-1.144Zm0,4.195h-7.628v1.145h7.628v-1.145Z"/>
    <path d="M383.98,169.914c-.212-.339-.297-.636-.297-.932,0-1.144,1.313-1.992,2.543-1.992,.678,0,1.313,.254,1.737,.89,1.313,1.949,2.669,4.407,3.602,6.652,.085,.254,.127,.466,.127,.678,0,1.313-1.44,2.373-2.754,2.373-.763,0-1.441-.339-1.78-1.186-.169-.424-.339-.89-.551-1.314-2.245,.169-4.703,.339-7.246,.466,0,0,.636,8.602,1.865,15.212,.042,.085,.042,.212,.042,.381,0,1.865-2.246,2.797-4.534,2.797s-4.534-.932-4.534-2.797c0-.169,0-.296,.043-.381,1.229-6.568,1.864-14.958,1.864-14.958-3.305,.169-6.568,.254-9.534,.339h-.085c-1.313,0-2.076-1.229-2.076-2.416,0-1.017,.636-2.034,2.034-2.034,1.822,0,3.729-.042,5.721-.085l1.864-1.313c-2.161-1.271-4.492-2.585-6.992-3.898-.678-.339-.932-.932-.932-1.525,0-1.187,1.144-2.542,2.457-2.542,.34,0,.721,.085,1.06,.297l1.568,.847c.932-.763,1.821-1.525,2.712-2.331-1.949,.042-4.025,.042-6.187,.042-1.06,0-1.737-.72-1.992-1.525-.508,2.034-1.271,4.195-2.118,6.144,.127,4.11,.508,13.009,1.06,20.085,.084-.17,.169-.297,.296-.424,2.204-2.712,3.518-4.619,4.788-7.924,.382-.975,1.229-1.398,2.077-1.398,1.229,0,2.5,.89,2.5,2.373v.296c-.34,3.263-1.018,6.992-2.246,10.509-.509,1.483-1.652,1.992-2.924,1.992-1.525,0-3.221-.763-4.152-1.992l.127,1.271c0,.127,.042,.254,.042,.297,0,2.034-2.076,3.051-4.152,3.051-2.034,0-4.11-.975-4.11-3.008,0-.085,.042-.17,.042-.339,.763-5.551,1.271-12.034,1.61-17.204-.127,.042-.212,.042-.339,.042-1.44,0-2.754-2.034-2.754-3.644,0-.509,.127-.975,.424-1.313,2.288-2.627,4.11-6.526,5.212-11.102,.212-.975,1.229-1.441,2.288-1.441,1.229,0,2.5,.593,2.669,1.695,.297-.382,.763-.636,1.398-.636,9.322,0,16.738-.424,22.119-.975,.17,0,.297-.042,.424-.042,1.525,0,2.415,1.187,2.415,2.288,0,.89-.593,1.737-1.906,1.865-2.712,.296-6.06,.593-10.043,.763-1.694,1.822-3.348,3.347-5.254,4.873,.932,.508,1.822,1.102,2.754,1.652,2.373-1.78,4.449-3.56,6.441-5.466,.466-.424,.975-.593,1.525-.593,1.355,0,2.712,1.271,2.712,2.5,0,.424-.17,.848-.551,1.229-2.416,2.246-4.873,4.28-7.543,6.229l6.017-.381-.593-1.017Zm-2.5,8.602c0-1.483,1.271-2.373,2.5-2.373,.848,0,1.695,.424,2.076,1.398,1.271,3.305,2.585,5.212,4.788,7.924,.509,.635,.721,1.271,.721,1.864,0,2.161-2.627,3.983-4.915,3.983-1.271,0-2.416-.509-2.924-1.992-1.229-3.517-1.907-7.246-2.246-10.509v-.296Z"/>
    <path d="M409.188,158.855c-.721,13.729-.806,17.119-.806,18.009,0,5.593,2.67,7.542,8.179,7.542,5.381,0,9.364-2.584,10.848-8.093,.381-1.398,1.482-2.034,2.627-2.034,1.61,0,3.348,1.271,3.348,3.475,0,.296,0,.593-.085,.932-2.118,10.085-7.839,14.746-16.737,14.746s-14.407-3.433-14.407-13.094c0-.635,.042-1.271,.085-1.949,.508-7.542,.636-13.093,.763-19.831,0-1.525,1.482-2.289,3.008-2.289,1.568,0,3.179,.848,3.179,2.458v.127Z"/>
    <path d="M441.811,165.635c-1.907,0-2.924-1.525-2.924-3.008,0-1.271,.763-2.5,2.415-2.585,8.009-.424,17.204-.89,31.611-1.017,1.821,0,2.881,1.525,2.881,3.051,0,1.356-.848,2.669-2.712,2.839-15,1.398-22.119,9.28-22.119,14.449,0,3.305,2.924,5.89,9.661,5.89,1.992,0,4.28-.254,6.949-.72,.255-.042,.467-.042,.679-.042,2.118,0,3.136,1.992,3.136,4.11s-1.018,4.28-3.009,4.619c-2.543,.424-4.873,.593-6.949,.593-12.077,0-17.077-6.356-17.077-13.051,0-10.042,9.534-14.661,13.094-16.187-5.17,.254-10.721,.72-15.339,1.059h-.297Z"/>
    <path d="M482.316,175.465c0-2.458,.127-9.237,2.161-15.763,.466-1.525,1.737-2.161,2.966-2.161,1.525,0,3.009,.975,3.009,2.415,0,.212-.043,.466-.127,.721-1.398,4.576-2.204,10.424-2.204,13.941,0,5.127,1.356,8.305,3.687,8.305,2.076,0,3.898-1.017,5.085-4.322,.466-1.313,1.483-1.907,2.543-1.907,1.567,0,3.22,1.271,3.22,3.348,0,.339-.042,.72-.169,1.144-2.543,8.983-6.06,11.865-10.848,11.865-5.933,0-9.322-5.212-9.322-17.585Zm32.458,12.458c-1.991,0-3.983-1.102-3.983-3.178,0-.127,.043-.297,.043-.424,.169-1.568,.296-3.093,.296-4.577,0-6.271-1.737-11.483-5.339-16.483-.381-.508-.551-1.059-.551-1.525,0-1.398,1.356-2.542,2.882-2.542,.89,0,1.779,.381,2.542,1.271,4.873,5.848,7.712,14.534,7.967,24.153,.042,2.161-1.822,3.305-3.856,3.305Z"/>
    <path d="M556.889,166.609c1.44,0,2.245,1.271,2.245,2.542,0,1.187-.678,2.331-2.161,2.458-3.39,.297-7.118,.551-10.975,.636,.043,1.78,.085,3.39,.085,4.916,4.195,1.229,8.178,2.881,11.441,5.042,1.397,.932,1.991,2.246,1.991,3.559,0,2.458-1.949,4.916-3.983,4.916-.593,0-1.187-.212-1.737-.678-2.373-2.034-5.085-3.983-7.67-5.424-.042,7.331-4.745,9.407-10.085,9.407-6.609,0-10.805-3.687-10.805-9.449,0-5.551,3.644-8.771,11.61-8.771,1.187,0,2.415,.084,3.644,.254,0-1.102-.042-2.416-.042-3.645h-2.415c-3.56,0-7.119-.042-10.509-.127-1.568,0-2.373-1.356-2.373-2.669,0-1.229,.763-2.458,2.288-2.458h.17c4.11,.17,8.432,.254,12.712,.254l-.085-2.627c-3.39,0-7.034,0-10.975-.085-1.525,0-2.288-1.187-2.288-2.415s.763-2.458,2.246-2.458h.169c3.856,.042,7.373,.127,10.721,.127,0-.636-.042-1.229-.042-1.737v-.085c0-1.398,1.355-2.119,2.754-2.119s2.839,.763,2.882,2.288c0,.466,0,.975,.042,1.525,2.839-.042,5.678-.254,8.645-.508h.296c1.525,0,2.331,1.229,2.331,2.458,0,1.144-.678,2.246-2.076,2.373-3.094,.254-6.06,.424-9.11,.551,.042,.89,.042,1.61,.042,2.585,3.813-.127,7.5-.297,10.721-.636h.297Zm-16.399,15.339c-1.313-.551-3.093-.975-4.406-.975-2.712,0-4.28,.424-4.28,1.78,0,1.737,1.653,2.415,4.237,2.415,3.179,0,4.449-.593,4.449-2.966v-.254Z"/>
    <path d="M601.631,164.829c-2.967-.084-5.976-.127-9.026-.127l.127,6.822c.509,1.187,.933,3.22,.933,4.746,0,10.127-2.542,15.721-14.619,17.416-.169,.042-.296,.042-.466,.042-2.415,0-4.067-2.754-4.067-5.169,0-1.78,.932-3.432,3.135-3.602,5.212-.423,8.476-1.568,9.492-4.025-1.44,.72-3.263,1.144-5.043,1.144-7.203,0-10.763-3.263-10.763-7.966s4.025-7.924,10.975-7.924c1.822,0,3.433,.254,4.873,.678l-.084-2.204c-6.441,0-13.052,.085-19.789,.254h-.127c-1.483,0-2.203-1.271-2.203-2.5,0-1.271,.72-2.5,2.118-2.5,6.737-.127,13.306-.169,19.746-.169,0-.466-.042-.89-.085-1.314v-.212c0-1.271,1.398-1.907,2.84-1.907,1.397,0,2.796,.636,2.839,1.992,0,.466,.042,.932,.042,1.441,3.136,0,6.229,0,9.28,.042,1.482,0,2.245,1.229,2.245,2.5s-.763,2.542-2.245,2.542h-.127Zm-19.28,6.229c-3.687,0-5.339,1.102-5.339,3.051,0,1.398,1.44,2.839,5.169,2.839,3.221,0,5.212-1.271,5.212-3.051,0-1.992-2.203-2.839-5.042-2.839Z"/>
    <path d="M65.488,256.216c-1.313,0-1.907-.932-1.907-1.907,0-.297,.043-.551,.128-.805-1.187,.297-2.331,.593-3.518,.932-.212,.042-.424,.085-.636,.085-1.482,0-2.542-1.356-2.542-2.585,0-.805,.466-1.568,1.61-1.822,5.932-1.314,10.381-2.373,14.449-4.492,.763-.424,1.737-.636,2.754-.636h.255c-.212-.339-.382-.678-.382-1.059s.17-.805,.551-1.145c1.441-1.356,2.712-2.966,3.348-4.237,.424-.805,1.229-1.187,2.119-1.187,1.187,0,2.457,.721,2.457,1.865,0,.084,0,.212-.042,.339h8.687c1.187,0,1.779,.975,1.779,1.949s-.593,1.949-1.779,1.949h-2.797c.339,.551,.636,1.06,.848,1.483,.127,.297,.212,.551,.212,.848,0,1.187-1.356,2.034-2.627,2.034-.806,0-1.568-.339-1.949-1.102-.678-1.271-1.229-2.415-1.822-3.263h-2.882c-.635,.848-1.44,1.78-2.288,2.458,3.983,1.907,8.306,3.136,13.898,4.322,1.187,.254,1.695,1.059,1.695,1.949,0,1.187-.933,2.458-2.415,2.458-.212,0-.466,0-.721-.084-1.229-.297-2.415-.593-3.602-.933,.085,.254,.127,.551,.127,.805,0,.933-.509,1.78-1.694,1.78h-21.314Zm6.187-12.754c.424,.508,.594,.975,.594,1.398,0,1.187-1.398,1.949-2.67,1.949-.805,0-1.61-.339-1.907-1.017-.381-.805-.847-1.61-1.313-2.331h-1.906c-.933,1.398-2.076,2.712-3.306,3.729-.508,.424-1.017,.593-1.525,.593-1.355,0-2.5-1.144-2.5-2.246,0-.424,.17-.847,.636-1.229,1.949-1.653,3.348-3.771,4.195-5.763,.381-.847,1.187-1.229,2.033-1.229,1.229,0,2.543,.805,2.543,1.991v.254h8.093c1.271,0,1.865,.975,1.865,1.907,0,1.017-.636,1.992-1.865,1.992h-2.966Zm-8.645,30.763c-2.288,0-3.432-1.144-3.432-3.305v-9.704c0-1.991,1.144-3.008,3.432-3.008h26.018c2.331,0,3.518,1.017,3.518,3.008v9.704c0,2.161-1.187,3.305-3.518,3.305h-26.018Zm24.28-11.78h-22.458v4.237h22.458v-4.237Zm-3.009-10.085c-2.923-.975-5.678-2.119-8.22-3.348-2.5,1.229-5.424,2.373-8.475,3.348h16.694Z"/>
    <path d="M123.917,263.377c0,1.653,.551,2.288,1.907,2.288,2.585,0,5.636-.169,7.881-.423,.128,0,.255-.042,.382-.042,1.906,0,2.924,2.288,2.924,4.534,0,2.161-.89,4.28-2.839,4.492-1.653,.169-4.237,.212-10.297,.212-4.28,0-6.06-1.864-6.06-5.381,0-.509,0-1.017,.085-1.568,.084-.763,.169-1.483,.169-2.076,0-1.102-.212-1.822-.89-1.822-1.652,0-6.737,5.89-9.534,9.958-.89,1.271-1.949,1.822-3.009,1.822-2.373,0-4.745-2.669-4.745-5.296,0-1.06,.424-2.119,1.355-3.009,6.483-6.06,13.645-11.229,20.212-15.042-4.025,.212-10.508,.551-15.805,.551-1.737,0-2.627-1.356-2.627-2.712s.89-2.669,2.712-2.669h.169c1.356,0,2.712,.042,4.068,.042,5.89,0,11.61-.17,17.924-.593h.254c2.034,0,3.009,1.398,3.009,2.796,0,.89-.424,1.822-1.229,2.331-3.518,2.246-6.992,5.169-9.45,7.5,1.61,0,3.433,1.271,3.433,3.856v.254Zm2.161-18.433c-5.89,0-11.992-.678-16.441-1.483-1.609-.297-2.288-1.398-2.288-2.5,0-1.356,.975-2.712,2.67-2.712,.17,0,.339,0,.509,.042,5.042,.763,9.915,1.398,15.805,1.398,1.822,0,2.67,1.229,2.67,2.5,0,1.356-.975,2.754-2.924,2.754Z"/>
    <path d="M144.294,250.707c-1.525,0-2.373-1.483-2.373-2.882,0-1.144,.594-2.246,1.865-2.331,2.076-.169,4.152-.296,6.187-.381,.169-1.652,.339-3.347,.424-5.127,.042-1.271,1.44-1.949,2.839-1.949s2.797,.678,2.797,2.119c0,.339-.34,3.475-.467,4.661,1.737-.042,3.348-.042,4.788-.042,5.891,0,8.814,2.669,8.814,10.042,0,15.085-3.009,20.636-9.534,20.636-2.585,0-4.704-.636-6.271-1.229-1.229-.466-1.779-1.992-1.779-3.644,0-2.5,1.229-5.297,3.051-5.297,.254,0,.508,.042,.763,.169,1.44,.593,2.5,.975,4.025,.975,2.669,0,3.94-3.602,3.94-11.61,0-4.28-1.229-4.915-3.305-4.915-1.483,0-3.263,.042-5.212,.127-.891,8.051-2.373,16.992-6.907,23.899-.636,1.017-1.525,1.44-2.458,1.44-2.245,0-4.703-2.415-4.703-4.958,0-.89,.339-1.822,1.102-2.669,3.898-4.237,6.44-11.229,7.331-17.416-1.525,.127-3.094,.211-4.704,.381h-.212Zm32.119,8.602c-.932,0-1.737-.424-2.118-1.356-1.525-3.941-3.983-8.305-5.933-10.805-.381-.508-.551-1.017-.551-1.483,0-1.271,1.187-2.246,2.627-2.246,.763,0,1.653,.339,2.373,1.06,2.373,2.373,5.043,5.763,7.246,9.534,.339,.593,.466,1.145,.466,1.653,0,2.076-2.245,3.644-4.11,3.644Zm1.187-12.161c-.593,0-1.229-.254-1.694-.89-1.06-1.398-2.204-2.627-3.094-3.475-.424-.381-.593-.805-.593-1.186,0-.89,.89-1.695,1.949-1.695,.508,0,1.694,.169,5.042,4.407,.297,.381,.424,.72,.424,1.102,0,.932-.975,1.737-2.034,1.737Zm3.729-2.966c-.509,0-1.06-.254-1.483-.805-.848-1.059-2.034-2.288-2.881-3.008-.467-.381-.636-.805-.636-1.187,0-.805,.847-1.525,1.821-1.525,.509,0,1.483,.127,4.619,3.771,.297,.339,.424,.721,.424,1.06,0,.89-.89,1.695-1.864,1.695Z"/>
    <path d="M189.714,274.648c-2.584,0-4.194-1.653-4.194-4.153v-13.305c0-1.271,1.398-1.907,2.797-1.907s2.796,.636,2.796,1.907v8.475c0,.339,.212,.466,.636,.466h8.518v-12.119h-9.237c-2.416,0-4.195-1.313-4.195-3.813v-8.305c0-1.313,1.398-1.949,2.797-1.949s2.796,.636,2.796,1.949v6.525c0,.339,.212,.593,.636,.593h7.204v-9.746c0-1.271,1.44-1.907,2.839-1.907,1.44,0,2.839,.636,2.839,1.907v9.746h7.246c.424,0,.678-.212,.678-.593v-6.525c0-1.313,1.398-1.949,2.797-1.949s2.797,.636,2.797,1.949v8.305c0,2.119-1.949,3.813-4.195,3.813h-9.322v12.119h8.518c.424,0,.678-.212,.678-.551v-8.39c0-1.271,1.398-1.907,2.797-1.907s2.796,.636,2.796,1.907v13.305c0,2.289-1.609,4.153-4.237,4.153h-26.78Z"/>
    <path d="M250.601,257.317c3.306,3.517,7.161,6.06,12.628,8.645,.975,.466,1.397,1.568,1.397,2.796,0,2.458-1.567,5.382-3.602,5.382-.339,0-.72-.085-1.102-.297-4.746-2.669-8.475-6.187-11.229-10.424,0,0,.763,4.492,1.482,8.898,0,.127,.043,.254,.043,.381,0,1.822-2.331,2.754-4.704,2.754-2.33,0-4.703-.932-4.703-2.754,0-.127,.042-.254,.042-.381l1.483-8.898c-2.754,4.237-6.483,7.754-11.229,10.424-.381,.212-.763,.297-1.102,.297-2.033,0-3.602-2.924-3.602-5.382,0-1.229,.424-2.331,1.398-2.796,5.466-2.585,9.322-5.127,12.627-8.645h-11.864c-1.44,0-2.203-1.186-2.203-2.373,0-1.144,.763-2.331,2.203-2.331h5.933c-.594-1.144-1.822-3.051-2.755-4.407-.296-.423-.424-.805-.424-1.229,0-.848,.679-1.61,1.483-1.992h-3.56c-1.44,0-2.203-1.187-2.203-2.373s.763-2.373,2.203-2.373h13.518v-.848c0-1.313,1.398-1.992,2.754-1.992,1.398,0,2.755,.678,2.755,1.992v.848h13.475c1.483,0,2.203,1.186,2.203,2.373s-.72,2.373-2.203,2.373h-3.94c.678,.424,1.187,1.017,1.187,1.822,0,.296-.085,.593-.212,.932-.679,1.525-1.525,3.305-2.416,4.873h5.975c1.483,0,2.204,1.187,2.204,2.331,0,1.187-.721,2.373-2.204,2.373h-11.737Zm-7.839-12.331h-7.161c.339,.169,.636,.424,.848,.763,1.271,1.865,2.076,3.348,2.839,5.042,.085,.212,.127,.424,.127,.636,0,.508-.212,.932-.551,1.187h3.898v-7.627Zm7.882,7.627c1.059-1.695,2.372-4.407,3.178-6.738,.127-.381,.339-.678,.593-.89h-6.144v7.627h2.373Z"/>
    <path d="M281.825,247.444c-.72,7.077-1.737,16.611-3.813,25.043-.508,1.992-1.991,2.797-3.644,2.797-2.585,0-5.551-1.992-5.551-4.407,0-.381,.084-.805,.254-1.229,3.221-7.416,5.721-14.746,6.737-21.95-1.695,.042-3.348,.085-4.831,.085-1.652,0-2.457-1.314-2.457-2.67,0-1.313,.805-2.627,2.415-2.627,1.695,0,3.56-.042,5.551-.085,.17-.975,.255-2.076,.339-2.966,.085-1.229,1.441-1.865,2.797-1.865,1.44,0,2.966,.763,2.966,2.458,0,.466-.127,1.737-.169,2.119l5.085-.297h.297c1.609,0,2.457,1.313,2.457,2.627,0,1.229-.763,2.415-2.415,2.542l-6.018,.423Zm21.865,17.712c1.822,0,2.797,2.076,2.797,4.28,0,2.246-1.06,4.619-3.178,4.746-1.992,.127-3.856,.17-5.552,.17-11.61,0-16.229-2.882-16.229-10.721,0-2.204,0-5.636,3.178-5.636,1.313,0,2.5,.805,2.5,2.373,0,3.559,1.652,5.084,9.28,5.084,1.949,0,4.279-.127,7.033-.296h.17Zm-.466-11.568c-2.839-.169-5.721-.339-8.729-.339-1.737,0-3.475,.042-5.297,.17h-.212c-1.652,0-2.542-1.398-2.542-2.797,0-1.271,.763-2.5,2.373-2.585,1.949-.169,3.983-.212,6.017-.212,3.009,0,5.975,.127,8.687,.339,1.526,.127,2.204,1.356,2.204,2.627,0,1.356-.848,2.797-2.373,2.797h-.127Z"/>
    <path d="M334.407,250.622c8.178,0,12.924,5.297,12.924,11.568,0,8.136-7.204,13.348-23.518,13.348-2.415,0-3.729-2.415-3.729-4.746,0-2.119,1.144-4.195,3.602-4.195,12.585,0,17.627-2.204,17.627-6.017,0-3.009-2.245-4.492-7.246-4.492-3.897,0-9.83,1.864-14.661,6.864-.508,.509-1.102,.721-1.779,.721-1.864,0-4.025-1.822-4.025-3.771,0-1.907,.763-10.085,1.779-14.11,.339-1.313,1.568-1.907,2.797-1.907,1.483,0,3.009,.847,3.009,2.246,0,.212-.043,.424-.085,.636-.636,2.119-1.102,5.339-1.44,8.178,3.855-2.797,9.194-4.322,14.746-4.322Zm1.059-6.187c-4.279-1.102-8.475-1.653-12.966-1.992-1.483-.084-2.246-1.271-2.246-2.5s.848-2.458,2.543-2.458c2.796,0,7.669,.551,14.067,1.78,1.398,.296,2.034,1.356,2.034,2.458,0,1.356-1.017,2.839-2.627,2.839-.255,0-.509-.042-.806-.127Z"/>
    <path d="M361.945,275.411c-1.145,0-2.246-.508-2.966-1.822-1.229-2.161-2.712-4.407-3.814-5.847-.424-.509-.593-1.06-.593-1.61,0-1.483,1.355-2.754,2.966-2.754,.551,0,1.145,.127,1.695,.466,2.161,1.313,4.406,2.966,6.187,4.788,.805,.848,1.144,1.737,1.144,2.585,0,2.161-2.372,4.195-4.618,4.195Z"/>
    <path d="M405.035,274.563c-1.018,0-1.695-.847-2.034-1.991,0,.127-.043,.254-.043,.381-.127,1.483-1.229,2.119-2.542,2.119-1.991,0-4.491-1.568-4.491-4.153,0-.339,.042-.72,.169-1.144,1.525-5.72,2.331-11.865,2.331-20.17v-6.356c0-1.992,1.313-3.178,3.644-3.178h11.103v-.72c0-1.313,1.313-1.949,2.627-1.949s2.627,.636,2.627,1.949v.72h12.415c1.483,0,2.246,1.06,2.246,2.161,0,1.06-.763,2.161-2.246,2.161h-27.246c-.127,0-.169,.212-.169,.254v9.958c2.5-2.161,4.067-5,4.491-8.093,.127-.932,1.06-1.398,2.076-1.398,1.187,0,2.458,.636,2.458,1.78v.169c-.085,.721-.212,1.483-.424,2.289,1.313,1.737,1.695,2.246,3.136,4.619v-7.331c0-1.314,1.271-1.992,2.542-1.992,1.313,0,2.585,.678,2.585,1.992v7.203c1.949-1.907,3.221-4.152,3.771-7.331,.127-.847,1.06-1.271,2.034-1.271,1.144,0,2.415,.593,2.415,1.695,0,.085-.042,.212-.042,.297-.128,.678-.255,1.271-.424,1.864,1.652,1.864,3.263,3.813,4.406,5.424,.339,.508,.467,.975,.467,1.398,0,1.187-1.187,2.076-2.331,2.076-.721,0-1.355-.297-1.779-1.017-.636-1.102-1.525-2.373-2.5-3.602-.721,1.144-1.568,2.161-2.585,3.136-.424,.423-.975,.593-1.483,.593-.763,0-1.483-.382-1.949-.975v2.5h9.619c1.567,0,2.33,1.229,2.33,2.5,0,1.229-.763,2.5-2.33,2.5h-9.619v3.136h11.398c1.61,0,2.373,1.949,2.373,3.898s-.763,3.898-2.373,3.898h-26.652Zm10.127-10.932h-8.771c-1.567,0-2.373-1.271-2.373-2.5,0-1.271,.806-2.5,2.373-2.5h8.771v-2.331c-.382,.508-1.06,.763-1.695,.763-.72,0-1.44-.297-1.906-1.017l-1.483-2.288c-.89,1.398-1.949,2.712-3.221,3.813-.424,.381-.89,.551-1.313,.551-.805,0-1.61-.551-2.076-1.271,0,3.941,0,7.627-.169,11.144,.381-.72,.974-1.229,1.737-1.229h10.127v-3.136Z"/>
    <path d="M475.328,268.928c0,3.517-.551,5.466-4.534,5.466-1.102,0-2.458-.169-4.152-.466-1.44-.254-2.076-1.949-2.076-3.729,0-2.076,.89-4.28,2.245-4.28,.085,0,.212,0,.297,.042,.933,.212,1.61,.339,2.119,.339,.72,0,.975-.296,.975-.975v-2.119h-6.78s.043,3.39,1.145,9.237c.042,.169,.042,.297,.042,.466,0,1.695-2.034,2.542-4.025,2.542-1.949,0-3.898-.848-3.898-2.542,0-.127,0-.297,.042-.466,1.103-5.466,1.145-8.771,1.145-9.195v-.042h-5.466s.169,3.475,.847,8.475c0,.127,.043,.212,.043,.339,0,1.567-1.822,2.415-3.602,2.415-1.822,0-3.603-.848-3.603-2.5,0-.169,0-.339,.043-.508,.89-4.746,1.017-5.89,1.017-10.085,0-1.271,.975-2.712,2.882-2.712h7.881v-1.865h-4.618c-2.331,0-3.518-1.102-3.518-3.22v-2.924h-1.991c-.933,0-1.567-.466-1.907-1.06v6.398c0,6.271-.084,12.289-.635,17.543-.17,1.398-1.145,1.992-2.373,1.992-2.034,0-4.619-1.653-4.619-3.814,0-.339,.043-.635,.17-.975,1.652-5.042,2.118-13.432,2.118-21.441v-5.975c0-2.119,1.61-3.517,3.856-3.517h10.975v-.212c0-1.229,1.44-1.864,2.882-1.864s2.881,.635,2.881,1.864v.212h12.161c1.44,0,2.119,1.102,2.119,2.161,0,1.102-.679,2.203-2.119,2.203h-27.034c-.212,0-.382,.17-.382,.339v3.093c.297-.636,.933-1.102,1.907-1.102h1.991v-.339c0-1.102,1.271-1.61,2.585-1.61,1.271,0,2.543,.508,2.543,1.61v.339h11.822v-.339c0-1.059,1.313-1.61,2.627-1.61,1.271,0,2.585,.551,2.585,1.61v.339h2.288c1.482,0,2.245,1.017,2.245,2.077,0,1.017-.763,2.076-2.245,2.076h-2.288v2.924c0,2.119-1.271,3.22-3.56,3.22h-5v1.865h9.025c1.949,0,2.924,1.017,2.924,2.712v7.585Zm-8.602-18.306h-11.822v2.161h11.822v-2.161Z"/>
    <path d="M504.138,255.961c.551,1.483,1.483,3.136,2.627,4.492,1.949-1.017,4.068-2.373,5.678-3.687,.424-.339,.806-.466,1.229-.466,1.44,0,2.669,1.864,2.669,3.559,0,.848-.296,1.653-1.017,2.204-1.271,.932-3.051,1.737-4.958,2.5,1.822,1.271,4.153,2.076,6.78,2.966,1.229,.424,1.779,1.525,1.779,2.796,0,2.246-1.737,5.085-3.855,5.085-.297,0-.594-.042-.89-.169-8.941-3.305-13.137-10.636-15.764-19.28h-.297c-1.102,1.314-2.542,3.433-3.94,4.449v6.229c1.864-.296,3.771-.551,5.636-1.017,.212-.042,.382-.085,.594-.085,1.779,0,2.966,2.119,2.966,4.11,0,1.483-.636,2.796-2.203,3.178-5.212,1.314-10.976,2.161-16.018,2.542h-.127c-1.568,0-2.458-2.246-2.458-4.28,0-1.737,.636-3.39,1.991-3.475,1.398-.084,2.797-.212,4.153-.339v-3.56c-1.525,.933-2.967,1.568-4.534,2.204-.212,.085-.466,.127-.678,.127-1.61,0-2.967-2.246-2.967-4.11,0-1.06,.467-1.992,1.61-2.246,3.983-.89,6.398-2.119,8.856-3.729h-7.67c-1.44,0-2.161-1.102-2.161-2.161,0-1.102,.721-2.161,2.161-2.161h13.391v-1.737h-10.594c-1.44,0-2.161-1.06-2.161-2.119s.721-2.119,2.161-2.119h10.594v-1.568h-11.822c-1.441,0-2.161-1.102-2.161-2.204,0-1.059,.72-2.161,2.161-2.161h11.822v-.508c0-1.271,1.482-1.907,2.966-1.907s2.966,.635,2.966,1.907v.508h11.907c1.44,0,2.161,1.102,2.161,2.161,0,1.102-.721,2.204-2.161,2.204h-11.907v1.568h10.679c1.44,0,2.161,1.059,2.161,2.119s-.721,2.119-2.161,2.119h-10.679v1.737h13.433c1.44,0,2.161,1.059,2.161,2.161,0,1.059-.721,2.161-2.161,2.161h-11.949Z"/>
    <path d="M556.422,266.174c1.61,0,2.458,1.991,2.458,4.068,0,2.119-.848,4.28-2.627,4.492-2.924,.339-5.127,.508-8.518,.508-11.44,0-15.085-2.5-15.085-7.077,0-6.102,3.898-10.381,12.882-14.068-.466-1.102-1.44-1.483-2.5-1.483-5.297,0-9.322,4.831-13.136,10.212-.636,.932-1.44,1.313-2.204,1.313-1.821,0-3.644-2.076-3.644-3.983,0-.678,.212-1.313,.763-1.865,4.279-4.28,7.288-8.008,9.237-12.034h-1.779c-1.441,0-2.924,0-4.28-.042-1.567-.042-2.415-1.313-2.415-2.585,0-1.229,.763-2.373,2.246-2.373h.169c2.627,.042,5.255,.042,7.882,.042,.297-.763,.551-1.568,.805-2.331,.297-1.059,1.356-1.525,2.458-1.525,1.483,0,3.051,.805,3.051,2.204,0,.042-.127,.932-.381,1.525,4.152-.169,8.305-.424,12.415-.805h.297c1.652,0,2.542,1.356,2.542,2.627,0,1.187-.678,2.289-2.161,2.373-5.127,.381-10.169,.678-15,.805-.424,.975-.933,1.652-1.44,2.585,1.567-.593,3.517-1.017,4.745-1.017,3.687,0,6.483,1.313,7.67,4.449,1.652-.593,5.89-1.907,6.864-1.907,1.695,0,2.712,1.483,2.712,2.881,0,1.017-.508,1.992-1.694,2.288-2.755,.72-5.17,1.441-7.288,2.119v4.958c0,1.356-1.441,2.076-2.882,2.076s-2.839-.678-2.839-2.034v-.042l.042-2.839c-4.322,1.992-5.805,3.56-5.805,4.831,0,1.737,.72,2.246,7.754,2.246,3.136,0,5.763-.254,8.391-.593h.296Z"/>
    <path d="M83.539,315.68c-2.245,0-5.042-.508-5.042-4.534v-9.195h-4.915c0,8.094-.891,13.39-13.094,14.153h-.212c-2.203,0-3.39-2.373-3.39-4.534,0-2.077,.975-4.026,2.966-4.068,6.992-.169,8.433-.721,8.433-5.551h-4.449c-2.331,0-3.475-1.059-3.475-3.178v-16.271c0-2.077,1.144-3.093,3.475-3.093h24.449c2.331,0,3.518,1.017,3.518,3.093v16.271c0,2.119-1.187,3.178-3.518,3.178h-4.534v4.916c0,.763,.467,.805,.975,.805h3.306c1.483,0,1.779-.339,1.949-3.433,.042-1.229,1.229-1.822,2.415-1.822,1.313,0,2.67,.72,2.67,2.119v.085c-.255,6.864-.212,11.059-6.06,11.059h-5.467Zm3.009-31.907c0-.084-.042-.127-.127-.127h-20.679c-.042,0-.127,.084-.127,.127v1.483h20.933v-1.483Zm0,5.593h-20.933v1.737h20.933v-1.737Zm0,5.848h-20.933v1.737s.085,.085,.127,.085h20.679c.085,0,.127-.042,.127-.085v-1.737Z"/>
    <path d="M102.858,287.841c-1.907,0-2.924-1.525-2.924-3.008,0-1.271,.763-2.5,2.415-2.585,8.009-.424,17.204-.89,31.611-1.017,1.821,0,2.881,1.525,2.881,3.051,0,1.356-.848,2.669-2.712,2.839-15,1.398-22.119,9.28-22.119,14.449,0,3.305,2.924,5.89,9.661,5.89,1.992,0,4.28-.254,6.949-.72,.255-.042,.467-.042,.679-.042,2.118,0,3.136,1.992,3.136,4.11s-1.018,4.279-3.009,4.619c-2.543,.424-4.873,.593-6.949,.593-12.077,0-17.077-6.356-17.077-13.051,0-10.042,9.534-14.661,13.094-16.187-5.17,.254-10.721,.72-15.339,1.059h-.297Z"/>
    <path d="M176.244,290.129c0,2.077-.042,3.941-.17,5.636,3.645,1.568,5.043,2.373,5.043,4.28,0,1.695-1.187,3.602-2.755,3.602-.423,0-.847-.085-1.271-.381-.636-.424-1.018-.721-1.653-1.06-1.271,8.263-5.551,11.907-12.373,13.433-.381,.084-.763,.127-1.102,.127-2.797,0-4.449-2.585-4.449-4.916,0-1.695,.848-3.22,2.712-3.602,5.721-1.144,8.771-2.585,9.873-7.5-3.136-1.187-6.102-1.865-9.067-2.119-2.246,6.313-6.187,16.102-13.136,16.102-3.475,0-6.187-2.924-6.187-7.797,0-5.805,5.254-13.348,15.212-13.856,.805-2.246,1.102-4.237,1.652-6.568v-.042c0-.084-.085-.127-.17-.127-2.33,.085-4.703,.212-7.245,.212-1.06,0-2.161-.042-3.306-.085-1.525-.042-2.33-1.313-2.33-2.584,0-1.187,.72-2.373,2.203-2.373h.085c1.398,.042,2.754,.042,4.067,.042,2.416,0,4.788-.042,7.543-.127h.339c3.221,0,4.576,1.398,4.576,3.771,0,.932-.89,5.509-1.652,8.009,2.754,.254,5.339,.763,7.966,1.525v-1.271c0-1.313-.042-2.796-.127-4.364v-.212c0-1.483,1.356-2.204,2.712-2.204,1.483,0,2.967,.805,3.009,2.458v1.991Zm-28.136,13.009c0,1.017,.339,1.525,.89,1.525,1.102,0,4.406-3.136,6.271-7.415-4.365,1.059-7.161,3.856-7.161,5.89Z"/>
    <path d="M217.936,288.816c1.44,0,2.245,1.271,2.245,2.542,0,1.187-.678,2.331-2.161,2.458-3.39,.297-7.118,.551-10.975,.636,.043,1.78,.085,3.39,.085,4.916,4.195,1.229,8.178,2.881,11.441,5.042,1.397,.932,1.991,2.246,1.991,3.559,0,2.458-1.949,4.916-3.983,4.916-.593,0-1.187-.212-1.737-.678-2.373-2.034-5.085-3.983-7.67-5.424-.042,7.331-4.745,9.407-10.085,9.407-6.609,0-10.805-3.687-10.805-9.449,0-5.551,3.644-8.771,11.61-8.771,1.187,0,2.415,.084,3.644,.254,0-1.102-.042-2.416-.042-3.645h-2.415c-3.56,0-7.119-.042-10.509-.127-1.568,0-2.373-1.356-2.373-2.669,0-1.229,.763-2.458,2.288-2.458h.17c4.11,.169,8.432,.254,12.712,.254l-.085-2.627c-3.39,0-7.034,0-10.975-.085-1.525,0-2.288-1.187-2.288-2.415s.763-2.458,2.246-2.458h.169c3.856,.042,7.373,.127,10.721,.127,0-.636-.042-1.229-.042-1.737v-.085c0-1.398,1.355-2.119,2.754-2.119s2.839,.763,2.882,2.288c0,.466,0,.975,.042,1.525,2.839-.042,5.678-.254,8.645-.508h.296c1.525,0,2.331,1.229,2.331,2.458,0,1.144-.678,2.246-2.076,2.373-3.094,.254-6.06,.424-9.11,.551,.042,.89,.042,1.61,.042,2.585,3.813-.127,7.5-.297,10.721-.636h.297Zm-16.399,15.339c-1.313-.551-3.093-.975-4.406-.975-2.712,0-4.28,.424-4.28,1.78,0,1.737,1.653,2.415,4.237,2.415,3.179,0,4.449-.593,4.449-2.966v-.254Z"/>
    <path d="M239.711,281.061c-.721,13.729-.806,17.119-.806,18.009,0,5.593,2.67,7.542,8.179,7.542,5.381,0,9.364-2.584,10.848-8.093,.381-1.398,1.482-2.034,2.627-2.034,1.61,0,3.348,1.271,3.348,3.475,0,.296,0,.593-.085,.932-2.118,10.085-7.839,14.746-16.737,14.746s-14.407-3.433-14.407-13.094c0-.635,.042-1.271,.085-1.949,.508-7.542,.636-13.093,.763-19.831,0-1.525,1.482-2.288,3.008-2.288,1.568,0,3.179,.847,3.179,2.458v.127Z"/>
    <path d="M290.682,308.816c0,5.551-4.025,7.076-8.813,7.076-5.594,0-8.687-3.093-8.687-7.584,0-5.763,3.348-8.178,9.322-8.178,.805,0,1.61,.084,2.542,.212-.085-4.577-.127-10.212-.254-13.602v-.042c0-1.144,1.313-1.78,2.627-1.78,1.271,0,2.542,.593,2.542,1.865v3.898c2.416-.084,5.594-.211,8.476-.466h.212c1.44,0,2.118,1.102,2.118,2.246,0,1.102-.636,2.204-1.907,2.331-2.796,.254-6.271,.424-8.855,.424,.169,2.076,.212,4.449,.424,6.313,3.771,1.102,7.203,2.924,9.873,4.492,1.102,.678,1.525,1.78,1.525,2.881,0,2.119-1.568,4.407-3.39,4.407-.551,0-1.145-.212-1.695-.678-1.907-1.525-3.771-2.924-6.06-3.898v.085Zm-9.915-3.771c-1.187,0-2.119,.466-2.119,1.525,0,1.145,1.271,1.822,3.094,1.822,2.542,0,3.178-.805,3.22-2.076-1.949-1.271-3.898-1.271-4.194-1.271Z"/>
    <path d="M332.288,287.502c9.576,0,14.407,3.941,14.407,11.525,0,7.119-3.602,14.958-21.78,17.077-.169,0-.339,.042-.466,.042-2.755,0-4.11-2.881-4.11-5.297,0-1.779,.721-3.347,2.118-3.475,12.797-1.144,17.967-4.703,17.967-8.983,0-3.941-2.203-5.678-8.051-5.678-4.195,0-9.322,1.271-14.704,3.263-.381,.127-.763,.212-1.102,.212-1.779,0-2.966-1.737-2.966-3.305,0-1.017,.508-1.949,1.61-2.373,5.805-1.991,12.288-3.008,17.076-3.008Zm-11.398-3.263c-1.483-.212-2.203-1.398-2.203-2.542,0-1.313,.89-2.627,2.457-2.627,.17,0,.339,0,.509,.042,5.848,.848,11.356,1.313,18.603,1.483,1.609,.042,2.372,1.186,2.372,2.415,0,1.356-.975,2.797-2.627,2.797-.169,0-9.576-.297-19.11-1.568Z"/>
    <path d="M360.377,316.401c-3.687,0-6.567-2.881-6.567-6.398,0-3.687,2.881-6.653,6.567-6.653,3.729,0,6.61,2.966,6.61,6.653,0,3.517-2.881,6.398-6.61,6.398Zm0-9.831c-1.609,0-2.796,1.271-2.796,2.839,0,1.483,1.187,2.584,2.796,2.584,1.695,0,2.882-1.102,2.882-2.584,0-1.568-1.187-2.839-2.882-2.839Z"/>
  </g>
  <path d="M114.648,78.981V34.671h10.68v44.311h-10.68Z"/>
  <path d="M161.736,79.617l-8.249-21.98c-1.365-3.996-2.688-9.812-3.075-12.582l-.17-.015c.41,4.482,.297,12.398-.261,18.852l-1.261,14.602-9.793-.847,3.814-44.146,12.452,1.076,8.327,21.76c1.858,4.895,3.34,10.838,3.485,12.447l.283,.024c-.539-5.635-.336-13.258,.045-17.672l1.33-15.396,9.791,.846-3.813,44.146-12.906-1.115Z"/>
  <path d="M202.358,75.876l-2.229-40.799-13.447,.735-.54-9.875,39.045-2.133,.54,9.875-13.513,.738,2.229,40.799-12.085,.66Z"/>
</svg>