<?xml version="1.0" encoding="UTF-8"?>
<svg id="_レイヤー_1" data-name="レイヤー 1" xmlns="http://www.w3.org/2000/svg" viewBox="0 0 651.016 416.777">
  <defs>
    <style>
      .cls-1 {
        fill: #fff;
        stroke-miterlimit: 10;
        stroke-width: 6px;
      }

      .cls-1, .cls-2 {
        stroke: #000;
      }

      .cls-2, .cls-3 {
        fill: none;
        stroke-width: 7px;
      }

      .cls-3 {
        stroke: #fff;
        stroke-linecap: round;
        stroke-linejoin: round;
      }

      .cls-4 {
        fill: red;
      }
    </style>
  </defs>
  <polygon points="634.664 390.359 17.874 383.811 20.434 87.723 637.224 94.272 634.664 390.359"/>
  <polygon class="cls-1" points="645.402 364.752 37.55 406.135 14.808 111.701 622.66 70.318 645.402 364.752"/>
  <g>
    <polygon class="cls-2" points="271.873 12.859 8.755 28.156 11.917 101.758 142.823 88.571 156.001 101.832 145.218 103.485 190.809 129.529 181.916 103.177 195.85 101.041 186.75 82.344 274.676 69.751 271.873 12.859"/>
    <g>
      <polygon points="278.873 19.859 15.755 35.156 18.917 108.758 149.823 95.571 163.001 108.832 152.218 110.485 197.809 136.529 188.916 110.177 202.85 108.041 193.75 89.344 281.676 76.751 278.873 19.859"/>
      <polygon class="cls-4" points="271.873 12.859 8.755 28.156 11.917 101.758 142.823 88.571 156.001 101.832 145.218 103.485 190.809 129.529 181.916 103.177 195.85 101.041 186.75 82.344 274.676 69.751 271.873 12.859"/>
    </g>
  </g>
  <g>
    <path class="cls-3" d="M83.225,80.559l-2.519-27.418-22.035,2.024,2.519,27.418-15.559,1.429-6.025-65.601,15.559-1.429,2.325,25.315,22.035-2.024-2.325-25.315,15.728-1.444,6.025,65.601-15.728,1.444Z"/>
    <path d="M83.225,80.559l-2.519-27.418-22.035,2.024,2.519,27.418-15.559,1.429-6.025-65.601,15.559-1.429,2.325,25.315,22.035-2.024-2.325-25.315,15.728-1.444,6.025,65.601-15.728,1.444Z"/>
  </g>
  <g>
    <path d="M60.251,188.017c-1.762,0-2.604-.842-2.604-2.565v-25.498c0-1.569,.842-2.335,2.604-2.335h6.47c1.761,0,2.642,.766,2.642,2.335v25.498c0,1.723-.881,2.565-2.642,2.565h-6.47Zm4.594-26.531h-2.68v7.389h2.68v-7.389Zm0,11.293h-2.68v8.27h2.68v-8.27Zm23.047,2.183v8.346c0,4.939-1.493,6.738-6.354,6.738-1.876,0-4.288-.268-7.274-.728-1.378-.23-2.029-1.914-2.029-3.561,0-1.914,.804-3.828,2.374-3.828,.114,0,.191,.038,.306,.038,2.681,.383,4.479,.651,5.666,.651,2.029,0,2.298-.766,2.298-3.063v-4.594h-7.657c.345,.115,.689,.268,.995,.498,.689,.536,1.379,1.302,1.953,2.259,.229,.383,.345,.766,.345,1.148,0,1.531-1.953,2.565-3.522,2.565-.804,0-1.493-.268-1.761-.88-.46-.996-.881-1.723-1.646-2.718-.229-.268-.307-.574-.307-.842,0-.88,.919-1.723,2.067-2.029h-1.876c-1.225,0-1.838-1.034-1.838-2.067s.613-2.067,1.838-2.067h11.792v-2.067h-11.639c-1.226,0-1.838-1.034-1.838-2.067,0-.996,.612-2.029,1.838-2.029h6.432v-2.412h-5.437c-1.302,0-1.99-.996-1.99-2.029,0-.995,.688-1.991,1.99-1.991h5.437v-.766c0-1.187,1.187-1.799,2.374-1.799s2.373,.612,2.373,1.799v.766h4.824c1.34,0,1.99,.996,1.99,1.991,0,1.034-.65,2.029-1.99,2.029h-4.824v2.412h6.049c1.302,0,1.953,1.034,1.953,2.029,0,1.034-.651,2.067-1.953,2.067h-.957v2.067h1.34c1.341,0,2.029,1.034,2.029,2.067s-.688,2.067-2.029,2.067h-1.34Z"/>
    <path d="M95.242,186.984c.574-6.776,.612-13.82,.612-22.243v-5.781c0-1.57,.843-2.335,2.604-2.335h10.261c1.761,0,2.642,.766,2.642,2.335v7.619c0,1.531-.881,2.374-2.642,2.374h-8.27s.306,9.801,1.569,18.07c.038,.153,.038,.268,.038,.421,0,1.723-1.646,2.604-3.292,2.604-1.761,0-3.522-.958-3.522-2.795v-.268Zm11.601-26.914h-6.394v1.301h6.394v-1.301Zm0,4.02h-6.394v1.378h6.394v-1.378Zm17.305,4.862h-8.614c-1.723,0-2.604-.842-2.604-2.374v-7.619c0-1.57,.881-2.335,2.604-2.335h10.566c1.761,0,2.642,.766,2.642,2.335v27.067c0,2.604-1.378,4.02-4.977,4.02-1.226,0-2.719-.153-4.518-.498-1.072-.191-1.493-1.34-1.57-2.565h-11.677c-1.646,0-2.488-.842-2.488-2.488v-12.06c0-1.455,.843-2.221,2.488-2.221h12.404c1.646,0,2.488,.766,2.488,2.221v10.222c.881,.115,1.531,.191,2.029,.191,.919,0,1.226-.229,1.226-.651v-13.246Zm-7.428,5.207h-8.997v1.608h8.997v-1.608Zm0,5.168h-8.997v1.761h8.997v-1.761Zm7.428-19.257h-6.662v1.301h6.662v-1.301Zm0,4.02h-6.662v1.378h6.662v-1.378Z"/>
    <path d="M135.249,175.23c-1.225,0-1.837-.918-1.837-1.837s.612-1.838,1.837-1.838h7.351v-.995h-6.049c-1.225,0-1.838-.842-1.838-1.646,0-.842,.613-1.646,1.838-1.646h6.049v-.957h-4.861c-1.11,0-1.685-.689-1.8-1.455-.919-.115-1.723-.612-1.723-1.455v-3.484c0-1.57,.842-2.374,2.604-2.374h5.78v-.421c0-.957,1.188-1.417,2.336-1.417,1.187,0,2.335,.459,2.335,1.417v.421h5.973c1.761,0,2.68,.804,2.68,2.374v3.561c0,.842-.842,1.34-1.761,1.455-.115,.728-.728,1.378-1.838,1.378h-5.054v.957h5.973c1.225,0,1.838,.804,1.838,1.646,0,.804-.613,1.646-1.838,1.646h-5.973v.995h7.197c1.226,0,1.838,.919,1.838,1.838s-.612,1.837-1.838,1.837h-19.219Zm2.642,14.204c-1.761,0-2.603-.919-2.603-2.603v-8.384c0-1.57,.842-2.335,2.603-2.335h14.625c1.761,0,2.642,.766,2.642,2.335v8.46c0,1.723-.843,2.527-2.642,2.527h-14.625Zm4.709-27.22c0-.383,.191-.727,.498-.957h-4.671v1.685h4.173v-.728Zm8.116,17.381h-10.987v2.68h10.987v-2.68Zm.881-18.338h-4.824c.307,.23,.498,.574,.498,.957v.728h4.326v-1.685Zm5.054-1.646c0-1.187,1.11-1.761,2.221-1.761s2.22,.574,2.22,1.761v17.687c0,1.187-1.109,1.799-2.22,1.799s-2.221-.612-2.221-1.799v-17.687Zm5.666-2.144c0-1.187,1.148-1.761,2.297-1.761s2.297,.574,2.297,1.761v27.718c0,3.101-.995,4.709-4.135,4.709-1.071,0-2.411-.191-4.058-.574-1.264-.268-1.838-1.914-1.838-3.522,0-2.106,.881-4.326,2.488-4.326,.077,0,.153,.038,.269,.038,.88,.153,1.454,.229,1.837,.229,.728,0,.843-.268,.843-.918v-23.354Z"/>
    <path d="M178.242,188.745c-1.723,0-3.445-.919-3.828-2.948-.498-2.795-.728-6.7-.728-10.26,0-2.106,.077-9.609,2.067-16.769,.345-1.264,1.531-1.876,2.68-1.876,1.379,0,2.719,.804,2.719,2.259,0,.229-.038,.459-.115,.728-1.148,3.867-1.723,7.733-1.723,11.523,0,3.599,.957,8.461,2.45,12.404,.229,.613,.345,1.149,.345,1.646,0,2.144-1.914,3.292-3.867,3.292Zm24.426-8.767c1.838,0,2.718,1.761,2.718,3.599,0,1.799-.88,3.675-2.488,3.79-2.297,.191-4.402,.268-6.278,.268-8.04,0-13.706-1.57-13.706-8.308,0-.039,.076-6.432,3.484-6.432,1.109,0,2.182,.727,2.182,1.914,0,.191-.038,.421-.114,.651-.191,.651-.307,1.225-.307,1.761,0,1.187,.459,3.101,7.963,3.101,1.761,0,3.867-.115,6.278-.344h.269Zm-.881-15.391c-2.604-.191-4.977-.306-7.273-.306-2.795,0-5.437,.153-8.078,.459h-.307c-1.378,0-2.144-1.187-2.144-2.412,0-1.11,.65-2.183,2.105-2.335,2.948-.383,5.704-.536,8.575-.536,2.298,0,4.671,.115,7.312,.306,1.455,.115,2.183,1.302,2.183,2.45,0,1.187-.766,2.374-2.183,2.374h-.191Z"/>
    <path d="M243.556,186.027c0,2.68-1.072,3.981-3.599,3.981-.728,0-1.608-.115-2.642-.344-.843-.153-1.302-.804-1.493-1.493-.269,.268-.766,.344-1.188,.344-.268,0-.497,0-.688-.076-3.024-.996-4.938-2.795-6.7-4.709-1.531,1.991-3.369,3.867-7.618,5.13-.153,.038-.307,.077-.421,.077-.843,0-1.8-.613-2.259-1.493-.039,1.723-1.685,2.604-3.369,2.604-1.723,0-3.484-.958-3.484-2.795v-.268c.574-5.704,.651-11.562,.651-18.262v-9.724c0-1.608,.842-2.335,2.603-2.335h10.223c1.761,0,2.642,.728,2.642,2.335v7.006c0,1.569-1.148,2.374-2.833,2.374,.152,.115,.306,.268,.421,.421,.345,.536,.728,1.187,1.033,1.838h4.212l.995-1.685c.153-.268,.383-.421,.65-.574-1.684,0-2.909-.804-2.909-2.374v-7.006c0-1.608,.881-2.335,2.604-2.335h10.528c1.761,0,2.642,.728,2.642,2.335v27.029Zm-21.746-25.918h-6.546v1.034h6.546v-1.034Zm0,3.79h-6.546v1.034h6.546v-1.034Zm-4.058,15.123c-1.187,0-1.8-.881-1.8-1.761,0-.842,.613-1.723,1.8-1.723h7.197c.038-.383,.076-.651,.076-.996v-.383h-6.011c-1.225,0-1.837-.88-1.837-1.761s.612-1.761,1.837-1.761h1.264c-.229-.268-.306-.574-.306-.804,0-.612,.497-1.148,1.148-1.455h-5.857s.268,7.657,1.148,15.045c.229-.651,.65-1.187,1.302-1.34,3.292-.842,4.9-1.761,5.972-3.062h-5.934Zm21.362-10.643h-6.355c.766,.229,1.302,.766,1.302,1.417,0,.268-.076,.536-.268,.842h1.264c1.225,0,1.837,.88,1.837,1.761s-.612,1.761-1.837,1.761h-5.743c0,.498-.038,.842-.076,1.378h7.197c1.225,0,1.799,.88,1.799,1.723,0,.88-.574,1.761-1.799,1.761h-5.973c1.531,1.378,3.331,2.22,5.36,2.642,.65,.153,.995,.498,1.148,.995,.191-.077,.345-.115,.574-.115,.114,0,.229,0,.345,.038,.344,.077,.574,.115,.766,.115,.345,0,.459-.153,.459-.459v-13.859Zm0-8.27h-6.891v1.034h6.891v-1.034Zm0,3.79h-6.891v1.034h6.891v-1.034Z"/>
    <path d="M275.676,168.339c-.191-.306-.268-.574-.268-.842,0-1.034,1.187-1.799,2.297-1.799,.612,0,1.187,.23,1.569,.804,1.187,1.761,2.412,3.981,3.254,6.011,.077,.229,.115,.421,.115,.612,0,1.187-1.302,2.144-2.488,2.144-.689,0-1.302-.306-1.608-1.072-.153-.383-.306-.804-.497-1.187-2.029,.153-4.25,.306-6.547,.421,0,0,.574,7.772,1.685,13.744,.038,.077,.038,.191,.038,.345,0,1.685-2.029,2.527-4.097,2.527s-4.096-.842-4.096-2.527c0-.153,0-.268,.038-.345,1.11-5.934,1.685-13.514,1.685-13.514-2.986,.153-5.935,.229-8.614,.306h-.076c-1.188,0-1.876-1.11-1.876-2.182,0-.919,.574-1.838,1.837-1.838,1.646,0,3.369-.038,5.169-.076l1.685-1.187c-1.953-1.148-4.059-2.335-6.317-3.522-.612-.307-.842-.842-.842-1.378,0-1.072,1.033-2.297,2.221-2.297,.306,0,.65,.076,.957,.268l1.416,.766c.843-.689,1.646-1.378,2.45-2.106-1.761,.039-3.637,.039-5.59,.039-.957,0-1.569-.651-1.799-1.378-.46,1.838-1.148,3.79-1.914,5.551,.114,3.713,.459,11.753,.957,18.146,.076-.153,.153-.268,.268-.383,1.991-2.45,3.178-4.173,4.326-7.159,.345-.88,1.11-1.263,1.876-1.263,1.11,0,2.259,.804,2.259,2.144v.268c-.306,2.948-.919,6.317-2.029,9.494-.459,1.34-1.493,1.799-2.642,1.799-1.378,0-2.909-.689-3.752-1.799l.115,1.149c0,.115,.038,.229,.038,.268,0,1.838-1.876,2.757-3.752,2.757-1.837,0-3.713-.881-3.713-2.718,0-.077,.038-.153,.038-.306,.689-5.016,1.148-10.873,1.455-15.543-.115,.038-.191,.038-.307,.038-1.302,0-2.488-1.837-2.488-3.292,0-.459,.114-.88,.383-1.187,2.067-2.374,3.713-5.896,4.709-10.03,.191-.88,1.11-1.302,2.067-1.302,1.11,0,2.259,.536,2.412,1.531,.268-.344,.688-.574,1.263-.574,8.423,0,15.122-.383,19.984-.88,.153,0,.269-.038,.383-.038,1.379,0,2.183,1.072,2.183,2.067,0,.804-.536,1.569-1.723,1.684-2.45,.268-5.475,.536-9.073,.689-1.532,1.646-3.024,3.024-4.748,4.402,.843,.459,1.646,.996,2.489,1.493,2.144-1.608,4.02-3.216,5.818-4.938,.422-.383,.881-.536,1.379-.536,1.225,0,2.45,1.148,2.45,2.259,0,.383-.153,.766-.498,1.11-2.182,2.029-4.402,3.867-6.814,5.628l5.437-.345-.536-.919Zm-2.259,7.772c0-1.34,1.148-2.144,2.259-2.144,.766,0,1.531,.383,1.876,1.263,1.148,2.986,2.335,4.709,4.326,7.159,.459,.575,.65,1.149,.65,1.685,0,1.953-2.373,3.599-4.44,3.599-1.148,0-2.183-.459-2.642-1.799-1.11-3.177-1.723-6.546-2.029-9.494v-.268Z"/>
    <path d="M316.219,159.151c1.455,0,2.221,1.11,2.221,2.259,0,1.034-.651,2.067-2.029,2.144-3.981,.306-9.227,.498-14.548,.574l-.115,2.335c1.302-.153,2.642-.268,4.059-.268,5.972,0,14.472,2.488,14.472,11.906,0,7.465-4.326,10.834-12.251,11.983-.191,.038-.345,.038-.536,.038-2.183,0-3.216-2.144-3.216-4.211,0-1.838,.804-3.599,2.373-3.79,5.628-.689,8.346-2.565,8.346-5.858,0-2.335-1.531-3.867-3.942-4.824-4.633,10.031-11.716,17.228-17.496,17.228-4.556,0-6.854-2.221-6.854-7.006,0-9.074,7.39-13.017,10.107-13.974,0-1.301,0-2.297,.038-3.522-2.45,0-4.823-.077-7.006-.153-1.416-.038-2.183-1.225-2.183-2.374,0-1.034,.651-2.067,2.029-2.067h.115c2.221,.115,4.709,.153,7.312,.191,.114-2.144,.191-3.56,2.603-3.56,1.264,0,2.565,.65,2.565,1.799,0,0-.038,.842-.153,1.723,4.978-.115,9.954-.306,13.821-.574h.268Zm-19.257,13.246c-3.216,1.646-5.016,4.097-5.016,6.776,0,1.417,.383,1.799,1.723,1.799,1.226,0,2.565-.459,3.905-1.187-.307-2.221-.459-4.709-.612-7.389Zm8.154-1.952c-1.148,0-2.259,.076-3.331,.268,.077,1.991,.153,3.828,.307,5.627,1.723-1.723,3.178-3.637,4.441-5.857-.46-.038-.957-.038-1.417-.038Z"/>
    <path d="M348.913,156.739c1.8,0,2.986,1.493,2.986,2.948,0,.728-.306,1.417-.957,1.915-2.45,1.685-5.628,3.599-7.849,5.053,.958-.076,2.527-.191,3.522-.191,7.466,0,11.715,3.867,11.715,10.414,0,12.596-14.548,13.017-17.457,13.017-6.202,0-10.911-2.105-10.911-7.695,0-5.207,4.364-7.465,7.618-7.465,5.13,0,8.614,2.45,10.604,6.24,3.025-.842,4.671-3.024,4.671-5.13,0-2.795-2.488-4.786-6.699-4.786-6.432,0-11.103,1.914-15.582,4.824-.498,.307-.995,.459-1.493,.459-1.607,0-3.024-1.493-3.024-2.986,0-.728,.383-1.493,1.34-1.991,5.513-2.909,9.687-5.092,16.194-9.801-3.483,.268-6.776,.498-9.724,.498-.651,0-1.264,0-1.876-.039-1.608,0-2.412-1.187-2.412-2.374s.804-2.374,2.373-2.374h.153c.766,0,1.531,.038,2.297,.038,4.557,0,9.571-.268,14.318-.574h.191Zm-11.103,22.052c-1.646,0-2.335,.651-2.335,1.685,0,1.417,1.34,1.914,4.785,1.914,.843,0,1.8-.038,2.872-.076-1.188-2.259-2.91-3.522-5.322-3.522Z"/>
    <path d="M366.142,167.344c-1.379,0-2.145-1.34-2.145-2.604,0-1.034,.536-2.029,1.685-2.105,1.876-.153,3.752-.268,5.59-.345,.153-1.493,.306-3.024,.383-4.632,.038-1.148,1.302-1.761,2.564-1.761s2.527,.613,2.527,1.915c0,.306-.307,3.139-.421,4.211,1.569-.038,3.024-.038,4.326-.038,5.321,0,7.963,2.412,7.963,9.073,0,13.629-2.719,18.645-8.614,18.645-2.335,0-4.249-.574-5.666-1.11-1.11-.421-1.607-1.799-1.607-3.292,0-2.259,1.109-4.785,2.756-4.785,.229,0,.46,.038,.689,.153,1.302,.536,2.259,.88,3.637,.88,2.412,0,3.561-3.254,3.561-10.49,0-3.867-1.11-4.441-2.986-4.441-1.34,0-2.947,.038-4.709,.115-.804,7.274-2.144,15.352-6.24,21.592-.574,.919-1.378,1.302-2.221,1.302-2.028,0-4.249-2.182-4.249-4.479,0-.804,.306-1.646,.995-2.412,3.522-3.829,5.819-10.146,6.623-15.735-1.378,.115-2.795,.191-4.249,.345h-.191Zm29.479,7.542c-.842,0-1.569-.383-1.914-1.225-1.378-3.561-3.752-7.504-5.513-9.763-.345-.421-.46-.88-.46-1.302,0-1.225,1.264-2.22,2.604-2.22,.728,0,1.493,.268,2.105,.957,2.145,2.374,4.479,5.36,6.47,8.767,.307,.536,.422,1.034,.422,1.493,0,1.876-2.029,3.292-3.714,3.292Z"/>
    <path d="M431.684,181.28c1.8,0,2.68,1.914,2.68,3.828s-.88,3.867-2.526,3.981c-3.216,.268-6.24,.383-9.035,.383-11.982,0-19.524-2.642-19.524-10.643,0-6.279,3.368-9.839,10.298-12.213-.191-2.871-.536-5.589-.881-8.499,0-.115-.038-.191-.038-.268,0-1.378,1.493-2.144,2.986-2.144,1.378,0,2.719,.689,2.833,2.144,.153,2.488,.307,4.786,.421,7.312,5.705-1.225,12.021-1.646,12.06-1.646,1.838,0,2.795,1.302,2.795,2.604,0,1.187-.804,2.374-2.45,2.488-17.189,1.187-22.435,5.283-22.435,8.997,0,3.331,3.445,4.402,9.916,4.402,3.407,0,7.656-.306,12.672-.727h.229Z"/>
    <path d="M443.667,187.941c-1.953,0-4.403-1.187-4.403-3.139,0-.421,.115-.88,.383-1.34,.996-1.876,2.412-6.394,2.91-8.997,.191-.88,.995-1.301,1.876-1.301,1.263,0,2.68,.842,2.68,2.412,0,2.527-.268,8.308-.957,10.949-.229,.957-1.302,1.417-2.488,1.417Zm1.723-15.926c-2.105,0-3.407-1.225-3.407-3.522v-8.27c0-2.182,1.302-3.407,3.407-3.407h22.971c2.067,0,3.407,1.225,3.407,3.407v8.27c0,2.297-1.34,3.522-3.407,3.522h-22.971Zm8.997-11.217h-7.542v1.685h7.542v-1.685Zm0,5.437h-7.542v1.837h7.542v-1.837Zm12.365,14.318c-.229,7.695-1.99,8.882-9.609,8.882-7.121,0-9.227-.88-9.227-5.704v-9.38c0-1.187,1.226-1.761,2.412-1.761,1.226,0,2.412,.575,2.412,1.761v6.47c0,1.34,.345,1.608,4.364,1.608,4.25,0,4.479-.996,4.785-2.91,.191-1.11,1.034-1.608,1.991-1.608,1.34,0,2.871,.995,2.871,2.565v.077Zm-9.149-1.187c-1.188-1.148-2.221-2.144-3.216-2.986-.46-.383-.651-.881-.651-1.378,0-1.302,1.417-2.756,2.833-2.756,.421,0,.804,.115,1.187,.383,1.188,.88,2.45,1.914,3.446,2.871,.421,.383,.574,.881,.574,1.34,0,1.455-1.493,3.063-2.91,3.063-.459,0-.88-.191-1.263-.536Zm9.379-18.568h-7.733v1.685h7.733v-1.685Zm0,5.437h-7.733v1.837h7.733v-1.837Zm3.331,21.554c-1.264,0-2.412-.536-2.526-1.799-.23-2.221-1.34-8.882-1.8-10.605-.038-.153-.076-.306-.076-.459,0-1.148,1.302-2.067,2.564-2.067,.766,0,1.531,.345,2.029,1.148,1.148,1.953,2.871,7.159,3.676,10.337,.038,.191,.076,.383,.076,.574,0,1.761-2.144,2.872-3.943,2.872Z"/>
    <path d="M479.386,173.355c0-2.221,.115-8.346,1.952-14.242,.422-1.378,1.57-1.952,2.681-1.952,1.378,0,2.718,.88,2.718,2.182,0,.191-.038,.421-.115,.651-1.263,4.135-1.99,9.418-1.99,12.595,0,4.633,1.225,7.504,3.331,7.504,1.876,0,3.521-.919,4.594-3.905,.421-1.187,1.34-1.723,2.297-1.723,1.417,0,2.91,1.149,2.91,3.024,0,.307-.039,.651-.153,1.034-2.297,8.116-5.475,10.72-9.801,10.72-5.36,0-8.423-4.709-8.423-15.888Zm29.326,11.255c-1.8,0-3.599-.996-3.599-2.872,0-.115,.038-.268,.038-.383,.153-1.417,.268-2.794,.268-4.134,0-5.667-1.569-10.375-4.823-14.893-.345-.459-.498-.958-.498-1.378,0-1.264,1.225-2.297,2.604-2.297,.804,0,1.607,.344,2.297,1.148,4.402,5.283,6.968,13.131,7.197,21.822,.038,1.953-1.646,2.986-3.483,2.986Z"/>
    <path d="M519.125,165.698c.766,.039,1.607,.039,2.526,.039,3.254,0,7.312-.153,11.371-.459-.307-.574-.575-.996-.843-1.57-3.714,.23-7.542,.383-11.179,.383-1.493,0-2.221-1.072-2.221-2.144s.728-2.105,2.105-2.105h1.302c2.871,0,5.704-.115,8.461-.268-.153-.459-.307-1.225-.307-1.493,0-1.263,1.417-1.914,2.757-1.914,1.11,0,2.144,.459,2.297,1.34,.115,.536,.269,1.11,.421,1.646,2.872-.268,5.628-.689,8.193-1.148,.153-.039,.268-.039,.421-.039,1.417,0,2.374,1.264,2.374,2.412,0,.766-.46,1.493-1.57,1.723-2.45,.421-5.168,.88-8.001,1.148,.268,.613,.536,1.034,.842,1.608,3.561-.383,6.814-.766,9.227-1.263,.191-.038,.345-.038,.498-.038,1.455,0,2.335,1.263,2.335,2.488,0,.919-.497,1.799-1.685,1.991-2.411,.421-5.015,.804-7.771,.957,1.34,1.761,2.91,3.369,4.938,5.168,.536,.459,.728,1.034,.728,1.608,0,1.455-1.416,2.948-3.062,2.948-.459,0-.957-.115-1.455-.421-3.33-1.953-7.771-2.488-11.408-2.488-3.446,0-6.623,.689-6.623,3.024,0,2.297,2.45,3.254,9.188,3.254,4.097,0,7.504-.345,9.954-.88,.191-.039,.383-.077,.574-.077,1.838,0,2.757,2.029,2.757,3.981,0,1.685-.689,3.331-2.145,3.599-3.062,.536-6.737,.842-11.141,.842-9.57,0-14.777-3.445-14.777-9.341,0-6.202,5.475-8.882,12.327-8.882,1.876,0,4.633,.115,7.312,.728-.804-.881-1.531-1.646-2.259-2.604-5.13,.421-10.604,.689-16.194,.689-1.531,0-2.259-1.148-2.259-2.297,0-1.072,.651-2.144,1.876-2.144h.115Z"/>
    <path d="M570.464,162.367c-.574-1.302-1.225-2.527-1.838-3.522-.229-.345-.306-.728-.306-1.034,0-1.264,1.416-2.183,2.833-2.183,1.454,0,2.182,.307,4.402,5.551,3.331-.574,3.867-.612,4.671-.612,5.015,0,9.341,2.756,9.341,9.15,0,5.207-2.564,9.456-8.882,9.456-1.416,0-2.986-.191-4.785-.651-1.455-.383-2.105-1.723-2.105-3.101,0-1.684,.957-3.407,2.642-3.407,.191,0,.383,.039,.574,.077,1.148,.23,2.182,.383,3.024,.383,2.68,0,3.981-1.187,3.981-3.828,0-2.106-1.914-3.254-4.211-3.254-.46,0-5.131,.459-12.864,3.101,3.407,7.542,6.662,17.113,6.662,18.223,0,2.067-2.527,3.407-4.747,3.407-1.608,0-3.102-.727-3.331-2.412-.843-6.279-2.067-11.792-4.02-17.228-3.829,1.493-4.25,1.608-4.748,1.608-1.607,0-2.718-1.531-2.718-2.948,0-.957,.498-1.838,1.569-2.221l3.981-1.263c-.727-1.646-1.569-3.331-2.45-5.054-.152-.306-.229-.612-.229-.919,0-1.301,1.455-2.258,2.871-2.258,.843,0,1.685,.344,2.183,1.225,1.033,1.837,1.952,3.637,2.871,5.398l5.628-1.685Z"/>
    <path d="M600.325,190.047c-1.033,0-2.028-.459-2.68-1.646-1.11-1.953-2.45-3.981-3.445-5.283-.383-.459-.536-.957-.536-1.455,0-1.34,1.226-2.489,2.68-2.489,.498,0,1.034,.115,1.531,.421,1.953,1.187,3.981,2.68,5.59,4.326,.728,.766,1.034,1.569,1.034,2.335,0,1.953-2.145,3.791-4.174,3.791Z"/>
    <path d="M79.01,214.719c2.029,2.029,5.475,3.599,10.299,4.364,1.302,.191,1.876,1.723,1.876,3.369,0,2.029-.957,4.364-2.604,4.364-.115,0-.229,0-.345-.038-7.312-1.417-10.873-3.905-14.165-8.078-3.14,4.479-7.274,7.044-14.434,8.116-.076,0-.191,.039-.268,.039-1.646,0-2.604-2.412-2.604-4.479,0-1.646,.574-3.178,1.762-3.331,5.397-.728,8.92-2.335,10.834-4.326h-10.146c-1.34,0-1.952-.957-1.952-1.991s.688-2.144,1.952-2.144h12.175c.076-.421,.114-.88,.114-1.302h-10.451c-1.187,0-1.8-.957-1.8-1.914,0-.919,.613-1.876,1.8-1.876h10.451v-1.11h-9.073c-1.033,0-1.607-.651-1.761-1.417-.229,.039-.498,.077-.766,.077-1.148,0-2.297-.498-2.297-1.417v-3.943c0-1.876,1.033-2.833,3.139-2.833h10.605v-.766c0-1.034,1.225-1.531,2.488-1.531,1.225,0,2.488,.498,2.488,1.531v.766h10.949c2.105,0,3.178,.957,3.178,2.833v3.905c0,.918-1.187,1.417-2.335,1.417-.269,0-.536-.039-.767-.077-.152,.804-.727,1.455-1.761,1.455h-9.035v1.11h10.528c1.226,0,1.8,.957,1.8,1.876,0,.957-.574,1.914-1.8,1.914h-10.528c0,.421,.038,.881,.153,1.302h11.983c1.263,0,1.952,1.11,1.952,2.144s-.612,1.991-1.952,1.991h-9.687Zm-7.504-14.931c0-.383,.191-.65,.46-.88h-9.647c-.039,0-.153,.077-.153,.115v1.608h9.341v-.842Zm14.396-.766c0-.038-.077-.115-.115-.115h-9.686c.268,.23,.459,.498,.459,.88v.842h9.342v-1.608Z"/>
    <path d="M100.487,225.63c-1.34,0-2.565-.651-2.948-2.221-.574-2.297-.766-5.704-.766-8.997,0-8.958,1.34-15.046,2.412-19.334,.307-1.187,1.34-1.684,2.412-1.684,1.34,0,2.718,.766,2.718,2.029,0,.153-.038,.306-.076,.498-1.493,5.322-1.876,10.988-1.876,13.017,0,3.943,.842,9.379,1.914,12.48,.115,.345,.191,.651,.191,.957,0,1.876-2.105,3.254-3.981,3.254Zm26.723-27.374c1.302,0,1.99,1.187,1.99,2.412,0,1.11-.574,2.22-1.837,2.335-1.417,.115-3.063,.268-4.9,.344,.114,3.407,.191,6.547,.229,9.188,5.819,2.565,7.121,3.561,7.121,5.934,0,2.182-1.57,4.441-3.178,4.441-.46,0-.881-.191-1.302-.574-.804-.766-1.762-1.608-2.795-2.259-.459,5.092-4.097,6.47-8.423,6.47-5.819,0-9.303-2.986-9.303-8.958,0-4.479,3.178-7.503,8.652-7.503,1.302,0,2.756,.268,4.173,.651-.038-2.297-.115-4.633-.191-7.236h-2.45c-2.488,0-5.054-.039-7.618-.115-1.57-.039-2.374-1.302-2.374-2.527,0-1.187,.728-2.297,2.259-2.297h.229c2.757,.153,5.552,.23,8.231,.23h1.607c0-.115-.152-4.02-.152-4.211,0-1.225,1.378-1.914,2.68-1.914,1.187,0,2.335,.574,2.373,1.799l.115,4.135c1.761-.039,3.331-.191,4.633-.345h.229Zm-13.744,16.424c-2.105,0-3.331,.459-3.331,1.761,0,1.34,1.378,2.374,3.981,2.374,2.489,0,3.293-.651,3.293-2.374-1.302-1.148-2.604-1.761-3.943-1.761Z"/>
    <path d="M166.987,222.835c0,2.68-1.072,3.981-3.599,3.981-.728,0-1.608-.115-2.642-.344-.843-.153-1.302-.804-1.493-1.493-.269,.268-.766,.344-1.188,.344-.268,0-.497,0-.688-.076-3.024-.996-4.938-2.795-6.7-4.709-1.531,1.991-3.369,3.867-7.618,5.13-.153,.038-.307,.077-.421,.077-.843,0-1.8-.613-2.259-1.493-.039,1.723-1.685,2.604-3.369,2.604-1.723,0-3.484-.957-3.484-2.795v-.268c.574-5.704,.651-11.562,.651-18.262v-9.724c0-1.608,.842-2.335,2.603-2.335h10.223c1.761,0,2.642,.728,2.642,2.335v7.006c0,1.569-1.148,2.374-2.833,2.374,.152,.115,.306,.268,.421,.421,.345,.536,.728,1.187,1.033,1.838h4.212l.995-1.685c.153-.268,.383-.421,.65-.574-1.684,0-2.909-.804-2.909-2.374v-7.006c0-1.608,.881-2.335,2.604-2.335h10.528c1.761,0,2.642,.728,2.642,2.335v27.029Zm-21.746-25.918h-6.546v1.034h6.546v-1.034Zm0,3.79h-6.546v1.034h6.546v-1.034Zm-4.058,15.123c-1.187,0-1.8-.881-1.8-1.761,0-.842,.613-1.723,1.8-1.723h7.197c.038-.383,.076-.651,.076-.996v-.383h-6.011c-1.225,0-1.837-.88-1.837-1.761s.612-1.761,1.837-1.761h1.264c-.229-.268-.306-.574-.306-.804,0-.612,.497-1.148,1.148-1.455h-5.857s.268,7.657,1.148,15.045c.229-.651,.65-1.187,1.302-1.34,3.292-.842,4.9-1.761,5.972-3.062h-5.934Zm21.362-10.643h-6.355c.766,.229,1.302,.766,1.302,1.417,0,.268-.076,.536-.268,.842h1.264c1.225,0,1.837,.88,1.837,1.761s-.612,1.761-1.837,1.761h-5.743c0,.498-.038,.842-.076,1.378h7.197c1.225,0,1.799,.88,1.799,1.723,0,.88-.574,1.761-1.799,1.761h-5.973c1.531,1.378,3.331,2.22,5.36,2.642,.65,.153,.995,.498,1.148,.995,.191-.077,.345-.115,.574-.115,.114,0,.229,0,.345,.038,.344,.077,.574,.115,.766,.115,.345,0,.459-.153,.459-.459v-13.859Zm0-8.27h-6.891v1.034h6.891v-1.034Zm0,3.79h-6.891v1.034h6.891v-1.034Z"/>
    <path d="M199.107,205.147c-.191-.306-.268-.574-.268-.842,0-1.034,1.187-1.799,2.297-1.799,.612,0,1.187,.23,1.569,.804,1.187,1.761,2.412,3.981,3.254,6.011,.077,.229,.115,.421,.115,.612,0,1.187-1.302,2.144-2.488,2.144-.689,0-1.302-.306-1.608-1.072-.153-.383-.306-.804-.497-1.187-2.029,.153-4.25,.306-6.547,.421,0,0,.574,7.772,1.685,13.744,.038,.077,.038,.191,.038,.345,0,1.685-2.029,2.527-4.097,2.527s-4.096-.842-4.096-2.527c0-.153,0-.268,.038-.345,1.11-5.934,1.685-13.514,1.685-13.514-2.986,.153-5.935,.229-8.614,.306h-.076c-1.188,0-1.876-1.11-1.876-2.182,0-.919,.574-1.838,1.837-1.838,1.646,0,3.369-.038,5.169-.076l1.685-1.187c-1.953-1.148-4.059-2.335-6.317-3.522-.612-.307-.842-.842-.842-1.378,0-1.072,1.033-2.297,2.221-2.297,.306,0,.65,.076,.957,.268l1.416,.766c.843-.689,1.646-1.378,2.45-2.106-1.761,.039-3.637,.039-5.59,.039-.957,0-1.569-.651-1.799-1.378-.46,1.837-1.148,3.79-1.914,5.551,.114,3.713,.459,11.753,.957,18.146,.076-.153,.153-.268,.268-.383,1.991-2.45,3.178-4.173,4.326-7.159,.345-.88,1.11-1.263,1.876-1.263,1.11,0,2.259,.804,2.259,2.144v.268c-.306,2.948-.919,6.317-2.029,9.494-.459,1.34-1.493,1.799-2.642,1.799-1.378,0-2.909-.689-3.752-1.799l.115,1.149c0,.115,.038,.229,.038,.268,0,1.838-1.876,2.757-3.752,2.757-1.837,0-3.713-.881-3.713-2.718,0-.077,.038-.153,.038-.306,.689-5.016,1.148-10.873,1.455-15.543-.115,.038-.191,.038-.307,.038-1.302,0-2.488-1.837-2.488-3.292,0-.459,.114-.88,.383-1.187,2.067-2.374,3.713-5.896,4.709-10.031,.191-.88,1.11-1.302,2.067-1.302,1.11,0,2.259,.536,2.412,1.532,.268-.345,.688-.575,1.263-.575,8.423,0,15.122-.383,19.984-.88,.153,0,.269-.038,.383-.038,1.379,0,2.183,1.072,2.183,2.067,0,.804-.536,1.569-1.723,1.684-2.45,.268-5.475,.536-9.073,.689-1.532,1.646-3.024,3.024-4.748,4.403,.843,.459,1.646,.995,2.489,1.493,2.144-1.608,4.02-3.216,5.818-4.938,.422-.383,.881-.536,1.379-.536,1.225,0,2.45,1.148,2.45,2.259,0,.383-.153,.766-.498,1.11-2.182,2.029-4.402,3.867-6.814,5.628l5.437-.345-.536-.919Zm-2.259,7.772c0-1.34,1.148-2.144,2.259-2.144,.766,0,1.531,.383,1.876,1.263,1.148,2.986,2.335,4.709,4.326,7.159,.459,.574,.65,1.149,.65,1.685,0,1.953-2.373,3.599-4.44,3.599-1.148,0-2.183-.459-2.642-1.799-1.11-3.177-1.723-6.546-2.029-9.494v-.268Z"/>
    <path d="M227.476,196.112c1.532,0,2.298,1.034,2.298,2.106,0,1.034-.689,2.067-2.067,2.144-2.298,.153-4.403,.268-6.547,.344-1.034,4.709-3.024,10.298-5.935,15.314-.65,1.11-1.493,1.531-2.335,1.531-1.723,0-3.445-1.799-3.445-3.561,0-.498,.153-.995,.497-1.455,3.102-4.097,4.862-7.887,6.088-11.715l-3.102-.076c-1.455-.039-2.182-1.072-2.182-2.144,0-1.034,.688-2.067,2.067-2.067h.038c.688,0,1.378,.038,2.067,.038s1.416-.038,2.105-.038l.459-2.335c.191-1.034,1.226-1.531,2.336-1.531,1.302,0,2.68,.689,2.68,1.876,0,.344-.191,1.187-.345,1.876,1.685-.039,3.331-.153,5.016-.307h.306Zm8.461,6.853c-.076,1.799-.114,3.561-.114,5.168s.038,3.024,.076,4.25c2.259,.842,4.633,1.991,6.509,3.178,1.033,.689,1.454,1.646,1.454,2.68,0,2.067-1.761,4.326-3.407,4.326-.497,0-.957-.191-1.378-.651-.919-.995-1.761-1.569-2.986-2.374-.421,5.666-4.402,7.159-9.035,7.159-5.283,0-9.647-3.024-9.647-7.619,0-5.398,3.254-8.576,9.992-8.576,1.033,0,2.144,.115,3.445,.383-.114-1.34-.153-3.101-.153-5.053,0-.958,0-1.991,.039-3.024,0-1.302,1.302-1.953,2.603-1.953s2.604,.689,2.604,1.953v.153Zm-8.92,12.136c-2.374,0-3.522,.919-3.522,1.837,0,.958,1.226,1.953,3.561,1.953,3.102,0,3.752-.612,3.828-2.603-1.033-.651-2.985-1.187-3.866-1.187Zm13.323-12.136c-2.221-1.685-5.207-3.292-7.695-4.135-.995-.344-1.455-1.11-1.455-1.876,0-1.148,.957-2.335,2.412-2.335,1.072,0,6.011,1.914,9.227,3.943,.804,.498,1.148,1.225,1.148,1.915,0,1.417-1.302,2.871-2.565,2.871-.383,0-.728-.115-1.071-.383Z"/>
    <path d="M249.681,210.163c0-2.221,.115-8.346,1.952-14.242,.422-1.378,1.57-1.952,2.681-1.952,1.378,0,2.718,.88,2.718,2.182,0,.191-.038,.421-.115,.651-1.263,4.135-1.99,9.418-1.99,12.595,0,4.633,1.225,7.504,3.331,7.504,1.876,0,3.521-.919,4.594-3.905,.421-1.187,1.34-1.723,2.297-1.723,1.417,0,2.91,1.148,2.91,3.024,0,.307-.039,.651-.153,1.034-2.297,8.117-5.475,10.72-9.801,10.72-5.36,0-8.423-4.709-8.423-15.888Zm29.326,11.255c-1.8,0-3.599-.996-3.599-2.871,0-.115,.038-.268,.038-.383,.153-1.417,.268-2.794,.268-4.134,0-5.667-1.569-10.375-4.823-14.893-.345-.459-.498-.958-.498-1.378,0-1.263,1.225-2.297,2.604-2.297,.804,0,1.607,.344,2.297,1.148,4.402,5.283,6.968,13.131,7.197,21.822,.038,1.953-1.646,2.986-3.483,2.986Z"/>
    <path d="M289.649,201.281c-1.723,0-2.642-1.378-2.642-2.718,0-1.148,.689-2.259,2.183-2.335,7.235-.383,15.543-.804,28.56-.919,1.646,0,2.604,1.378,2.604,2.756,0,1.225-.766,2.412-2.45,2.565-13.553,1.264-19.984,8.384-19.984,13.055,0,2.986,2.642,5.321,8.729,5.321,1.8,0,3.867-.229,6.279-.651,.229-.038,.421-.038,.612-.038,1.914,0,2.833,1.799,2.833,3.713s-.919,3.867-2.719,4.173c-2.297,.383-4.402,.536-6.278,.536-10.911,0-15.429-5.742-15.429-11.792,0-9.073,8.614-13.246,11.83-14.625-4.671,.23-9.686,.651-13.859,.957h-.268Zm23.354,9.801c-.574,0-1.148-.268-1.569-.842-.919-1.263-1.876-2.45-2.681-3.254-.344-.345-.459-.689-.459-1.034,0-.804,.804-1.493,1.723-1.493,.383,0,1.569,.038,4.479,4.096,.229,.307,.345,.651,.345,.919,0,.919-.919,1.608-1.838,1.608Zm4.097-2.374c-.46,0-.957-.229-1.34-.728-.805-.957-1.838-2.067-2.565-2.756-.421-.345-.612-.728-.612-1.072,0-.689,.804-1.302,1.685-1.302,.459,0,1.416,.115,4.135,3.369,.268,.306,.383,.651,.383,.957,0,.804-.805,1.531-1.685,1.531Z"/>
    <path d="M357.489,200.554c-2.68-.077-5.398-.115-8.154-.115l.114,6.164c.46,1.072,.843,2.91,.843,4.288,0,9.15-2.298,14.204-13.208,15.735-.153,.039-.269,.039-.422,.039-2.182,0-3.675-2.489-3.675-4.671,0-1.608,.842-3.101,2.833-3.254,4.709-.383,7.656-1.417,8.575-3.637-1.302,.651-2.947,1.034-4.556,1.034-6.508,0-9.724-2.948-9.724-7.197s3.637-7.159,9.915-7.159c1.646,0,3.102,.229,4.403,.612l-.077-1.991c-5.819,0-11.791,.077-17.879,.229h-.114c-1.34,0-1.991-1.148-1.991-2.259,0-1.148,.651-2.259,1.914-2.259,6.088-.115,12.021-.153,17.841-.153,0-.421-.038-.804-.076-1.187v-.191c0-1.148,1.263-1.723,2.564-1.723,1.264,0,2.527,.574,2.565,1.799,0,.421,.038,.842,.038,1.302,2.833,0,5.628,0,8.384,.038,1.341,0,2.029,1.11,2.029,2.259s-.688,2.297-2.029,2.297h-.114Zm-17.42,5.627c-3.33,0-4.823,.996-4.823,2.757,0,1.263,1.302,2.565,4.671,2.565,2.909,0,4.709-1.148,4.709-2.756,0-1.8-1.991-2.565-4.557-2.565Z"/>
    <path d="M369.204,227.084c-3.331,0-5.935-2.604-5.935-5.781,0-3.331,2.604-6.011,5.935-6.011,3.369,0,5.973,2.68,5.973,6.011,0,3.177-2.604,5.781-5.973,5.781Zm0-8.882c-1.455,0-2.527,1.148-2.527,2.565,0,1.34,1.072,2.335,2.527,2.335,1.531,0,2.604-.996,2.604-2.335,0-1.417-1.072-2.565-2.604-2.565Z"/>
    <path d="M88.734,283.932c-5.628-.651-10.375-2.029-14.51-3.599-4.671,1.646-9.839,2.948-15.008,3.599h-.229c-1.34,0-2.183-1.378-2.183-2.68,0-1.034,.498-1.991,1.724-2.144,3.599-.383,6.891-.842,9.953-1.531-1.493-.919-2.909-1.876-4.249-2.986-1.264,.919-2.642,1.723-4.097,2.412-.383,.191-.728,.268-1.072,.268-1.302,0-2.297-1.263-2.297-2.45,0-.727,.345-1.417,1.187-1.799,3.178-1.455,5.896-3.445,8.193-6.049,.498-.574,1.225-.842,1.952-.842,1.226,0,2.45,.766,2.45,1.723,0,.115,0,.191-.038,.306h13.706c1.99,0,3.139,1.225,3.139,2.642,0,.728-.306,1.531-.995,2.22-1.761,1.838-3.828,3.331-6.164,4.671,2.872,.689,5.935,1.034,9.227,1.378,1.264,.153,1.838,1.187,1.838,2.259,0,1.263-.842,2.603-2.259,2.603h-.268Zm-25.153,15.62c-2.067,0-3.139-1.072-3.139-3.101v-10.146c0-1.876,1.071-2.794,3.139-2.794h20.712c2.067,0,3.178,.918,3.178,2.794v10.146c0,2.029-1.11,3.101-3.178,3.101h-20.712Zm19.027-12.06c0-.038-.076-.115-.114-.115h-17.075c-.038,0-.115,.077-.115,.115v5.168c0,.038,.077,.153,.115,.153h17.075c.038,0,.114-.115,.114-.153v-5.168Zm-15.122-15.467c2.105,1.531,4.402,2.794,6.853,3.79,2.527-.957,4.824-2.221,6.892-3.79h-13.744Z"/>
    <path d="M114.69,277.386c-1.187,11.83-5.513,17.917-13.476,22.587-.612,.383-1.264,.536-1.838,.536-2.412,0-4.326-2.68-4.326-4.786,0-1.034,.46-1.914,1.455-2.335,3.561-1.493,6.355-3.408,8.154-5.513-1.761-1.417-3.483-2.604-4.823-3.446-.498,.689-1.149,.996-1.8,.996-1.302,0-2.604-1.148-2.604-2.565,0-.459,.153-.957,.498-1.455,2.067-2.948,3.561-6.432,4.44-9.954h-2.756c-1.302,0-1.953-1.034-1.953-2.106,0-1.034,.651-2.067,1.953-2.067h15.964c1.302,0,1.953,1.034,1.953,2.067,0,1.072-.651,2.106-1.953,2.106h-8.537c-.114,.689-.229,1.378-.421,2.029h6.47c2.374,0,3.599,1.608,3.599,3.484v.421Zm-11.37,.268c-.268,.727-.689,1.761-1.148,2.565,1.607,.995,3.599,2.259,5.475,3.752,1.148-1.953,1.723-4.135,2.105-6.317h-6.432Zm19.946-9.763c0-1.187,1.225-1.761,2.488-1.761,1.226,0,2.45,.574,2.45,1.761v26.799c0,3.905-1.264,5.857-7.197,5.857-1.761,0-3.981-.191-6.7-.536-1.454-.191-2.105-1.876-2.105-3.599,0-2.144,.919-4.365,2.565-4.365h.229c2.45,.268,4.211,.421,5.437,.421,2.182,0,2.833-.459,2.833-1.417v-23.162Zm-7.274,2.144c0-1.187,1.226-1.799,2.412-1.799,1.226,0,2.412,.612,2.412,1.799v17.687c0,1.187-1.187,1.799-2.412,1.799-1.187,0-2.412-.612-2.412-1.799v-17.687Z"/>
    <path d="M143.825,296.796c-1.11,.804-2.374,1.187-3.637,1.187-4.25,0-7.466-3.828-7.466-10.298,0-10.298,8.461-18.3,19.984-18.3,8.423,0,15.734,5.36,15.734,14.548,0,14.969-14.318,16.156-14.777,16.156-2.412,0-4.059-2.604-4.059-4.9,0-1.532,.767-2.91,2.565-3.216,7.274-1.187,10.796-4.67,10.796-8.843,0-4.748-2.794-7.849-7.312-8.92-1.493,9.609-5.475,18.07-11.83,22.588Zm-5.781-10.069c0,1.761,.804,2.91,2.029,2.91,1.876,0,7.963-4.9,10.528-15.658-7.925,.995-12.558,6.814-12.558,12.749Z"/>
    <path d="M192.024,297.447c0,2.029-2.411,3.062-4.823,3.062s-4.824-1.034-4.824-3.024c0-.115,.038-.229,.038-.345,1.417-12.749,1.953-18.568,2.067-24.655h-10.758c-1.34,0-1.99-1.187-1.99-2.335,0-1.187,.65-2.335,1.99-2.335h30.359c1.341,0,1.991,1.148,1.991,2.335,0,1.148-.65,2.335-1.991,2.335h-14.127c0,.727,.039,1.417,.039,2.105,4.211,1.991,8.078,4.211,11.638,6.623,.957,.651,1.302,1.493,1.302,2.335,0,1.838-1.799,3.79-3.521,3.79-.574,0-1.11-.229-1.608-.727-2.642-2.718-5.054-4.633-7.504-6.47,.383,4.326,.805,8.805,1.723,16.998v.307Z"/>
    <path d="M213.426,288.373c0-1.723,1.531-2.756,2.986-2.756,1.033,0,2.028,.536,2.411,1.685,.689,2.182,3.484,3.445,8.04,3.445,4.288,0,7.159-1.11,7.159-3.751,0-3.178-4.402-3.905-9.418-3.905-1.607,0-2.45-1.263-2.45-2.527,0-1.225,.843-2.488,2.45-2.488,5.169,0,8.04-.804,8.04-3.254,0-1.531-1.493-2.986-5.819-2.986-3.637,0-5.552,1.378-6.202,3.254-.345,1.034-1.378,1.493-2.488,1.493-1.455,0-3.024-.842-3.024-2.144,0-.153,.038-.306,.076-.459,1.034-3.829,5.321-7.044,11.677-7.044,7.274,0,12.098,3.216,12.098,7.925,0,2.756-1.11,4.938-3.981,5.704,3.293,.996,5.36,3.599,5.36,7.121,0,7.121-5.437,10.796-13.438,10.796-7.465,0-12.748-3.178-13.476-9.801v-.307Z"/>
    <path d="M259.405,299.131c-2.374,0-3.599-2.45-3.599-4.632,0-1.761,.766-3.331,2.297-3.445,13.705-1.034,18.721-4.977,18.721-9.916,0-3.599-3.943-5.858-9.188-5.858-6.316,0-10.834,1.417-16.347,3.254-.383,.115-.766,.191-1.11,.191-1.8,0-2.948-1.57-2.948-3.063,0-.995,.536-1.952,1.761-2.335,5.935-1.723,12.099-3.024,18.798-3.024,8.461,0,14.625,4.326,14.625,11.217,0,9.992-6.164,16.385-22.741,17.61h-.268Z"/>
    <path d="M296.962,296.796c-1.11,.804-2.374,1.187-3.637,1.187-4.25,0-7.466-3.828-7.466-10.298,0-10.298,8.461-18.3,19.984-18.3,8.423,0,15.734,5.36,15.734,14.548,0,14.969-14.318,16.156-14.777,16.156-2.412,0-4.059-2.604-4.059-4.9,0-1.532,.767-2.91,2.565-3.216,7.274-1.187,10.796-4.67,10.796-8.843,0-4.748-2.794-7.849-7.312-8.92-1.493,9.609-5.475,18.07-11.83,22.588Zm-5.781-10.069c0,1.761,.804,2.91,2.029,2.91,1.876,0,7.963-4.9,10.528-15.658-7.925,.995-12.558,6.814-12.558,12.749Z"/>
    <path d="M329.465,299.935c-2.144,0-3.79-1.761-3.79-3.752v-25.765c0-1.953,1.761-3.407,3.79-3.407h24.962c2.028,0,3.828,1.455,3.828,3.407v25.765c0,2.029-1.723,3.752-3.828,3.752h-24.962Zm23.928-28.369c0-.383-.345-.613-.728-.613h-10.068c.842,1.034,1.952,2.757,2.756,4.097,.153,.268,.23,.536,.23,.804,0,1.072-1.226,1.953-2.374,1.953-.65,0-1.302-.306-1.685-.957-.804-1.263-1.607-2.45-2.45-3.522-.229-.307-.306-.574-.306-.881,0-.574,.421-1.11,.995-1.493h-8.538c-.383,0-.688,.23-.688,.613v20.176c0,.345,.306,.651,.688,.651h21.439c.383,0,.728-.306,.728-.651v-20.176Zm-19.448,20.138c-.269,.115-.536,.153-.766,.153-1.417,0-2.374-1.608-2.374-3.101,0-.957,.421-1.876,1.379-2.182,2.144-.689,3.981-1.378,5.551-2.144-1.685-.766-3.483-1.493-5.513-2.335-.612-.268-.881-.842-.881-1.455,0-1.072,.804-2.335,2.105-2.335,.269,0,.574,.077,.881,.191,2.986,1.149,5.475,2.067,7.887,3.025,2.45-2.183,4.097-4.939,5.78-8.882,.307-.766,.996-1.072,1.762-1.072,1.263,0,2.718,.919,2.718,2.105,0,.23-.038,.421-.153,.651-1.723,3.867-3.368,6.738-5.436,9.15,1.646,.689,3.33,1.532,5.168,2.489,.804,.421,1.11,1.11,1.11,1.876,0,1.569-1.34,3.331-2.68,3.331-.307,0-.574-.077-.843-.268-2.412-1.608-4.518-2.833-6.585-3.905-2.335,1.685-5.245,3.177-9.111,4.709Zm3.101-12.596c-.65,0-1.302-.229-1.685-.88-.804-1.264-1.646-2.45-2.488-3.522-.229-.306-.345-.612-.345-.88,0-1.11,1.379-1.991,2.565-1.991,.536,0,1.033,.153,1.34,.574,1.072,1.378,1.952,2.642,2.719,3.943,.152,.268,.229,.574,.229,.842,0,1.072-1.188,1.914-2.336,1.914Z"/>
    <path d="M381.148,298.213c0,1.531-1.799,2.297-3.599,2.297-1.761,0-3.522-.766-3.522-2.297v-.23c.536-5.513,.843-10.222,.996-14.739h-3.178v2.412c0,4.939-.153,9.839-2.183,13.438-.536,.996-1.378,1.378-2.297,1.378-2.029,0-4.364-2.029-4.364-4.02,0-.612,.191-1.187,.612-1.761,2.488-3.177,3.293-7.542,3.445-11.447h-2.066c-1.264,0-1.876-1.11-1.876-2.221,0-1.148,.65-2.297,1.876-2.297h2.182v-7.427h-1.569c-1.264,0-1.876-.995-1.876-1.991,0-1.034,.65-2.067,1.876-2.067h16.347c1.149,0,1.724,.996,1.724,2.029,0,.995-.574,2.029-1.724,2.029h-1.952c0,2.565,0,4.977,.038,7.427h2.145c1.187,0,1.799,1.034,1.799,2.105,0,.268-.076,.574-.153,.842,3.867-1.455,7.007-3.484,9.304-5.398,.497-.421,.995-.613,1.531-.613,1.264,0,2.412,1.187,2.412,2.45,0,.498-.191,1.072-.689,1.532-3.024,2.68-6.508,4.824-10.796,6.546-.498,.191-.919,.268-1.34,.268-1.417,0-2.183-1.11-2.183-2.259,0-.345,.038-.651,.191-.957h-2.105c.115,3.637,.345,7.351,.689,11.6,.268-.766,.804-1.378,1.646-1.646,4.364-1.493,7.925-3.675,10.873-6.164,.421-.345,.843-.536,1.302-.536,1.455,0,2.909,1.646,2.909,3.484,0,.766-.268,1.608-.957,2.335-2.909,3.178-7.235,6.279-11.829,7.963-.269,.115-.536,.153-.805,.153-1.225,0-2.259-.995-2.833-2.335v.115Zm-6.011-19.487c.039-2.412,.039-4.862,.039-7.427h-3.178v7.427h3.139Zm10.72-3.024c-.383,.153-.766,.229-1.11,.229-1.454,0-2.45-1.225-2.45-2.412,0-.728,.422-1.493,1.34-1.838,3.638-1.34,6.892-3.216,8.883-4.938,.535-.459,1.109-.651,1.685-.651,1.301,0,2.449,1.034,2.449,2.182,0,.498-.229,1.034-.727,1.493-2.719,2.412-6.011,4.364-10.069,5.934Z"/>
    <path d="M403.66,278.152c-1.379,0-2.145-1.34-2.145-2.604,0-1.034,.536-2.029,1.685-2.105,1.876-.153,3.752-.268,5.59-.345,.153-1.493,.306-3.024,.383-4.632,.038-1.148,1.302-1.761,2.564-1.761s2.527,.613,2.527,1.915c0,.306-.307,3.139-.421,4.211,1.569-.038,3.024-.038,4.326-.038,5.321,0,7.963,2.412,7.963,9.073,0,13.629-2.719,18.645-8.614,18.645-2.335,0-4.249-.574-5.666-1.11-1.11-.421-1.608-1.799-1.608-3.292,0-2.259,1.11-4.785,2.757-4.785,.229,0,.46,.038,.689,.153,1.302,.536,2.259,.881,3.637,.881,2.412,0,3.561-3.254,3.561-10.49,0-3.867-1.11-4.441-2.986-4.441-1.34,0-2.948,.038-4.709,.115-.804,7.274-2.144,15.352-6.24,21.592-.574,.919-1.378,1.302-2.221,1.302-2.029,0-4.249-2.182-4.249-4.479,0-.804,.306-1.646,.995-2.412,3.522-3.829,5.819-10.146,6.623-15.735-1.378,.115-2.795,.191-4.249,.345h-.191Zm29.02,7.771c-.843,0-1.57-.383-1.915-1.225-1.378-3.56-3.599-7.503-5.359-9.762-.345-.459-.498-.919-.498-1.34,0-1.148,1.072-2.029,2.374-2.029,.689,0,1.493,.306,2.144,.957,2.145,2.144,4.556,5.207,6.547,8.614,.307,.536,.421,1.033,.421,1.493,0,1.876-2.029,3.292-3.713,3.292Zm1.071-10.987c-.536,0-1.11-.23-1.531-.804-.957-1.263-1.99-2.374-2.795-3.139-.383-.345-.536-.728-.536-1.072,0-.804,.805-1.531,1.762-1.531,.459,0,1.531,.153,4.556,3.981,.268,.345,.383,.651,.383,.996,0,.842-.881,1.57-1.838,1.57Zm3.369-2.68c-.459,0-.957-.229-1.34-.727-.766-.958-1.838-2.067-2.604-2.718-.421-.345-.574-.728-.574-1.072,0-.727,.766-1.378,1.646-1.378,.459,0,1.34,.115,4.173,3.407,.268,.306,.383,.651,.383,.957,0,.804-.804,1.531-1.685,1.531Z"/>
    <path d="M468.36,271.796c0-.344-.269-.536-.651-.536h-21.783c-.383,0-.613,.191-.613,.536,0,0,.689,21.209,1.149,25.918,0,.115,.038,.268,.038,.383,0,1.608-1.646,2.412-3.293,2.412-1.685,0-3.407-.842-3.407-2.412,0-.115,0-.268,.038-.383,.766-4.824,.766-27.067,.766-27.067,.039-1.531,1.608-3.522,3.867-3.522h24.693c2.067,0,3.905,2.029,3.905,3.522v23.2c0,4.862-1.57,6.662-5.628,6.662-1.455,0-3.216-.191-5.36-.651-1.378-.268-2.028-1.837-2.028-3.407,0-.498,.076-.996,.191-1.493h-9.38c-2.145,0-3.407-1.187-3.407-3.101v-10.49c0-1.914,1.263-3.063,3.407-3.063h11.677c2.105,0,3.445,1.149,3.445,3.063v10.49c0,.345-.038,.689-.153,.996,.536,.077,.919,.115,1.264,.115,1.225,0,1.264-.574,1.264-2.067v-19.104Zm-20.253,5.092c-1.34,0-2.029-1.034-2.029-2.029,0-1.034,.689-2.029,2.029-2.029h17.458c1.34,0,2.029,.996,2.029,2.029,0,.995-.689,2.029-2.029,2.029h-17.458Zm13.285,5.437c0-.038-.038-.077-.077-.077h-9.227c-.038,0-.076,.039-.076,.077v5.857c0,.039,.038,.077,.076,.077h9.227c.039,0,.077-.038,.077-.077v-5.857Z"/>
    <path d="M489.493,268.772c-.651,12.404-.728,15.467-.728,16.271,0,5.054,2.412,6.814,7.389,6.814,4.862,0,8.461-2.335,9.801-7.312,.345-1.264,1.34-1.838,2.374-1.838,1.454,0,3.024,1.148,3.024,3.139,0,.268,0,.536-.077,.842-1.914,9.112-7.082,13.323-15.122,13.323s-13.017-3.101-13.017-11.83c0-.574,.038-1.148,.076-1.761,.46-6.815,.574-11.83,.689-17.917,0-1.378,1.34-2.067,2.718-2.067,1.417,0,2.872,.766,2.872,2.22v.115Zm13.246,7.427c-.612,0-1.226-.306-1.685-.995-.881-1.378-1.838-2.642-2.604-3.484-.306-.345-.459-.689-.459-1.034,0-.842,.88-1.57,1.838-1.57,.688,0,1.799,.268,4.518,4.518,.191,.306,.306,.612,.306,.88,0,.957-.919,1.685-1.914,1.685Zm3.943-2.718c-.536,0-1.072-.229-1.455-.842-.728-1.11-1.723-2.297-2.45-3.062-.345-.345-.497-.728-.497-1.034,0-.842,.842-1.493,1.761-1.493,.459,0,.957,.191,1.34,.574,2.909,3.024,3.14,3.79,3.14,4.25,0,.881-.919,1.608-1.838,1.608Z"/>
    <path d="M536.544,292.853v1.876c0,3.637-.459,5.743-6.355,5.743-1.684,0-3.828-.191-6.546-.536-1.57-.191-2.336-1.723-2.336-3.216,0-1.799,.996-3.675,2.795-3.675,.153,0,.269,0,.421,.038,2.795,.383,4.403,.574,5.36,.574,1.225,0,1.302-.306,1.302-.804h-11.601c-1.225,0-1.838-1.225-1.838-2.412,0-1.225,.613-2.412,1.838-2.412h11.792v-1.072h-13.553c-1.11,0-1.646-.766-1.646-1.493,0-.766,.536-1.493,1.646-1.493h13.553v-1.034h-11.868c-1.226,0-1.838-.766-1.838-1.532,0-.727,.612-1.493,1.838-1.493h11.868v-.918h-9.954c-1.723,0-2.604-.766-2.604-2.259v-2.374c0-1.455,.881-2.221,2.604-2.221h9.954v-.957h-12.634c-1.34,0-1.991-.804-1.991-1.646,0-.804,.651-1.608,1.991-1.608h12.634v-.651c0-.804,1.225-1.225,2.412-1.225,1.225,0,2.411,.421,2.411,1.225v.651h11.907c1.34,0,1.99,.804,1.99,1.608,0,.842-.65,1.646-1.99,1.646h-11.907v.957h9.457c1.761,0,2.642,.766,2.642,2.221v2.374c0,1.493-.881,2.259-2.642,2.259h-9.457v.918h9.533c2.067,0,3.14,.536,3.14,2.374v1.685h.688c.689,0,1.072,.766,1.072,1.531,0,.728-.345,1.455-1.072,1.455h-.688v3.024c0,1.915-1.072,2.872-3.14,2.872h-9.188Zm-5.168-17.917h-7.963v1.187h7.963v-1.187Zm12.327,0h-7.504v1.187h7.504v-1.187Zm.689,8.001h-8.193v1.034h8.193v-1.034Zm0,4.02h-8.193v1.072h8.193v-1.072Z"/>
    <path d="M556.797,278.152c-1.379,0-2.145-1.34-2.145-2.604,0-1.034,.536-2.029,1.685-2.105,1.876-.153,3.752-.268,5.59-.345,.153-1.493,.306-3.024,.383-4.632,.038-1.148,1.302-1.761,2.564-1.761s2.527,.613,2.527,1.915c0,.306-.307,3.139-.421,4.211,1.569-.038,3.024-.038,4.326-.038,5.321,0,7.963,2.412,7.963,9.073,0,13.629-2.719,18.645-8.614,18.645-2.335,0-4.249-.574-5.666-1.11-1.11-.421-1.608-1.799-1.608-3.292,0-2.259,1.11-4.785,2.757-4.785,.229,0,.46,.038,.689,.153,1.302,.536,2.259,.881,3.637,.881,2.412,0,3.561-3.254,3.561-10.49,0-3.867-1.11-4.441-2.986-4.441-1.34,0-2.948,.038-4.709,.115-.804,7.274-2.144,15.352-6.24,21.592-.574,.919-1.378,1.302-2.221,1.302-2.029,0-4.249-2.182-4.249-4.479,0-.804,.306-1.646,.995-2.412,3.522-3.829,5.819-10.146,6.623-15.735-1.378,.115-2.795,.191-4.249,.345h-.191Zm29.02,7.771c-.843,0-1.57-.383-1.915-1.225-1.378-3.56-3.599-7.503-5.359-9.762-.345-.459-.498-.919-.498-1.34,0-1.148,1.072-2.029,2.374-2.029,.689,0,1.493,.306,2.144,.957,2.145,2.144,4.556,5.207,6.547,8.614,.307,.536,.421,1.033,.421,1.493,0,1.876-2.029,3.292-3.713,3.292Zm1.071-10.987c-.536,0-1.11-.23-1.531-.804-.957-1.263-1.99-2.374-2.795-3.139-.383-.345-.536-.728-.536-1.072,0-.804,.805-1.531,1.762-1.531,.459,0,1.531,.153,4.556,3.981,.268,.345,.383,.651,.383,.996,0,.842-.881,1.57-1.838,1.57Zm3.369-2.68c-.459,0-.957-.229-1.34-.727-.766-.958-1.838-2.067-2.604-2.718-.421-.345-.574-.728-.574-1.072,0-.727,.766-1.378,1.646-1.378,.459,0,1.34,.115,4.173,3.407,.268,.306,.383,.651,.383,.957,0,.804-.804,1.531-1.685,1.531Z"/>
    <path d="M77.287,315.151c1.34,4.632,5.016,10.681,12.327,14.433,1.149,.612,1.646,1.838,1.646,3.178,0,2.182-1.378,4.632-3.254,4.632-.421,0-.843-.114-1.264-.344-7.273-3.982-10.758-10.107-12.48-14.893-1.723,4.824-5.59,11.447-13.208,14.969-.383,.153-.728,.229-1.072,.229-1.876,0-3.254-2.412-3.254-4.632,0-1.34,.536-2.642,1.8-3.216,8.192-3.637,11.141-9.763,12.289-14.357h-11.83c-1.264,0-1.914-1.187-1.914-2.374s.65-2.374,1.914-2.374h12.251v-5.704c0-1.187,1.378-1.761,2.757-1.761,1.34,0,2.718,.574,2.718,1.761v5.704h12.251c1.302,0,1.914,1.187,1.914,2.374s-.612,2.374-1.914,2.374h-11.677Z"/>
    <path d="M97.999,312.93c.766,.039,1.607,.039,2.526,.039,3.254,0,7.312-.153,11.371-.459-.307-.574-.575-.996-.843-1.57-3.714,.23-7.542,.383-11.179,.383-1.493,0-2.221-1.072-2.221-2.144s.728-2.105,2.105-2.105h1.302c2.871,0,5.704-.115,8.461-.268-.153-.459-.307-1.225-.307-1.493,0-1.263,1.417-1.914,2.757-1.914,1.11,0,2.144,.459,2.297,1.34,.115,.536,.269,1.11,.421,1.646,2.872-.268,5.628-.689,8.193-1.148,.153-.039,.268-.039,.421-.039,1.417,0,2.374,1.264,2.374,2.412,0,.766-.46,1.493-1.57,1.723-2.45,.421-5.168,.88-8.001,1.148,.268,.613,.536,1.034,.842,1.608,3.561-.383,6.815-.766,9.227-1.263,.191-.038,.345-.038,.498-.038,1.455,0,2.335,1.263,2.335,2.488,0,.919-.497,1.799-1.685,1.991-2.411,.421-5.015,.804-7.771,.957,1.34,1.761,2.91,3.369,4.938,5.168,.536,.459,.728,1.034,.728,1.608,0,1.455-1.416,2.948-3.062,2.948-.459,0-.957-.115-1.455-.421-3.33-1.953-7.771-2.488-11.408-2.488-3.446,0-6.623,.689-6.623,3.024,0,2.297,2.45,3.254,9.188,3.254,4.097,0,7.504-.345,9.954-.881,.191-.039,.383-.077,.574-.077,1.838,0,2.757,2.029,2.757,3.982,0,1.685-.689,3.33-2.145,3.599-3.062,.536-6.737,.842-11.141,.842-9.57,0-14.777-3.445-14.777-9.341,0-6.202,5.475-8.882,12.327-8.882,1.876,0,4.633,.115,7.312,.728-.804-.881-1.531-1.646-2.259-2.604-5.13,.421-10.604,.689-16.194,.689-1.531,0-2.259-1.148-2.259-2.297,0-1.072,.651-2.144,1.876-2.144h.115Z"/>
    <path d="M150.907,306.537c1.532,0,2.298,1.034,2.298,2.106,0,1.034-.689,2.067-2.067,2.144-2.298,.153-4.403,.268-6.547,.344-1.034,4.709-3.024,10.298-5.935,15.314-.65,1.11-1.493,1.531-2.335,1.531-1.723,0-3.445-1.799-3.445-3.561,0-.498,.153-.995,.497-1.455,3.102-4.097,4.862-7.887,6.088-11.715l-3.102-.076c-1.455-.039-2.182-1.072-2.182-2.144,0-1.034,.688-2.067,2.067-2.067h.038c.688,0,1.378,.038,2.067,.038s1.416-.038,2.105-.038l.459-2.335c.191-1.034,1.226-1.531,2.336-1.531,1.302,0,2.68,.689,2.68,1.876,0,.344-.191,1.187-.345,1.876,1.685-.039,3.331-.153,5.016-.307h.306Zm8.461,6.853c-.076,1.799-.114,3.561-.114,5.168s.038,3.024,.076,4.25c2.259,.842,4.633,1.991,6.509,3.178,1.033,.689,1.454,1.646,1.454,2.68,0,2.067-1.761,4.326-3.407,4.326-.497,0-.957-.191-1.378-.65-.919-.996-1.761-1.57-2.986-2.374-.421,5.666-4.402,7.159-9.035,7.159-5.283,0-9.647-3.024-9.647-7.618,0-5.398,3.254-8.576,9.992-8.576,1.033,0,2.144,.115,3.445,.383-.114-1.34-.153-3.101-.153-5.053,0-.958,0-1.991,.039-3.024,0-1.302,1.302-1.953,2.603-1.953s2.604,.689,2.604,1.953v.153Zm-8.92,12.136c-2.374,0-3.522,.919-3.522,1.837,0,.958,1.226,1.953,3.561,1.953,3.102,0,3.752-.613,3.828-2.604-1.033-.651-2.985-1.187-3.866-1.187Zm13.323-12.136c-2.221-1.685-5.207-3.292-7.695-4.135-.995-.344-1.455-1.11-1.455-1.876,0-1.148,.957-2.335,2.412-2.335,1.072,0,6.011,1.914,9.227,3.943,.804,.498,1.148,1.225,1.148,1.915,0,1.417-1.302,2.871-2.565,2.871-.383,0-.728-.115-1.071-.383Z"/>
    <path d="M195.24,325.488c.039,.612,.039,2.335,.039,2.986,0,5.36-1.8,8.768-8.002,8.768-2.795,0-5.857-.574-8.23-1.646-1.646-.728-2.336-2.183-2.336-3.676,0-2.105,1.302-4.249,3.102-4.249,.306,0,.612,.076,.919,.191,1.875,.728,4.747,1.569,6.546,1.569,2.565,0,2.757-1.531,2.757-3.331,0-.191-.038-.421-.038-.612h-16.424c-1.302,0-1.953-1.378-1.953-2.757s.651-2.756,1.953-2.756h16.041c-.191-1.225-.46-2.45-.805-3.561h-13.782c-1.302,0-1.952-1.034-1.952-2.105,0-1.034,.65-2.067,1.952-2.067h12.366c-.46-1.034-.919-2.067-1.455-3.139-2.757,.191-6.049,.306-9.188,.306h-.038c-1.493,0-2.297-1.11-2.297-2.221,0-1.034,.728-2.029,2.144-2.029,9.801-.039,16.463-.689,23.469-2.144,.153-.038,.307-.038,.421-.038,1.302,0,2.297,1.263,2.297,2.412,0,.842-.497,1.608-1.685,1.838-3.216,.612-6.508,1.11-9.839,1.455,.574,1.187,1.072,2.335,1.531,3.561h9.839c1.302,0,1.953,1.034,1.953,2.067,0,1.072-.651,2.105-1.953,2.105h-8.499c.307,1.148,.574,2.335,.766,3.561h9.266c1.302,0,1.952,1.378,1.952,2.756s-.65,2.757-1.952,2.757h-8.883Z"/>
    <path d="M222.346,317.41c.307,.344,.46,.88,.46,1.455,0,.804-.383,1.723-1.302,2.106-.957,.421-1.953,.842-3.024,1.263v10.528c0,2.871-.805,4.518-3.981,4.518-.767,0-1.646-.115-2.719-.307-1.148-.229-1.646-1.838-1.646-3.407,0-1.99,.728-4.058,1.953-4.058,.114,0,.191,.038,.268,.038,.536,.114,.919,.191,1.148,.191,.498,0,.536-.269,.536-.919v-5.168c-.498,.115-.919,.268-1.378,.383-.191,.039-.345,.077-.536,.077-1.34,0-2.183-1.34-2.183-2.565,0-.881,.422-1.723,1.493-1.953l2.604-.689v-5.973h-1.99c-1.302,0-1.953-.995-1.953-1.991s.651-1.991,1.953-1.991h1.99v-4.441c0-1.072,1.11-1.608,2.221-1.608s2.221,.536,2.221,1.57v4.479h1.493c.268,0,.497,0,.727,.115-.038-.191-.076-.383-.076-.574,0-.957,.65-1.914,1.952-1.914h2.642v-2.029c0-1.072,1.11-1.569,2.183-1.569,1.11,0,2.183,.498,2.183,1.569v2.029h2.718c1.302,0,1.952,.957,1.952,1.914,0,.996-.65,1.953-1.952,1.953h-2.718v3.101h3.216c1.302,0,1.952,.957,1.952,1.914,0,.996-.65,1.953-1.952,1.953h-10.452Zm2.871-6.968h-2.642c-.268,0-.497-.039-.727-.115,.038,.191,.076,.383,.076,.574,0,1.034-.651,2.029-1.952,2.029h-1.493v4.594l1.607-.689c.229-.077,.498-.115,.689-.153-.269-.345-.383-.766-.383-1.187,0-.995,.65-1.952,1.952-1.952h2.871v-3.101Zm15.161,24.387c0,1.646-1.455,2.45-2.948,2.45s-3.024-.843-3.024-2.565v-.153c0-.268,.038-.574,.038-.918-.229,.383-.574,.65-.995,.727-3.79,.574-7.887,1.072-12.213,1.493h-.114c-1.379,0-2.183-2.067-2.183-4.02,0-1.685,.574-3.216,1.914-3.292,1.34-.077,2.795-.192,4.364-.345v-2.986h-2.909c-1.302,0-1.952-1.034-1.952-2.067,0-.996,.65-2.029,1.952-2.029h2.909v-2.067c0-.957,1.11-1.417,2.183-1.417,1.11,0,2.183,.459,2.183,1.417v2.067h2.947c1.34,0,1.991,1.034,1.991,2.029,0,1.034-.651,2.067-1.991,2.067h-2.947v2.603l3.33-.459h.191c.728,0,1.264,.536,1.57,1.379,.497-11.601,.497-19.257,.497-24.005,0-1.263,1.072-1.837,2.183-1.837s2.259,.612,2.259,1.837v7.159c2.105,4.479,3.79,8.576,5.13,12.634,.115,.383,.191,.728,.191,1.072,0,1.685-1.455,2.833-2.604,2.833-.612,0-1.187-.345-1.34-1.148-.459-2.221-.957-4.173-1.378-5.666,0,0,0,4.862,.766,12.939v.269Z"/>
    <path d="M251.289,314.577c-1.379,0-2.145-1.34-2.145-2.604,0-1.034,.536-2.029,1.685-2.105,1.876-.153,3.752-.268,5.59-.345,.153-1.493,.306-3.024,.383-4.632,.038-1.148,1.302-1.761,2.564-1.761s2.527,.613,2.527,1.915c0,.306-.307,3.139-.421,4.211,1.569-.038,3.024-.038,4.326-.038,5.321,0,7.963,2.412,7.963,9.073,0,13.629-2.719,18.645-8.614,18.645-2.335,0-4.249-.574-5.666-1.11-1.11-.421-1.607-1.799-1.607-3.292,0-2.259,1.109-4.786,2.756-4.786,.229,0,.46,.039,.689,.153,1.302,.536,2.259,.881,3.637,.881,2.412,0,3.561-3.254,3.561-10.49,0-3.867-1.11-4.441-2.986-4.441-1.34,0-2.947,.038-4.709,.115-.804,7.274-2.144,15.353-6.24,21.593-.574,.919-1.378,1.302-2.221,1.302-2.028,0-4.249-2.183-4.249-4.479,0-.804,.306-1.646,.995-2.412,3.522-3.829,5.819-10.146,6.623-15.735-1.378,.115-2.795,.191-4.249,.345h-.191Zm29.479,7.542c-.842,0-1.569-.383-1.914-1.225-1.378-3.561-3.752-7.504-5.513-9.763-.345-.421-.46-.88-.46-1.302,0-1.225,1.264-2.22,2.604-2.22,.728,0,1.493,.268,2.105,.957,2.145,2.374,4.479,5.36,6.47,8.767,.307,.536,.422,1.034,.422,1.493,0,1.876-2.029,3.292-3.714,3.292Z"/>
    <path d="M290.262,317.487c0-4.326,.345-8.576,.881-12.825,.153-1.225,1.34-1.8,2.604-1.8,1.378,0,2.795,.728,2.795,2.067,0,.153,0,.268-.039,.421-.459,2.412-.842,5.321-1.033,8.078,.728-1.532,5.054-10.452,12.672-10.452,4.211,0,8.806,2.948,8.806,14.05,0,12.174-3.216,20.406-18.262,20.406-2.144,0-3.369-2.298-3.369-4.479,0-1.952,.957-3.79,3.102-3.79,11.293,0,13.36-5.398,13.36-12.136,0-7.044-1.914-9.457-4.173-9.457-.766,0-1.531,.268-2.297,.689-3.062,1.761-7.351,10.145-9.265,15.926-.383,1.187-1.608,1.799-2.795,1.799-1.378,0-2.68-.766-2.757-2.374-.152-2.067-.229-4.135-.229-6.125Z"/>
    <path d="M331.379,335.978c-1.723,0-3.445-.919-3.828-2.948-.498-2.795-.728-6.7-.728-10.26,0-2.106,.077-9.609,2.067-16.769,.345-1.264,1.531-1.876,2.68-1.876,1.379,0,2.719,.804,2.719,2.259,0,.229-.038,.459-.115,.728-1.148,3.867-1.723,7.733-1.723,11.523,0,3.599,.957,8.461,2.45,12.404,.229,.612,.345,1.148,.345,1.646,0,2.145-1.914,3.293-3.867,3.293Zm24.426-8.767c1.838,0,2.718,1.761,2.718,3.599,0,1.799-.88,3.675-2.488,3.79-2.297,.191-4.402,.268-6.278,.268-8.04,0-13.706-1.569-13.706-8.308,0-.038,.076-6.432,3.484-6.432,1.109,0,2.182,.727,2.182,1.914,0,.191-.038,.421-.114,.651-.191,.651-.307,1.225-.307,1.761,0,1.187,.459,3.101,7.963,3.101,1.761,0,3.867-.115,6.278-.344h.269Zm-.881-15.39c-2.604-.192-4.977-.307-7.273-.307-2.795,0-5.437,.153-8.078,.459h-.307c-1.378,0-2.144-1.187-2.144-2.412,0-1.11,.65-2.183,2.105-2.335,2.948-.383,5.704-.536,8.575-.536,2.298,0,4.671,.115,7.312,.306,1.455,.115,2.183,1.302,2.183,2.45,0,1.187-.766,2.374-2.183,2.374h-.191Z"/>
    <path d="M380.612,306.537c1.532,0,2.298,1.034,2.298,2.106,0,1.034-.689,2.067-2.067,2.144-2.298,.153-4.403,.268-6.547,.344-1.034,4.709-3.024,10.298-5.935,15.314-.65,1.11-1.493,1.531-2.335,1.531-1.723,0-3.445-1.799-3.445-3.561,0-.498,.153-.995,.497-1.455,3.102-4.097,4.862-7.887,6.088-11.715l-3.102-.076c-1.455-.039-2.182-1.072-2.182-2.144,0-1.034,.688-2.067,2.067-2.067h.038c.688,0,1.378,.038,2.067,.038s1.416-.038,2.105-.038l.459-2.335c.191-1.034,1.226-1.531,2.336-1.531,1.302,0,2.68,.689,2.68,1.876,0,.344-.191,1.187-.345,1.876,1.685-.039,3.331-.153,5.016-.307h.306Zm8.461,6.853c-.076,1.799-.114,3.561-.114,5.168s.038,3.024,.076,4.25c2.259,.842,4.633,1.991,6.509,3.178,1.033,.689,1.454,1.646,1.454,2.68,0,2.067-1.761,4.326-3.407,4.326-.497,0-.957-.191-1.378-.65-.919-.996-1.761-1.57-2.986-2.374-.421,5.666-4.402,7.159-9.035,7.159-5.283,0-9.647-3.024-9.647-7.618,0-5.398,3.254-8.576,9.992-8.576,1.033,0,2.144,.115,3.445,.383-.114-1.34-.153-3.101-.153-5.053,0-.958,0-1.991,.039-3.024,0-1.302,1.302-1.953,2.603-1.953s2.604,.689,2.604,1.953v.153Zm-8.92,12.136c-2.374,0-3.522,.919-3.522,1.837,0,.958,1.226,1.953,3.561,1.953,3.102,0,3.752-.613,3.828-2.604-1.033-.651-2.985-1.187-3.866-1.187Zm13.323-12.136c-2.221-1.685-5.207-3.292-7.695-4.135-.995-.344-1.455-1.11-1.455-1.876,0-1.148,.957-2.335,2.412-2.335,1.072,0,6.011,1.914,9.227,3.943,.804,.498,1.148,1.225,1.148,1.915,0,1.417-1.302,2.871-2.565,2.871-.383,0-.728-.115-1.071-.383Z"/>
    <path d="M405.114,317.487c0-4.326,.345-8.576,.881-12.825,.153-1.225,1.34-1.8,2.604-1.8,1.378,0,2.795,.728,2.795,2.067,0,.153,0,.268-.039,.421-.459,2.412-.842,5.321-1.033,8.078,.728-1.532,5.054-10.452,12.672-10.452,4.211,0,8.806,2.948,8.806,14.05,0,12.174-3.216,20.406-18.262,20.406-2.144,0-3.369-2.298-3.369-4.479,0-1.952,.957-3.79,3.102-3.79,11.293,0,13.36-5.398,13.36-12.136,0-7.044-1.914-9.457-4.173-9.457-.766,0-1.531,.268-2.297,.689-3.062,1.761-7.351,10.145-9.265,15.926-.383,1.187-1.608,1.799-2.795,1.799-1.378,0-2.68-.766-2.757-2.374-.152-2.067-.229-4.135-.229-6.125Z"/>
    <path d="M470.197,312.586c1.302,0,2.029,1.148,2.029,2.297,0,1.072-.612,2.105-1.952,2.221-3.062,.268-6.432,.498-9.916,.574,.038,1.608,.077,3.062,.077,4.441,3.79,1.11,7.389,2.603,10.337,4.556,1.263,.842,1.799,2.029,1.799,3.216,0,2.22-1.761,4.44-3.599,4.44-.536,0-1.072-.191-1.569-.612-2.145-1.838-4.595-3.599-6.93-4.9-.038,6.623-4.288,8.499-9.111,8.499-5.973,0-9.763-3.331-9.763-8.537,0-5.016,3.292-7.925,10.489-7.925,1.072,0,2.183,.077,3.293,.23,0-.996-.038-2.182-.038-3.292h-2.183c-3.216,0-6.432-.039-9.494-.115-1.417,0-2.145-1.225-2.145-2.412,0-1.11,.689-2.221,2.067-2.221h.153c3.714,.153,7.619,.23,11.485,.23l-.076-2.374c-3.063,0-6.355,0-9.916-.077-1.378,0-2.067-1.072-2.067-2.182s.689-2.221,2.029-2.221h.153c3.483,.039,6.661,.115,9.686,.115,0-.574-.038-1.11-.038-1.569v-.077c0-1.263,1.225-1.914,2.488-1.914s2.565,.689,2.604,2.067c0,.421,0,.88,.038,1.378,2.565-.038,5.13-.229,7.81-.459h.269c1.378,0,2.105,1.11,2.105,2.221,0,1.034-.612,2.029-1.876,2.144-2.795,.229-5.475,.383-8.231,.498,.039,.804,.039,1.455,.039,2.335,3.445-.115,6.776-.268,9.686-.574h.268Zm-14.815,13.859c-1.187-.498-2.795-.881-3.981-.881-2.45,0-3.867,.383-3.867,1.608,0,1.57,1.493,2.183,3.829,2.183,2.871,0,4.02-.536,4.02-2.68v-.229Z"/>
    <path d="M510.626,310.978c-2.68-.077-5.398-.115-8.154-.115l.114,6.164c.46,1.072,.843,2.91,.843,4.288,0,9.15-2.298,14.203-13.208,15.735-.153,.038-.269,.038-.422,.038-2.182,0-3.675-2.488-3.675-4.671,0-1.607,.842-3.101,2.833-3.254,4.709-.383,7.656-1.417,8.575-3.637-1.302,.651-2.947,1.034-4.556,1.034-6.508,0-9.724-2.948-9.724-7.197s3.637-7.159,9.915-7.159c1.646,0,3.102,.229,4.403,.612l-.077-1.991c-5.819,0-11.791,.077-17.879,.229h-.114c-1.34,0-1.991-1.148-1.991-2.259,0-1.148,.651-2.259,1.914-2.259,6.088-.115,12.021-.153,17.841-.153,0-.421-.038-.804-.076-1.187v-.191c0-1.148,1.263-1.723,2.564-1.723,1.264,0,2.527,.574,2.565,1.799,0,.421,.038,.842,.038,1.302,2.833,0,5.628,0,8.384,.038,1.341,0,2.029,1.11,2.029,2.259s-.688,2.297-2.029,2.297h-.114Zm-17.42,5.627c-3.33,0-4.823,.996-4.823,2.757,0,1.263,1.302,2.565,4.671,2.565,2.909,0,4.709-1.148,4.709-2.756,0-1.8-1.991-2.565-4.557-2.565Z"/>
    <path d="M522.341,337.509c-3.331,0-5.935-2.604-5.935-5.781,0-3.331,2.604-6.01,5.935-6.01,3.369,0,5.973,2.68,5.973,6.01,0,3.178-2.604,5.781-5.973,5.781Zm0-8.882c-1.455,0-2.527,1.148-2.527,2.565,0,1.34,1.072,2.335,2.527,2.335,1.531,0,2.604-.995,2.604-2.335,0-1.417-1.072-2.565-2.604-2.565Z"/>
  </g>
  <path d="M114.648,78.981V34.671h10.68v44.311h-10.68Z"/>
  <path d="M161.736,79.617l-8.249-21.98c-1.365-3.996-2.688-9.812-3.075-12.582l-.17-.015c.41,4.482,.297,12.398-.261,18.852l-1.261,14.602-9.793-.847,3.814-44.146,12.452,1.076,8.327,21.76c1.858,4.895,3.34,10.838,3.485,12.447l.283,.024c-.539-5.635-.336-13.258,.045-17.672l1.33-15.396,9.791,.846-3.813,44.146-12.906-1.115Z"/>
  <path d="M202.357,75.876l-2.229-40.799-13.447,.735-.54-9.875,39.045-2.133,.54,9.875-13.513,.738,2.229,40.799-12.085,.66Z"/>
</svg>