<?xml version="1.0" encoding="UTF-8"?>
<svg id="_レイヤー_1" data-name="レイヤー 1" xmlns="http://www.w3.org/2000/svg" viewBox="0 0 651.016 416.777">
  <defs>
    <style>
      .cls-1 {
        fill: #fff;
        stroke-miterlimit: 10;
        stroke-width: 6px;
      }

      .cls-1, .cls-2 {
        stroke: #000;
      }

      .cls-2, .cls-3 {
        fill: none;
        stroke-width: 7px;
      }

      .cls-3 {
        stroke: #fff;
        stroke-linecap: round;
        stroke-linejoin: round;
      }

      .cls-4 {
        fill: red;
      }
    </style>
  </defs>
  <polygon points="634.664 390.359 17.874 383.811 20.434 87.723 637.224 94.272 634.664 390.359"/>
  <polygon class="cls-1" points="645.402 364.752 37.55 406.135 14.808 111.701 622.66 70.318 645.402 364.752"/>
  <g>
    <polygon class="cls-2" points="271.873 12.859 8.755 28.156 11.917 101.758 142.823 88.571 156.001 101.832 145.218 103.485 190.809 129.529 181.916 103.177 195.85 101.041 186.75 82.344 274.676 69.751 271.873 12.859"/>
    <g>
      <polygon points="278.873 19.859 15.755 35.156 18.917 108.758 149.823 95.571 163.001 108.832 152.218 110.485 197.809 136.529 188.916 110.177 202.85 108.041 193.75 89.344 281.676 76.751 278.873 19.859"/>
      <polygon class="cls-4" points="271.873 12.859 8.755 28.156 11.917 101.758 142.823 88.571 156.001 101.832 145.218 103.485 190.809 129.529 181.916 103.177 195.85 101.041 186.75 82.344 274.676 69.751 271.873 12.859"/>
    </g>
  </g>
  <g>
    <path class="cls-3" d="M83.243,80.567l-2.519-27.418-22.036,2.023,2.519,27.418-15.559,1.43-6.025-65.602,15.559-1.43,2.325,25.315,22.036-2.023-2.325-25.315,15.728-1.444,6.025,65.602-15.728,1.444Z"/>
    <path d="M83.243,80.567l-2.519-27.418-22.036,2.023,2.519,27.418-15.559,1.43-6.025-65.602,15.559-1.43,2.325,25.315,22.036-2.023-2.325-25.315,15.728-1.444,6.025,65.602-15.728,1.444Z"/>
  </g>
  <g>
    <path d="M66.657,180.151c-2.185,0-4.051-1.821-4.051-4.006s1.866-4.051,4.051-4.051,4.051,1.866,4.051,4.051-1.866,4.006-4.051,4.006Z"/>
    <path d="M110.679,195.991c-2.458,0-3.732-1.275-3.732-3.732v-10.333h-.319c-.592,0-1.183-.182-1.639-.592v9.468c0,2.094-1.092,3.096-3.141,3.096h-5.917c-2.094,0-3.141-1.002-3.141-3.096v-29.904c0-1.866,1.047-2.776,3.141-2.776h5.917c2.048,0,3.141,.91,3.141,2.776v16.796c1.866-1.685,3.095-3.414,4.415-5.735l.136-.228c.182-.183,.41-.364,.637-.455h-2.776c-1.184,0-1.775-1.002-1.775-2.003s.592-2.003,1.775-2.003h5.325v-1.274h-4.961c-1.047,0-1.548-.91-1.548-1.775,0-.91,.501-1.775,1.548-1.775h4.961v-1.183h-5.553c-1.184,0-1.775-1.047-1.775-2.14,0-1.047,.592-2.094,1.775-2.094h7.101c2.367,0,3.596,1.093,3.596,3.231v8.147c0,2.094-1.229,2.868-3.596,2.868h-1.502c.819,.318,1.457,.955,1.502,1.774h4.005c.273-.272,.546-.591,.774-.955s.546-.684,.91-.819c-1.001-.137-1.502-1.093-1.502-2.003,0-1.002,.592-2.003,1.775-2.003h5.781v-1.274h-5.462c-1.047,0-1.548-.91-1.548-1.775,0-.91,.501-1.775,1.548-1.775h5.462v-1.183h-5.917c-1.184,0-1.775-1.047-1.775-2.14,0-1.047,.592-2.094,1.775-2.094h7.647c2.367,0,3.596,1.093,3.596,3.231v8.147c0,2.094-1.229,2.868-3.596,2.868h-5.052c.774,.318,1.366,.864,1.366,1.456,0,.137,0,.228-.046,.318h5.963c1.275,0,1.958,1.047,1.958,2.049,0,.956-.592,1.866-1.958,1.866h-6.6v1.138h5.826c1.093,0,1.593,.865,1.593,1.729,0,.91-.5,1.775-1.593,1.775h-5.826v1.184h5.826c1.093,0,1.593,.91,1.593,1.775,0,.91-.5,1.82-1.593,1.82h-5.826v1.456h7.101c1.411,0,2.094,2.003,2.094,4.052,0,2.003-.729,4.097-2.094,4.097h-19.8Zm-10.514-33.273h-2.139v8.83h2.139v-8.83Zm0,13.428h-2.139v9.559h2.139v-9.559Zm17.979,.819h-5.872v1.138h5.872v-1.138Zm0,4.643h-5.872v1.184h5.872v-1.184Zm0,4.779h-5.872v1.456h5.872v-1.456Z"/>
    <path d="M144.914,195.353c-2.595,0-4.552-2.048-4.552-4.506v-29.268c0-2.367,2.094-4.097,4.552-4.097h25.717c2.412,0,4.552,1.775,4.552,4.097v29.268c0,2.503-2.048,4.506-4.552,4.506h-25.717Zm24.352-32.181c0-.455-.41-.729-.865-.729h-21.302c-.455,0-.819,.273-.819,.729v8.284h22.986v-8.284Zm0,13.883h-22.986v9.285c0,.455,.364,.774,.819,.774h21.302c.455,0,.865-.319,.865-.774v-9.285Z"/>
    <path d="M195.217,192.212c-1.32,.956-2.822,1.411-4.324,1.411-5.052,0-8.876-4.552-8.876-12.244,0-12.244,10.059-21.757,23.76-21.757,10.014,0,18.708,6.372,18.708,17.296,0,17.797-17.023,19.208-17.57,19.208-2.867,0-4.825-3.095-4.825-5.826,0-1.82,.91-3.459,3.05-3.823,8.648-1.411,12.836-5.553,12.836-10.515,0-5.644-3.323-9.33-8.694-10.605-1.775,11.425-6.509,21.484-14.065,26.855Zm-6.873-11.971c0,2.094,.956,3.459,2.413,3.459,2.23,0,9.467-5.826,12.517-18.616-9.422,1.184-14.93,8.102-14.93,15.157Z"/>
    <path d="M254.533,181.744c3.05,3.05,6.918,4.643,12.426,5.963,1.593,.409,2.321,2.048,2.321,3.777,0,2.413-1.365,5.144-3.732,5.144-.273,0-.637-.046-.956-.137-6.782-2.003-11.334-4.961-15.339-10.469-3.232,5.371-8.557,8.648-16.523,10.515-.228,.045-.5,.091-.728,.091-2.367,0-3.823-2.913-3.823-5.325,0-1.685,.683-3.187,2.23-3.46,7.237-1.229,10.924-3.413,13.154-6.099h-12.972c-1.548,0-2.321-1.32-2.321-2.595,0-1.32,.774-2.595,2.321-2.595h1.138v-5.371c0-3.186,.91-4.096,4.461-4.096h9.695v-1.139c0-1.274,1.457-1.866,2.913-1.866s2.913,.592,2.913,1.866v1.139h9.422c3.368,0,4.506,.91,4.506,4.096v5.371h1.229c1.548,0,2.322,1.274,2.322,2.595,0,1.274-.774,2.595-2.322,2.595h-12.335Zm6.281-18.207v1.229c0,1.274-1.411,1.911-2.822,1.911s-2.822-.637-2.822-1.911v-1.229h-12.836v1.229c0,1.274-1.411,1.911-2.822,1.911s-2.822-.637-2.822-1.911v-1.229h-6.008c-1.548,0-2.322-1.184-2.322-2.321,0-1.184,.774-2.321,2.322-2.321h6.008v-1.093c0-1.411,1.411-2.139,2.822-2.139s2.822,.728,2.822,2.139v1.093h12.836v-1.093c0-1.411,1.411-2.139,2.822-2.139s2.822,.728,2.822,2.139v1.093h5.917c1.548,0,2.322,1.138,2.322,2.321,0,1.138-.774,2.321-2.322,2.321h-5.917Zm-14.929,8.103h-8.102c-.364,0-.501,.091-.501,.409v4.506h8.421c.182-.728,.182-2.321,.182-3.505v-1.41Zm14.201,.409c0-.318-.182-.409-.546-.409h-7.829v1.092c0,1.274,0,3.231-.136,3.823h8.512v-4.506Z"/>
    <path d="M276.069,166.951c-1.502,0-2.276-1.138-2.276-2.23,0-1.138,.774-2.23,2.276-2.23h12.199c1.547,0,2.321,1.093,2.321,2.23,0,1.093-.774,2.23-2.321,2.23h-12.199Zm1.866,28.63c-2.094,0-3.095-1.093-3.095-3.095v-10.97c0-1.866,1.001-2.776,3.095-2.776h8.83c2.048,0,3.141,.91,3.141,2.776v10.924c0,2.003-1.093,3.141-3.141,3.141h-8.83Zm-.364-34.092c-1.502,0-2.276-1.093-2.276-2.23,0-1.093,.774-2.185,2.276-2.185h9.422c1.547,0,2.321,1.092,2.321,2.185,0,1.138-.774,2.23-2.321,2.23h-9.422Zm0,16.112c-1.502,0-2.276-1.092-2.276-2.185,0-1.047,.774-2.14,2.276-2.14h9.559c1.548,0,2.321,1.093,2.321,2.14,0,1.093-.774,2.185-2.321,2.185h-9.559Zm.046-5.371c-1.502,0-2.276-1.092-2.276-2.185,0-1.047,.774-2.139,2.276-2.139h9.513c1.548,0,2.321,1.092,2.321,2.139,0,1.093-.774,2.185-2.321,2.185h-9.513Zm7.101,10.879h-4.688v4.188h4.688v-4.188Zm6.782-7.328c-1.411,0-2.139-1.138-2.139-2.321,0-1.138,.728-2.276,2.139-2.276h2.594c.273-1.138,.455-2.048,.683-3.276h-1.866c-1.32,0-2.003-1.093-2.003-2.23,0-1.093,.683-2.23,2.003-2.23h2.594l.319-1.912h-3.505c-1.411,0-2.139-1.138-2.139-2.275,0-1.093,.728-2.23,2.139-2.23h19.208c1.457,0,2.139,1.138,2.139,2.23,0,1.138-.683,2.275-2.139,2.275h-10.105l-.273,1.912h7.146c2.503,0,3.778,1.138,3.778,3.368v4.369h.546c1.457,0,2.139,1.139,2.139,2.276,0,1.184-.683,2.321-2.139,2.321h-21.12Zm3.505,19.982c-2.458,0-3.687-1.275-3.687-3.688v-11.516c0-2.23,1.229-3.323,3.687-3.323h14.201c2.503,0,3.778,1.093,3.778,3.323v11.516c0,2.412-1.274,3.688-3.778,3.688h-14.201Zm12.244-13.747h-10.196v5.144h10.196v-5.144Zm-.5-14.109h-6.236c-.182,1.229-.41,2.229-.637,3.276h6.873v-3.276Z"/>
    <path d="M322.093,170.045c-1.639,0-2.549-1.593-2.549-3.095,0-1.229,.637-2.413,2.003-2.504,2.23-.182,4.461-.318,6.646-.409,.182-1.775,.364-3.596,.455-5.508,.046-1.365,1.548-2.094,3.05-2.094s3.004,.729,3.004,2.275c0,.364-.364,3.732-.501,5.008,1.866-.046,3.596-.046,5.143-.046,6.327,0,9.468,2.867,9.468,10.787,0,16.204-3.232,22.167-10.241,22.167-2.777,0-5.052-.683-6.737-1.32-1.32-.5-1.912-2.139-1.912-3.914,0-2.686,1.32-5.689,3.277-5.689,.273,0,.546,.045,.819,.182,1.548,.638,2.686,1.047,4.324,1.047,2.868,0,4.233-3.869,4.233-12.472,0-4.597-1.32-5.279-3.55-5.279-1.593,0-3.505,.045-5.599,.136-.956,8.648-2.549,18.253-7.419,25.672-.683,1.093-1.639,1.548-2.64,1.548-2.412,0-5.052-2.595-5.052-5.325,0-.956,.364-1.958,1.184-2.868,4.188-4.552,6.918-12.062,7.874-18.707-1.639,.137-3.323,.228-5.052,.409h-.228Zm34.502,9.24c-1.001,0-1.866-.455-2.276-1.457-1.639-4.232-4.279-8.921-6.372-11.606-.41-.546-.592-1.093-.592-1.593,0-1.366,1.275-2.413,2.822-2.413,.819,0,1.775,.364,2.549,1.139,2.549,2.549,5.417,6.19,7.783,10.241,.364,.637,.5,1.229,.5,1.775,0,2.229-2.412,3.914-4.415,3.914Zm1.274-13.063c-.637,0-1.32-.273-1.821-.956-1.138-1.502-2.367-2.822-3.323-3.732-.455-.409-.637-.864-.637-1.274,0-.956,.956-1.82,2.094-1.82,.546,0,1.821,.182,5.417,4.733,.319,.41,.455,.774,.455,1.184,0,1.001-1.047,1.866-2.185,1.866Zm4.005-3.187c-.546,0-1.138-.272-1.593-.864-.911-1.138-2.185-2.458-3.095-3.231-.501-.41-.683-.865-.683-1.275,0-.864,.91-1.638,1.957-1.638,.546,0,1.593,.136,4.961,4.051,.318,.364,.455,.773,.455,1.138,0,.956-.956,1.82-2.003,1.82Z"/>
    <path d="M404.85,191.803c0,3.186-1.275,4.733-4.279,4.733-.865,0-1.912-.137-3.141-.41-1.001-.182-1.548-.955-1.775-1.774-.319,.318-.91,.409-1.411,.409-.319,0-.592,0-.819-.091-3.596-1.184-5.872-3.323-7.966-5.599-1.821,2.367-4.006,4.597-9.058,6.1-.182,.045-.364,.091-.501,.091-1.001,0-2.139-.729-2.685-1.775-.046,2.048-2.003,3.095-4.006,3.095-2.048,0-4.142-1.138-4.142-3.322v-.318c.683-6.782,.774-13.746,.774-21.712v-11.562c0-1.911,1.001-2.776,3.095-2.776h12.153c2.094,0,3.141,.865,3.141,2.776v8.33c0,1.866-1.365,2.822-3.368,2.822,.182,.136,.364,.318,.501,.5,.41,.638,.865,1.411,1.229,2.186h5.007l1.183-2.003c.182-.319,.455-.501,.774-.683-2.003,0-3.459-.956-3.459-2.822v-8.33c0-1.911,1.047-2.776,3.095-2.776h12.517c2.094,0,3.141,.865,3.141,2.776v32.136Zm-25.854-30.815h-7.783v1.229h7.783v-1.229Zm0,4.506h-7.783v1.229h7.783v-1.229Zm-4.825,17.979c-1.411,0-2.139-1.047-2.139-2.094,0-1.001,.728-2.048,2.139-2.048h8.557c.045-.456,.091-.774,.091-1.184v-.455h-7.146c-1.457,0-2.185-1.047-2.185-2.094s.728-2.094,2.185-2.094h1.502c-.273-.319-.364-.684-.364-.956,0-.729,.592-1.366,1.365-1.729h-6.964s.319,9.103,1.365,17.888c.273-.773,.774-1.411,1.548-1.593,3.915-1.002,5.826-2.094,7.101-3.642h-7.055Zm25.398-12.653h-7.556c.91,.272,1.548,.91,1.548,1.684,0,.318-.091,.638-.319,1.002h1.502c1.457,0,2.185,1.047,2.185,2.094s-.729,2.094-2.185,2.094h-6.828c0,.592-.045,1.001-.091,1.639h8.557c1.457,0,2.139,1.047,2.139,2.048,0,1.047-.683,2.094-2.139,2.094h-7.101c1.821,1.639,3.96,2.64,6.372,3.141,.774,.182,1.183,.592,1.365,1.184,.228-.091,.41-.137,.683-.137,.136,0,.273,0,.409,.046,.41,.091,.683,.136,.911,.136,.41,0,.546-.182,.546-.546v-16.477Zm0-9.832h-8.193v1.229h8.193v-1.229Zm0,4.506h-8.193v1.229h8.193v-1.229Z"/>
    <path d="M443.045,170.774c-.228-.364-.319-.683-.319-1.001,0-1.229,1.411-2.14,2.731-2.14,.728,0,1.411,.273,1.866,.956,1.411,2.094,2.867,4.733,3.869,7.146,.091,.273,.137,.501,.137,.729,0,1.411-1.548,2.549-2.959,2.549-.819,0-1.548-.364-1.912-1.274-.182-.455-.364-.956-.592-1.411-2.412,.183-5.052,.364-7.783,.501,0,0,.683,9.24,2.003,16.341,.045,.091,.045,.228,.045,.409,0,2.003-2.412,3.004-4.87,3.004s-4.87-1.001-4.87-3.004c0-.182,0-.318,.046-.409,1.32-7.056,2.003-16.067,2.003-16.067-3.55,.182-7.055,.272-10.241,.364h-.091c-1.411,0-2.23-1.32-2.23-2.595,0-1.093,.683-2.185,2.185-2.185,1.957,0,4.006-.046,6.145-.092l2.002-1.411c-2.321-1.365-4.825-2.776-7.51-4.188-.728-.363-1.001-1.001-1.001-1.639,0-1.274,1.229-2.73,2.64-2.73,.364,0,.774,.091,1.138,.318l1.684,.91c1.001-.819,1.957-1.639,2.913-2.503-2.094,.045-4.324,.045-6.646,.045-1.138,0-1.866-.773-2.139-1.639-.546,2.186-1.365,4.507-2.276,6.601,.136,4.415,.546,13.974,1.138,21.575,.091-.183,.182-.319,.319-.455,2.367-2.913,3.778-4.962,5.143-8.512,.41-1.047,1.32-1.502,2.23-1.502,1.32,0,2.686,.955,2.686,2.549v.318c-.364,3.505-1.093,7.51-2.413,11.288-.546,1.593-1.775,2.14-3.141,2.14-1.639,0-3.459-.819-4.46-2.14l.136,1.365c0,.137,.045,.273,.045,.319,0,2.185-2.23,3.276-4.461,3.276-2.185,0-4.415-1.047-4.415-3.231,0-.091,.045-.182,.045-.364,.819-5.962,1.366-12.927,1.73-18.479-.136,.046-.228,.046-.364,.046-1.548,0-2.959-2.186-2.959-3.915,0-.546,.136-1.047,.455-1.411,2.458-2.822,4.415-7.01,5.598-11.925,.228-1.047,1.32-1.548,2.458-1.548,1.32,0,2.685,.637,2.867,1.82,.319-.409,.819-.683,1.502-.683,10.014,0,17.979-.455,23.76-1.047,.182,0,.319-.046,.455-.046,1.639,0,2.594,1.275,2.594,2.458,0,.956-.637,1.866-2.048,2.003-2.913,.318-6.509,.638-10.788,.819-1.821,1.957-3.596,3.596-5.644,5.234,1.001,.547,1.957,1.184,2.959,1.775,2.549-1.912,4.779-3.823,6.918-5.872,.5-.455,1.047-.637,1.639-.637,1.457,0,2.913,1.365,2.913,2.686,0,.455-.182,.91-.592,1.319-2.594,2.413-5.234,4.598-8.102,6.691l6.463-.409-.637-1.093Zm-2.686,9.24c0-1.594,1.366-2.549,2.686-2.549,.91,0,1.821,.455,2.23,1.502,1.365,3.55,2.776,5.599,5.143,8.512,.546,.683,.774,1.365,.774,2.002,0,2.322-2.822,4.279-5.28,4.279-1.366,0-2.595-.547-3.141-2.14-1.32-3.778-2.048-7.783-2.413-11.288v-.318Z"/>
    <path d="M470.135,158.894c-.774,14.747-.865,18.389-.865,19.345,0,6.008,2.867,8.102,8.785,8.102,5.781,0,10.059-2.776,11.652-8.693,.41-1.502,1.593-2.185,2.822-2.185,1.73,0,3.596,1.365,3.596,3.732,0,.318,0,.637-.091,1.001-2.276,10.833-8.421,15.84-17.979,15.84s-15.476-3.687-15.476-14.064c0-.683,.046-1.365,.091-2.094,.546-8.103,.683-14.064,.819-21.302,0-1.639,1.593-2.458,3.232-2.458,1.684,0,3.414,.91,3.414,2.64v.137Z"/>
    <path d="M537.78,167.223c1.547,0,2.412,1.366,2.412,2.731,0,1.274-.728,2.504-2.321,2.64-3.641,.319-7.647,.592-11.789,.683,.046,1.912,.091,3.642,.091,5.28,4.506,1.32,8.785,3.096,12.29,5.417,1.502,1.001,2.139,2.412,2.139,3.823,0,2.64-2.094,5.28-4.278,5.28-.637,0-1.275-.228-1.866-.729-2.549-2.185-5.462-4.278-8.239-5.826-.045,7.874-5.098,10.104-10.833,10.104-7.101,0-11.607-3.96-11.607-10.15,0-5.963,3.915-9.422,12.472-9.422,1.275,0,2.595,.091,3.915,.273,0-1.184-.045-2.595-.045-3.915h-2.594c-3.823,0-7.647-.045-11.288-.137-1.684,0-2.549-1.456-2.549-2.867,0-1.32,.819-2.64,2.458-2.64h.182c4.415,.182,9.058,.272,13.655,.272l-.091-2.821c-3.642,0-7.556,0-11.789-.092-1.639,0-2.458-1.274-2.458-2.594s.819-2.641,2.413-2.641h.182c4.142,.046,7.92,.137,11.516,.137,0-.683-.045-1.32-.045-1.866v-.091c0-1.502,1.457-2.276,2.958-2.276s3.05,.819,3.095,2.458c0,.501,0,1.047,.045,1.639,3.05-.045,6.099-.272,9.286-.546h.318c1.639,0,2.504,1.32,2.504,2.64,0,1.229-.728,2.413-2.23,2.549-3.323,.273-6.509,.456-9.786,.592,.046,.956,.046,1.73,.046,2.777,4.096-.137,8.056-.319,11.516-.684h.319Zm-17.615,16.478c-1.411-.592-3.323-1.047-4.734-1.047-2.913,0-4.597,.455-4.597,1.912,0,1.866,1.775,2.594,4.552,2.594,3.414,0,4.779-.637,4.779-3.186v-.273Z"/>
    <path d="M585.852,165.312c-3.186-.091-6.418-.137-9.695-.137l.136,7.328c.546,1.274,1.001,3.459,1.001,5.098,0,10.879-2.731,16.887-15.703,18.708-.182,.045-.319,.045-.501,.045-2.594,0-4.37-2.958-4.37-5.553,0-1.912,1.001-3.687,3.368-3.869,5.598-.455,9.103-1.684,10.196-4.324-1.548,.774-3.505,1.229-5.417,1.229-7.738,0-11.561-3.505-11.561-8.558s4.324-8.512,11.789-8.512c1.957,0,3.687,.273,5.234,.729l-.091-2.367c-6.919,0-14.019,.092-21.257,.273h-.136c-1.593,0-2.367-1.365-2.367-2.686,0-1.365,.774-2.686,2.276-2.686,7.237-.137,14.292-.182,21.211-.182,0-.501-.045-.956-.091-1.411v-.228c0-1.365,1.502-2.049,3.049-2.049,1.502,0,3.004,.684,3.05,2.14,0,.501,.045,1.001,.045,1.548,3.368,0,6.691,0,9.968,.045,1.593,0,2.413,1.32,2.413,2.686s-.819,2.731-2.413,2.731h-.136Zm-20.71,6.69c-3.96,0-5.735,1.184-5.735,3.277,0,1.502,1.548,3.05,5.553,3.05,3.459,0,5.599-1.365,5.599-3.277,0-2.139-2.367-3.05-5.417-3.05Z"/>
  </g>
  <path d="M114.649,78.981V34.67h10.68v44.311h-10.68Z"/>
  <path d="M161.743,79.648l-8.25-21.981c-1.365-3.995-2.688-9.812-3.075-12.582l-.169-.015c.41,4.482,.297,12.398-.261,18.852l-1.262,14.602-9.792-.846,3.814-44.146,12.451,1.076,8.327,21.76c1.858,4.894,3.341,10.838,3.486,12.447l.282,.024c-.54-5.636-.337-13.259,.045-17.673l1.33-15.395,9.792,.846-3.814,44.146-12.905-1.115Z"/>
  <path d="M202.386,75.824l-2.23-40.799-13.448,.734-.539-9.875,39.046-2.134,.539,9.875-13.514,.738,2.23,40.8-12.084,.66Z"/>
  <g>
    <path d="M110.932,288.394c-.91,.865-1.866,1.32-2.822,1.32s-1.912-.41-2.822-1.32l-16.568-16.478c-.91-.864-1.32-1.866-1.32-2.821s.455-1.958,1.32-2.822l16.568-16.568c.91-.91,1.866-1.32,2.822-1.32s1.957,.41,2.822,1.32l16.477,16.522c.91,.91,1.411,1.821,1.411,2.776s-.41,2.003-1.365,2.913l-16.523,16.478Z"/>
    <path d="M151.632,281.703c-1.411,0-2.094-1.684-2.094-3.368s.683-3.368,2.094-3.368h22.121c1.502,0,2.23,1.685,2.23,3.368s-.728,3.368-2.23,3.368h-22.121Zm0-11.379c-1.32,0-2.003-1.229-2.003-2.458s.683-2.458,2.003-2.458h22.121c1.365,0,2.003,1.229,2.003,2.458s-.637,2.458-2.003,2.458h-22.121Z"/>
    <path d="M216.774,284.525c-2.003,1.775-4.597,2.731-7.465,2.731-7.374,0-12.745-5.417-12.745-14.293s5.371-14.429,12.745-14.429c2.822,0,5.371,1.002,7.374,2.731v-8.375c0-1.639,1.593-2.413,3.186-2.413,1.548,0,3.141,.774,3.141,2.413v32.135c0,1.365-1.548,1.957-3.095,1.957s-3.141-.592-3.141-1.957v-.501Zm-.228-12.836c0-4.051-2.594-7.191-6.873-7.191-4.142,0-6.691,3.551-6.691,7.191,0,4.188,2.549,7.192,6.691,7.192,4.279,0,6.873-2.55,6.873-7.192Z"/>
    <path d="M233.255,289.077c-.592,.819-1.365,1.138-2.139,1.138-1.365,0-2.64-1.001-2.64-2.458,0-.136,0-.318,.045-.455l1.274-7.101c.273-1.547,1.775-2.73,3.732-2.73,.364,0,.683,0,1.047,.091,1.957,.409,3.459,2.185,3.459,4.006,0,.683-.182,1.365-.637,1.957l-4.142,5.553Z"/>
    <path d="M262.617,284.116c-1.866,0-2.868-.91-2.868-2.186,0-.637,.228-1.365,.774-2.094l17.843-24.26c.637-.911,1.365-1.274,2.094-1.274,.683,0,1.411,.409,2.048,1.274l17.888,24.26c.546,.729,.774,1.457,.774,2.094,0,1.275-1.001,2.186-2.867,2.186h-35.685Z"/>
    <path d="M323.983,281.703c-1.411,0-2.094-1.684-2.094-3.368s.683-3.368,2.094-3.368h22.121c1.502,0,2.23,1.685,2.23,3.368s-.728,3.368-2.23,3.368h-22.121Zm0-11.379c-1.32,0-2.003-1.229-2.003-2.458s.683-2.458,2.003-2.458h22.121c1.365,0,2.003,1.229,2.003,2.458s-.637,2.458-2.003,2.458h-22.121Z"/>
    <path d="M393.539,270.825c0,4.232,.683,9.74,1.866,12.107,.182,.409,.273,.773,.273,1.138,0,1.775-2.048,2.913-3.96,2.913-1.138,0-2.185-.409-2.686-1.365-.273-.592-.592-1.685-.592-1.685-2.094,2.321-5.735,3.323-8.785,3.323-7.738,0-10.788-3.368-10.788-8.83,0-3.96,1.912-7.102,5.508-8.33,5.507-1.912,12.198-1.32,12.198-3.732,0-1.365-1.365-2.275-4.87-2.275-2.958,0-4.779,1.365-6.236,3.368-.546,.773-1.32,1.047-2.139,1.047-1.639,0-3.414-1.274-3.414-2.868,0-.5,.182-1.047,.546-1.547,2.276-3.232,6.099-5.554,11.197-5.554,8.284,0,11.88,3.323,11.88,10.515v1.775Zm-6.145,1.274c-3.414,1.82-7.465,1.502-10.423,3.05-.956,.5-1.547,1.319-1.547,2.094,0,.91,.865,1.729,3.004,1.729,5.189,0,8.921-1.685,8.921-5.189,0-.91,.045-1.684,.045-1.684Z"/>
    <path d="M404.058,289.077c-.592,.819-1.366,1.138-2.139,1.138-1.365,0-2.64-1.001-2.64-2.458,0-.136,0-.318,.045-.455l1.274-7.101c.273-1.547,1.775-2.73,3.732-2.73,.364,0,.683,0,1.047,.091,1.957,.409,3.459,2.185,3.459,4.006,0,.683-.182,1.365-.637,1.957l-4.142,5.553Z"/>
    <path d="M451.217,290.351c-11.698,0-21.211-9.468-21.211-21.211s9.513-21.211,21.211-21.211,21.302,9.514,21.302,21.211-9.559,21.211-21.302,21.211Z"/>
    <path d="M494.785,281.703c-1.411,0-2.094-1.684-2.094-3.368s.683-3.368,2.094-3.368h22.121c1.502,0,2.23,1.685,2.23,3.368s-.728,3.368-2.23,3.368h-22.121Zm0-11.379c-1.32,0-2.003-1.229-2.003-2.458s.683-2.458,2.003-2.458h22.121c1.365,0,2.003,1.229,2.003,2.458s-.637,2.458-2.003,2.458h-22.121Z"/>
    <path d="M547.955,283.524l-9.559-20.347c-.228-.455-.319-.864-.319-1.274,0-1.729,1.821-2.821,3.55-2.821,1.093,0,2.094,.455,2.594,1.456l7.419,15.339,5.872-15.521c.41-1.047,1.457-1.503,2.549-1.503,1.684,0,3.55,1.048,3.55,2.731,0,.273-.091,.592-.182,.91l-9.285,25.899c-1.366,3.823-4.142,5.325-7.692,5.325-1.548,0-3.277-.272-5.052-.773-1.548-.41-2.276-2.14-2.276-3.914,0-2.14,1.047-4.188,2.913-4.188,.273,0,.501,0,.774,.092,1.184,.318,2.048,.5,2.731,.5,1.183,0,1.73-.546,2.23-1.547l.182-.364Z"/>
  </g>
</svg>