<?xml version="1.0" encoding="UTF-8"?>
<svg id="_レイヤー_1" data-name="レイヤー 1" xmlns="http://www.w3.org/2000/svg" viewBox="0 0 651.016 416.777">
  <defs>
    <style>
      .cls-1 {
        fill: #fff;
        stroke-miterlimit: 10;
        stroke-width: 6px;
      }

      .cls-1, .cls-2 {
        stroke: #000;
      }

      .cls-2, .cls-3 {
        fill: none;
        stroke-width: 7px;
      }

      .cls-3 {
        stroke: #fff;
        stroke-linecap: round;
        stroke-linejoin: round;
      }

      .cls-4 {
        fill: red;
      }
    </style>
  </defs>
  <polygon points="634.664 390.359 17.874 383.811 20.434 87.723 637.224 94.272 634.664 390.359"/>
  <polygon class="cls-1" points="645.402 364.752 37.55 406.135 14.808 111.701 622.66 70.318 645.402 364.752"/>
  <g>
    <polygon class="cls-2" points="271.873 12.859 8.755 28.156 11.917 101.758 142.823 88.571 156.001 101.832 145.218 103.485 190.809 129.529 181.916 103.177 195.85 101.041 186.75 82.344 274.676 69.751 271.873 12.859"/>
    <g>
      <polygon points="278.873 19.859 15.755 35.156 18.917 108.758 149.823 95.571 163.001 108.832 152.218 110.485 197.809 136.529 188.916 110.177 202.85 108.041 193.75 89.344 281.676 76.751 278.873 19.859"/>
      <polygon class="cls-4" points="271.873 12.859 8.755 28.156 11.917 101.758 142.823 88.571 156.001 101.832 145.218 103.485 190.809 129.529 181.916 103.177 195.85 101.041 186.75 82.344 274.676 69.751 271.873 12.859"/>
    </g>
  </g>
  <g>
    <path class="cls-3" d="M83.225,80.559l-2.519-27.418-22.035,2.023,2.519,27.418-15.559,1.43-6.025-65.601,15.559-1.43,2.325,25.315,22.035-2.023-2.325-25.315,15.728-1.444,6.025,65.601-15.728,1.444Z"/>
    <path d="M83.225,80.559l-2.519-27.418-22.035,2.023,2.519,27.418-15.559,1.43-6.025-65.601,15.559-1.43,2.325,25.315,22.035-2.023-2.325-25.315,15.728-1.444,6.025,65.601-15.728,1.444Z"/>
  </g>
  <g>
    <path d="M76.3,207.827c-2.025,25.463-26.868,27.488-28.025,27.488-2.191,0-3.638-2.687-3.638-5.043,0-1.777,.785-3.39,2.687-3.596,14.303-1.695,21.371-8.103,23.065-18.354v-.083c0-.124-.124-.248-.248-.248h-25.793c-1.654,0-2.521-1.364-2.521-2.687,0-1.364,.867-2.687,2.521-2.687h27.24c3.142,0,4.712,2.438,4.712,4.753v.455Z"/>
    <path d="M86.843,221.343c-1.819,0-2.729-1.942-2.729-3.844,0-1.943,.909-3.845,2.729-3.845h26.744c1.818,0,2.77,1.943,2.77,3.886,0,1.901-.909,3.803-2.77,3.803h-26.744Z"/>
    <path d="M140.292,232.545c.413,2.439-1.653,3.969-4.423,3.969-2.315,0-4.671-1.158-4.671-3.432,0-.165,0-.33,.041-.537,1.157-7.109,1.24-18.767,1.24-31.002,0-1.488,1.529-2.19,3.1-2.19s3.184,.744,3.184,2.19c0,2.562,0,5.084,.041,7.564,5.498,1.571,12.855,3.803,19.47,6.82,1.074,.496,1.529,1.488,1.529,2.521,0,1.736-1.281,3.597-2.977,3.597-.372,0-.744-.083-1.157-.289-5.663-2.894-11.946-5.333-16.741-6.697,.165,6.903,.537,13.021,1.364,17.485Zm12.69-24.554c-.538,0-1.158-.206-1.654-.744-1.239-1.363-2.521-2.521-3.513-3.307-.496-.372-.703-.826-.703-1.281,0-.909,.909-1.736,1.984-1.736,.372,0,1.653,.083,5.415,4.051,.372,.372,.537,.786,.537,1.199,0,.992-.992,1.818-2.066,1.818Zm4.423-3.059c-.455,0-.951-.207-1.405-.661-1.034-1.075-2.315-2.191-3.266-2.853-.538-.413-.786-.868-.786-1.281,0-.868,.91-1.612,1.902-1.612,.371,0,1.446,.083,4.96,3.473,.372,.372,.537,.744,.537,1.157,0,.909-.909,1.777-1.942,1.777Z"/>
    <path d="M175.636,232.049c-1.198,.868-2.562,1.281-3.927,1.281-4.588,0-8.061-4.133-8.061-11.119,0-11.119,9.136-19.759,21.577-19.759,9.095,0,16.989,5.787,16.989,15.708,0,16.162-15.459,17.443-15.955,17.443-2.604,0-4.382-2.811-4.382-5.291,0-1.653,.826-3.142,2.77-3.472,7.854-1.281,11.656-5.043,11.656-9.549,0-5.126-3.018-8.474-7.895-9.631-1.612,10.375-5.911,19.51-12.773,24.388Zm-6.241-10.871c0,1.901,.868,3.142,2.19,3.142,2.025,0,8.598-5.291,11.367-16.906-8.557,1.074-13.558,7.357-13.558,13.765Z"/>
    <path d="M217.76,234.571c-2.563,0-3.886-2.646-3.886-5.001,0-1.902,.826-3.597,2.479-3.721,14.799-1.116,20.214-5.374,20.214-10.706,0-3.886-4.258-6.324-9.921-6.324-6.82,0-11.698,1.529-17.65,3.514-.413,.124-.827,.206-1.199,.206-1.942,0-3.183-1.694-3.183-3.307,0-1.074,.579-2.108,1.901-2.521,6.407-1.86,13.062-3.266,20.296-3.266,9.136,0,15.791,4.671,15.791,12.111,0,10.789-6.655,17.692-24.554,19.015h-.289Z"/>
    <path d="M248.598,217.996c0-2.397,.124-9.012,2.108-15.377,.455-1.488,1.694-2.108,2.894-2.108,1.488,0,2.935,.95,2.935,2.356,0,.206-.041,.454-.124,.702-1.364,4.465-2.149,10.169-2.149,13.6,0,5.002,1.323,8.102,3.597,8.102,2.025,0,3.803-.991,4.96-4.216,.455-1.281,1.447-1.86,2.48-1.86,1.529,0,3.142,1.24,3.142,3.266,0,.331-.042,.703-.166,1.116-2.479,8.764-5.911,11.574-10.582,11.574-5.787,0-9.094-5.085-9.094-17.154Zm31.664,12.152c-1.943,0-3.886-1.074-3.886-3.1,0-.124,.041-.29,.041-.414,.165-1.529,.289-3.018,.289-4.464,0-6.118-1.694-11.202-5.208-16.08-.372-.496-.537-1.033-.537-1.488,0-1.363,1.322-2.479,2.811-2.479,.868,0,1.736,.372,2.48,1.239,4.753,5.705,7.522,14.179,7.771,23.562,.042,2.107-1.777,3.224-3.761,3.224Z"/>
    <path d="M301.014,208.736c-.702,6.903-1.694,16.204-3.72,24.43-.496,1.942-1.943,2.729-3.556,2.729-2.521,0-5.415-1.943-5.415-4.299,0-.372,.083-.786,.248-1.199,3.142-7.233,5.581-14.385,6.573-21.412-1.654,.041-3.266,.083-4.713,.083-1.612,0-2.397-1.281-2.397-2.604,0-1.281,.785-2.562,2.356-2.562,1.653,0,3.472-.042,5.415-.083,.165-.95,.248-2.025,.33-2.894,.083-1.198,1.406-1.818,2.729-1.818,1.405,0,2.894,.744,2.894,2.397,0,.454-.124,1.694-.165,2.066l4.96-.289h.289c1.571,0,2.397,1.281,2.397,2.562,0,1.199-.743,2.356-2.355,2.48l-5.87,.413Zm21.329,17.278c1.778,0,2.729,2.025,2.729,4.175,0,2.191-1.033,4.506-3.101,4.63-1.942,.124-3.761,.166-5.414,.166-11.326,0-15.832-2.812-15.832-10.459,0-2.149,0-5.497,3.1-5.497,1.282,0,2.439,.785,2.439,2.314,0,3.473,1.612,4.961,9.053,4.961,1.901,0,4.175-.124,6.861-.29h.165Zm-.454-11.284c-2.77-.166-5.58-.331-8.516-.331-1.694,0-3.39,.041-5.167,.165h-.206c-1.612,0-2.48-1.363-2.48-2.728,0-1.24,.744-2.439,2.314-2.521,1.901-.166,3.886-.207,5.87-.207,2.935,0,5.828,.124,8.474,.331,1.488,.124,2.149,1.322,2.149,2.562,0,1.323-.826,2.729-2.314,2.729h-.124Z"/>
    <path d="M365.335,218.409c0,12.855-.579,17.567-7.358,17.567-1.694,0-3.803-.33-6.407-.868-1.446-.33-2.066-1.777-2.066-3.265,0-2.191,1.157-4.63,2.853-4.63,.082,0,.206,0,.33,.041,1.943,.372,3.39,.661,4.423,.661,3.06,0,3.142-2.273,3.142-11.036v-1.984h-9.301c-.124,6.738-.454,14.675-4.505,19.842-.703,.909-1.571,1.239-2.439,1.239-2.19,0-4.505-2.314-4.505-4.464,0-.744,.289-1.488,.909-2.149,4.505-4.589,5.456-13.228,5.456-21.991h-1.86c-1.033,0-1.694-.62-1.942-1.405l-1.653,4.919c0,.042-.042,.083-.042,.166,0,.082,.042,.206,.083,.247,2.108,3.556,3.142,6.986,3.142,9.673,0,3.473-1.736,5.787-5.25,5.787-.537,0-1.074-.041-1.694-.165,.289,2.066,.62,4.216,1.033,6.531,0,.124,.041,.248,.041,.372,0,1.694-1.777,2.521-3.637,2.521-1.902,0-3.886-.91-3.886-2.812v-.082c.413-10.128,.454-22.693,.454-28.067v-2.604c0-1.612,.868-2.479,2.563-2.479h6.489c2.149,0,3.101,1.074,3.101,2.728,0,.207,0,.414-.042,.62,.331-.206,.744-.372,1.24-.372h7.068v-2.149c0-1.322,1.406-1.942,2.812-1.942s2.811,.62,2.811,1.942v2.149h8.061c1.405,0,2.066,1.116,2.066,2.191,0,1.115-.661,2.231-2.066,2.231h-13.765v3.184h10.706c2.397,0,3.638,1.198,3.638,3.224v4.63Zm-27.241-14.427h-2.728c.041,6.655,.124,11.45,.578,16.369,.455,.124,.868,.166,1.199,.166,1.074,0,1.57-.496,1.57-1.488,0-1.323-.868-3.514-2.646-6.738-.165-.289-.248-.661-.248-1.033,0-.33,.083-.661,.166-.95l2.107-6.325Z"/>
    <path d="M401.423,233.373c-.537,1.322-1.819,2.397-3.018,2.397-.785,0-1.529-.455-2.066-1.612-.124-.207-.207-.661-.29-.992-5.828,.951-9.879,1.281-15.79,1.612h-.124c-1.653,0-2.48-1.529-2.646-3.142-.124,.868-.248,1.694-.413,2.521-.248,1.322-1.116,1.901-2.149,1.901-1.86,0-4.217-1.942-4.217-4.464,0-.455,.083-.992,.248-1.488,1.819-5.291,2.066-11.574,2.066-18.519v-8.268c0-2.149,1.199-3.224,3.597-3.224h24.471c2.356,0,3.638,1.074,3.638,3.224v13.104c0,2.563,.041,4.961,.496,7.896,.083,.537,.165,.826,.248,.826,.207,0,.413-1.157,.62-3.596,.124-1.199,.951-1.736,1.86-1.736,1.033,0,2.149,.744,2.19,2.066v.827c0,4.01-1.033,9.177-2.108,11.202-.702,1.364-1.942,2.066-3.224,2.066-1.116,0-2.273-.578-3.018-1.859l-.372-.744Zm-10.127-9.59v3.018c.867-.124,1.859-.207,2.811-.372-.207-.331-.289-.62-.289-.868,0-1.034,1.239-1.736,2.397-1.736,.661,0,1.281,.248,1.653,.785,.661,.992,1.487,2.439,2.314,3.886-.496-3.638-.579-8.02-.579-11.698v-11.987c0-.165-.082-.207-.206-.207h-20.916c-.124,0-.207,.042-.207,.207v9.135c0,5.126-.041,10.541-.496,15.254,.331-.992,.992-1.695,1.86-1.736,2.438-.083,4.547-.083,6.613-.207v-3.472h-3.513c-2.273,0-3.39-1.034-3.39-3.101v-5.622c0-2.066,1.116-3.059,3.39-3.059h3.513v-1.488c-1.653,.042-3.389,.083-5.208,.083-1.488,0-2.273-1.116-2.273-2.19,0-1.034,.703-2.026,2.108-2.026,5.373,0,10.417-.206,15.418-.95,.166-.041,.331-.041,.496-.041,1.488,0,2.273,1.074,2.273,2.149,0,.909-.578,1.777-1.86,1.983-1.942,.29-3.885,.538-5.91,.703v1.777h3.637c2.232,0,3.39,.992,3.39,3.059v5.622c0,2.066-1.157,3.101-3.39,3.101h-3.637Zm-5.044-7.771h-2.314q-.083,0-.083,.083v3.1c0,.041,.083,.124,.124,.124h2.273v-3.307Zm7.565,.083c0-.083-.042-.083-.124-.083h-2.397v3.307h2.397c.041,0,.124-.083,.124-.124v-3.1Z"/>
    <path d="M417.298,235.315c-.537,.744-1.24,1.033-1.943,1.033-1.239,0-2.397-.909-2.397-2.231,0-.124,0-.29,.042-.414l1.157-6.448c.248-1.405,1.612-2.48,3.39-2.48,.33,0,.62,0,.95,.083,1.777,.372,3.142,1.984,3.142,3.638,0,.62-.165,1.24-.578,1.777l-3.762,5.043Z"/>
    <path d="M489.349,218.409c0,12.855-.579,17.567-7.358,17.567-1.694,0-3.803-.33-6.407-.868-1.446-.33-2.066-1.777-2.066-3.265,0-2.191,1.157-4.63,2.853-4.63,.082,0,.206,0,.33,.041,1.943,.372,3.39,.661,4.423,.661,3.06,0,3.142-2.273,3.142-11.036v-1.984h-9.301c-.124,6.738-.454,14.675-4.505,19.842-.703,.909-1.571,1.239-2.439,1.239-2.19,0-4.505-2.314-4.505-4.464,0-.744,.289-1.488,.909-2.149,4.505-4.589,5.456-13.228,5.456-21.991h-1.86c-1.033,0-1.694-.62-1.942-1.405l-1.653,4.919c0,.042-.042,.083-.042,.166,0,.082,.042,.206,.083,.247,2.108,3.556,3.142,6.986,3.142,9.673,0,3.473-1.736,5.787-5.25,5.787-.537,0-1.074-.041-1.694-.165,.289,2.066,.62,4.216,1.033,6.531,0,.124,.041,.248,.041,.372,0,1.694-1.777,2.521-3.637,2.521-1.902,0-3.886-.91-3.886-2.812v-.082c.413-10.128,.454-22.693,.454-28.067v-2.604c0-1.612,.868-2.479,2.563-2.479h6.489c2.149,0,3.101,1.074,3.101,2.728,0,.207,0,.414-.042,.62,.331-.206,.744-.372,1.24-.372h7.068v-2.149c0-1.322,1.406-1.942,2.812-1.942s2.811,.62,2.811,1.942v2.149h8.061c1.405,0,2.066,1.116,2.066,2.191,0,1.115-.661,2.231-2.066,2.231h-13.765v3.184h10.706c2.397,0,3.638,1.198,3.638,3.224v4.63Zm-27.241-14.427h-2.728c.041,6.655,.124,11.45,.578,16.369,.455,.124,.868,.166,1.199,.166,1.074,0,1.57-.496,1.57-1.488,0-1.323-.868-3.514-2.646-6.738-.165-.289-.248-.661-.248-1.033,0-.33,.083-.661,.166-.95l2.107-6.325Z"/>
    <path d="M525.023,219.235c1.735,1.447,3.183,2.356,5.787,3.225,1.074,.372,1.487,1.447,1.487,2.687,0,2.108-1.281,4.63-3.018,4.63-.248,0-.496-.082-.743-.165-2.77-1.075-4.754-2.687-6.407-4.837-.29,.91-.992,1.695-1.984,1.695-.165,0-.331-.041-.537-.083-2.397-.702-7.234-1.694-10.872-2.314-1.157-.207-1.653-.909-1.653-1.653,0-.166,.042-.372,.083-.538-.703,1.24-1.488,2.398-2.356,3.432,7.523,.868,13.435,1.818,20.09,3.266,1.487,.33,2.149,1.818,2.149,3.39,0,1.942-1.075,4.051-2.894,4.051-.207,0-.414,0-.662-.083-6.448-1.736-12.731-2.977-19.965-4.092-1.446-.207-2.025-1.282-2.025-2.48,0-.455,.083-.909,.207-1.364-.992,.661-2.067,1.199-3.225,1.612-.248,.083-.455,.124-.703,.124-1.694,0-2.852-2.356-2.852-4.382,0-1.322,.496-2.562,1.612-2.894,2.479-.744,4.423-1.777,5.786-3.225h-5.125c-1.364,0-2.025-.95-2.025-1.942,0-.95,.661-1.901,2.025-1.901h7.109v-1.281h-4.423c-1.281,0-1.942-.868-1.942-1.736,0-.827,.661-1.694,1.942-1.694h4.423v-1.158h-4.836c-1.323,0-1.984-.868-1.984-1.777,0-.124,.041-.206,.041-.33-.867-.166-1.529-.579-1.529-1.282v-2.397c0-2.025,1.116-3.059,3.39-3.059h11.326v-.454c0-1.034,1.405-1.571,2.811-1.571s2.853,.537,2.853,1.571v.454h11.409c2.273,0,3.431,1.033,3.431,3.059v2.397c0,.786-.785,1.24-1.736,1.364v.248c0,.909-.661,1.777-1.942,1.777h-4.63v1.158h4.216c1.323,0,1.943,.867,1.943,1.694,0,.868-.62,1.736-1.943,1.736h-4.216v1.281h7.109c1.364,0,2.067,.951,2.067,1.901,0,.992-.703,1.942-2.067,1.942h-5.001Zm-20.71-14.633h-3.1c-.083,0-.166,.083-.166,.166v1.157h3.266v-1.323Zm4.051,14.633c-.206,.579-.454,1.116-.702,1.654,.413-.496,.95-.91,1.57-.91,.083,0,.166,.042,.248,.042,3.514,.537,7.068,1.157,10.83,1.983-.496-.867-.95-1.777-1.405-2.77h-10.541Zm9.632-14.633h-8.805v1.323h8.805v-1.323Zm0,4.919h-8.805v1.158h8.805v-1.158Zm0,4.589h-8.805v1.281h8.805v-1.281Zm8.185-9.342c0-.083-.124-.166-.207-.166h-3.059v1.323h3.266v-1.157Z"/>
    <path d="M548.463,235.356c-2.232,0-3.349-1.157-3.349-3.307v-9.218c-.331,3.514-1.116,7.192-2.729,10.21-.454,.868-1.116,1.24-1.818,1.24-1.943,0-4.258-2.562-4.258-5.167,0-.785,.207-1.571,.744-2.273,2.77-3.638,3.968-7.027,4.382-12.566h-2.108c-1.198,0-1.777-.909-1.777-1.818s.579-1.819,1.777-1.819h13.393v-.868h-11.739c-1.281,0-1.942-.909-1.942-1.777s.62-1.694,1.942-1.694h11.739v-.868h-12.689c-1.323,0-1.984-.909-1.984-1.819s.661-1.818,1.984-1.818h5.415c-.248-.372-.331-.703-.331-1.033,0-1.075,1.198-1.86,2.397-1.86,.785,0,1.529,.331,1.984,1.075,.33,.537,.578,1.157,.95,1.818h9.466c.414-.62,.662-1.116,.91-1.777,.33-.827,1.074-1.157,1.859-1.157,1.24,0,2.563,.826,2.563,1.983,0,.29-.083,.62-.29,.951h5.043c1.282,0,1.943,.909,1.943,1.818s-.661,1.819-1.943,1.819h-12.524v.868h11.491c1.323,0,1.984,.868,1.984,1.736s-.661,1.735-1.984,1.735h-11.491v.868h13.104c1.281,0,1.901,.909,1.901,1.819s-.62,1.818-1.901,1.818h-24.554c-.041,.62-.041,1.199-.082,1.777,.537-.537,1.363-.826,2.521-.826h18.684c2.273,0,3.431,1.033,3.431,3.059v13.765c0,2.149-1.157,3.307-3.431,3.307h-18.684Zm17.484-16.244c0-.042-.082-.042-.165-.042h-15.873c-.041,0-.165,0-.165,.042v.785h16.203v-.785Zm0,3.927h-16.203v.868h16.203v-.868Zm0,3.968h-16.203v.868c0,.041,.124,.124,.165,.124h15.914c.083,0,.124-.041,.124-.124v-.868Z"/>
    <path d="M610.262,227.006c1.57,0,2.397,1.943,2.397,3.969,0,2.066-.827,4.175-2.562,4.381-2.853,.331-5.002,.496-8.309,.496-11.161,0-14.716-2.438-14.716-6.902,0-5.953,3.803-10.128,12.566-13.724-.455-1.075-1.406-1.447-2.439-1.447-5.167,0-9.094,4.713-12.813,9.962-.62,.909-1.406,1.281-2.149,1.281-1.778,0-3.556-2.025-3.556-3.885,0-.662,.207-1.282,.744-1.819,4.175-4.175,7.11-7.812,9.012-11.739h-1.736c-1.405,0-2.853,0-4.175-.041-1.529-.042-2.356-1.282-2.356-2.521,0-1.199,.744-2.315,2.19-2.315h.166c2.562,.042,5.125,.042,7.688,.042,.289-.744,.537-1.53,.785-2.273,.289-1.034,1.323-1.488,2.397-1.488,1.447,0,2.977,.785,2.977,2.149,0,.041-.124,.909-.372,1.488,4.051-.166,8.102-.414,12.111-.786h.289c1.612,0,2.48,1.323,2.48,2.563,0,1.157-.661,2.231-2.108,2.314-5.002,.372-9.921,.661-14.633,.785-.413,.951-.909,1.612-1.405,2.521,1.529-.578,3.431-.992,4.63-.992,3.596,0,6.324,1.282,7.481,4.341,1.612-.579,5.746-1.86,6.696-1.86,1.653,0,2.646,1.447,2.646,2.811,0,.992-.496,1.943-1.653,2.232-2.687,.703-5.043,1.405-7.109,2.067v4.836c0,1.322-1.406,2.025-2.812,2.025s-2.77-.661-2.77-1.984v-.041l.042-2.77c-4.217,1.942-5.663,3.473-5.663,4.712,0,1.695,.702,2.191,7.564,2.191,3.059,0,5.621-.248,8.185-.579h.289Z"/>
    <path class="cls-4" d="M57.575,245.876c-.62-1.405-1.323-2.729-1.984-3.803-.248-.372-.331-.785-.331-1.116,0-1.364,1.529-2.356,3.059-2.356,1.571,0,2.356,.331,4.754,5.994,3.597-.62,4.175-.661,5.043-.661,5.415,0,10.086,2.976,10.086,9.879,0,5.622-2.77,10.21-9.59,10.21-1.529,0-3.224-.207-5.167-.703-1.57-.413-2.273-1.859-2.273-3.348,0-1.819,1.033-3.679,2.853-3.679,.206,0,.413,.041,.62,.082,1.24,.248,2.355,.414,3.266,.414,2.894,0,4.299-1.282,4.299-4.134,0-2.273-2.067-3.514-4.547-3.514-.496,0-5.539,.496-13.89,3.348,3.68,8.144,7.192,18.478,7.192,19.677,0,2.231-2.728,3.679-5.125,3.679-1.736,0-3.349-.785-3.597-2.604-.909-6.779-2.231-12.731-4.34-18.601-4.134,1.611-4.589,1.735-5.126,1.735-1.736,0-2.935-1.653-2.935-3.183,0-1.033,.537-1.984,1.694-2.397l4.299-1.364c-.785-1.777-1.694-3.596-2.646-5.456-.165-.331-.248-.661-.248-.992,0-1.405,1.571-2.438,3.101-2.438,.909,0,1.818,.372,2.356,1.322,1.116,1.984,2.107,3.927,3.1,5.828l6.077-1.818Z"/>
    <path class="cls-4" d="M95.44,274.893c-2.149,0-3.225-2.19-3.225-4.216,0-1.612,.703-3.101,2.108-3.183,11.657-.91,15.956-4.134,15.956-8.351,0-3.018-3.307-4.877-7.73-4.877-5.415,0-9.3,1.239-14.013,2.811-.372,.124-.744,.165-1.033,.165-1.694,0-2.729-1.446-2.729-2.811,0-.951,.496-1.901,1.653-2.232,5.126-1.488,10.5-2.646,16.287-2.646,7.398,0,12.813,3.845,12.813,9.921,0,8.722-5.373,14.344-19.841,15.418h-.248Z"/>
    <path class="cls-4" d="M129.917,274.397c-1.902,0-3.762-1.033-4.093-3.224-.455-3.349-.661-8.02-.661-12.111,0-6.449,.496-10.913,1.942-17.402,.331-1.364,1.571-2.026,2.812-2.026,1.487,0,2.976,.91,2.976,2.521,0,.207,0,.455-.082,.703-1.075,4.258-1.447,8.433-1.447,12.524,0,3.638,1.116,9.301,2.562,13.642,.207,.578,.29,1.116,.29,1.612,0,2.438-2.191,3.761-4.299,3.761Zm18.973-33.151v-.165c0-1.24,1.405-1.901,2.853-1.901,1.281,0,2.562,.578,2.687,1.818,.165,1.571,.248,3.431,.331,5.457,1.818-.124,3.39-.248,4.629-.372,.124,0,.248-.042,.331-.042,1.488,0,2.314,1.364,2.314,2.688,0,1.115-.578,2.231-1.901,2.397-1.405,.165-3.183,.33-5.208,.454,.041,2.191,.083,3.886,.083,5.787,0,12.153-2.025,15.832-12.029,17.898-.206,.042-.413,.083-.62,.083-2.438,0-4.051-2.853-4.051-5.291,0-1.653,.744-3.101,2.48-3.39,6.696-1.033,8.722-2.729,8.722-9.301,0-1.86-.041-3.472-.083-5.58-1.363,.041-2.77,.041-4.175,.041-2.77,0-5.621-.041-8.226-.165-1.571-.041-2.356-1.405-2.356-2.729,0-1.281,.744-2.562,2.315-2.562h.206c2.812,.165,5.911,.248,8.929,.248,1.075,0,2.108,0,3.142-.041l-.372-5.333Z"/>
    <path d="M197.09,266.295c1.942,0,2.894,2.066,2.894,4.134s-.951,4.175-2.729,4.299c-3.473,.289-6.738,.413-9.756,.413-12.938,0-21.081-2.852-21.081-11.491,0-6.779,3.638-10.623,11.119-13.187-.206-3.1-.578-6.035-.95-9.176,0-.124-.041-.207-.041-.29,0-1.488,1.611-2.314,3.224-2.314,1.488,0,2.935,.744,3.059,2.314,.166,2.688,.331,5.167,.455,7.896,6.159-1.323,12.979-1.777,13.021-1.777,1.984,0,3.018,1.405,3.018,2.811,0,1.281-.868,2.562-2.646,2.687-18.56,1.282-24.223,5.705-24.223,9.715,0,3.596,3.721,4.753,10.706,4.753,3.679,0,8.268-.33,13.683-.785h.248Z"/>
    <path d="M207.715,249.1c-1.323,0-2.025-1.075-2.025-2.191,0-1.074,.702-2.149,2.025-2.149h33.068c1.364,0,2.025,1.075,2.025,2.149,0,1.116-.661,2.191-2.025,2.191h-33.068Zm3.555,25.504c-1.901,0-2.853-.951-2.853-2.77v-8.805c0-1.736,.951-2.562,2.853-2.562h26.042c1.901,0,2.935,.826,2.935,2.562v8.805c0,1.818-1.033,2.77-2.935,2.77h-26.042Zm-.041-20.461c-1.405,0-2.108-.992-2.108-1.984s.703-1.984,2.108-1.984h26.124c1.405,0,2.108,.992,2.108,1.984s-.703,1.984-2.108,1.984h-26.124Zm.041,5.208c-1.405,0-2.108-1.075-2.108-2.108,0-1.074,.703-2.108,2.108-2.108h26.083c1.405,0,2.108,1.034,2.108,2.108,0,1.033-.703,2.108-2.108,2.108h-26.083Zm.62-15.46c-1.364,0-2.025-.992-2.025-2.025,0-.992,.661-1.984,2.025-1.984h24.719c1.364,0,2.067,.992,2.067,1.984,0,1.033-.703,2.025-2.067,2.025h-24.719Zm23.313,20.958h-21.701v2.687h21.701v-2.687Z"/>
    <path d="M267.571,247.818c9.342,0,14.054,3.845,14.054,11.244,0,6.944-3.514,14.591-21.246,16.658-.166,0-.331,.041-.455,.041-2.687,0-4.01-2.811-4.01-5.167,0-1.736,.703-3.266,2.067-3.39,12.483-1.116,17.526-4.588,17.526-8.763,0-3.845-2.149-5.539-7.854-5.539-4.092,0-9.094,1.24-14.343,3.183-.372,.124-.744,.207-1.075,.207-1.736,0-2.894-1.695-2.894-3.225,0-.992,.496-1.901,1.571-2.314,5.663-1.943,11.987-2.936,16.658-2.936Zm-11.119-3.183c-1.447-.207-2.15-1.364-2.15-2.48,0-1.281,.868-2.562,2.398-2.562,.165,0,.33,0,.495,.041,5.705,.827,11.078,1.282,18.146,1.447,1.571,.041,2.315,1.157,2.315,2.356,0,1.322-.951,2.728-2.562,2.728-.166,0-9.343-.289-18.643-1.529Z"/>
    <path d="M310.976,251.58c7.979,0,12.607,5.167,12.607,11.285,0,7.937-7.026,13.021-22.941,13.021-2.356,0-3.638-2.356-3.638-4.63,0-2.066,1.116-4.092,3.514-4.092,12.277,0,17.196-2.149,17.196-5.87,0-2.935-2.191-4.381-7.068-4.381-3.804,0-9.591,1.818-14.303,6.696-.496,.496-1.074,.702-1.736,.702-1.818,0-3.927-1.777-3.927-3.679,0-1.86,.744-9.838,1.736-13.765,.331-1.281,1.529-1.86,2.729-1.86,1.446,0,2.935,.827,2.935,2.19,0,.207-.041,.414-.083,.62-.62,2.067-1.074,5.209-1.405,7.979,3.762-2.729,8.97-4.217,14.385-4.217Zm1.033-6.035c-4.175-1.074-8.267-1.611-12.648-1.942-1.446-.083-2.19-1.24-2.19-2.438s.826-2.397,2.479-2.397c2.729,0,7.482,.537,13.724,1.735,1.364,.29,1.984,1.323,1.984,2.397,0,1.323-.992,2.77-2.562,2.77-.248,0-.496-.041-.786-.124Z"/>
    <path d="M342.6,241.536c-.702,13.393-.785,16.699-.785,17.567,0,5.456,2.604,7.357,7.978,7.357,5.25,0,9.136-2.521,10.582-7.895,.372-1.364,1.447-1.984,2.563-1.984,1.57,0,3.265,1.24,3.265,3.39,0,.289,0,.578-.082,.909-2.067,9.838-7.647,14.385-16.328,14.385s-14.054-3.348-14.054-12.772c0-.62,.041-1.24,.082-1.901,.496-7.358,.62-12.773,.744-19.346,0-1.488,1.447-2.231,2.936-2.231,1.529,0,3.1,.826,3.1,2.397v.124Z"/>
    <path d="M372.611,257.739c0-2.397,.124-9.011,2.108-15.377,.455-1.488,1.694-2.108,2.894-2.108,1.488,0,2.935,.951,2.935,2.356,0,.207-.041,.455-.124,.703-1.364,4.464-2.149,10.168-2.149,13.6,0,5.001,1.323,8.102,3.597,8.102,2.025,0,3.803-.992,4.96-4.217,.455-1.281,1.447-1.859,2.48-1.859,1.529,0,3.142,1.24,3.142,3.266,0,.33-.042,.702-.166,1.115-2.479,8.764-5.911,11.574-10.582,11.574-5.787,0-9.094-5.084-9.094-17.154Zm31.664,12.153c-1.943,0-3.886-1.075-3.886-3.101,0-.124,.041-.289,.041-.413,.165-1.529,.289-3.018,.289-4.465,0-6.117-1.694-11.202-5.208-16.079-.372-.496-.537-1.034-.537-1.488,0-1.364,1.322-2.48,2.811-2.48,.868,0,1.736,.372,2.48,1.24,4.753,5.704,7.522,14.179,7.771,23.562,.042,2.108-1.777,3.225-3.761,3.225Z"/>
  </g>
  <path d="M114.648,78.981V34.67h10.68v44.311h-10.68Z"/>
  <path d="M161.736,79.617l-8.249-21.98c-1.365-3.996-2.688-9.812-3.075-12.582l-.17-.015c.41,4.482,.297,12.398-.261,18.852l-1.261,14.602-9.793-.847,3.814-44.146,12.452,1.076,8.327,21.76c1.858,4.895,3.34,10.838,3.485,12.447l.283,.024c-.539-5.635-.336-13.258,.045-17.672l1.33-15.396,9.791,.846-3.813,44.146-12.906-1.115Z"/>
  <path d="M202.357,75.877l-2.229-40.799-13.447,.734-.54-9.875,39.045-2.133,.54,9.875-13.513,.738,2.229,40.799-12.085,.66Z"/>
</svg>