<?xml version="1.0" encoding="UTF-8"?>
<svg id="_レイヤー_1" data-name="レイヤー 1" xmlns="http://www.w3.org/2000/svg" viewBox="0 0 651.016 416.777">
  <defs>
    <style>
      .cls-1 {
        fill: #fff;
        stroke-miterlimit: 10;
        stroke-width: 6px;
      }

      .cls-1, .cls-2 {
        stroke: #000;
      }

      .cls-2, .cls-3 {
        fill: none;
        stroke-width: 7px;
      }

      .cls-3 {
        stroke: #fff;
        stroke-linecap: round;
        stroke-linejoin: round;
      }

      .cls-4 {
        fill: red;
      }
    </style>
  </defs>
  <polygon points="634.664 390.359 17.874 383.811 20.434 87.723 637.224 94.272 634.664 390.359"/>
  <polygon class="cls-1" points="645.402 364.752 37.55 406.135 14.808 111.701 622.66 70.318 645.402 364.752"/>
  <g>
    <polygon class="cls-2" points="271.873 12.859 8.755 28.156 11.917 101.758 142.823 88.571 156.001 101.832 145.218 103.485 190.809 129.529 181.916 103.177 195.85 101.041 186.75 82.344 274.676 69.751 271.873 12.859"/>
    <g>
      <polygon points="278.873 19.859 15.755 35.156 18.917 108.758 149.823 95.571 163.001 108.832 152.218 110.485 197.809 136.529 188.916 110.177 202.85 108.041 193.75 89.344 281.676 76.751 278.873 19.859"/>
      <polygon class="cls-4" points="271.873 12.859 8.755 28.156 11.917 101.758 142.823 88.571 156.001 101.832 145.218 103.485 190.809 129.529 181.916 103.177 195.85 101.041 186.75 82.344 274.676 69.751 271.873 12.859"/>
    </g>
  </g>
  <g>
    <path class="cls-3" d="M83.225,80.559l-2.519-27.418-22.035,2.023,2.519,27.418-15.559,1.43-6.025-65.601,15.559-1.43,2.325,25.315,22.035-2.023-2.325-25.315,15.728-1.444,6.025,65.601-15.728,1.444Z"/>
    <path d="M83.225,80.559l-2.519-27.418-22.035,2.023,2.519,27.418-15.559,1.43-6.025-65.601,15.559-1.43,2.325,25.315,22.035-2.023-2.325-25.315,15.728-1.444,6.025,65.601-15.728,1.444Z"/>
  </g>
  <g>
    <path d="M233.181,231.541c1.365,.318,1.957,1.775,1.957,3.414,0,2.321-1.229,5.007-3.186,5.007-.182,0-.364,0-.546-.046-2.23-.5-4.233-1.411-6.054-2.594-1.912,1.138-4.188,2.048-6.828,2.64-.182,.045-.319,.045-.501,.045-1.183,0-2.094-1.001-2.64-2.275-.273,1.593-2.23,2.367-4.233,2.367-2.094,0-4.188-.91-4.188-2.641,0-.136,.045-.228,.045-.364l.137-.773c-3.141,.956-6.737,1.729-10.423,2.003h-.091c-1.548,0-2.549-2.276-2.549-4.415,0-1.685,.683-3.277,2.139-3.323,.319,0,.637-.045,.956-.045v-12.199h-.865c-1.457,0-2.185-1.047-2.185-2.139,0-1.047,.728-2.14,2.185-2.14h36.55c1.411,0,2.139,1.047,2.139,2.094,0,1.093-.728,2.185-2.139,2.185h-18.48c0,4.644,0,8.057,.546,14.521,.273-.729,.774-1.229,1.457-1.32,.956-.137,1.821-.273,2.64-.455-1.001-1.502-1.866-3.05-2.503-4.598-.137-.272-.182-.546-.182-.818,0-.729,.41-1.366,1.001-1.775h-.273c-1.32,0-1.957-1.093-1.957-2.185,0-1.048,.637-2.14,1.957-2.14h13.792c2.276,0,3.277,1.957,3.277,3.642,0,.318-.046,.637-.091,.91-.546,2.64-1.411,5.007-2.594,7.01l1.73,.409Zm-32.408-18.57c-2.094,0-3.232-1.093-3.232-2.959v-6.919c0-1.911,1.138-2.958,3.232-2.958h27.538c2.048,0,3.277,1.047,3.277,2.958v6.919c0,1.866-1.229,2.959-3.277,2.959h-27.538Zm1.73,5.37v1.229h6.463c0-.41,.046-.819,.046-1.229h-6.509Zm6.281,5.007h-6.281v1.366h6.145l.137-1.366Zm-.546,5.144h-5.735v1.729c1.866-.136,3.732-.363,5.599-.546l.137-1.184Zm17.752-24.488h-22.849v1.047h22.849v-1.047Zm0,3.915h-22.849v1.184h22.849v-1.184Zm-5.371,15.977c1.684,2.321,2.731,3.596,4.37,4.733,1.548-1.184,2.731-2.686,3.55-4.733h-7.92Z"/>
    <path d="M252.987,240.006c-1.047,0-2.094-1.001-2.549-2.094-.637,1.411-2.367,2.094-4.142,2.094-2.185,0-4.37-1.047-4.37-3.231,0-.091,.045-.182,.045-.364,.728-5.325,1.275-10.059,1.639-13.7-.364,.182-.728,.273-1.047,.273-1.593,0-2.959-1.639-2.959-3.141,0-.547,.182-1.093,.683-1.548,2.868-2.549,5.417-5.689,7.283-8.876,.41-.729,1.138-1.047,1.912-1.047,1.411,0,3.004,1.093,3.004,2.412,0,.319-.091,.592-.273,.91-1.047,1.821-2.139,3.505-3.277,5.007l.501,7.329c.137-.319,.364-.638,.683-.865,2.503-1.685,4.506-3.277,6.372-5.188-1.502,.045-2.868,.091-3.869,.091h-.091c-1.411,0-2.139-1.229-2.139-2.458,0-1.047,.637-2.094,2.048-2.094h4.005c1.183-.638,2.412-1.457,3.368-2.23-2.23-1.274-4.552-2.504-7.101-3.732-.865-.409-1.229-1.047-1.229-1.729,0-1.32,1.366-2.731,2.822-2.731,.319,0,.637,.046,.956,.228,.546,.273,1.092,.547,1.639,.911,1.821-1.411,3.414-2.913,4.734-4.461,.455-.547,1.138-.774,1.821-.774,1.548,0,3.232,1.093,3.232,2.367,0,.41-.182,.819-.546,1.229-1.366,1.456-2.913,2.867-4.643,4.142,.865,.546,1.73,1.001,2.503,1.502,2.685-2.003,5.189-4.142,7.419-6.372,.455-.455,1.047-.638,1.639-.638,1.502,0,3.141,1.229,3.141,2.595,0,.501-.228,1.001-.774,1.502-3.596,3.096-7.419,5.872-10.924,7.92,2.003-.091,4.734-.272,6.645-.409-.455-.41-.683-.865-.683-1.32,0-1.229,1.457-2.367,2.868-2.367,.546,0,1.138,.183,1.593,.638,1.957,1.957,3.823,4.142,5.189,5.917,.319,.41,.41,.819,.41,1.229,0,1.365-1.502,2.549-2.913,2.549-.683,0-1.366-.273-1.821-1.002-.273-.409-.637-.956-1.092-1.547-3.004,.363-7.51,.637-11.789,.819l-1.047,1.365h11.607c2.458,0,3.505,1.365,3.505,3.004,0,.638-.182,1.365-.501,2.048-1.001,2.186-2.185,4.324-3.687,6.282,1.73,.363,3.641,.591,5.735,.773,1.365,.137,2.048,1.82,2.048,3.732,0,2.321-1.092,5.098-3.095,5.098-.137,0-.228-.046-.364-.046-4.961-.728-8.739-1.957-11.789-3.459-3.368,1.685-6.554,2.913-12.199,3.459h-.137Zm-10.15-27.901c-1.639,0-3.232-1.502-3.232-2.959,0-.5,.228-1.001,.683-1.411,2.458-2.229,4.552-4.779,5.963-7.328,.455-.864,1.274-1.184,2.139-1.184,1.593,0,3.323,1.139,3.323,2.413,0,.272-.091,.5-.228,.773-2.094,3.596-4.279,6.464-6.964,9.013-.501,.501-1.092,.683-1.684,.683Zm12.335,13.837c-.592,.501-1.229,1.002-1.912,1.457-.501,.364-1.047,.546-1.502,.546-.865,0-1.639-.546-2.094-1.365,.182,2.094,.364,4.278,.637,6.509,.364-1.093,1.183-1.866,2.321-1.912,2.412-.091,3.914-.318,5.508-.773-1.047-1.365-2.003-2.822-2.959-4.461Zm5.052-2.23c1.775,1.685,3.505,3.005,5.326,4.052,2.003-1.093,3.641-2.458,4.916-4.052h-10.241Z"/>
    <path d="M297.601,235.637c-1.32,.956-2.822,1.411-4.324,1.411-5.052,0-8.876-4.552-8.876-12.244,0-12.244,10.059-21.757,23.76-21.757,10.014,0,18.707,6.372,18.707,17.296,0,17.797-17.023,19.208-17.57,19.208-2.868,0-4.825-3.095-4.825-5.826,0-1.82,.91-3.459,3.05-3.823,8.648-1.411,12.836-5.553,12.836-10.515,0-5.644-3.323-9.33-8.694-10.605-1.775,11.425-6.509,21.484-14.065,26.855Zm-6.873-11.971c0,2.094,.956,3.459,2.412,3.459,2.23,0,9.468-5.826,12.517-18.616-9.422,1.184-14.93,8.102-14.93,15.157Z"/>
    <path d="M339.801,219.387c-1.411,0-2.048-1.001-2.048-2.048,0-.318,.046-.592,.137-.865-1.275,.319-2.503,.638-3.778,1.002-.228,.045-.455,.091-.683,.091-1.593,0-2.731-1.456-2.731-2.776,0-.865,.501-1.685,1.73-1.957,6.372-1.411,11.152-2.549,15.521-4.825,.819-.455,1.866-.683,2.959-.683h.273c-.228-.364-.41-.729-.41-1.138s.182-.865,.592-1.229c1.548-1.456,2.913-3.186,3.596-4.552,.455-.864,1.32-1.274,2.276-1.274,1.274,0,2.64,.774,2.64,2.003,0,.091,0,.228-.046,.364h9.331c1.274,0,1.912,1.047,1.912,2.094s-.637,2.094-1.912,2.094h-3.004c.364,.592,.683,1.138,.91,1.593,.136,.319,.228,.592,.228,.911,0,1.274-1.457,2.185-2.822,2.185-.865,0-1.684-.364-2.094-1.184-.728-1.365-1.32-2.595-1.957-3.505h-3.095c-.683,.91-1.547,1.912-2.458,2.64,4.279,2.049,8.921,3.368,14.93,4.644,1.275,.272,1.821,1.138,1.821,2.094,0,1.274-1.001,2.64-2.594,2.64-.228,0-.501,0-.774-.091-1.32-.319-2.594-.638-3.869-1.002,.091,.273,.137,.592,.137,.865,0,1.001-.546,1.911-1.821,1.911h-22.895Zm6.646-13.7c.455,.546,.637,1.047,.637,1.502,0,1.274-1.502,2.094-2.868,2.094-.865,0-1.73-.364-2.048-1.092-.41-.865-.91-1.73-1.411-2.504h-2.048c-1.001,1.502-2.23,2.913-3.55,4.006-.546,.455-1.092,.637-1.639,.637-1.457,0-2.686-1.229-2.686-2.412,0-.455,.182-.91,.683-1.32,2.094-1.775,3.596-4.051,4.506-6.19,.41-.91,1.275-1.319,2.185-1.319,1.32,0,2.731,.864,2.731,2.139v.273h8.694c1.366,0,2.003,1.047,2.003,2.048,0,1.093-.683,2.14-2.003,2.14h-3.186Zm-9.286,33.045c-2.458,0-3.687-1.229-3.687-3.55v-10.424c0-2.139,1.229-3.231,3.687-3.231h27.947c2.503,0,3.778,1.093,3.778,3.231v10.424c0,2.321-1.275,3.55-3.778,3.55h-27.947Zm26.081-12.653h-24.124v4.552h24.124v-4.552Zm-3.232-10.833c-3.141-1.047-6.099-2.275-8.83-3.596-2.685,1.32-5.826,2.549-9.103,3.596h17.934Z"/>
    <path d="M402.576,227.08c0,1.775,.592,2.458,2.048,2.458,2.777,0,6.054-.182,8.466-.455,.136,0,.273-.045,.41-.045,2.048,0,3.141,2.458,3.141,4.87,0,2.321-.956,4.597-3.05,4.824-1.775,.183-4.552,.228-11.061,.228-4.597,0-6.509-2.002-6.509-5.78,0-.546,0-1.093,.091-1.684,.091-.819,.182-1.594,.182-2.23,0-1.184-.228-1.958-.956-1.958-1.775,0-7.237,6.327-10.241,10.697-.956,1.365-2.094,1.957-3.232,1.957-2.549,0-5.098-2.868-5.098-5.689,0-1.139,.455-2.276,1.457-3.232,6.964-6.509,14.656-12.062,21.712-16.158-4.324,.228-11.288,.592-16.978,.592-1.866,0-2.822-1.456-2.822-2.913s.956-2.867,2.913-2.867h.182c1.457,0,2.913,.045,4.37,.045,6.327,0,12.472-.182,19.254-.637h.273c2.185,0,3.232,1.502,3.232,3.004,0,.956-.455,1.957-1.32,2.503-3.778,2.413-7.51,5.554-10.15,8.057,1.73,0,3.687,1.366,3.687,4.143v.272Zm2.321-19.8c-6.327,0-12.881-.728-17.661-1.593-1.73-.318-2.458-1.502-2.458-2.686,0-1.456,1.047-2.913,2.868-2.913,.182,0,.364,0,.546,.046,5.417,.819,10.651,1.502,16.978,1.502,1.957,0,2.868,1.319,2.868,2.686,0,1.456-1.047,2.958-3.141,2.958Z"/>
    <path d="M428.163,238.55c-1.593,0-3.05-.773-3.505-2.64-.683-2.731-.91-6.782-.91-10.697,0-10.65,1.593-17.888,2.868-22.985,.364-1.411,1.593-2.003,2.868-2.003,1.593,0,3.232,.91,3.232,2.412,0,.183-.046,.364-.091,.592-1.775,6.327-2.23,13.063-2.23,15.476,0,4.688,1.001,11.152,2.276,14.839,.137,.409,.228,.773,.228,1.138,0,2.23-2.503,3.869-4.734,3.869Zm31.771-32.545c1.547,0,2.367,1.411,2.367,2.868,0,1.319-.683,2.64-2.185,2.776-1.684,.137-3.641,.318-5.826,.409,.137,4.052,.228,7.784,.273,10.925,6.918,3.049,8.466,4.232,8.466,7.055,0,2.595-1.866,5.28-3.778,5.28-.546,0-1.047-.228-1.548-.683-.956-.911-2.094-1.912-3.323-2.686-.546,6.054-4.87,7.692-10.014,7.692-6.919,0-11.061-3.551-11.061-10.651,0-5.325,3.778-8.921,10.287-8.921,1.548,0,3.277,.318,4.961,.773-.046-2.731-.136-5.508-.228-8.603h-2.913c-2.959,0-6.008-.046-9.058-.137-1.866-.046-2.822-1.548-2.822-3.004,0-1.411,.865-2.731,2.686-2.731h.273c3.277,.183,6.6,.273,9.786,.273h1.912c0-.137-.182-4.779-.182-5.007,0-1.457,1.639-2.276,3.186-2.276,1.411,0,2.776,.683,2.822,2.14l.137,4.916c2.094-.046,3.96-.228,5.508-.41h.273Zm-16.341,19.527c-2.503,0-3.96,.546-3.96,2.094,0,1.593,1.639,2.822,4.734,2.822,2.958,0,3.914-.774,3.914-2.822-1.548-1.366-3.095-2.094-4.688-2.094Z"/>
    <path d="M40.893,283.092c-2.594,0-4.051-2.776-4.051-5.325,0-2.14,1.001-4.051,3.141-4.188,6.873-.41,12.016-1.365,16.477-3.414-3.004-2.686-7.055-5.826-8.967-6.782-.774-.409-1.092-1.001-1.092-1.729,0-1.684,1.866-3.777,3.96-3.777,.501,0,.956,.091,1.457,.364,2.276,1.229,7.283,4.779,10.605,7.692,3.368-3.232,5.098-7.374,5.553-12.199h-16.204c-3.505,4.097-9.741,9.104-12.244,9.104-2.048,0-3.687-1.82-3.687-3.55,0-.865,.41-1.685,1.457-2.23,5.69-2.868,10.514-8.147,12.244-12.562,.455-1.093,1.548-1.594,2.777-1.594,1.73,0,3.641,1.047,3.641,2.641,0,.182,0,.637-.865,2.503h13.564c3.96,0,5.644,1.639,5.644,5.053,0,10.878-6.327,28.493-33.182,29.995h-.228Z"/>
    <path d="M99.389,260.198c-6.737,2.822-14.474,4.87-15.294,4.87-1.957,0-3.232-1.866-3.232-3.596,0-1.229,.637-2.412,2.139-2.776,13.473-3.323,21.894-7.556,29.04-13.974,.774-.684,1.593-.956,2.367-.956,1.866,0,3.505,1.593,3.505,3.322,0,.729-.273,1.457-1.001,2.14-3.232,2.913-6.828,5.553-10.879,7.783,0,0,.137,13.564,1.912,21.394,.683,2.958-2.23,4.733-5.417,4.733-2.64,0-5.189-1.184-5.189-3.687,0-.319,.046-.684,.137-1.047,1.821-7.101,1.912-16.478,1.912-17.979v-.228Z"/>
    <path d="M144.868,279.497c.455,2.686-1.821,4.37-4.87,4.37-2.549,0-5.143-1.274-5.143-3.778,0-.182,0-.364,.046-.592,1.274-7.829,1.365-20.664,1.365-34.138,0-1.639,1.684-2.412,3.414-2.412s3.505,.819,3.505,2.412c0,2.822,0,5.599,.046,8.33,6.054,1.729,14.156,4.188,21.438,7.51,1.183,.547,1.684,1.639,1.684,2.776,0,1.912-1.411,3.96-3.277,3.96-.41,0-.819-.091-1.274-.318-6.236-3.186-13.154-5.871-18.434-7.374,.182,7.602,.592,14.338,1.502,19.254Z"/>
    <path d="M179.103,246.406c0-1.729,1.684-2.549,3.323-2.549,1.684,0,3.323,.819,3.323,2.549v15.294c0,7.783-2.003,16.295-8.33,21.028-.637,.501-1.32,.684-2.003,.684-2.594,0-5.098-3.141-5.098-5.781,0-1.229,.546-2.366,1.866-3.05,5.28-2.686,6.919-7.101,6.919-13.245v-14.93Zm11.197-.137c0-1.729,1.639-2.594,3.323-2.594,1.639,0,3.277,.864,3.277,2.594v24.807c0,.547,.182,.774,.501,.774,.774,0,7.283-2.549,10.15-9.331,.592-1.365,1.593-1.957,2.64-1.957,1.684,0,3.459,1.547,3.459,3.505,0,.318-.046,.637-.137,.955-2.686,9.195-12.745,17.479-18.616,17.479-2.685,0-4.597-1.774-4.597-5.007v-31.225Z"/>
    <path d="M252.938,273.352c2.139,0,3.186,2.275,3.186,4.552s-1.047,4.597-3.004,4.733c-3.823,.319-7.419,.455-10.742,.455-14.247,0-23.214-3.141-23.214-12.653,0-7.465,4.005-11.698,12.244-14.52-.228-3.414-.637-6.646-1.047-10.105,0-.137-.045-.228-.045-.318,0-1.639,1.775-2.549,3.55-2.549,1.639,0,3.232,.819,3.368,2.549,.182,2.959,.364,5.689,.501,8.693,6.782-1.456,14.292-1.957,14.338-1.957,2.185,0,3.323,1.548,3.323,3.096,0,1.411-.956,2.821-2.913,2.958-20.437,1.411-26.673,6.281-26.673,10.696,0,3.96,4.097,5.235,11.789,5.235,4.051,0,9.103-.364,15.066-.865h.273Z"/>
    <path d="M302.376,278.996c0,3.187-1.274,4.734-4.279,4.734-.865,0-1.912-.137-3.141-.41-1.001-.182-1.548-.955-1.775-1.774-.319,.318-.91,.409-1.411,.409-.319,0-.592,0-.819-.091-3.596-1.184-5.872-3.323-7.965-5.599-1.821,2.367-4.005,4.597-9.058,6.1-.182,.045-.364,.091-.501,.091-1.001,0-2.139-.729-2.685-1.775-.046,2.048-2.003,3.095-4.005,3.095-2.048,0-4.142-1.138-4.142-3.322v-.318c.683-6.782,.774-13.746,.774-21.712v-11.562c0-1.911,1.001-2.776,3.095-2.776h12.153c2.094,0,3.141,.865,3.141,2.776v8.33c0,1.866-1.366,2.822-3.368,2.822,.182,.136,.364,.318,.501,.5,.41,.638,.865,1.411,1.229,2.186h5.007l1.183-2.003c.182-.319,.455-.501,.774-.683-2.003,0-3.459-.956-3.459-2.822v-8.33c0-1.911,1.047-2.776,3.095-2.776h12.517c2.094,0,3.141,.865,3.141,2.776v32.135Zm-25.854-30.814h-7.783v1.229h7.783v-1.229Zm0,4.506h-7.783v1.229h7.783v-1.229Zm-4.825,17.979c-1.411,0-2.139-1.047-2.139-2.094,0-1.001,.728-2.048,2.139-2.048h8.557c.046-.456,.091-.774,.091-1.184v-.455h-7.146c-1.457,0-2.185-1.047-2.185-2.094s.728-2.094,2.185-2.094h1.502c-.273-.319-.364-.684-.364-.956,0-.729,.592-1.366,1.365-1.729h-6.964s.319,9.103,1.366,17.888c.273-.773,.774-1.411,1.548-1.593,3.914-1.002,5.826-2.094,7.101-3.642h-7.055Zm25.398-12.653h-7.556c.91,.272,1.548,.91,1.548,1.684,0,.318-.091,.638-.319,1.002h1.502c1.457,0,2.185,1.047,2.185,2.094s-.728,2.094-2.185,2.094h-6.828c0,.592-.046,1.001-.091,1.639h8.557c1.457,0,2.139,1.047,2.139,2.048,0,1.047-.683,2.094-2.139,2.094h-7.101c1.821,1.639,3.96,2.64,6.372,3.141,.774,.182,1.183,.592,1.366,1.184,.228-.091,.41-.137,.683-.137,.137,0,.273,0,.41,.046,.41,.091,.683,.136,.91,.136,.41,0,.546-.182,.546-.546v-16.477Zm0-9.832h-8.193v1.229h8.193v-1.229Zm0,4.506h-8.193v1.229h8.193v-1.229Z"/>
    <path d="M340.572,257.967c-.228-.364-.319-.683-.319-1.001,0-1.229,1.411-2.14,2.731-2.14,.728,0,1.411,.273,1.866,.956,1.411,2.094,2.868,4.733,3.869,7.146,.091,.273,.136,.501,.136,.729,0,1.411-1.548,2.549-2.958,2.549-.819,0-1.548-.364-1.912-1.274-.182-.455-.364-.956-.592-1.411-2.412,.183-5.052,.364-7.783,.501,0,0,.683,9.24,2.003,16.341,.046,.091,.046,.228,.046,.409,0,2.003-2.412,3.004-4.87,3.004s-4.87-1.001-4.87-3.004c0-.182,0-.318,.045-.409,1.32-7.056,2.003-16.067,2.003-16.067-3.55,.182-7.055,.272-10.241,.364h-.091c-1.411,0-2.23-1.32-2.23-2.595,0-1.093,.683-2.185,2.185-2.185,1.957,0,4.005-.046,6.145-.092l2.003-1.411c-2.321-1.365-4.825-2.776-7.51-4.188-.728-.363-1.001-1.001-1.001-1.639,0-1.274,1.229-2.73,2.64-2.73,.364,0,.774,.091,1.138,.318l1.684,.91c1.001-.819,1.957-1.639,2.913-2.503-2.094,.045-4.324,.045-6.645,.045-1.138,0-1.866-.773-2.139-1.638-.546,2.185-1.366,4.506-2.276,6.6,.137,4.415,.546,13.974,1.138,21.575,.091-.183,.182-.319,.319-.455,2.367-2.913,3.778-4.962,5.143-8.512,.41-1.047,1.32-1.502,2.23-1.502,1.32,0,2.685,.955,2.685,2.549v.318c-.364,3.505-1.092,7.51-2.412,11.288-.546,1.593-1.775,2.14-3.141,2.14-1.639,0-3.459-.819-4.461-2.14l.137,1.365c0,.137,.046,.273,.046,.319,0,2.185-2.23,3.276-4.461,3.276-2.185,0-4.415-1.047-4.415-3.231,0-.091,.045-.182,.045-.364,.819-5.962,1.366-12.927,1.73-18.479-.137,.046-.228,.046-.364,.046-1.548,0-2.959-2.186-2.959-3.915,0-.546,.137-1.047,.455-1.411,2.458-2.822,4.415-7.01,5.599-11.925,.228-1.047,1.32-1.548,2.458-1.548,1.32,0,2.685,.637,2.868,1.82,.319-.409,.819-.683,1.502-.683,10.014,0,17.979-.455,23.76-1.047,.182,0,.319-.046,.455-.046,1.639,0,2.594,1.275,2.594,2.458,0,.956-.637,1.866-2.048,2.003-2.913,.318-6.509,.638-10.787,.819-1.821,1.957-3.596,3.596-5.644,5.234,1.001,.547,1.957,1.184,2.959,1.775,2.549-1.912,4.779-3.823,6.919-5.872,.501-.455,1.047-.637,1.639-.637,1.457,0,2.913,1.365,2.913,2.686,0,.455-.182,.91-.592,1.32-2.594,2.412-5.234,4.597-8.102,6.69l6.463-.409-.637-1.093Zm-2.685,9.24c0-1.594,1.365-2.549,2.685-2.549,.91,0,1.821,.455,2.23,1.502,1.365,3.55,2.776,5.599,5.143,8.512,.546,.683,.774,1.365,.774,2.002,0,2.321-2.822,4.279-5.28,4.279-1.365,0-2.594-.547-3.141-2.14-1.32-3.778-2.048-7.783-2.412-11.288v-.318Z"/>
    <path d="M356.191,257.239c-1.639,0-2.549-1.593-2.549-3.095,0-1.229,.637-2.413,2.003-2.504,2.23-.182,4.461-.318,6.646-.409,.182-1.775,.364-3.596,.455-5.508,.046-1.365,1.548-2.094,3.05-2.094s3.004,.729,3.004,2.275c0,.364-.364,3.732-.501,5.008,1.866-.046,3.596-.046,5.143-.046,6.327,0,9.468,2.867,9.468,10.787,0,16.204-3.232,22.167-10.241,22.167-2.776,0-5.052-.683-6.736-1.32-1.32-.5-1.912-2.139-1.912-3.914,0-2.686,1.32-5.689,3.277-5.689,.273,0,.546,.045,.819,.182,1.547,.638,2.685,1.047,4.324,1.047,2.868,0,4.233-3.868,4.233-12.472,0-4.597-1.32-5.279-3.55-5.279-1.593,0-3.505,.045-5.599,.136-.956,8.648-2.549,18.253-7.419,25.672-.683,1.093-1.639,1.548-2.64,1.548-2.412,0-5.052-2.595-5.052-5.325,0-.956,.364-1.958,1.183-2.868,4.188-4.552,6.919-12.062,7.875-18.707-1.639,.137-3.323,.228-5.052,.409h-.228Zm34.502,9.24c-1.001,0-1.866-.455-2.276-1.457-1.639-4.232-4.279-8.921-6.372-11.606-.41-.546-.592-1.093-.592-1.593,0-1.366,1.274-2.413,2.822-2.413,.819,0,1.775,.364,2.549,1.139,2.549,2.549,5.417,6.19,7.783,10.241,.364,.637,.501,1.229,.501,1.775,0,2.229-2.412,3.914-4.415,3.914Zm1.274-13.063c-.637,0-1.32-.273-1.821-.956-1.138-1.502-2.367-2.822-3.323-3.732-.455-.409-.637-.864-.637-1.274,0-.956,.956-1.82,2.094-1.82,.546,0,1.821,.182,5.417,4.733,.319,.41,.455,.774,.455,1.184,0,1.001-1.047,1.866-2.185,1.866Zm4.005-3.187c-.546,0-1.138-.272-1.593-.864-.91-1.138-2.185-2.458-3.095-3.231-.501-.41-.683-.865-.683-1.275,0-.864,.91-1.638,1.957-1.638,.546,0,1.593,.136,4.961,4.051,.319,.364,.455,.773,.455,1.138,0,.956-.956,1.82-2.003,1.82Z"/>
    <path d="M434.305,247.044c1.73,0,2.64,1.319,2.64,2.686,0,1.229-.774,2.458-2.412,2.549-4.734,.364-10.97,.592-17.297,.683l-.136,2.776c1.548-.182,3.141-.318,4.825-.318,7.101,0,17.206,2.958,17.206,14.155,0,8.876-5.144,12.882-14.565,14.247-.228,.046-.41,.046-.637,.046-2.594,0-3.823-2.549-3.823-5.007,0-2.186,.956-4.279,2.822-4.507,6.691-.819,9.923-3.049,9.923-6.964,0-2.776-1.821-4.597-4.688-5.735-5.508,11.926-13.928,20.483-20.801,20.483-5.417,0-8.147-2.641-8.147-8.33,0-10.787,8.785-15.476,12.016-16.613,0-1.548,0-2.731,.046-4.188-2.913,0-5.735-.092-8.33-.183-1.684-.045-2.594-1.456-2.594-2.822,0-1.229,.774-2.458,2.412-2.458h.137c2.64,.137,5.599,.183,8.694,.228,.136-2.549,.228-4.232,3.095-4.232,1.502,0,3.05,.773,3.05,2.139,0,0-.046,1.002-.182,2.049,5.917-.137,11.834-.364,16.432-.683h.319Zm-22.895,15.749c-3.823,1.957-5.963,4.87-5.963,8.056,0,1.685,.455,2.14,2.048,2.14,1.457,0,3.05-.546,4.643-1.411-.364-2.64-.546-5.599-.728-8.784Zm9.695-2.322c-1.366,0-2.686,.092-3.96,.319,.091,2.366,.182,4.552,.364,6.69,2.048-2.048,3.778-4.324,5.28-6.964-.546-.046-1.138-.046-1.684-.046Z"/>
    <path d="M459.664,282.82c-2.367,0-3.55-2.413-3.55-4.643,0-1.775,.774-3.414,2.321-3.505,12.836-1.002,17.569-4.552,17.569-9.194,0-3.323-3.641-5.371-8.512-5.371-5.963,0-10.241,1.365-15.43,3.095-.41,.137-.819,.182-1.138,.182-1.866,0-3.004-1.593-3.004-3.095,0-1.047,.546-2.094,1.821-2.458,5.644-1.639,11.561-2.913,17.934-2.913,8.148,0,14.11,4.233,14.11,10.924,0,9.604-5.917,15.795-21.848,16.979h-.273Z"/>
    <path d="M503.959,253.734c-.774,7.602-1.866,17.843-4.097,26.9-.546,2.14-2.139,3.005-3.914,3.005-2.777,0-5.963-2.14-5.963-4.734,0-.409,.091-.864,.273-1.319,3.459-7.966,6.145-15.84,7.237-23.578-1.821,.046-3.596,.091-5.189,.091-1.775,0-2.64-1.411-2.64-2.867,0-1.411,.865-2.822,2.594-2.822,1.821,0,3.823-.046,5.963-.091,.182-1.047,.273-2.23,.364-3.187,.091-1.32,1.548-2.003,3.004-2.003,1.548,0,3.186,.819,3.186,2.641,0,.5-.137,1.866-.182,2.275l5.462-.318h.319c1.73,0,2.64,1.411,2.64,2.822,0,1.319-.819,2.594-2.594,2.73l-6.463,.455Zm23.487,19.026c1.957,0,3.004,2.23,3.004,4.598,0,2.412-1.138,4.961-3.414,5.098-2.139,.137-4.142,.182-5.963,.182-12.472,0-17.433-3.095-17.433-11.516,0-2.367,0-6.054,3.414-6.054,1.411,0,2.685,.865,2.685,2.549,0,3.823,1.775,5.462,9.968,5.462,2.094,0,4.597-.137,7.556-.318h.182Zm-.501-12.426c-3.05-.183-6.145-.364-9.376-.364-1.866,0-3.732,.045-5.69,.182h-.228c-1.775,0-2.731-1.502-2.731-3.004,0-1.365,.819-2.686,2.549-2.776,2.094-.183,4.279-.228,6.463-.228,3.232,0,6.418,.137,9.331,.364,1.639,.136,2.367,1.456,2.367,2.821,0,1.457-.91,3.005-2.549,3.005h-.137Z"/>
    <path d="M540.015,260.243c0-5.143,.41-10.195,1.047-15.248,.182-1.456,1.593-2.139,3.095-2.139,1.639,0,3.323,.864,3.323,2.458,0,.182,0,.318-.046,.5-.546,2.868-1.001,6.327-1.229,9.604,.865-1.821,6.008-12.427,15.066-12.427,5.007,0,10.469,3.505,10.469,16.705,0,14.475-3.823,24.261-21.712,24.261-2.549,0-4.005-2.731-4.005-5.325,0-2.321,1.138-4.507,3.687-4.507,13.427,0,15.885-6.418,15.885-14.429,0-8.375-2.276-11.242-4.961-11.242-.91,0-1.821,.318-2.731,.819-3.641,2.094-8.739,12.062-11.015,18.935-.455,1.411-1.912,2.14-3.323,2.14-1.639,0-3.186-.91-3.277-2.822-.182-2.458-.273-4.916-.273-7.283Z"/>
    <path d="M587.906,254.827c.455-6.19,5.007-10.651,13.792-10.651,9.604,0,13.473,4.916,13.473,10.06,0,1.411-.319,2.867-.865,4.233-1.912,4.688-9.513,6.418-9.513,10.605,0,1.593-1.593,2.412-3.186,2.412-1.73,0-3.505-.91-3.505-2.549,0-7.191,8.967-9.194,10.378-12.745,.228-.546,.319-1.047,.319-1.593,0-2.595-2.458-4.962-7.055-4.962-4.324,0-7.465,1.821-7.829,5.599-.136,1.503-1.548,2.23-2.958,2.23-1.502,0-3.05-.864-3.05-2.458v-.182Zm13.564,28.13c-2.686,0-4.87-2.14-4.87-4.734,0-2.686,2.185-4.87,4.87-4.87s4.87,2.185,4.87,4.87c0,2.595-2.185,4.734-4.87,4.734Z"/>
  </g>
  <path d="M114.649,78.981V34.67h10.68v44.311h-10.68Z"/>
  <path d="M161.737,79.617l-8.249-21.98c-1.365-3.996-2.688-9.812-3.075-12.582l-.17-.015c.41,4.482,.297,12.398-.261,18.852l-1.261,14.602-9.793-.847,3.814-44.146,12.452,1.076,8.327,21.76c1.858,4.895,3.34,10.838,3.485,12.447l.283,.024c-.539-5.635-.336-13.258,.045-17.672l1.33-15.396,9.791,.846-3.813,44.146-12.906-1.115Z"/>
  <path d="M202.358,75.877l-2.229-40.799-13.447,.734-.54-9.875,39.045-2.133,.54,9.875-13.513,.738,2.229,40.799-12.085,.66Z"/>
</svg>