<?xml version="1.0" encoding="UTF-8"?>
<svg id="_レイヤー_1" data-name="レイヤー 1" xmlns="http://www.w3.org/2000/svg" viewBox="0 0 600 241.156">
  <defs>
    <style>
      .cls-1, .cls-2 {
        fill: #fff;
      }

      .cls-3 {
        fill: #0a0a0a;
      }

      .cls-2 {
        stroke: #000;
        stroke-miterlimit: 10;
        stroke-width: 3px;
      }
    </style>
  </defs>
  <g>
    <rect class="cls-3" x="55.509" y="181.088" width="488.981" height="43.774" rx="21.887" ry="21.887"/>
    <g>
      <path class="cls-1" d="M155.992,211.582h11.072c6.595-.07,8.816-2.538,8.675-9.591v-14.67h6.418v13.965c0,6.347-.705,9.38-2.785,11.954-2.363,2.927-6.312,4.372-11.849,4.372h-11.531v-6.03Zm.035-24.119h6.418v19.183h-6.418v-19.183Z"/>
      <path class="cls-1" d="M191.509,212.534h4.479c4.725,.036,5.889-1.163,5.889-6.101v-6.664h8.569c2.75-.106,3.772-1.129,3.808-3.809v-1.552h-22.779v-5.994h28.81v8.04c0,5.677-3.35,8.851-9.556,8.991h-2.539c-.142,5.36-.635,7.194-2.434,9.451-1.834,2.187-4.479,3.35-7.546,3.35h-6.7v-5.713Z"/>
      <path class="cls-1" d="M226.779,211.758c3.421-1.022,4.514-2.927,4.726-8.075v-15.903h5.995v15.339c.141,8.957-3.668,14.423-10.721,15.34v-6.7Zm14.6-23.979h6.101v23.238c4.901-.247,5.536-1.129,5.606-8.005v-8.252h5.924v9.098c0,5.925-.705,8.569-2.855,10.614-2.257,2.081-4.831,2.856-9.451,2.892h-5.324v-29.585Z"/>
      <path class="cls-1" d="M263.566,213.169c1.27-.846,1.764-2.045,1.834-4.584v-21.229h12.412v26.659c.142,3.314-1.198,4.584-4.831,4.514h-2.433v-5.36h2.151v-5.642h-2.187c-.106,7.018-2.01,10.227-6.947,11.707v-6.065Zm9.134-17.808v-2.962h-2.081v2.962h2.081Zm0,7.723v-3.421h-2.081v3.421h2.081Zm5.395,10.474c1.517-.917,2.187-1.869,2.681-3.809,.211-.882,.317-2.046,.317-3.456v-.635h-2.116v-14.034h2.01l-1.763-4.62h5.642l1.622,4.62h1.411l1.868-4.62h5.854l-2.257,4.62h2.503v10.825c.106,2.222-.563,2.997-2.785,3.209v7.405h1.34c1.022-.035,1.375-.247,2.327-1.481v5.89c-1.093,.811-1.798,1.022-3.279,1.058h-2.574c-2.434,0-3.35-.812-3.279-2.997v-9.874h-1.446c-.141,4.937-.67,7.158-2.292,9.662-1.41,2.01-3.597,3.491-5.783,3.949v-5.712Zm12.096-12.589v-4.55h-6.065v4.55h6.065Z"/>
      <path class="cls-1" d="M302.01,204.565h5.924v8.146h6.524v-10.227h-11.284v-14.034h6.064v8.78h5.22v-10.544h6.136v10.544h5.007v-8.78h5.925v8.604c.035,4.196-1.094,5.325-5.396,5.431h-5.536v10.227h6.171v-8.146h5.818v7.334c0,4.973-.987,6.03-5.713,6.03h-24.86v-13.364Z"/>
      <path class="cls-1" d="M341.582,212.64h5.959c5.22,.105,7.864-2.821,7.864-8.71v-3.703h-7.265c-2.186,3.386-5.395,5.748-8.675,6.348v-6.665c3.985-1.798,5.678-5.007,6.312-12.06h5.924c-.246,3.032-.423,4.267-.987,6.523h18.584v5.854h-7.828v3.773c.07,9.027-4.514,14.034-12.73,14.034h-7.158v-5.395Zm20.276-25.107h3.35v5.431h-3.35v-5.431Zm4.337,0h3.351v5.431h-3.351v-5.431Z"/>
      <path class="cls-1" d="M376.923,199.875h28.881v5.995h-28.881v-5.995Z"/>
      <path class="cls-1" d="M412.688,211.829h1.516l9.204-24.543h6.735l-9.45,24.543h14.211c1.198,0,1.939-.423,1.939-1.093,0-.353-.142-.952-.389-1.622l-3.385-8.816h6.771l3.491,9.381c.458,1.198,.67,2.15,.67,3.032,0,1.375-.529,2.68-1.375,3.35-1.341,1.059-3.068,1.376-7.229,1.376h-22.709v-5.607Z"/>
    </g>
  </g>
  <g>
    <polygon points="580.518 144.791 469.016 168.847 455.132 51.111 561.818 58.129 580.518 144.791"/>
    <polygon points="469.578 159.007 355.511 159.007 366.768 40.99 475.504 29.028 469.578 159.007"/>
    <polygon class="cls-2" points="377.217 154.582 303.06 152.12 307.038 90.479 364.13 95.148 377.217 154.582"/>
    <polygon points="305.058 152.038 199.287 162.466 191.603 47.013 272.842 39.374 307.478 76.803 305.058 152.038"/>
    <polygon points="125.252 145.041 19.482 155.469 35.366 42.622 125.252 25.49 125.252 145.041"/>
    <polygon points="221.898 159.007 124.88 148.02 111.705 42.833 191.28 60.311 221.898 159.007"/>
    <path class="cls-1" d="M44.493,93.644l-9.127-1.854,4.148-26.252,9.128,1.75-4.149,26.355Zm73.202,20.384l-35.771,2.779v23.37l-6.178,5.044-16.778-6.074,2.673-9.06,10.787,3.912v-16.472l-35.218,2.78-.646-9.472,35.863-2.779v-5.147l12.723-10.707-32.083,2.471-.554-9.06,43.885-3.397,2.857,8.133-17.332,14.413v2.574l35.219-2.78,.553,9.472Zm-62.784-45.71l-7.007-13.486,8.021-5.148,7.19,13.898-7.19,4.633,34.48-2.677,8.941-17.811,8.021,4.942-5.992,12.045,14.475-1.235,4.057,7.619-10.787,18.016-7.283-5.456,6.178-10.398-57.622,4.53-.554-9.06,5.071-.412Zm20.56-2.265l-7.283-13.898,8.02-5.148,7.191,14.001-7.928,5.044Z"/>
    <path class="cls-1" d="M165.904,85.813c-1.543-1.456-2.277-2.365-2.277-2.365l3.527-9.55,9.26,3.638-2.5-6.913,4.41-3.457s3.674,4.821,5.291,8.459l-4.189,3.093,15.139,5.912-4.85,15.827c-4.482-1.819-8.379-3.729-11.611-5.639,1.91,7.913,2.719,14.553,2.719,20.102,0,19.465-10.508,29.561-22.781,29.561-16.975,0-22.412-11.916-22.412-26.56,0-8.823,1.984-18.646,4.629-27.56h-11.979v-11.825h26.971c-4.336,29.743-5.586,49.663-5.586,49.663h16.24v-42.386Zm20.062-8.095l-3.674-9.46,4.408-3.274s3.895,4.184,5.438,8.095l-6.172,4.639Z"/>
    <path class="cls-1" d="M207.3,100.073c-3.621,.155-5.65-2.387-5.766-5.109-.113-2.623,1.691-5.328,5.312-5.482l33.543-1.431-.168-3.933-20.766,.886c-3.727,.159-5.643-2.286-5.756-4.908-.043-1.008,.234-2.03,.732-2.86l-6.938,2.418c-.631,.229-1.371,.361-2.012,.388-3.939,.168-6.641-3.151-6.779-6.379-.104-2.421,1.186-4.699,4.346-5.642,12.748-3.777,23.34-8.07,34.301-13.69,2.926-1.438,5.344-2.249,7.9-2.358,2.557-.109,5.248,.483,8.498,1.659,11.27,4.066,23.15,7.499,36.189,10.581,3.232,.771,4.713,2.931,4.816,5.352,.143,3.328-2.375,6.87-6.422,7.043-.744,.032-1.6-.032-2.465-.298-1.836-.528-3.775-.95-5.615-1.58,.455,.689,.707,1.587,.742,2.394,.107,2.522-1.586,5.322-5.314,5.481l-21.828,.932,.168,3.933,32.797-1.4c3.727-.159,5.65,2.387,5.762,5.01,.117,2.723-1.582,5.423-5.309,5.582l-79.971,3.413Zm9.496,42.538c-5.75,.246-8.75-2.558-8.975-7.802l-.998-23.399c-.211-4.942,2.561-7.486,8.311-7.731l65.488-2.795c5.857-.25,8.941,2.044,9.152,6.986l1,23.399c.223,5.244-2.633,8.297-8.49,8.547l-65.488,2.795Zm60.287-29.653c-.004-.101-.225-.294-.332-.289l-56.543,2.413c-.107,.004-.311,.216-.307,.316l.354,8.271s.225,.293,.332,.289l56.543-2.413c.107-.005,.307-.316,.307-.316l-.354-8.271Zm-4.068-40.344c-8.865-2.755-18.084-6.302-26.447-9.784-.217-.093-.322-.088-.537-.079-.105,.005-.213,.009-.314,.115-7.713,4.269-16.174,8.469-24.879,11.974l18.955-.809-.107-2.521c-.129-3.025,3.213-4.685,6.621-4.83,3.406-.146,6.879,1.223,7.008,4.248l.107,2.521,19.594-.836Z"/>
    <path d="M335.292,138.427l-.289,.383c-2.395,3.173-5.018,4.554-7.848,4.675-4.041,.172-13.201-2.188-13.84-17.142-.643-15.06,8.377-26.667,24.543-27.357l.404-.017c16.926-.722,22.748,12.37,23.152,21.828l.045,1.057c-.045,9.636-3.652,21.172-21.535,24.316l-4.633-7.743Zm-3.617-29.013c-7.883,3.884-8.504,13.067-8.355,16.502,.133,3.117,.996,5.569,2.385,6.091,.051-.002,.154,.046,.256,.042,.404-.018,.895-.356,1.031-.732,2.789-5.783,4.086-15.738,4.684-21.903Zm5.025,26.465c9.137-1.767,14.6-5.387,14.182-15.215-.27-6.288-3.631-10.327-8.152-11.933-1.406,13.294-3.807,22.29-6.029,27.148Z"/>
    <path class="cls-1" d="M457.736,154.439l-77.344-23.485-13.979,9.489-6.42-7.95,21.324-14.333-10.902-10.166,13.047-15.173-16.482-.641,.078-9.433,26.291,.994,3.994,7.686-13.857,16.078,8.924,8.431-.561,7.409-1.371,.921,70.186,21.172-2.928,9.002Zm-64.404-80.967l-16.885-15.792,7.52-6.769,16.885,15.792-7.52,6.769Zm3.41,39.729l27.803-19.411-21.791-1.854,.691-9.032,25.109,2.149,4.395-29.105,10.955,1.654-4.291,28.403,27.314,2.379-.678,8.931-27.984-2.378-1.818,12.043,6.648-5.463,20.428,20.535-7.443,6.267-19.861-19.833-3.41,22.582-10.953-1.654,3.697-24.489-22.551,15.791-6.26-7.515Zm21.434-33.616l-11.127-15.333,8.387-5.098,11.129,15.333-8.389,5.098Zm33.746,3.556l-7.521-6.576,13.775-13.318,7.521,6.577-13.775,13.317Z"/>
    <path class="cls-1" d="M552.9,146.948c.148,3.47-2.781,4.438-7.766,4.967-.648,.028-1.291,.161-1.846,.185-3.242,.138-5.773-.491-5.908-3.646l-.008-.21c-.041-.946-.002-2.212-.043-3.158l-32.865,1.402,.115,2.733c.141,3.26-2.967,4.341-7.953,4.871-.74,.031-1.479,.168-2.219,.2-3.24,.138-5.396-.403-5.521-3.347l-.018-.421c-.16-5.893-.002-13.062-.271-19.373-.236-5.572-.629-10.402-1.301-13.112-.23-1.043-.354-1.777-.373-2.197-.035-.841,.141-1.06,.604-1.08,.277-.012,.654,.078,1.217,.264,6.779,2.344,15.746,5.965,15.746,5.965l3.146-.134c.385-4.02,.789-7.619,.613-11.72l-.045-1.052-1.297,.055c-.85,1.829-3.146,2.348-7.025,2.724-.648,.027-1.385,.165-1.939,.188-3.24,.139-5.586-.498-5.709-3.339l-.012-.315c-.084-4.104,.01-8.428-.16-12.424-.107-2.524-.305-4.938-.49-7.143-.67,1.713-1.197,2.369-2.088,3.249-1.51,1.539-3.242,2.246-4.908,2.317-3.889,.166-7.477-3.474-7.666-7.891-.053-1.261,.166-2.641,.668-3.926,2.602-6.432,9.16-2.708,9.35-13.462,.049-1.056,.396-1.597,.859-1.617,.463-.02,.943,.381,1.346,1.102,.803,1.44,1.629,3.407,2.279,5.591l17.775-.758c.047-1.056-.002-2.212-.043-3.159-.098-2.313-.365-4.198-.705-5.658-.336-1.356-.65-2.185-.668-2.606-.021-.525,.252-.643,.807-.667,.186-.008,.467,.085,.838,.07,4.273,.134,11.428,.46,16.551,.979,1.307,.154,1.99,.969,2.031,1.915,.035,.841-.572,1.814-1.666,2.283-1.453,.694-2.367,1.049-2.309,2.417l.162,3.785,15.184-.648c1.018-.043,1.473-.272,2.09-1.038,1.145-1.418,3.004-3.5,4.244-4.815,.354-.437,.715-.664,1.178-.683,.371-.016,.842,.175,1.322,.577,2.982,2.505,7.418,6.425,10.127,9.049,1.164,1.215,1.871,2.554,1.93,3.921,.076,1.787-1.061,3.417-3.469,3.52-.461,.02-.832,.035-1.299-.05-.746-.074-1.492-.147-2.139-.119-2.594,.111-4.58,1.354-7.75,3.175,.574,.397,1.051,.693,1.533,1.093,.863,.702,1.455,1.519,1.494,2.465,.037,.841-.391,1.701-1.377,2.482-1.438,1.115-2.34,1.68-2.334,3.997,.059,1.367,.029,2.844,.1,4.525,.068,1.577,.32,3.147,.393,4.829l.023,.526c.129,3.05-2.428,4.001-7.32,4.527-.74,.032-1.479,.168-2.219,.2-2.684,.114-4.559-.333-5.102-2.206l-4.908,.209c-2.668,4.854-6.928,9.357-11.213,13.226l18.979-.81c1.02-.043,1.467-.378,2.002-.928,1.686-1.758,4.172-4.393,5.863-6.045,.355-.331,.814-.457,1.277-.476,.463-.02,1.023,.062,1.498,.357,2.859,1.775,7.244,4.538,9.939,6.846,.768,.598,1.455,1.517,1.496,2.463,.035,.843-.303,1.594-1.379,2.482-1.793,1.446-2.432,1.685-2.328,4.103,.094,2.208,.127,5.157,.262,8.312,.135,3.154,.469,6.616,.604,9.771l.014,.315Zm-60.588-70.001c.23,1.043,.51,3.245,.555,4.295,5.549,1.765,14.689,5.167,14.689,5.167l19.814-.846c1.018-.043,1.561-.381,2.092-.932,1.594-1.753,3.732-3.846,5.332-5.495,.355-.331,.811-.561,1.273-.581,.463-.02,1.027,.167,1.504,.462,.951,.591,2.002,1.284,3.246,2.179,.484-1.707,.918-4.569,1.305-6.377l-49.811,2.126Zm11.135,47.881c.02,2.632,.141,5.473,.27,8.521,.131,3.05,.354,6.096,.488,9.25l33.053-1.411c-.047-3.264-.178-6.313-.303-9.258-.131-3.049-.252-5.89-.549-8.51l-32.959,1.407Zm3.162-34.584c.014,2.527,.109,4.735,.207,7.049,.096,2.208,.193,4.521,.395,7.042l23.422-1c-.02-2.633-.021-4.846-.107-6.844-.102-2.419-.289-4.623-.494-7.247l-23.422,1Z"/>
  </g>
</svg>