<?xml version="1.0" encoding="UTF-8"?>
<svg id="_レイヤー_1" data-name="レイヤー 1" xmlns="http://www.w3.org/2000/svg" viewBox="0 0 444.92 302.712">
  <defs>
    <style>
      .cls-1 {
        fill: #fff;
      }

      .cls-2 {
        fill: none;
        stroke: #000;
        stroke-width: 11px;
      }

      .cls-3 {
        fill: red;
      }
    </style>
  </defs>
  <g>
    <path class="cls-1" d="M78.443,254.621c-3.301,.436-6.659,.685-9.903,.685-1.451,0-2.846-.031-4.212-.155-4.752-.405-7.057-3.083-7.057-6.291,0-1.744,.683-3.675,2.021-5.45l4.411,1.713c-1.11,1.277-1.736,2.367-1.736,3.208,0,1.619,2.277,2.056,6.375,2.056,2.96,0,6.261-.405,9.761-1.34l.341,5.575Zm-13.887-16.351c.683-.436,1.48-.966,2.106-1.464-2.419-.031-5.009-.093-7.285-.218l.028-5.014c2.134,.404,5.065,.561,8.053,.561,2.703,0,5.435-.125,7.627-.374l1.594,3.986c-2.675,1.464-5.521,3.146-8.31,5.294l-3.813-2.771Z"/>
    <path class="cls-1" d="M92.077,250.946h.199c6.005,0,8.907-4.174,8.907-8.16,0-3.052-1.708-5.979-5.037-6.883-.939,5.481-2.789,11.804-4.439,14.855-1.508,2.771-3.415,4.018-5.179,4.018-4.012,0-5.578-5.419-5.578-9.529,0-7.631,5.065-14.232,12.92-14.232,8.11,0,12.038,5.917,12.038,12.021,0,5.918-3.756,11.99-10.928,12.8l-2.903-4.889Zm-6.659-5.513c0,1.775,.484,3.644,1.224,3.644,1.537,0,3.87-7.506,4.752-13.08-3.87,1.277-5.976,5.574-5.976,9.437Z"/>
    <path class="cls-1" d="M112.057,250.883v-15.229h4.553v-1.184h-9.989v-4.453h24.787v4.453h-10.103v1.184h4.61v15.229h-13.859Zm14.684,6.26v-.966h-15.453v.966h-4.126v-21.521h4.126v16.164h15.453v-16.164h4.126v21.521h-4.126Zm-9.505-17.721h-1.651v2.087h1.651v-2.087Zm0,5.481h-1.651v2.211h1.651v-2.211Zm5.151-5.481h-1.736v2.087h1.736v-2.087Zm0,5.481h-1.736v2.211h1.736v-2.211Z"/>
    <path class="cls-1" d="M151.587,257.143v-.935h-13.859v.935h-4.553v-21.178h8.338c.142-.343,.37-.965,.484-1.276h-10.159v-4.672h25.612v4.672h-10.472c-.114,.373-.313,.934-.427,1.276h9.59v21.178h-4.553Zm-12.379-16.693h-1.48v11.243h1.48v-11.243Zm6.631,0h-2.362v1.371h2.362v-1.371Zm0,4.952h-2.362v1.339h2.362v-1.339Zm0,4.921h-2.362v1.37h2.362v-1.37Zm5.748-9.873h-1.48v11.243h1.48v-11.243Z"/>
    <path class="cls-1" d="M180.417,256.053c-2.22,.187-4.781,.373-7.257,.373-7.769,0-10.017-2.148-10.017-5.45,0-3.768,3.386-5.886,7.598-7.63-.171-.685-.655-.903-1.195-.903-1.821,0-5.179,2.679-7.683,7.786l-3.756-3.8c2.59-2.865,4.639-5.948,6.204-8.969-1.622,.031-3.273,.062-4.895,.094l-.171-4.921c1.48,.094,3.33,.124,5.293,.124h1.85c.398-1.183,.74-2.304,.996-3.363l4.809,.717c-.313,.872-.626,1.713-.911,2.491,2.362-.125,4.582-.312,6.375-.561l-.142,4.858c-2.362,.124-4.838,.249-8.167,.374-.228,.498-.484,.996-.711,1.433,.484-.188,1.138-.312,1.85-.312,2.988,0,4.098,1.837,4.468,3.332,1.679-.623,3.386-1.246,4.923-1.993l2.96,4.298c-2.248,.841-4.952,1.525-7.456,2.273v1.152c0,.996,0,2.117-.028,3.363l-4.61,.28c0-1.121,.028-2.087,.028-3.301-1.935,.778-3.273,1.682-3.273,2.803,0,.062,.028,.124,.028,.218,.114,.716,1.935,1.027,4.269,1.027,2.846,0,6.46-.467,8.737-1.245l-.114,5.45Z"/>
    <path class="cls-1" d="M204.153,255.866c-2.049-2.709-4.866-5.605-7.57-7.692-2.618,2.928-5.777,5.544-9.789,8.004l-4.041-3.955c9.419-4.267,13.916-10.744,15.851-15.509-3.813,0-8.964,.062-11.952,.155l-.028-5.17c2.106,.125,5.037,.218,8.11,.218,2.504,0,5.122-.062,7.513-.155l2.561,2.305c-1.394,3.8-3.102,7.225-5.293,10.401,3.159,2.367,6.46,5.232,8.68,7.475l-4.041,3.924Z"/>
    <path class="cls-1" d="M209.449,252.689c5.464-1.339,9.363-3.301,12.208-5.729-1.622-1.402-3.643-2.834-5.322-3.831l3.301-3.457c1.594,.935,3.614,2.336,5.322,3.644,1.138-1.619,2.021-3.426,2.732-5.325-3.244,0-5.749,.062-8.253,.156-1.736,2.46-3.842,4.765-6.517,7.162l-3.899-3.456c4.582-3.115,8.48-8.16,9.732-12.582l4.895,1.37c-.427,.965-.882,1.899-1.394,2.834,.911,0,1.907,.031,2.931,.031,2.049,0,4.24-.062,6.318-.218l2.134,2.148c-3.728,11.243-8.423,17.689-20.546,21.52l-3.643-4.267Z"/>
    <path class="cls-1" d="M239.674,244.655c-.484-2.367-1.451-5.388-2.447-7.506l3.728-1.246c.968,2.024,1.992,4.766,2.561,7.163l-3.842,1.589Zm.171,8.688c10.33-2.397,12.635-8.408,13.233-17.876l4.126,.654c-.911,10.37-4.126,17.471-14.314,20.959l-3.045-3.737Zm5.521-9.623c-.285-2.46-.968-5.574-1.708-7.537l3.899-.81c.683,1.807,1.366,4.734,1.85,7.194l-4.041,1.152Z"/>
    <path class="cls-1" d="M263.979,251.848c8.936-1.806,14.001-7.661,15.054-15.042-4.326,0-12.351,.062-16.932,.312l-.085-5.201c2.163,.062,5.72,.125,9.334,.125,3.984,0,8.054-.062,10.529-.156l2.504,2.056c-1.508,11.804-6.574,19.216-16.534,22.299l-3.87-4.392Z"/>
    <path class="cls-1" d="M294.659,247.083c-1.053,2.834-1.821,5.201-2.447,6.789-.569,1.495-1.366,2.242-2.134,2.242-2.874,0-2.874-9.062-2.874-10.121,0-5.419,.911-11.305,1.651-15.479l4.724,.935c-1.651,4.329-2.248,10.932-2.248,14.419,0,.748,0,1.869,.228,1.869,.199,0,.569-.592,1.338-2.398l1.764,1.744Zm15.481,7.35c-2.021,.28-4.382,.405-6.346,.405-3.187,0-8.509-.062-8.509-5.575,0-1.183,.256-2.522,.74-4.079l4.155,.903c-.37,.996-.541,1.713-.541,2.211,0,1.059,.484,1.588,3.785,1.588,1.935,0,4.069-.28,6.574-.996l.142,5.543Zm-.939-16.724c-2.22,.218-4.809,.312-7.342,.312-1.907,0-3.756-.062-5.464-.155v-4.983c1.878,.218,4.098,.343,6.318,.343,2.362,0,4.695-.125,6.602-.374l-.114,4.858Z"/>
    <path class="cls-1" d="M328.128,256.551c-2.021,0-3.102-1.184-3.102-3.612v-4.952h-1.85c-.683,3.52-3.301,7.941-9.476,9.156l-2.504-4.578c4.639-.966,6.488-2.647,7.114-4.578h-4.696v-17.97h20.689v17.97h-4.724v3.146c0,.249,.028,.436,.427,.436h1.338c.455,0,.825-.031,.825-1.214v-2.242l4.582,1.837c0,6.571-1.878,6.603-4.923,6.603h-3.699Zm1.622-22.174h-11.582v.934h11.582v-.934Zm0,4.142h-11.582v.935h11.582v-.935Zm0,4.174h-11.582v.934h11.582v-.934Z"/>
    <path class="cls-1" d="M358.438,255.181c-2.504,.155-4.923,.218-6.944,.218-6.403,0-9.363-.374-9.363-6.322v-.529c.057-2.118,.114-4.641,.142-7.412-1.821,.062-3.643,.125-5.407,.218l-.171-4.92h5.635v-5.544l4.809,.187c-.057,1.807-.114,3.582-.171,5.326,1.764,0,3.529-.031,5.322-.062-.029-2.118-.057-4.329-.085-6.229l4.724,.062c-.028,1.837-.057,3.706-.142,6.072,1.935-.062,3.813-.093,5.606-.155l-.085,4.858c-1.793-.031-3.7-.031-5.606-.031v2.865c0,2.896-.228,5.45-5.606,5.45-.484,0-1.024-.031-1.594-.062l-1.167-5.326c1.281,.219,2.134,.343,2.732,.343,.968,0,1.138-.343,1.167-1.184,.028-.591,.028-1.276,.057-2.055-1.821,.031-3.671,.031-5.492,.093-.085,2.522-.171,4.797-.171,6.665,0,2.865,.512,2.896,4.382,2.896,2.163,0,4.895-.125,7.684-.592l-.256,5.17Z"/>
    <path class="cls-1" d="M382.26,255.834c-8.623,0-13.091-3.021-14.058-8.813-.085-.498-.114-1.027-.114-1.525,0-3.551,1.992-6.728,4.183-8.378-3.643,.249-5.834,.498-9.163,.872l-.512-5.325c6.118,0,18.867-.686,23.108-1.309l.968,5.107h-.171c-8.452,0-13.66,4.641-13.66,8.845,0,3.271,3.614,5.264,8.224,5.264,.968,0,1.964-.062,2.988-.249l-.882,5.512h-.911Z"/>
    <path class="cls-1" d="M60.486,289.415c2.476-.187,5.407-1.276,6.318-2.74-.256,.031-.484,.031-.711,.031-3.102,0-5.122-2.242-5.122-5.854v-.156c.057-3.612,2.191-6.042,5.948-6.042h.341v-.872c-5.009,.031-9.789,.094-11.582,.188l-.057-4.827c2.106,.093,6.659,.124,11.525,.124,0-.903-.028-1.806-.028-2.74l4.724,.062c0,.685-.028,1.463-.028,2.646,3.529-.031,6.773-.093,8.68-.155l-.085,4.858c-1.821-.125-5.065-.156-8.651-.156v1.309c0,1.059,0,2.117,.028,3.207,.541,.811,.768,2.243,.768,3.831,0,6.789-3.358,10.495-8.964,12.177l-3.102-4.89Zm7.001-9.031c0-1.276-.228-1.276-.968-1.276-1.081,0-1.451,.778-1.451,1.525,0,.841,.37,1.526,1.224,1.526,.911,0,1.195-.966,1.195-1.775Z"/>
    <path class="cls-1" d="M104.826,288.294c-.996-.716-2.134-1.463-3.33-2.18-1.764,3.457-4.183,5.948-6.972,7.941l-3.842-4.235c2.618-1.027,4.923-3.083,6.602-5.979-1.195-.561-2.419-1.059-3.586-1.464-.626,1.309-1.252,2.616-2.021,4.08-1.679,3.208-4.013,4.578-6.118,4.578-2.618,0-4.838-2.149-4.838-5.388,0-.094,.114-8.596,8.879-8.596,.455,0,.939,.031,1.423,.062,.598-1.34,1.195-2.772,1.821-4.205-2.675,.125-4.923,.219-7.484,.374l-.171-5.045c1.167,.031,2.447,.062,3.728,.062,2.789,0,5.606-.094,7.427-.405l2.732,2.865c-1.48,2.896-2.561,5.232-3.5,7.35,1.167,.343,2.362,.778,3.586,1.309,.37-1.34,.655-2.865,.768-4.485l4.496,1.277c-.256,1.868-.598,3.581-1.053,5.139,1.338,.653,2.59,1.37,3.785,2.024l-2.333,4.92Zm-19.778-3.207c0,.592,.313,.965,.768,.965,.911,0,1.793-1.557,3.159-4.422-3.358,.187-3.927,2.865-3.927,3.457Z"/>
    <path class="cls-1" d="M116.24,294.461c-.398-4.08-1.679-9.686-3.301-14.887-1.594,.747-3.273,1.619-5.009,2.585l-1.878-4.983c1.907-.81,3.671-1.557,5.35-2.304-.797-2.149-1.622-4.143-2.391-5.762l4.61-1.775c.655,1.588,1.366,3.551,2.106,5.73,.996-.374,2.021-.748,3.016-1.09-.825-1.526-1.764-2.865-2.646-3.831l4.126-1.899c.882,1.09,1.964,2.616,2.988,4.547,.598-.125,1.167-.156,1.707-.156,4.383,0,6.773,3.582,6.773,7.257,0,3.893-2.703,7.91-8.651,7.91-.541,0-1.138-.031-1.736-.094l-1.622-5.512c1.338,.373,2.476,.529,3.415,.529,2.931,0,4.212-1.495,4.212-2.928,0-1.09-.74-2.148-2.077-2.522,.228,.623,.455,1.37,.655,2.087l-4.411,1.744c-.199-.935-.455-1.9-.797-2.834-1.053,.342-2.22,.778-3.472,1.308,1.537,4.983,3.017,10.589,3.899,15.479l-4.866,1.401Z"/>
    <path class="cls-1" d="M140.147,287.049c1.338,.155,2.333,.343,3.045,.343,.996,0,1.451-.374,1.565-1.683,.199-2.117,.37-5.325,.427-7.381v-.124c0-.841-.285-1.121-1.138-1.121h-.142c-.427,0-.882,.031-1.764,.031-1.338,5.45-2.988,11.024-5.037,15.945l-4.525-2.741c2.049-3.924,3.643-8.377,4.838-12.955-1.252,.062-2.533,.187-3.87,.312l-.285-5.139c1.821,0,3.586,0,5.265-.062,.427-2.118,.74-4.235,.996-6.322l4.895,.529c-.342,1.838-.74,3.737-1.167,5.699,.455,0,.854-.031,1.224-.031h.142c3.671,0,5.265,1.277,5.265,5.077v.404c-.114,3.831-.37,7.599-.683,9.935-.341,2.647-1.736,5.015-6.631,5.015-.455,0-.939-.031-1.451-.062l-.968-5.668Zm13.603-5.015c-.797-3.487-2.903-7.91-4.695-10.184l4.126-2.18c1.821,2.585,3.984,6.883,5.122,9.966l-4.553,2.397Z"/>
    <path class="cls-1" d="M166.587,283.81c-1.053,2.834-1.821,5.201-2.447,6.789-.569,1.495-1.366,2.242-2.134,2.242-2.874,0-2.874-9.062-2.874-10.121,0-5.419,.911-11.305,1.651-15.479l4.724,.935c-1.651,4.329-2.248,10.932-2.248,14.419,0,.748,0,1.869,.228,1.869,.199,0,.569-.592,1.338-2.398l1.764,1.744Zm15.481,7.35c-2.02,.28-4.382,.405-6.346,.405-3.187,0-8.509-.062-8.509-5.575,0-1.183,.256-2.522,.74-4.079l4.155,.903c-.37,.996-.541,1.713-.541,2.211,0,1.059,.484,1.588,3.785,1.588,1.935,0,4.069-.28,6.574-.996l.142,5.543Zm-.939-16.724c-2.22,.218-4.809,.312-7.342,.312-1.907,0-3.756-.062-5.464-.155v-4.983c1.878,.218,4.098,.343,6.318,.343,2.362,0,4.695-.125,6.602-.374l-.114,4.858Z"/>
    <path class="cls-1" d="M186.51,273.782s-1.679-2.678-3.443-4.858l3.671-3.021c1.878,2.18,3.614,4.89,3.614,4.89l-3.842,2.989Zm8.167,19.185c-2.732,0-4.382-.654-5.635-1.713-.768,.903-1.793,1.899-3.045,2.585l-2.903-4.329c2.134-1.308,2.874-2.242,2.874-2.242v-6.073h-2.59v-4.671h7.143v9.841c.228,.405,.455,.717,.797,.997l-.37-4.298h.768v-16.662h15.509v13.579h-1.081l2.447,1.713s-.882,.934-2.077,1.806c1.138,.592,2.22,.997,2.22,.997l-2.248,3.363,2.277-.031-.996,5.139h-13.091Zm5.236-6.073s-2.163,.623-7.427,.903c.541,.125,1.252,.187,2.191,.187l9.676-.093c-1.138-.592-2.732-1.65-4.354-3.488l-.085,2.491Zm2.76-16.475h-6.403v1.059h6.403v-1.059Zm0,4.484h-6.403v1.06h6.403v-1.06Zm-6.403,5.077v2.927c.911-.062,1.679-.124,2.333-.218-.569-.778-1.11-1.713-1.651-2.709h-.683Zm5.606,0c.313,.373,.74,.778,1.224,1.152,.455-.343,.854-.779,1.138-1.152h-2.362Z"/>
    <path class="cls-1" d="M228.601,293.87v-1.34h-14.229v1.34h-4.838v-12.769h4.838v6.446h4.696v-8.378h-8.736v-11.554h4.838v6.571h3.899v-8.347h4.838v8.347h3.842v-6.571h4.838v11.554h-8.68v8.378h4.696v-6.446h4.838v12.769h-4.838Z"/>
    <path class="cls-1" d="M259.139,283.032c-1.878,4.11-5.265,8.315-10.074,9.748-1.053,.312-2.106,.467-3.159,.467-3.956,0-7.541-2.367-7.541-8.066v-.187c.057-2.398,.228-8.315,.228-13.703,0-1.557-.028-3.114-.057-4.484l5.037,.124c-.37,5.887-.512,15.385-.569,17.503v.187c0,2.087,1.025,3.457,3.017,3.457,3.813,0,7.883-4.641,9.163-9l3.956,3.955Z"/>
    <path class="cls-1" d="M279.802,292.561c-8.623,0-13.091-3.021-14.058-8.813-.085-.498-.114-1.027-.114-1.525,0-3.551,1.992-6.728,4.183-8.378-3.643,.249-5.834,.498-9.163,.872l-.512-5.325c6.118,0,18.867-.686,23.108-1.309l.968,5.107h-.171c-8.452,0-13.66,4.641-13.66,8.845,0,3.271,3.614,5.264,8.224,5.264,.968,0,1.964-.062,2.988-.249l-.882,5.512h-.911Z"/>
    <path class="cls-1" d="M303.424,294.554c-5.407-6.135-10.102-9.529-13.603-11.803-1.508-.966-2.248-2.149-2.248-3.332,0-1.152,.711-2.305,2.106-3.239,3.842-2.585,8.139-6.291,12.436-10.932l3.842,4.329c-3.984,3.8-7.712,6.446-11.212,9.031-.37,.28-.541,.499-.541,.717,0,.187,.171,.404,.541,.654,3.045,2.023,8.68,6.229,12.379,9.841l-3.699,4.733Z"/>
    <path class="cls-1" d="M311.395,291.378c2.049-4.485,3.956-10.371,5.265-15.945-1.423,.062-2.76,.093-3.813,.093l-.228-4.982c.797,.062,1.85,.093,3.016,.093,.626,0,1.309,0,2.021-.03,.285-1.651,.512-3.208,.655-4.672l4.781,.498c-.171,1.246-.398,2.554-.683,3.893,1.537-.124,2.988-.311,4.098-.498l-.114,4.921c-1.394,.155-3.159,.312-5.009,.436-1.451,6.136-3.443,12.77-5.578,18.779l-4.411-2.584Zm23.961,1.151c-2.078,.25-4.781,.405-6.887,.405-2.504,0-7.826-.094-7.826-5.605,0-1.121,.228-2.398,.655-3.769l4.24,.778c-.228,.841-.484,1.62-.484,2.212,0,1.432,1.451,1.463,3.273,1.463,1.907,0,4.326-.218,6.716-.685l.313,5.2Zm-.541-11.647c-1.821-.155-3.785-.249-5.805-.249-1.85,0-3.756,.094-5.663,.249l-.199-4.889c1.736-.031,3.386-.062,5.094-.062,2.078,0,4.24,.031,6.745,.155l-.171,4.796Zm-2.988-7.474c-.854-1.091-1.878-2.305-2.846-3.271l1.907-1.713c.996,.966,1.992,2.056,2.903,3.146l-1.964,1.838Zm2.618-2.242c-.854-.966-1.85-2.087-2.874-3.084l1.907-1.682c.968,.872,2.106,1.962,2.903,2.928l-1.935,1.838Z"/>
    <path class="cls-1" d="M358.068,291.751c-2.846,.561-5.492,.841-7.797,.841-6.432,0-10.586-2.211-10.586-7.038,0-6.229,5.435-7.194,8.537-7.194,.939,0,1.907,.094,2.846,.219-.455-.903-.882-1.9-1.338-2.959-3.699,.404-7.456,.747-10.814,.903l-.683-5.076c.655,.03,1.366,.062,2.106,.062,2.277,0,4.923-.187,7.57-.436-.455-1.152-.911-2.367-1.394-3.706l4.667-1.433c.341,1.308,.825,2.896,1.451,4.547,2.675-.405,5.179-.872,7.143-1.339l.626,4.951c-1.821,.312-3.756,.623-5.805,.903,1.338,2.771,2.96,5.356,4.695,7.007l-3.358,3.271c-1.878-1.65-4.752-2.46-7.171-2.46-2.447,0-4.411,.81-4.525,2.397v.125c0,1.65,2.305,2.336,5.265,2.336,2.817,0,6.204-.623,8.68-1.683l-.114,5.762Z"/>
    <path class="cls-1" d="M375.629,285.368c-3.045,5.699-4.411,7.069-6.488,7.069-1.85,0-3.614-1.558-4.354-4.734-.484-2.023-.683-4.577-.683-7.256,0-4.298,.541-9.031,1.394-12.737l4.752,.841c-1.138,4.11-1.565,8.564-1.565,12.177,0,4.578,.37,5.045,.74,5.045,.683,0,2.476-3.737,2.618-4.018l3.586,3.613Zm7.456,2.585c-.455-5.107-2.191-10.434-5.037-14.389l3.956-2.429c3.045,3.768,5.35,10.184,5.919,15.26l-4.838,1.558Z"/>
  </g>
  <g>
    <path class="cls-1" d="M174.4,201.878v1.993h-3.842v-25.164h8.68v23.171h-4.838Zm.996-18.811h-.996v4.796h.996v-4.796Zm0,9.156h-.996v5.294h.996v-5.294Zm10.188,7.941l-2.504,1.744s-1.451-2.928-2.789-4.858l2.447-1.433h-2.618v-4.516h8.907v-1.526h-9.078v-4.516h5.492v-1.309h-5.037v-4.516h5.037v-2.242h4.553v2.242h4.639v4.516h-4.639v1.309h5.037v4.516h-1.451v1.526h1.622v4.516h-1.622v4.329c0,3.986-.256,5.076-6.346,5.076l-1.651-4.858Zm3.443-4.547h-4.354c.797,1.121,2.277,3.519,2.277,3.519l-1.081,.748h1.736c1.281,0,1.423-.312,1.423-.903v-3.363Z"/>
    <path class="cls-1" d="M196.258,205.055v-27.157h11.355v11.461h-6.801v15.696h-4.553Zm7.171-23.731h-2.618v.935h2.618v-.935Zm0,3.675h-2.618v.935h2.618v-.935Zm9.59,18.25h-10.785v-12.862h11.411v9.562c1.508,0,1.622-.156,1.622-.437v-10.152h-6.801v-11.461h11.355v21.146c0,4.702-.199,5.886-6.175,5.886l-.626-1.682Zm-3.586-9.094h-2.988v1.059h2.988v-1.059Zm0,4.267h-2.988v1.059h2.988v-1.059Zm5.834-17.098h-2.59v.935h2.59v-.935Zm0,3.675h-2.59v.935h2.59v-.935Z"/>
    <path class="cls-1" d="M236.983,200.165c-.683,1.619-1.622,3.208-2.846,4.733l-2.789-3.581c-.398,.404-1.337,.467-2.333,.467h-2.675c-1.821,0-3.102-.218-3.102-2.522v-10.184l-1.964,.343-.455-5.481,2.419-.312v-6.634h4.553v5.979l3.984-.747v-4.173h13.944v17.782c0,7.226-.199,8.782-7.314,8.907l-1.423-4.578Zm-4.326-2.367c1.907-4.049,2.021-8.938,2.021-14.45h-2.618l.028,4.204-4.297,.654v8.377c0,.219,.028,.219,.313,.219h.711c.228,0,.256-.249,.256-1.091v-4.453l3.586,1.775v4.765Zm8.224-14.45h-1.594c0,5.574-.028,11.181-1.964,16.069,3.329,0,3.557-.062,3.557-2.086v-13.983Z"/>
    <path class="cls-1" d="M272.985,199.854c-2.134,2.554-4.439,3.706-6.346,3.706-2.504,0-4.326-2.024-4.326-5.605,0-.468,.028-.966,.085-1.495,.285-2.18,.455-4.267,.939-7.692,.029-.125,.029-.249,.029-.343,0-.561-.256-.841-.626-.841-1.053,0-4.326,2.865-6.574,5.325,.057,3.862,.228,7.786,.541,11.523l-4.866,.249c-.028-1.807-.028-4.173-.028-6.82-.825,1.121-1.651,2.367-2.362,3.52l-2.988-4.703c1.736-1.868,3.785-4.609,5.379-6.883,.028-.872,.028-1.713,.028-2.616-1.167,.219-2.476,.437-3.899,.561l-.768-5.107c1.394,0,3.045-.155,4.724-.404,.028-1.775,.057-3.52,.085-5.17l4.667,.312c-.114,1.152-.228,2.397-.285,3.737,.199-.094,.427-.156,.626-.249l1.622,2.18c-.882,.872-1.679,1.713-2.447,2.71,0,.373-.028,.747-.028,1.151,2.163-2.086,5.151-4.608,7.94-4.608,1.366,0,4.098,.716,4.098,4.671,0,2.211-.683,5.107-.996,8.721,0,.155-.029,.312-.029,.436,0,.872,.228,1.339,.655,1.339,.711,0,1.935-1.245,3.415-3.861l1.736,6.26Z"/>
  </g>
  <g>
    <g>
      <g>
        <polygon class="cls-2" points="315.865 38.218 312.517 73.322 278.536 36.602 197.296 44.241 198.512 62.495 196.974 57.539 130.946 43.036 130.946 22.718 41.06 39.85 25.176 152.696 130.209 142.341 130.574 145.248 204.578 153.628 204.981 159.694 305.22 149.811 304.607 156.234 418.675 156.234 424.601 26.256 315.865 38.218"/>
        <polygon class="cls-2" points="308.865 31.218 305.517 66.322 271.536 29.602 190.296 37.241 191.512 55.495 189.974 50.539 123.946 36.036 123.946 15.718 34.06 32.85 18.176 145.696 123.209 135.341 123.574 138.248 197.578 146.628 197.981 152.694 298.22 142.811 297.607 149.234 411.675 149.234 417.601 19.256 308.865 31.218"/>
      </g>
      <polygon class="cls-3" points="308.865 31.218 305.517 66.322 271.536 29.602 190.296 37.241 191.512 55.495 189.974 50.539 123.946 36.036 123.946 15.718 34.06 32.85 18.176 145.696 123.209 135.341 123.574 138.248 197.578 146.628 197.981 152.694 298.22 142.811 297.607 149.234 411.675 149.234 417.601 19.256 308.865 31.218"/>
    </g>
    <g>
      <path class="cls-1" d="M100.992,131.744c-8.573,0-10.049-1.854-10.049-8.751v-25.018h-3.042c-.554,16.987-5.532,28.621-16.227,35.621l-5.439-12.251c-.461,8.442-2.397,10.707-13.737,10.707l-4.056-13.796c-.553,5.045-1.844,10.811-3.596,15.134l-10.694-12.662c3.227-8.648,3.503-23.988,3.503-32.224V43.926h28.672V115.786c5.163-3.706,7.745-9.471,8.113-17.811h-5.531V61.222h7.468c-1.106-3.81-3.504-10.295-5.993-15.134l13.091-5.045c3.596,7.516,6.915,16.061,6.915,16.061l-10.418,4.118h12.262c4.701-10.913,6.453-19.973,6.453-19.973l15.673,3.089s-2.674,8.339-6.822,16.884h6.638v36.753h-9.219v16.369c0,1.133,.646,1.133,1.475,1.133,.738,0,1.476-.309,1.476-1.75v-12.045l9.127,4.735v12.045c0,11.119-4.241,13.281-11.155,13.281h-4.887Zm-47.572-28.518h-3.227c-.276,4.118-.738,8.545-1.383,12.869,4.241,0,4.609,0,4.609-3.501v-9.368Zm0-44.989h-2.766v7.824h2.766v-7.824Zm0,22.134h-2.766v8.545h2.766v-8.545Zm46.004-4.118h-15.765v6.795h15.765v-6.795Z"/>
      <path class="cls-1" d="M129.692,135.436v-33.108h12.86v21.83h9.112v-29.471h-19.842v-29.106h12.934v17.736h6.908v-25.104h12.86v25.104h6.907v-17.736h12.86v29.106h-19.768v29.471h9.112v-21.83h12.859v33.108h-56.805Z"/>
      <path class="cls-1" d="M258.811,90.572c10.04,10.283,19.332,15.545,31.87,19.354,3.349,.969,4.87,4.137,5.021,7.667,.263,6.152-3.683,13.697-9.539,13.946-.958,.041-2.031-.114-3.118-.573-14.097-5.36-25.695-14.667-33.892-26.745-6.452,13.814-18.506,23.828-36.376,30.047-.843,.238-1.58,.472-2.325,.503-6.07,.26-10.537-6.926-10.791-12.877-.164-3.832,1.292-7.229,4.98-8.296,17.287-4.881,27.646-12.093,32.873-22.117l-33.224,1.418c-3.621,.154-5.658-2.588-5.778-5.411-.116-2.724,1.68-5.63,5.301-5.784l36.737-1.567c.31-2.742,.398-5.676,.261-8.903l-.198-4.64-20.659,.881c-1.867,3.719-4.891,7.889-7.653,10.634-1.23,1.165-2.593,1.727-4.084,1.791-4.259,.182-8.683-3.469-8.846-7.302-.057-1.311,.42-2.645,1.544-3.805,5.825-6.008,10.021-12.653,12.587-20.038,.854-2.462,3.367-3.579,5.923-3.688,3.728-.159,7.643,1.593,7.768,4.519,.013,.302-.076,.71-.166,1.119-.562,1.843-1.123,3.686-1.896,5.537l15.014-.641-.349-8.17c-.133-3.127,3.312-4.891,6.826-5.041,3.514-.149,7.203,1.31,7.336,4.437l.349,8.17,28.326-1.209c3.727-.159,5.653,2.486,5.77,5.209,.12,2.825-1.573,5.625-5.301,5.784l-28.325,1.209,.198,4.64c.138,3.228,.046,6.061-.26,8.903l33.862-1.445c3.62-.155,5.444,2.597,5.561,5.32,.12,2.823-1.463,5.72-5.083,5.875l-30.242,1.29Z"/>
      <path class="cls-1" d="M318.378,108.345l7.571,6.994-17.236,15.464-7.556-7.095,17.221-15.363Zm.827-.286l-10.516-1.588,9.807-64.936,10.516,1.588-2.804,18.567,14.048,1.197-.711,8.414-14.596-1.28-1.485,9.835,14.268,1.23-.586,8.329-14.924-1.33-1.501,9.937,18.022,1.592,6.896-45.665-13.813-1.265,.614-8.53,19.461,1.707,4.859,5.661-9.032,59.817-10.516-1.588,.242-1.606-18.022-1.593-.228,1.506Zm29.339,20.137l-9.314,4.547-10.561-17.608,9.313-4.548,10.562,17.609Zm44.438,15.847l-17.016-29.772-20.623,23.062-8.648-6.541,23.596-26.411-7.633-13.266,9.767-4.581,5.503,9.556,18.183-20.248-19.461-1.707,.678-8.932-15.262,26.131-9.671-4.951,23.774-40.961,9.781,4.967-8.174,14.062,34.4,2.937-.798,9.734-14.815-1.313,8.335,6.391-21.418,23.866,19.157,33.381-9.655,4.599Z"/>
    </g>
  </g>
</svg>