<?xml version="1.0" encoding="UTF-8"?>
<svg id="_レイヤー_1" data-name="レイヤー 1" xmlns="http://www.w3.org/2000/svg" viewBox="0 0 702.662 161.981">
  <defs>
    <style>
      .cls-1 {
        fill: #fff;
      }
    </style>
  </defs>
  <polygon class="cls-1" points="221.785 134.062 12.938 146.704 6.837 39.418 233.756 13.936 221.785 134.062"/>
  <g>
    <path d="M87.029,98.339l6.304-35.749h2.781l.325-1.841h-18.936c-.681,1.981-2.868,7.999-3.253,9.062l-7.877,44.669h-15.493l7.34-41.625h-1.655c1.149-2.762,5.521-13.664,9.274-26.689h16.155c-.062,.354-.138,.779-.445,1.77h17.148l.312-1.77h18.472l-.312,1.77h7.349l-2.259,12.814h-7.349l-.325,1.841h6.355l-6.304,35.749h-27.608Zm-3.034,14.584l-.274,1.557h-15.493l8.862-50.262h14.036l-6.354,36.033h30.853l-2.246,12.741-29.384-.069Zm21.137-25.628h-4.701l-.424,2.407h4.701l.424-2.407Zm1.448-8.211h-4.701l-.399,2.265h4.701l.399-2.265Zm1.448-8.212h-4.701l-.399,2.265h4.701l.399-2.265Z"/>
    <path d="M178.595,114.479c-9.563-.213-13.856-1.77-17.586-5.026-5.01,3.257-9.696,4.673-17.77,5.026l.387-5.946c-2.499,.282-5.264,.566-7.765,.85l-.898,5.097h-16.552l.674-3.823c-.885,.143-1.759,.213-2.367,.284l1.994-15.433c.86,0,1.745-.142,3.107-.354l8.363-47.43h1.589c8.74,0,15.104-.426,23.17-1.487-.305,11.113-.318,8.565-.315,13.805,.765-2.832,1.976-9.699,2.537-12.885h24.562l-2.172,12.318c-.438,2.478-.106,2.478,.556,2.478,.729,0,1.471-1.203,2.294-5.876l.799-4.531,6.905,1.771c-3.745,21.238-5.115,21.875-10.015,21.875h-8.938c-3.377,0-5.312-1.416-4.301-7.15l1.161-6.583h-1.854c-1.086,6.158-2.285,10.335-4.011,14.866l-12.032-1.982c1.647-4.46,3.125-8.707,4.255-13.238-3.439,.354-6.511,.495-10.136,.778l-.374,2.124h7.812l-2.234,12.672h-7.812l-.375,2.124h7.812l-2.271,12.884h-7.812l-.462,2.62c3.229-.284,6.365-.426,8.69-.851l-1.036,5.876c1.747-.141,2.897-.283,4.521-.85-.9-2.406-1.502-4.247-1.814-6.229,6.593-1.346,4.466-.92,11.311-2.194h-11.388l2.297-13.025h33.303l-2.297,13.025c-.232,.566-2.106,4.813-4.717,8.354,1.675,.637,3.16,.849,4.538,.92l-3.333,15.149Zm-16.218-24.423c.858,2.265,1.209,2.902,1.896,3.893,1.151-1.273,1.806-1.981,2.871-3.893h-4.767Z"/>
  </g>
  <g>
    <path class="cls-1" d="M271.638,110.41l7.439-42.191h-13.151l2.692-15.27c9.657-.642,14.188-4.179,17.017-9.562h22.169l-11.818,67.023h-24.348Z"/>
    <path class="cls-1" d="M397.035,115.715c-18.923-1.366-27.422-3.456-32.093-14.467-8.466,10.931-17.792,13.101-37.196,14.467l4.029-32.227c16.725-3.214,21.539-8.357,24.359-24.35l3.685-20.896h32.464l-3.713,21.056c-2.777,15.751,.21,20.976,15.8,24.189l-7.335,32.227Z"/>
    <path class="cls-1" d="M421.861,110.49l1.955-11.09c2.111-11.974,11.402-21.618,24.732-27.324,6.344-2.732,10.262-4.5,10.829-7.715,.326-1.849-1.354-2.974-3.383-2.974-2.255,0-4.797,1.206-5.622,4.18h-20.291c3.188-16.797,14.515-24.351,30.597-24.351,14.805,0,22.531,8.599,20.35,20.975-1.928,10.931-7.562,18.163-18.946,21.778-3.101,.965-7.423,2.895-11.08,5.306h24.875l-3.741,21.215h-50.274Z"/>
    <path class="cls-1" d="M481.547,76.738c4.351-24.673,14.906-35.521,32.717-35.521s24.539,10.849,20.188,35.521c-3.981,22.582-15.009,35.682-32.743,35.682s-24.144-13.1-20.162-35.682Zm30.285,0c1.941-11.01,.541-14.145-1.338-14.145-1.954,0-4.493,2.893-6.478,14.145-2.125,12.054-.46,14.546,1.419,14.546s4.285-2.571,6.396-14.546Z"/>
    <path class="cls-1" d="M536.484,76.738c4.351-24.673,14.906-35.521,32.717-35.521s24.539,10.849,20.188,35.521c-3.981,22.582-15.009,35.682-32.743,35.682s-24.144-13.1-20.162-35.682Zm30.285,0c1.941-11.01,.541-14.145-1.338-14.145-1.954,0-4.493,2.893-6.478,14.145-2.125,12.054-.46,14.546,1.419,14.546s4.285-2.571,6.396-14.546Z"/>
    <path class="cls-1" d="M633.023,115.715l1.297-20.573h19.163c2.255,0,3.608-1.286,4.218-4.742h-26.602l-4.465,25.315h-22.168l13.391-75.944h70.94l-10.926,61.961c-1.855,10.527-5.095,13.983-14.188,13.983h-30.66Zm7.466-55.13h-4.133l-1.828,10.366h4.133l1.828-10.366Zm22.47,0h-4.434l-1.828,10.366h4.434l1.828-10.366Z"/>
  </g>
</svg>