<?xml version="1.0" encoding="UTF-8"?>
<svg id="_レイヤー_1" data-name="レイヤー 1" xmlns="http://www.w3.org/2000/svg" viewBox="0 0 479.103 146.704">
  <defs>
    <style>
      .cls-1 {
        fill: #fff;
      }
    </style>
  </defs>
  <polygon points="445.566 125.083 17.13 137.726 4.613 30.439 470.124 4.958 445.566 125.083"/>
  <g>
    <path class="cls-1" d="m80.769,106.919c-.365-8.07.349-23.008,1.031-31.008l-2.983,16.92c-3.184,18.052-4.434,18.761-25.818,18.761l.326-16.495c-1.436,4.389-2.913,8.637-4.295,11.964l-16.391-3.54c4.811-10.761,8.755-24.494,10.591-32.281l16.285,2.266c-.984,4.46-2.77,10.831-4.768,17.273,3.654-.07,3.987-1.203,4.486-4.035l3.146-17.84h-20.988l3.308-18.76h20.988l.986-5.593h20.656l-.986,5.593h6.82c.609,2.549,1.074,5.168,1.453,8.283l10.741-3.47-2.459,13.946h-19.863l-.874,4.956,16.869-2.549c-.632,7.716-1,21.449-.494,31.715l-17.768,3.894Zm15.658-51.254c-.283-2.902-1.141-6.3-2.019-9.202l4.371-1.134c.932,2.975,1.814,6.23,2.267,8.921l-4.619,1.415Zm6.651-2.053c-.374-2.761-1.271-6.301-2.015-8.85l4.305-1.132c.846,2.336,1.836,5.734,2.264,8.565l-4.554,1.416Z"/>
    <path class="cls-1" d="m111.176,77.893c-.099-9.202-1.339-18.688-3.045-27.042l17.905-3.54c1.562,7.292,2.678,16.354,2.66,26.972l-17.521,3.61Zm-.851,10.832c19.719-1.062,29.123-4.46,35.186-17.061l-14.579,1.203c.253-9.698-.441-18.901-1.721-27.043l18.18-1.345c.642,4.247,1.132,11.61.96,21.592,1.649-6.726,2.302-10.053,2.889-13.38.438-2.479.849-4.814,1.079-6.867l21.388,1.486c-7.844,44.104-20.805,62.793-61.037,64.917l-2.344-23.503Z"/>
    <path class="cls-1" d="m210.825,112.016l1.145-10.618c-2.345,6.159-3.521,8.707-4.43,10.477l-7.64-3.61-.374,2.124c-8.703.92-22.202,1.628-33.788,1.628l.805-11.326h2.781c1.986,0,4.7,0,7.981-.213l.387-2.194h-9.401l1.486-8.425h9.401l.324-1.84h-9.6l3.92-22.229h9.6l.324-1.841h-10.063l1.498-8.494h10.063l.337-1.911c-3.653.07-5.441.07-8.222.07l-.215-8.919c20.988,0,26.993-.638,30.576-1.062l2.128,8.212.549-3.115h3.046l.887-5.026h13.175l-.887,5.026h12.183l-7.053,39.998c-3.944,22.37-6.159,23.29-14.965,23.29h-5.959Zm-26.621-32.635h-2.913l-.437,2.479h2.913l.437-2.479Zm1.311-7.434h-2.913l-.437,2.479h2.913l.437-2.479Zm15.616,26.335h-8.806l-.374,2.124s4.142-.213,8.521-.637l.659-1.487Zm-5.738-18.901h-2.913l-.437,2.479h2.913l.437-2.479Zm1.311-7.434h-2.913l-.437,2.479h2.913l.437-2.479Zm4.635,25.91c4.779-12.459,6.739-19.821,8.612-30.44h-2.582l-3.633,20.601h-9.6l-.324,1.84h8.938l-1.411,8Zm6.377-33.91h-9.335l-.324,1.841h9.335l.324-1.841Zm2.01-11.397c-1.916.354-4.098.708-9.485.851l-.361,2.053h9.335l.512-2.903Zm6.2,41.061c1.986,0,2.33-1.204,2.954-4.743l3.833-21.733h-1.722c-1.889,10.336-3.746,18.618-5.992,26.477h.927Z"/>
    <path class="cls-1" d="m278.356,112.016l.287-1.628h-31.382l-.274,1.558h-14.566l9.124-51.749h14.434l-6.54,37.095h31.647l6.541-37.095h14.434l-9.138,51.819h-14.566Zm-26.607-16.564l6.166-34.972h6.555l.412-2.337h-24.695l2.372-13.449h63.956l-2.372,13.449h-24.629l-.412,2.337h6.488l-6.166,34.972h-27.675Zm11.662-13.946h-2.317l-.699,3.964h2.317l.699-3.964Zm1.96-11.114h-2.317l-.637,3.61h2.317l.637-3.61Zm9.626,11.114h-2.384l-.699,3.964h2.384l.699-3.964Zm1.96-11.114h-2.384l-.637,3.61h2.384l.637-3.61Z"/>
    <path class="cls-1" d="m296.484,109.821c3.461-10.618,7.964-27.893,11.745-44.457h-2.979l3.184-18.053h3.708l.512-2.902h20.26l-.512,2.902h38.268l-3.184,18.053h-38.93c-3.932,17.415-8.583,35.538-11.701,46.085l-20.37-1.628Zm63,.92c-4.812.638-12.493.638-18.386.638-14.896,0-20.094-4.318-18.371-14.088.736-4.176,2.179-6.725,4.127-10.265h17.678c-.51.638-.795,1.133-.933,1.912-.212,1.203,1.346,2.123,9.755,2.123,4.038,0,6.725-.212,9.725-.708l-3.595,20.388Zm-32.441-25.909l2.972-16.849h37.01l-2.972,16.849h-37.01Z"/>
    <path class="cls-1" d="m405.734,67.347c-1.354.92-2.592,1.557-7.195,3.256,5.202-.212,7.135-.283,8.856-.283,21.055,0,25.312,5.522,22.84,19.538-2.759,15.646-12.084,21.592-38.104,21.592-12.116,0-19.419-.637-24.752-1.557l3.483-19.751c5.928.92,12.669.99,24.852.99,7.613,0,11.492-1.345,11.629-2.123.162-.921-3.255-2.195-10.868-2.195-7.019,0-15.819.354-25.627.779l1.323-16.141c2.442-.708,4.615-1.77,7.94-4.105h-8.144l3.309-18.761h16.816c.552-1.628.975-2.902,1.332-4.177h24.961c-.291,1.274-.57,2.479-1.067,4.177h20.193l-3.309,18.761h-28.47Z"/>
  </g>
</svg>