<?xml version="1.0" encoding="UTF-8"?>
<svg id="_レイヤー_1" data-name="レイヤー 1" xmlns="http://www.w3.org/2000/svg" viewBox="0 0 702.662 161.981">
  <defs>
    <style>
      .cls-1 {
        fill: #fff;
      }
    </style>
  </defs>
  <polygon class="cls-1" points="221.785 134.062 12.938 146.704 6.837 39.418 233.756 13.936 221.785 134.062"/>
  <g>
    <path d="m92.577,114.498l1.51-8.565c-4.25,1.203-11.005,2.337-16.918,2.832l.687-3.895c-1.018-.99-1.823-2.052-3.107-4.53l-2.496,14.158h-15.824l2.671-15.149c-2.658,5.311-5.479,8.921-8.498,11.397l3.129-21.874c2.286-1.699,3.964-3.327,6.379-6.513h-4.634l2.472-14.018h7.415l.562-3.186-6.392,1.699c.698-7.716.955-15.929,1.053-17.981l6.217-1.841c-.224,5.026-.362,10.689-.641,16.778l3.108-17.628h14.234l-2.709,15.362c1.965-4.389,3.709-9.77,4.918-14.37l5.979.636.382-1.415c1.712.425,7.115,1.699,11.624,3.539l-4.836,15.787c-4.111-1.841-9.076-2.973-11.426-3.54-.722,1.841-1.302,3.257-1.937,4.602l-5.378-1.416-.524,2.974h6.621l-2.234,12.672,4.714-14.725c1.727.354,6.955,1.486,11.438,3.469l-4.782,15.857c-4.178-1.841-8.72-3.114-11.545-3.611l-.062.355h-3.906c2.269,2.902,4.373,4.105,5.172,4.459l-.45,2.549c4.206-.566,8.953-1.203,12.859-2.336l7.203-40.848h17.876l-6.679,37.874c1.188-.354,2.178-.708,2.836-1.062l-3.271,18.548c-.435.212-1.437.637-2.823.99l-2.109,11.964h-17.876Z"/>
    <path d="m115.477,113.79l3.095-17.556h4.965l.278-4.956,14.331-.921-.374,5.877h2.449l1.199-6.797h-19.929l2.421-13.733h19.929l.388-2.194h-10.99l.236-1.345c-3.712.778-7.164,1.203-10.908,1.415l3.572-22.512c9.993-.354,16.239-1.982,20.533-5.31h25.556c3.122,3.327,8.794,4.956,18.662,5.31l-4.367,22.512c-2.955-.141-5.54-.495-8.552-1.062l-.175.991h-12.91l-.388,2.194h19.929l-2.421,13.733h-19.929l-1.199,6.797h2.78l1.5-5.877,14.271.921-1.404,4.956h4.502l-3.095,17.556h-63.956Zm43.891-51.04c-1.104-1.629-1.496-2.407-2.239-3.823-1.243,1.416-1.91,2.194-3.588,3.823h5.827Z"/>
  </g>
  <g>
    <path class="cls-1" d="m271.623,110.429l7.439-42.19h-13.151l2.692-15.27c9.657-.643,14.188-4.179,17.017-9.563h22.169l-11.818,67.023h-24.348Z"/>
    <path class="cls-1" d="m397.019,115.734c-18.922-1.367-27.422-3.457-32.093-14.467-8.465,10.93-17.791,13.1-37.195,14.467l4.029-32.227c16.724-3.215,21.539-8.357,24.359-24.351l3.684-20.896h32.464l-3.712,21.057c-2.778,15.751.209,20.975,15.8,24.189l-7.336,32.227Z"/>
    <path class="cls-1" d="m421.845,110.51l1.956-11.091c2.111-11.974,11.401-21.617,24.731-27.323,6.345-2.732,10.263-4.5,10.829-7.715.326-1.849-1.354-2.974-3.383-2.974-2.255,0-4.797,1.206-5.621,4.18h-20.291c3.187-16.797,14.514-24.352,30.596-24.352,14.805,0,22.532,8.599,20.35,20.976-1.927,10.93-7.561,18.162-18.945,21.778-3.101.965-7.424,2.894-11.08,5.305h24.874l-3.741,21.216h-50.274Z"/>
    <path class="cls-1" d="m481.531,76.757c4.35-24.672,14.906-35.521,32.717-35.521s24.539,10.85,20.188,35.521c-3.982,22.582-15.009,35.683-32.744,35.683s-24.144-13.101-20.161-35.683Zm30.286,0c1.941-11.01.54-14.144-1.339-14.144-1.955,0-4.494,2.893-6.478,14.144-2.126,12.055-.461,14.546,1.418,14.546s4.286-2.571,6.398-14.546Z"/>
    <path class="cls-1" d="m536.469,76.757c4.35-24.672,14.906-35.521,32.717-35.521s24.539,10.85,20.188,35.521c-3.982,22.582-15.009,35.683-32.744,35.683s-24.144-13.101-20.161-35.683Zm30.286,0c1.941-11.01.54-14.144-1.339-14.144-1.955,0-4.494,2.893-6.478,14.144-2.126,12.055-.461,14.546,1.418,14.546s4.286-2.571,6.398-14.546Z"/>
    <path class="cls-1" d="m633.007,115.734l1.298-20.574h19.163c2.255,0,3.608-1.285,4.218-4.742h-26.603l-4.464,25.316h-22.169l13.392-75.945h70.94l-10.926,61.961c-1.856,10.527-5.096,13.984-14.188,13.984h-30.661Zm7.466-55.131h-4.133l-1.828,10.367h4.133l1.828-10.367Zm22.47,0h-4.434l-1.827,10.367h4.434l1.827-10.367Z"/>
  </g>
</svg>